<?xml version="1.0" encoding="UTF-8"?>
<svg id="Capa_1" data-name="Capa 1" xmlns="http://www.w3.org/2000/svg" xmlns:xlink="http://www.w3.org/1999/xlink" viewBox="0 0 793.13 387.56">
  <defs>
    <style>
      .cls-1, .cls-2, .cls-3 {
        fill: none;
      }

      .cls-4 {
        fill: #eeecfe;
      }

      .cls-5 {
        fill: #f28393;
      }

      .cls-6 {
        fill: #e55a75;
      }

      .cls-7, .cls-8 {
        fill: #fff;
      }

      .cls-9 {
        fill: #fcc660;
      }

      .cls-10 {
        fill: #743a32;
      }

      .cls-11 {
        fill: #4fb678;
      }

      .cls-12 {
        fill: url(#Puntos);
      }

      .cls-12, .cls-13 {
        opacity: .42;
      }

      .cls-2 {
        stroke: #fcc660;
        stroke-width: 8.21px;
      }

      .cls-2, .cls-3 {
        stroke-linecap: round;
        stroke-miterlimit: 10;
      }

      .cls-3 {
        stroke: #743a32;
        stroke-width: 3.45px;
      }

      .cls-13 {
        fill: url(#Puntos-2);
      }

      .cls-8 {
        opacity: .5;
      }
    </style>
    <pattern id="Puntos" x="0" y="0" width="135" height="135" patternTransform="translate(-2901.95 -544.4)" patternUnits="userSpaceOnUse" viewBox="0 0 135 135">
      <g>
        <rect class="cls-1" width="135" height="135"/>
        <circle class="cls-8" cx="94.5" cy="137.7" r="5.91"/>
        <circle class="cls-8" cx="121.5" cy="126.9" r="5.91"/>
        <circle class="cls-8" cx="94.5" cy="110.7" r="5.91"/>
        <circle class="cls-8" cx="67.5" cy="121.5" r="5.91"/>
        <circle class="cls-8" cx="40.5" cy="132.3" r="5.91"/>
        <circle class="cls-8" cx="13.5" cy="116.1" r="5.91"/>
        <circle class="cls-8" cx="121.5" cy="99.9" r="5.91"/>
        <circle class="cls-8" cx="94.5" cy="83.7" r="5.91"/>
        <circle class="cls-8" cx="67.5" cy="94.5" r="5.91"/>
        <circle class="cls-8" cx="40.5" cy="105.3" r="5.91"/>
        <circle class="cls-8" cx="13.5" cy="89.1" r="5.91"/>
        <circle class="cls-8" cx="121.5" cy="72.9" r="5.91"/>
        <circle class="cls-8" cx="94.5" cy="56.7" r="5.91"/>
        <circle class="cls-8" cx="67.5" cy="67.5" r="5.91"/>
        <circle class="cls-8" cx="40.5" cy="78.3" r="5.91"/>
        <circle class="cls-8" cx="13.5" cy="62.1" r="5.91"/>
        <circle class="cls-8" cx="121.5" cy="45.9" r="5.91"/>
        <circle class="cls-8" cx="94.5" cy="29.7" r="5.91"/>
        <circle class="cls-8" cx="67.5" cy="40.5" r="5.91"/>
        <circle class="cls-8" cx="40.5" cy="51.3" r="5.91"/>
        <circle class="cls-8" cx="13.5" cy="35.1" r="5.91"/>
        <circle class="cls-8" cx="121.5" cy="18.9" r="5.91"/>
        <circle class="cls-8" cx="94.5" cy="2.7" r="5.91"/>
        <circle class="cls-8" cx="67.5" cy="13.5" r="5.91"/>
        <circle class="cls-8" cx="40.5" cy="24.3" r="5.91"/>
        <circle class="cls-8" cx="13.5" cy="8.1" r="5.91"/>
        <circle class="cls-8" cx="40.5" cy="-2.7" r="5.91"/>
      </g>
    </pattern>
    <pattern id="Puntos-2" data-name="Puntos" patternTransform="translate(-17904.92 -544.4) rotate(-180) scale(1 -1)" xlink:href="#Puntos"/>
  </defs>
  <rect class="cls-10" x="-1.51" y="-1.02" width="799.81" height="391.85"/>
  <g>
    <line class="cls-2" x1="270.12" y1="230.4" x2="291.98" y2="216.46"/>
    <line class="cls-2" x1="265.77" y1="203.61" x2="291.35" y2="199.39"/>
    <line class="cls-2" x1="269.16" y1="175.75" x2="293.23" y2="185.37"/>
  </g>
  <g>
    <line class="cls-2" x1="520.3" y1="230.77" x2="498.44" y2="216.84"/>
    <line class="cls-2" x1="524.65" y1="203.98" x2="499.07" y2="199.76"/>
    <line class="cls-2" x1="521.26" y1="176.12" x2="497.19" y2="185.74"/>
  </g>
  <g>
    <g>
      <path class="cls-10" d="M238.28,174.29c-3.14,0-6.05-.93-8.41-2.7-3.04-2.27-4.78-5.66-4.78-9.29,0-2.81,1.02-5.46,2.86-7.45,.78-.84,1.67-1.54,2.65-2.08-2.95-1.64-4.9-4.75-4.9-8.4,0-5.53,4.33-9.69,10.07-9.69,.74,0,1.36,.04,1.95,.12l.68,.1h.28l.16,.02c.33-.01,.69-.04,1.07-.08,1.04-.12,1.7-.16,2.26-.16,.8,0,1.57,.08,2.31,.24,.74-.16,1.51-.24,2.31-.24,.56,0,1.13,.05,1.87,.15l.89,.12c.12-.01,.26-.03,.41-.05,1.11-.15,1.99-.22,2.76-.22,5.69,0,9.98,4.16,9.98,9.68,0,3.75-2.04,6.94-5.1,8.54l-3.2,7.99c-1.29,3.23-2.54,5.57-3.93,7.34-3.05,3.91-7.39,6.07-12.19,6.07Z"/>
      <path class="cls-10" d="M270.02,168.37c-4.69,0-8.88-1.93-11.82-5.45-2.63-3.15-3.97-7.09-3.97-11.7s1.33-8.58,3.97-11.71c1.34-1.6,2.95-2.86,4.76-3.76,1.14-3.65,4.49-6.8,9.76-6.8,.46,0,.96,.03,1.73,.1,.07,0,.13,.01,.2,.02,.66-.08,1.2-.12,1.71-.12,5.42,0,9.5,4.25,9.5,9.89v1.75l-.06,.18c0,.09,0,.29,0,.29,0,.37-.04,1.25-.1,2.64-.04,.9-.06,1.59-.06,2.06v4.97c2.19,1.74,3.54,4.42,3.54,7.54,0,5.53-4.32,9.69-10.04,9.69-.52,0-1.08-.04-1.78-.12-.53,.08-1.05,.12-1.56,.12-.54,0-1.07-.04-1.58-.12-1.32,.36-2.71,.54-4.17,.54Z"/>
      <path class="cls-10" d="M289.25,168.37c-4.74,0-8.81-1.79-11.79-5.17-1.88-2.13-4.12-5.9-4.12-11.72,0-4.65,1.46-8.78,4.21-11.95,3.06-3.52,7.2-5.38,11.98-5.38,4.34,0,8.19,1.6,11.12,4.63,2.86,2.95,4.37,6.79,4.37,11.09,0,1.05-.06,2.21-.35,3.4,.04,.4,.07,.81,.07,1.22,0,4.08-1.95,7.81-5.48,10.52-2.9,2.21-6.36,3.38-10.01,3.38Z"/>
      <path class="cls-10" d="M300.08,168.62c-5.58,0-9.79-4.26-9.79-9.91h6.9c-.07-.04-.13-.08-.19-.11-2.19-1.2-3.87-2.95-4.92-5.1-.93,1.2-1.52,2.6-1.69,3.98,.03-.2,.07-.64,.14-1.31v-.05c-.16-.91-.24-1.7-.24-2.46,0-1.31,.24-2.55,.69-3.67-.12-.73-.18-1.48-.18-2.25,0-4.06,1.71-7.7,4.82-10.26,2.66-2.19,6.07-3.35,9.85-3.35,.69,0,1.36,.04,2.02,.13,.81-.21,1.66-.32,2.55-.32,5.42,0,9.66,4.23,9.66,9.63,0,.21-.02,.73-.08,1.56l-.03,.4-.04,.27c0,.05,.01,.11,.02,.17,.09,.87,.13,1.49,.13,2.06,0,.5-.03,.99-.1,1.46,.73,1.68,1.05,3.44,1.05,5.13,0,4.12-1.75,7.81-4.93,10.39-1.88,1.53-5.14,3.34-10,3.34-.89,0-1.76-.07-2.61-.2-.95,.3-1.97,.45-3.05,.45Z"/>
      <path class="cls-10" d="M321.67,168.37c-4.63,0-8.8-1.87-11.74-5.26-1.87-2.15-4.1-5.92-4.1-11.66s2.26-9.77,4.15-11.96c3.03-3.5,7.17-5.35,11.97-5.35,3.68,0,7.04,1.15,9.7,3.34,3.12,2.56,4.84,6.18,4.84,10.18,0,.93-.1,1.83-.3,2.7,.45,1.14,.68,2.37,.68,3.64,0,1.8-.42,3.59-1.29,5.49-.74,1.61-1.68,3.03-2.81,4.21-2.85,3.04-6.71,4.67-11.1,4.67Z"/>
      <path class="cls-10" d="M338.72,168.37c-7.41,0-11.02-3.98-12.51-6.35-1.23-1.96-1.9-4.16-2.02-6.57-.02-.4-.04-1.13-.04-3.21v-.64c-2.04-1.76-3.31-4.36-3.31-7.31,0-5.48,4.29-9.61,9.98-9.61,.54,0,1.12,.04,1.84,.12,.58-.08,1.02-.12,1.57-.12,1.34,0,2.59,.25,3.73,.71,1.17-.46,2.47-.71,3.85-.71,.49,0,1.02,.03,1.69,.1,.63-.07,1.13-.1,1.59-.1,5.36,0,9.57,4.23,9.57,9.63,0,.71-.05,1.37-.16,1.99-.03,.28-.07,.96-.07,2.29v2.37c2.02,1.76,3.28,4.36,3.28,7.3,0,5.53-4.28,9.69-9.95,9.69-.5,0-1.03-.03-1.67-.1-.5,.07-.99,.1-1.48,.1-.56,0-1.11-.05-1.65-.14-1.34,.36-2.76,.55-4.25,.55Z"/>
      <path class="cls-10" d="M358.59,168.37c-1.33,0-2.6-.16-3.8-.46-.62,.12-1.27,.18-1.93,.18-5.54,0-9.72-4.39-9.72-10.2v-2.51l.16-2.45v-6.84c-2.13-1.75-3.47-4.41-3.47-7.44,0-5.51,4.25-9.66,9.88-9.66,.59,0,1.14,.03,1.66,.09l.51,.06c.75-.11,1.39-.16,2-.16,3.82,0,7.03,2.23,8.48,5.51,3.26,.69,6.13,2.38,8.29,4.94,1.79,2.11,3.92,5.82,3.92,11.48,0,4.74-1.33,8.76-3.97,11.94-2.95,3.57-7.21,5.53-12,5.53Z"/>
      <path class="cls-10" d="M375.61,167.95c-.67,0-1.41-.05-2.43-.17-.21-.02-.4-.04-.55-.05-.78,0-1.11,.03-1.17,.03l-2.13,.19h-.39c-5.65,0-9.91-4.18-9.91-9.72,0-2.77,1.08-5.19,2.88-6.91-1.78-1.74-2.88-4.18-2.88-6.92,0-5.54,4.29-9.72,9.98-9.72,.52,0,1.07,.04,1.75,.11,.52-.08,1.05-.11,1.59-.11,.37,0,.74,.02,1.1,.06,1.31-.4,2.7-.6,4.15-.6,3.64,0,6.89,1.21,9.41,3.5,2.71,2.46,4.21,5.87,4.21,9.6,0,2.89-.9,5.54-2.59,7.66-.85,1.06-1.87,1.94-3.01,2.61,.02,.24,.03,.49,.03,.74,0,5.53-4.26,9.71-9.91,9.71h-.13Z"/>
      <path class="cls-10" d="M391.31,168.37c-4.74,0-8.81-1.79-11.79-5.17-1.88-2.13-4.12-5.9-4.12-11.72,0-4.65,1.46-8.78,4.21-11.95,3.06-3.52,7.2-5.39,11.98-5.39,4.34,0,8.19,1.6,11.12,4.63,2.86,2.95,4.37,6.79,4.37,11.09,0,1.05-.06,2.21-.36,3.4,.05,.4,.07,.81,.07,1.22,0,4.08-1.95,7.81-5.48,10.52-2.89,2.21-6.35,3.38-10.01,3.38Z"/>
      <path class="cls-10" d="M415.68,173.53c-.72,0-1.51-.06-2.57-.2,0,0,0,0,0,0-.02,0-.31-.02-.96-.02-.1,0-.18,0-.26,0-1.25,.16-2.03,.22-2.69,.22-2.41,0-4.73-.86-6.54-2.42-2.15-1.87-3.37-4.52-3.37-7.29,0-2.98,1.3-5.6,3.38-7.35v-4.71c-2.09-1.74-3.38-4.38-3.38-7.42,0-5.49,4.3-9.63,10.01-9.63,.44,0,.91,.02,1.43,.06,.19,.02,.34,.03,.45,.03h.12c.62-.06,1.12-.09,1.56-.09s.83,.03,1.24,.08c1.4-.43,2.88-.65,4.43-.65,4.61,0,8.73,1.85,11.61,5.21,2.62,3.07,3.95,6.95,3.95,11.56s-1.33,8.76-3.97,11.94c-1.38,1.67-3.05,2.99-4.92,3.92-1.21,4.01-4.9,6.77-9.52,6.77Zm-1.43-23.11h0Z"/>
      <path class="cls-10" d="M435.14,167.95c-.67,0-1.42-.05-2.43-.17-.21-.02-.4-.04-.55-.05-.78,0-1.11,.03-1.17,.03l-2.13,.19h-.39c-5.65,0-9.91-4.18-9.91-9.72,0-2.77,1.08-5.19,2.88-6.91-1.78-1.74-2.88-4.18-2.88-6.92,0-5.54,4.29-9.72,9.98-9.72,.52,0,1.07,.04,1.75,.11,.52-.08,1.05-.11,1.59-.11,.37,0,.74,.02,1.1,.06,1.31-.4,2.7-.6,4.15-.6,3.64,0,6.89,1.21,9.41,3.5,2.71,2.47,4.21,5.88,4.21,9.6,0,2.89-.89,5.54-2.58,7.65-.85,1.07-1.88,1.95-3.02,2.61,.02,.24,.03,.49,.03,.74,0,5.53-4.26,9.71-9.91,9.71h-.13Z"/>
      <path class="cls-10" d="M450.88,168.37c-4.76,0-8.85-1.82-11.85-5.27-1.88-2.16-4.12-5.97-4.12-11.84s2.26-9.71,4.16-11.87c3-3.43,7.12-5.24,11.9-5.24s8.92,1.78,11.92,5.16c1.9,2.14,4.18,5.95,4.18,11.86s-2.29,9.74-4.21,11.92c-3.04,3.46-7.18,5.29-11.98,5.29Z"/>
      <path class="cls-10" d="M468.12,168.37c-4.69,0-8.88-1.93-11.82-5.45-2.63-3.15-3.97-7.09-3.97-11.7s1.33-8.58,3.97-11.71c1.34-1.6,2.95-2.86,4.76-3.76,1.14-3.65,4.48-6.8,9.76-6.8,.46,0,.96,.03,1.73,.1,.07,0,.13,.01,.2,.02,.66-.08,1.19-.12,1.71-.12,5.42,0,9.5,4.25,9.5,9.89v1.69l-.06,.18c0,.1,0,.34,0,.34,0,.36-.04,1.24-.1,2.65-.04,.9-.06,1.59-.06,2.06v4.96c2.19,1.74,3.54,4.42,3.54,7.54,0,5.53-4.32,9.69-10.04,9.69-.52,0-1.08-.04-1.78-.12-.53,.08-1.05,.12-1.56,.12-.54,0-1.07-.04-1.58-.12-1.32,.36-2.71,.54-4.17,.54Z"/>
      <path class="cls-10" d="M488.08,168.37c-7.41,0-11.02-3.98-12.51-6.35-1.22-1.95-1.9-4.16-2.01-6.57-.02-.4-.04-1.13-.04-3.21v-.64c-2.04-1.76-3.31-4.36-3.31-7.31,0-5.48,4.29-9.61,9.98-9.61,.55,0,1.12,.04,1.84,.12,.58-.08,1.02-.12,1.57-.12,1.34,0,2.59,.25,3.73,.71,1.17-.46,2.47-.71,3.85-.71,.49,0,1.02,.03,1.69,.1,.63-.07,1.13-.1,1.59-.1,5.36,0,9.57,4.23,9.57,9.63,0,.71-.05,1.37-.16,1.99-.03,.28-.07,.96-.07,2.29v2.37c2.02,1.76,3.28,4.36,3.28,7.3,0,5.53-4.28,9.69-9.95,9.69-.5,0-1.03-.03-1.67-.1-.5,.07-.99,.1-1.48,.1-.56,0-1.11-.05-1.65-.14-1.34,.36-2.76,.55-4.25,.55Z"/>
      <path class="cls-10" d="M507,168.37c-4.63,0-8.8-1.87-11.74-5.26-2.68-3.09-4.1-7.12-4.1-11.66,0-5.92,2.26-9.77,4.15-11.96,3.03-3.5,7.17-5.35,11.97-5.35,3.68,0,7.04,1.16,9.7,3.34,3.12,2.56,4.83,6.17,4.83,10.17,0,.93-.1,1.83-.3,2.7,.45,1.14,.68,2.37,.68,3.64,0,1.8-.42,3.59-1.29,5.49-.74,1.61-1.69,3.03-2.82,4.22-2.84,3.03-6.7,4.67-11.1,4.67Z"/>
      <path class="cls-10" d="M522.29,168.24c-4.62,0-8.45-1.95-10.79-5.49-1.5-2.23-2.22-5.03-2.22-8.76v-2.56c-1.85-1.84-2.87-4.29-2.87-6.9s.96-4.91,2.72-6.74c.11-.12,.23-.24,.35-.35,.9-4.54,4.75-7.76,9.65-7.76,4.12,0,7.48,2.31,8.96,5.78,3.62,1.4,6.05,4.83,6.05,9.04,0,.82-.09,1.61-.27,2.36,1.18,1.67,1.86,3.76,1.86,6.08,0,4.1-.72,7.13-2.27,9.52-2.43,3.73-6.4,5.78-11.18,5.78Z"/>
      <path class="cls-10" d="M536.09,168.37c-4.76,0-8.86-1.82-11.85-5.28-1.88-2.16-4.12-5.97-4.12-11.84s2.26-9.71,4.16-11.87c3-3.43,7.12-5.24,11.91-5.24s8.92,1.78,11.92,5.16c1.91,2.15,4.18,5.95,4.18,11.86s-2.29,9.74-4.21,11.93c-3.04,3.46-7.18,5.28-11.98,5.28Z"/>
      <path class="cls-10" d="M547.46,168.62c-5.58,0-9.79-4.26-9.79-9.91h6.9c-.07-.04-.13-.08-.19-.11-2.19-1.2-3.87-2.95-4.92-5.09-.93,1.21-1.52,2.61-1.7,3.99,.03-.2,.07-.64,.14-1.32v-.05c-.16-.91-.24-1.69-.24-2.45,0-1.31,.24-2.54,.69-3.67-.12-.73-.18-1.48-.18-2.25,0-4.06,1.71-7.7,4.82-10.26,2.66-2.19,6.07-3.35,9.86-3.35,.69,0,1.36,.04,2.02,.13,.81-.21,1.66-.32,2.55-.32,5.42,0,9.66,4.23,9.66,9.63,0,.21-.02,.72-.07,1.55l-.03,.42-.05,.27s.01,.1,.02,.16c.09,.87,.13,1.49,.13,2.06,0,.5-.03,.99-.1,1.46,.73,1.68,1.05,3.44,1.05,5.13,0,4.12-1.75,7.81-4.93,10.39-1.88,1.53-5.14,3.34-10,3.34-.89,0-1.76-.07-2.61-.2-.95,.3-1.97,.45-3.05,.45Z"/>
    </g>
    <g>
      <path class="cls-7" d="M240.76,146.35l3.66,10.77,3.89-10.61c.11-.3,.16-.53,.16-.7,0-.36-.24-.54-.73-.54-.25,0-.46,.02-.6,.06-.34,.04-.56,.06-.67,.06-.7,0-1.05-.34-1.05-1.02,0-.72,.46-1.08,1.37-1.08,.13,0,.34,.02,.64,.06l1.15,.16c.3,.04,.62,.06,.96,.06,.36,0,.89-.05,1.59-.14,.7-.1,1.23-.14,1.59-.14,.91,0,1.37,.36,1.37,1.07s-.35,1.04-1.05,1.04c-.21,0-.37-.02-.48-.06-.28-.06-.47-.1-.57-.1-.4,0-.82,.54-1.24,1.62l-4.33,10.83c-.96,2.4-1.86,4.14-2.71,5.22-1.44,1.85-3.25,2.77-5.42,2.77-1.3,0-2.38-.33-3.27-.99-.88-.66-1.32-1.46-1.32-2.39,0-.66,.19-1.19,.57-1.61,.38-.41,.88-.62,1.5-.62,.49,0,.89,.14,1.21,.43s.48,.64,.48,1.07c0,.68-.31,1.11-.92,1.31,.32,.47,.92,.7,1.82,.7,1.13,0,2.14-.42,3.04-1.26,.9-.84,1.35-1.78,1.35-2.82,0-.53-.29-1.52-.86-2.96l-3.5-8.85-.38-1.02c-.36-.96-.78-1.43-1.24-1.43-.13,0-.36,.03-.69,.08-.33,.05-.55,.08-.65,.08-.74,0-1.11-.34-1.11-1.02,0-.72,.49-1.08,1.47-1.08,.32,0,.56,.01,.73,.04l1.27,.19h.26c.15,.02,.28,.03,.38,.03,.77,0,1.58-.05,2.45-.15,.66-.07,1.09-.11,1.31-.11,.89,0,1.34,.35,1.34,1.05s-.4,1.05-1.21,1.05c-.13,0-.33-.02-.61-.06-.28-.04-.48-.06-.61-.06-.3,0-.45,.15-.45,.45,0,.17,.04,.38,.13,.64Z"/>
      <path class="cls-7" d="M269.97,142.75c2.1,0,3.67,.82,4.71,2.45v-3.22c0-.85-.02-1.37-.06-1.56-.11-.66-.4-.99-.89-.99-.17,0-.41,.03-.72,.1-.31,.06-.55,.1-.72,.1-.79,0-1.18-.34-1.18-1.02s.53-1.05,1.59-1.05c.17,0,.48,.02,.92,.06,.68,.06,1.03,.1,1.05,.1,.19,0,.47-.03,.83-.08,.36-.05,.64-.08,.83-.08,.59,0,.89,.43,.89,1.28v.35c-.02,.06-.04,.63-.06,1.69,0,.13-.03,.95-.1,2.46-.04,1.06-.06,1.87-.06,2.42v8.46c.02,1.4,.09,2.28,.19,2.62s.37,.51,.78,.51c.28,0,.5-.02,.65-.06,.35-.04,.58-.06,.71-.06,.8,0,1.2,.35,1.2,1.05s-.48,1.08-1.43,1.08c-.21,0-.54-.03-.97-.08-.44-.05-.76-.08-.97-.08-.06,0-.31,.02-.73,.06-.25,.06-.48,.1-.67,.1-.57,0-.86-.38-.86-1.15v-.7c-1.12,1.51-2.75,2.26-4.89,2.26s-3.9-.79-5.21-2.36c-1.31-1.57-1.97-3.63-1.97-6.18s.65-4.62,1.94-6.16c1.29-1.54,3.03-2.31,5.19-2.31Zm4.59,11.24c.09-.7,.13-1.6,.13-2.71,0-1.42-.05-2.39-.16-2.9-.19-1.06-.65-1.89-1.38-2.48-.86-.7-1.84-1.05-2.95-1.05-1.5,0-2.67,.56-3.51,1.69-.84,1.13-1.27,2.67-1.27,4.62s.44,3.61,1.31,4.76c.88,1.16,2.07,1.74,3.59,1.74,1.15,0,2.12-.33,2.89-1s1.22-1.56,1.35-2.66Z"/>
      <path class="cls-7" d="M296.41,149.85c0,.81-.05,1.3-.16,1.48s-.41,.27-.92,.27h-10.13c-.28,0-.46,.04-.54,.11-.08,.07-.13,.2-.13,.37,0,1.59,.48,2.92,1.43,3.98,.96,1.06,2.14,1.59,3.57,1.59,.93,0,1.79-.25,2.56-.76s1.28-1.16,1.51-1.94l.29-.92c.15-.51,.5-.76,1.05-.76,.79,0,1.18,.4,1.18,1.21,0,1.38-.7,2.61-2.1,3.68s-2.99,1.61-4.78,1.61c-2.23,0-4-.75-5.32-2.25-1.32-1.5-1.97-3.51-1.97-6.04s.7-4.69,2.1-6.31c1.4-1.61,3.23-2.42,5.48-2.42,2,0,3.64,.67,4.94,2.01,1.29,1.34,1.94,3.04,1.94,5.1Zm-11.56-.83c0,.3,.23,.45,.7,.45h7.61c.45,0,.67-.15,.67-.45,0-1.13-.43-2.1-1.27-2.93s-1.85-1.24-2.99-1.24-2.27,.43-3.25,1.29c-.98,.86-1.47,1.82-1.47,2.88Z"/>
      <path class="cls-7" d="M305.47,142.75c1.42,0,2.6,.37,3.56,1.11v-.13c0-.79,.34-1.18,1.02-1.18s1.05,.34,1.05,1.02c0,.13-.02,.45-.05,.96-.07,.42-.11,.85-.11,1.27,0,.25,.03,.63,.08,1.11,.05,.49,.08,.86,.08,1.11,0,.81-.35,1.21-1.03,1.21s-1.01-.34-1.03-1.02v-1.05c-.02-.64-.39-1.18-1.1-1.64-.71-.46-1.54-.68-2.5-.68s-1.8,.25-2.45,.75c-.66,.5-.99,1.12-.99,1.86,0,1.36,.93,2.17,2.8,2.42l1.85,.25c3.61,.49,5.42,1.99,5.42,4.49,0,1.53-.58,2.77-1.75,3.71s-2.69,1.42-4.57,1.42c-1.76,0-3.28-.5-4.57-1.5v.61c0,.77-.36,1.15-1.08,1.15-.79,0-1.18-.44-1.18-1.31,0,.15,.06-.4,.19-1.66,.04-.3,.06-.59,.06-.89,0-.51-.04-.99-.13-1.43-.08-.45-.13-.8-.13-1.05,0-.74,.34-1.11,1.02-1.11,.45,0,.73,.11,.84,.32,.12,.21,.18,.78,.21,1.69,.02,.91,.5,1.66,1.43,2.23,.93,.57,2.12,.86,3.57,.86,1.04,0,1.9-.26,2.58-.8,.68-.53,1.02-1.2,1.02-2.01,0-1.44-1.15-2.28-3.44-2.52-2.19-.23-3.85-.66-5-1.29s-1.72-1.73-1.72-3.3c0-1.49,.56-2.69,1.68-3.62s2.58-1.39,4.38-1.39Z"/>
      <path class="cls-7" d="M323.71,148.7c0-.85,.53-1.34,1.59-1.47-.11-.74-.46-1.33-1.07-1.75-.61-.42-1.39-.64-2.34-.64-1.46,0-2.64,.58-3.54,1.75-.89,1.17-1.34,2.72-1.34,4.65s.42,3.56,1.26,4.7c.84,1.14,2,1.7,3.49,1.7,.93,0,1.75-.26,2.44-.8,.69-.53,1.16-1.26,1.42-2.2,.21-.74,.34-1.17,.38-1.27,.23-.42,.57-.64,1.02-.64,.36,0,.66,.12,.89,.35s.35,.53,.35,.89c0,.53-.17,1.17-.51,1.91-.34,.74-.74,1.36-1.21,1.85-1.25,1.34-2.88,2.01-4.87,2.01-2.17,0-3.91-.76-5.24-2.29-1.33-1.53-1.99-3.54-1.99-6.02,0-2.63,.68-4.74,2.05-6.32,1.37-1.58,3.19-2.37,5.46-2.37,1.7,0,3.11,.46,4.24,1.39s1.69,2.1,1.69,3.52c0,.79-.22,1.43-.65,1.94-.44,.51-.99,.76-1.67,.76-.53,0-.97-.16-1.32-.48s-.53-.71-.53-1.18Z"/>
      <path class="cls-7" d="M343.72,158.42v-.99c-1.13,1.55-2.79,2.33-5,2.33-2.51,0-4.25-.78-5.22-2.33-.43-.68-.66-1.48-.7-2.39-.02-.45-.03-1.38-.03-2.8v-2.64c0-2.91-.31-4.36-.93-4.36-.13,0-.33,.02-.61,.05-.28,.03-.49,.05-.64,.05-.75,0-1.13-.34-1.13-1.04s.46-1,1.37-1c.21,0,.53,.03,.94,.08,.41,.05,.73,.08,.94,.08,.19,0,.52-.03,.99-.1,.32-.04,.5-.06,.54-.06,.66,0,.99,.4,.99,1.21v2.74l-.1,2.36v2.07c0,1.85,.15,3.17,.45,3.98,.49,1.34,1.66,2.01,3.5,2.01,.91,0,1.72-.21,2.42-.62,.7-.41,1.19-.96,1.47-1.64,.34-.83,.51-2.4,.51-4.71v-3.82c-.11-1.02-.38-1.53-.83-1.53h-.96c-.74,0-1.11-.32-1.11-.96,0-.72,.41-1.08,1.24-1.08,.19,0,.48,.02,.88,.06,.39,.04,.69,.06,.88,.06,.17,0,.42-.02,.77-.06,.34-.04,.59-.06,.76-.06,.64,0,.96,.34,.96,1.02,0,.3-.02,.53-.06,.7-.11,.81-.16,2-.16,3.58v4.92c0,1.3,.01,2.02,.03,2.17,.11,1.13,.4,1.69,.89,1.69,.15,0,.36-.03,.64-.08,.28-.05,.49-.08,.64-.08,.72,0,1.08,.35,1.08,1.05s-.45,1.08-1.34,1.08c-.19,0-.47-.02-.83-.06-.53-.06-.86-.1-.99-.1-.06,0-.29,.02-.67,.06-.25,.06-.48,.1-.67,.1-.6,0-.89-.31-.89-.92Z"/>
      <path class="cls-7" d="M354.58,138.92c-.19,1.76-.3,3.84-.32,6.25,.68-.89,1.37-1.52,2.08-1.88,.7-.36,1.59-.54,2.65-.54,2.13,0,3.82,.74,5.08,2.23s1.89,3.46,1.89,5.92c0,2.7-.66,4.85-1.99,6.45-1.33,1.6-3.12,2.4-5.37,2.4s-3.77-.82-4.75-2.45c.08,.62,.13,.96,.13,1.02,0,.76-.37,1.15-1.11,1.15s-1.11-.53-1.11-1.59v-2.23l.16-2.45v-11.72c-.02-.79-.1-1.32-.24-1.59-.14-.28-.38-.41-.72-.41-.06,0-.34,.04-.83,.13-.23,.04-.44,.06-.61,.06-.72,0-1.08-.34-1.08-1.02s.42-1.05,1.27-1.05c.25,0,.47,.01,.64,.03l.76,.1c.34,.04,.62,.06,.83,.06,.23,0,.56-.03,.99-.1,.42-.06,.74-.1,.96-.1,.47,0,.7,.3,.7,.89v.44Zm-.09,9.21c-.15,.68-.22,1.64-.22,2.87,0,2.1,.17,3.55,.51,4.33,.66,1.55,1.93,2.32,3.79,2.32,1.47,0,2.65-.58,3.51-1.74s1.3-2.71,1.3-4.67-.41-3.56-1.24-4.7c-.82-1.14-1.95-1.7-3.38-1.7-1.01,0-1.91,.31-2.73,.94-.81,.63-1.33,1.41-1.54,2.34Z"/>
      <path class="cls-7" d="M373.18,144.2v.88c1.1-1.55,2.58-2.33,4.43-2.33,1.49,0,2.69,.42,3.62,1.26,.92,.84,1.39,1.92,1.39,3.23,0,.93-.23,1.69-.7,2.28-.47,.58-1.08,.88-1.85,.88-.49,0-.9-.15-1.24-.45s-.51-.66-.51-1.08c0-.34,.13-.64,.38-.91s.55-.4,.89-.4c.06,0,.2,.03,.41,.1,.13-.25,.19-.49,.19-.7,0-.62-.27-1.14-.81-1.56s-1.22-.64-2.02-.64c-1.66,0-2.76,.74-3.31,2.23-.34,.91-.51,2.29-.51,4.14v2.1c0,1.42,.01,2.22,.03,2.39,.11,1.21,.44,1.82,.99,1.82,.28,0,.56-.04,.86-.11,.23-.05,.43-.08,.61-.08,.68,0,1.02,.33,1.02,1,0,.73-.43,1.1-1.3,1.1h-.13c-.32,0-.8-.04-1.44-.11-.65-.07-1.13-.11-1.44-.11-.85,0-1.51,.02-2,.06l-1.78,.16c-.87,0-1.3-.37-1.3-1.12,0-.66,.41-.99,1.22-.99,.21,0,.37,.01,.48,.03l.48,.1c.21,.04,.36,.06,.45,.06,.54,0,.83-.49,.87-1.47v-1.62l-.1-7.23c-.06-1.25-.38-1.88-.96-1.88-.17,0-.4,.03-.7,.1-.3,.06-.53,.1-.7,.1-.7,0-1.05-.34-1.05-1.02,0-.74,.46-1.11,1.37-1.11,.21,0,.53,.03,.96,.08,.42,.05,.74,.08,.96,.08,.17,0,.45-.03,.83-.08,.17-.05,.37-.08,.61-.08,.55,0,.83,.3,.83,.91Z"/>
      <path class="cls-7" d="M398.48,149.85c0,.81-.05,1.3-.16,1.48s-.41,.27-.92,.27h-10.13c-.28,0-.46,.04-.54,.11-.08,.07-.13,.2-.13,.37,0,1.59,.48,2.92,1.43,3.98,.96,1.06,2.14,1.59,3.57,1.59,.93,0,1.79-.25,2.56-.76s1.28-1.16,1.51-1.94l.29-.92c.15-.51,.5-.76,1.05-.76,.79,0,1.18,.4,1.18,1.21,0,1.38-.7,2.61-2.1,3.68s-2.99,1.61-4.78,1.61c-2.23,0-4-.75-5.32-2.25-1.32-1.5-1.97-3.51-1.97-6.04s.7-4.69,2.1-6.31c1.4-1.61,3.23-2.42,5.48-2.42,2,0,3.64,.67,4.94,2.01,1.29,1.34,1.94,3.04,1.94,5.1Zm-11.56-.83c0,.3,.23,.45,.7,.45h7.61c.45,0,.67-.15,.67-.45,0-1.13-.43-2.1-1.27-2.93s-1.85-1.24-2.99-1.24-2.27,.43-3.25,1.29-1.47,1.82-1.47,2.88Z"/>
      <path class="cls-7" d="M413.67,144.21v1.02c1.19-1.66,2.81-2.48,4.87-2.48s3.81,.73,5.07,2.2c1.25,1.47,1.88,3.45,1.88,5.96,0,2.7-.66,4.85-1.99,6.45-1.33,1.6-3.11,2.4-5.34,2.4-1.85,0-3.35-.65-4.49-1.94v2.64c0,.81,.02,1.33,.06,1.56,.13,.66,.44,.99,.92,.99,.15,0,.37-.03,.67-.1,.3-.06,.52-.1,.67-.1,.68,0,1.02,.35,1.02,1.05s-.44,1.05-1.33,1.05c-.32,0-.79-.04-1.43-.13-.47-.06-1.16-.1-2.1-.1-.51,0-.93,.02-1.27,.06-.85,.11-1.41,.16-1.68,.16-.36,0-.67-.11-.92-.33-.25-.22-.38-.48-.38-.77,0-.67,.36-1,1.07-1,.13,0,.33,.03,.6,.08,.36,.07,.62,.11,.79,.11,.4,0,.65-.21,.74-.62,.1-.41,.15-1.57,.17-3.46v-12.3c-.02-.98-.3-1.47-.82-1.47-.15,0-.37,.04-.68,.11-.31,.07-.54,.11-.71,.11-.78,0-1.17-.35-1.17-1.05s.47-1.02,1.4-1.02c.23,0,.49,.01,.76,.03,.53,.04,.92,.06,1.18,.06,.19,0,.47-.02,.83-.05,.36-.03,.63-.05,.8-.05,.53,0,.8,.3,.8,.89Zm.48,3.89c-.19,.83-.3,1.84-.32,3.03,0,.09-.01,.24-.03,.48v.45c0,1.42,.12,2.46,.35,3.11,.23,.65,.7,1.23,1.39,1.74,.69,.51,1.55,.76,2.56,.76,1.53,0,2.71-.56,3.55-1.67s1.26-2.7,1.26-4.76c0-4.25-1.51-6.37-4.52-6.37-1.02,0-1.93,.31-2.72,.92-.8,.62-1.3,1.39-1.51,2.33Z"/>
      <path class="cls-7" d="M432.72,144.2v.88c1.1-1.55,2.58-2.33,4.43-2.33,1.49,0,2.69,.42,3.62,1.26,.92,.84,1.39,1.92,1.39,3.23,0,.93-.23,1.69-.7,2.28-.47,.58-1.08,.88-1.85,.88-.49,0-.9-.15-1.24-.45s-.51-.66-.51-1.08c0-.34,.13-.64,.38-.91s.55-.4,.89-.4c.06,0,.2,.03,.41,.1,.13-.25,.19-.49,.19-.7,0-.62-.27-1.14-.81-1.56s-1.22-.64-2.02-.64c-1.66,0-2.76,.74-3.31,2.23-.34,.91-.51,2.29-.51,4.14v2.1c0,1.42,.01,2.22,.03,2.39,.11,1.21,.44,1.82,.99,1.82,.28,0,.56-.04,.86-.11,.23-.05,.43-.08,.61-.08,.68,0,1.02,.33,1.02,1,0,.73-.43,1.1-1.3,1.1h-.13c-.32,0-.8-.04-1.44-.11-.65-.07-1.13-.11-1.44-.11-.85,0-1.51,.02-2,.06l-1.78,.16c-.87,0-1.3-.37-1.3-1.12,0-.66,.41-.99,1.22-.99,.21,0,.37,.01,.48,.03l.48,.1c.21,.04,.36,.06,.45,.06,.54,0,.83-.49,.87-1.47v-1.62l-.1-7.23c-.06-1.25-.38-1.88-.96-1.88-.17,0-.4,.03-.7,.1-.3,.06-.53,.1-.7,.1-.7,0-1.05-.34-1.05-1.02,0-.74,.46-1.11,1.37-1.11,.21,0,.53,.03,.96,.08,.42,.05,.74,.08,.96,.08,.17,0,.45-.03,.83-.08,.17-.05,.37-.08,.61-.08,.55,0,.83,.3,.83,.91Z"/>
      <path class="cls-7" d="M450.88,159.76c-2.23,0-4.01-.77-5.35-2.31-1.34-1.54-2.01-3.6-2.01-6.2s.67-4.66,2.02-6.2c1.35-1.54,3.16-2.31,5.43-2.31s4.14,.75,5.48,2.26c1.34,1.51,2.01,3.56,2.01,6.15s-.69,4.67-2.07,6.24c-1.38,1.57-3.22,2.36-5.51,2.36Zm.16-14.91c-1.49,0-2.65,.52-3.5,1.56-.85,1.04-1.32,2.52-1.4,4.43v.41c0,2,.42,3.56,1.26,4.7,.84,1.14,2.01,1.7,3.52,1.7s2.77-.57,3.65-1.7c.88-1.14,1.32-2.71,1.32-4.73,0-4.25-1.61-6.37-4.84-6.37Z"/>
      <path class="cls-7" d="M468.08,142.75c2.1,0,3.67,.82,4.71,2.45v-3.22c0-.85-.02-1.37-.06-1.56-.11-.66-.4-.99-.89-.99-.17,0-.41,.03-.72,.1-.31,.06-.55,.1-.72,.1-.79,0-1.18-.34-1.18-1.02s.53-1.05,1.59-1.05c.17,0,.48,.02,.92,.06,.68,.06,1.03,.1,1.05,.1,.19,0,.47-.03,.83-.08,.36-.05,.64-.08,.83-.08,.59,0,.89,.43,.89,1.28v.35c-.02,.06-.04,.63-.06,1.69,0,.13-.03,.95-.1,2.46-.04,1.06-.06,1.87-.06,2.42v8.46c.02,1.4,.09,2.28,.19,2.62s.37,.51,.78,.51c.28,0,.5-.02,.65-.06,.35-.04,.58-.06,.71-.06,.8,0,1.2,.35,1.2,1.05s-.48,1.08-1.43,1.08c-.21,0-.54-.03-.97-.08-.44-.05-.76-.08-.97-.08-.06,0-.31,.02-.73,.06-.25,.06-.48,.1-.67,.1-.57,0-.86-.38-.86-1.15v-.7c-1.12,1.51-2.75,2.26-4.89,2.26s-3.9-.79-5.21-2.36c-1.31-1.57-1.97-3.63-1.97-6.18s.65-4.62,1.94-6.16c1.29-1.54,3.03-2.31,5.19-2.31Zm4.59,11.24c.09-.7,.13-1.6,.13-2.71,0-1.42-.05-2.39-.16-2.9-.19-1.06-.65-1.89-1.38-2.48-.86-.7-1.84-1.05-2.95-1.05-1.5,0-2.67,.56-3.51,1.69-.84,1.13-1.27,2.67-1.27,4.62s.44,3.61,1.31,4.76c.88,1.16,2.07,1.74,3.59,1.74,1.15,0,2.12-.33,2.89-1s1.22-1.56,1.35-2.66Z"/>
      <path class="cls-7" d="M493.08,158.42v-.99c-1.13,1.55-2.79,2.33-5,2.33-2.51,0-4.25-.78-5.22-2.33-.43-.68-.66-1.48-.7-2.39-.02-.45-.03-1.38-.03-2.8v-2.64c0-2.91-.31-4.36-.93-4.36-.13,0-.33,.02-.61,.05-.28,.03-.49,.05-.64,.05-.75,0-1.13-.34-1.13-1.04s.46-1,1.37-1c.21,0,.53,.03,.94,.08,.41,.05,.73,.08,.94,.08,.19,0,.52-.03,.99-.1,.32-.04,.5-.06,.54-.06,.66,0,.99,.4,.99,1.21v2.74l-.1,2.36v2.07c0,1.85,.15,3.17,.45,3.98,.49,1.34,1.66,2.01,3.5,2.01,.91,0,1.72-.21,2.42-.62,.7-.41,1.19-.96,1.47-1.64,.34-.83,.51-2.4,.51-4.71v-3.82c-.11-1.02-.38-1.53-.83-1.53h-.96c-.74,0-1.11-.32-1.11-.96,0-.72,.41-1.08,1.24-1.08,.19,0,.48,.02,.88,.06,.39,.04,.69,.06,.88,.06,.17,0,.42-.02,.77-.06,.34-.04,.59-.06,.76-.06,.64,0,.96,.34,.96,1.02,0,.3-.02,.53-.06,.7-.11,.81-.16,2-.16,3.58v4.92c0,1.3,.01,2.02,.03,2.17,.11,1.13,.4,1.69,.89,1.69,.15,0,.36-.03,.64-.08,.28-.05,.49-.08,.64-.08,.72,0,1.08,.35,1.08,1.05s-.45,1.08-1.34,1.08c-.19,0-.47-.02-.83-.06-.53-.06-.86-.1-.99-.1-.06,0-.29,.02-.67,.06-.25,.06-.48,.1-.67,.1-.6,0-.89-.31-.89-.92Z"/>
      <path class="cls-7" d="M509.04,148.7c0-.85,.53-1.34,1.59-1.47-.11-.74-.46-1.33-1.07-1.75-.61-.42-1.39-.64-2.34-.64-1.46,0-2.64,.58-3.54,1.75-.89,1.17-1.34,2.72-1.34,4.65s.42,3.56,1.26,4.7c.84,1.14,2,1.7,3.49,1.7,.93,0,1.75-.26,2.44-.8,.69-.53,1.16-1.26,1.42-2.2,.21-.74,.34-1.17,.38-1.27,.23-.42,.57-.64,1.02-.64,.36,0,.66,.12,.89,.35s.35,.53,.35,.89c0,.53-.17,1.17-.51,1.91-.34,.74-.74,1.36-1.21,1.85-1.25,1.34-2.88,2.01-4.87,2.01-2.17,0-3.91-.76-5.24-2.29-1.33-1.53-1.99-3.54-1.99-6.02,0-2.63,.68-4.74,2.05-6.32,1.37-1.58,3.19-2.37,5.46-2.37,1.7,0,3.11,.46,4.24,1.39s1.69,2.1,1.69,3.52c0,.79-.22,1.43-.65,1.94-.44,.51-.99,.76-1.67,.76-.53,0-.97-.16-1.32-.48s-.53-.71-.53-1.18Z"/>
      <path class="cls-7" d="M524.87,154.82v-2.04c.02-.87,.4-1.31,1.15-1.31s1.12,.49,1.12,1.47c0,2.31-.3,3.93-.89,4.84-.8,1.23-2.12,1.85-3.95,1.85-1.69,0-2.89-.54-3.61-1.63-.53-.79-.79-2.12-.79-4.01v-7.65c0-.45-.21-.67-.62-.67h-1.04c-.35,0-.64-.11-.86-.33s-.34-.49-.34-.81c0-.3,.11-.56,.33-.8,.22-.23,.47-.35,.75-.35h1.24c.36,0,.54-.2,.54-.61v-3.28c0-.81,.41-1.21,1.24-1.21,.76,0,1.15,.4,1.15,1.21v3.41c0,.32,.19,.48,.57,.48h3.47c.81,0,1.21,.37,1.21,1.11,0,.79-.44,1.18-1.31,1.18h-3.5c-.3,0-.45,.22-.45,.67v7.84c0,2.23,.74,3.34,2.23,3.34s2.29-.9,2.36-2.71Z"/>
      <path class="cls-7" d="M536.09,159.76c-2.23,0-4.01-.77-5.35-2.31-1.34-1.54-2.01-3.6-2.01-6.2s.67-4.66,2.02-6.2c1.35-1.54,3.16-2.31,5.43-2.31s4.14,.75,5.48,2.26c1.34,1.51,2.01,3.56,2.01,6.15s-.69,4.67-2.07,6.24c-1.38,1.57-3.22,2.36-5.51,2.36Zm.16-14.91c-1.49,0-2.65,.52-3.5,1.56-.85,1.04-1.32,2.52-1.4,4.43v.41c0,2,.42,3.56,1.26,4.7,.84,1.14,2.01,1.7,3.52,1.7s2.77-.57,3.65-1.7c.88-1.14,1.32-2.71,1.32-4.73,0-4.25-1.61-6.37-4.84-6.37Z"/>
      <path class="cls-7" d="M552.85,142.75c1.42,0,2.6,.37,3.56,1.11v-.13c0-.79,.34-1.18,1.02-1.18s1.05,.34,1.05,1.02c0,.13-.02,.45-.05,.96-.07,.42-.11,.85-.11,1.27,0,.25,.03,.63,.08,1.11,.05,.49,.08,.86,.08,1.11,0,.81-.35,1.21-1.03,1.21s-1.01-.34-1.03-1.02v-1.05c-.02-.64-.39-1.18-1.1-1.64-.71-.46-1.54-.68-2.5-.68s-1.8,.25-2.45,.75c-.66,.5-.99,1.12-.99,1.86,0,1.36,.93,2.17,2.8,2.42l1.85,.25c3.61,.49,5.42,1.99,5.42,4.49,0,1.53-.58,2.77-1.75,3.71s-2.69,1.42-4.57,1.42c-1.76,0-3.28-.5-4.57-1.5v.61c0,.77-.36,1.15-1.08,1.15-.79,0-1.18-.44-1.18-1.31,0,.15,.06-.4,.19-1.66,.04-.3,.06-.59,.06-.89,0-.51-.04-.99-.13-1.43-.08-.45-.13-.8-.13-1.05,0-.74,.34-1.11,1.02-1.11,.45,0,.73,.11,.84,.32,.12,.21,.18,.78,.21,1.69,.02,.91,.5,1.66,1.43,2.23,.93,.57,2.12,.86,3.57,.86,1.04,0,1.9-.26,2.58-.8,.68-.53,1.02-1.2,1.02-2.01,0-1.44-1.15-2.28-3.44-2.52-2.19-.23-3.85-.66-5-1.29s-1.72-1.73-1.72-3.3c0-1.49,.56-2.69,1.68-3.62s2.58-1.39,4.38-1.39Z"/>
    </g>
  </g>
  <g>
    <g>
      <path class="cls-10" d="M316.78,219.28c-.27,0-.54,0-.81-.02-2.7-.13-5.15-.91-7.29-2.29-2.17-1.41-3.88-3.36-5.08-5.8-1.02-2.08-1.6-4.49-1.74-7.15-.06-.96-.08-2.05-.07-3.33,.02-1.35,.1-2.75,.26-4.18,.16-1.48,.42-3.02,.77-4.54,.4-1.75,.96-3.42,1.67-4.97,.82-1.79,1.88-3.42,3.16-4.83,1.64-1.82,3.66-3.14,6.01-3.95,1.47-.52,3.06-.8,4.64-.8,.41,0,.82,.02,1.23,.05,2.26,.2,4.32,.96,6.13,2.24,1.81,1.28,3.23,3,4.2,5.12,.81,1.76,1.24,3.74,1.27,5.91,1.39,.58,2.63,1.45,3.65,2.55,2.1,2.29,2.91,5.45,2.17,8.44l-.12,.46-.17,.45c-.64,1.68-1.29,3.21-1.92,4.55-.78,1.62-1.67,3.11-2.65,4.41-1.14,1.51-2.44,2.8-3.88,3.87-1.44,1.06-3.1,1.94-4.94,2.61-2.26,.8-4.43,1.2-6.5,1.2Z"/>
      <path class="cls-10" d="M328.86,219.39c-1.93,0-3.83-.51-5.51-1.46-1.91-1.09-3.42-2.68-4.37-4.6-1.53-3.04-1.3-6.53,.57-9.31-.74-1.31-1.36-2.66-1.84-4.04-.8-2.25-1.31-4.55-1.49-6.78-.16-1.91-.2-3.55-.13-5.02,.12-3.14,1.64-5.98,4.17-7.73,1.73-1.2,3.76-1.85,5.86-1.85,.25,0,.5,0,.75,.03,2.47,.18,4.69,1.21,6.44,2.96,.1,.1,.19,.2,.29,.3,1.86-2.37,4.53-3.74,7.45-3.81h.23c2.49,0,4.88,.91,6.75,2.56,1.75,1.54,2.92,3.6,3.39,5.96,.27,1.34,.26,2.69-.01,4.01,1.38,.65,2.62,1.61,3.63,2.83,1.49,1.79,2.29,4.07,2.29,6.56v1.3l-.41,1.23c-1.13,3.38-2.74,6.22-4.81,8.44-2.31,2.5-5.05,4.19-8.13,5.02-1.4,.39-2.91,.59-4.44,.59-1.12,0-2.26-.11-3.4-.33-1.72,1.85-4.02,2.96-6.55,3.12-.24,.01-.47,.02-.7,.02Z"/>
      <path class="cls-10" d="M352.37,217.45c-.54,0-1.08-.03-1.61-.08-1.63-.16-3.23-.58-4.73-1.26-1.83-.82-3.46-2.07-4.81-3.71-1.32-1.59-2.34-3.49-3.02-5.65-.55-1.75-.91-3.62-1.05-5.54-.14-1.83-.1-3.74,.13-5.65,.22-1.88,.61-3.72,1.15-5.45,.59-1.87,1.37-3.62,2.32-5.2,1.19-1.96,2.65-3.57,4.35-4.79l.19-.13c2.58-1.74,5.3-2.62,8.11-2.62,.22,0,.44,0,.65,.02,2.79,.14,5.3,1.18,7.29,2.98,1.28,.73,2.4,1.75,3.29,3.01,1.34,1.91,1.95,4.15,1.8,6.45,.39,.1,.78,.22,1.16,.37,1.99,.76,3.66,2.1,4.84,3.86,1.67,2.51,2.01,5.64,.94,8.59l-.07,.2-.08,.2c-.79,1.86-1.8,3.57-3,5.07-1.09,1.37-2.3,2.6-3.59,3.67-1.26,1.04-2.61,1.95-4,2.7-1.27,.68-2.54,1.27-3.78,1.73-1.13,.42-2.31,.74-3.52,.96-.98,.18-1.96,.27-2.94,.27Z"/>
      <path class="cls-10" d="M368.72,217.56c-1.65,0-3.24-.28-4.74-.83-2.59-.96-4.78-2.57-6.5-4.79-1.43-1.84-2.51-4.05-3.19-6.56-.59-2.17-.9-4.51-.9-6.95,0-1.18,.04-2.44,.11-3.75,.08-1.36,.2-2.74,.38-4.11,.17-1.33,.39-2.7,.66-4.05,.29-1.49,.67-2.96,1.13-4.36,.55-1.75,1.26-3.48,2.1-5.06,1.04-1.96,2.32-3.66,3.81-5.04,1.77-1.64,3.83-2.79,6.12-3.42,1.2-.33,2.44-.5,3.71-.5s2.62,.17,3.95,.51c3.48,.87,6.26,3.32,7.58,6.7,.82,2.09,1.13,4.49,.95,7.11-.15,2.04-.58,4.25-1.28,6.57-.19,.62-.4,1.25-.62,1.89,1.09,.44,2.12,1.07,3.01,1.86,2.27,2.02,3.39,4.93,3.09,8l-.12,1.15-.44,1.07c-.79,1.93-1.77,3.74-2.92,5.37-1.2,1.7-2.56,3.18-4.04,4.43-2.36,2.04-4.98,3.47-7.72,4.19-1.38,.37-2.78,.56-4.13,.56Z"/>
      <path class="cls-10" d="M381.21,218.46c-.33,0-.66,0-1.01-.03-2.53-.14-4.84-.97-6.71-2.4-1.65-1.27-2.92-2.86-3.8-4.76-.65-1.39-1.1-2.92-1.34-4.54-.18-1.23-.28-2.5-.28-3.76,0-1.08,.04-2.12,.12-3.12,.07-.83,.13-1.52,.18-2.09v-.12c.11-.88,.26-1.84,.45-2.95,.18-.97,.36-1.96,.57-2.97,.2-1.01,.41-2.01,.63-2.98,.18-.79,.33-1.49,.44-2.09l.24-1.3,.65-1.15c1.15-2.06,2.8-3.65,4.76-4.61,1.43-.7,2.95-1.05,4.5-1.05,.79,0,1.57,.09,2.34,.28,1.09,.27,2.11,.7,3.03,1.29,.62-.41,1.3-.77,2.03-1.07l1.04-.43,1.12-.13c.46-.05,.92-.08,1.37-.08,2.71,0,5.25,.99,7.14,2.78,1.43,1.37,3.16,3.79,3.28,7.62l.03,.94-.1,.5c.24,.09,.48,.2,.71,.31,2.11,1.02,3.75,2.73,4.74,4.96,.72,1.61,1.36,4.25,.26,7.55l-.05,.13c-.18,.52-.41,1.13-.69,1.82-.33,.83-.72,1.67-1.16,2.51-.42,.81-.88,1.61-1.37,2.38-.6,.96-1.26,1.85-1.96,2.64-1.47,1.73-3.21,3.01-5.19,3.81-1.57,.63-3.17,.95-4.78,.95-.54,0-1.08-.04-1.61-.11-.81-.11-1.6-.29-2.37-.56-1,.57-2.08,1.01-3.22,1.32-1.25,.34-2.59,.51-4,.51Z"/>
      <path class="cls-10" d="M405.43,219.71c-1.78,0-3.55-.25-5.25-.73-2.2-.63-4.24-1.64-6.05-3.01-.28-.21-.54-.42-.8-.64-2.26-.28-4.25-1.24-5.82-2.81-1.65-1.65-2.64-3.81-2.87-6.25-.2-2.18,.3-4.4,1.45-6.44l.09-.16,.09-.15c.66-1.06,1.4-2.26,2.22-3.6,.81-1.32,1.62-2.68,2.45-4.08,0,0,4.2-7.14,4.94-8.38,1.1-1.91,2.75-3.4,4.8-4.32,1.46-.66,3-1,4.58-1,.27,0,.54,0,.8,.03,2.28,.18,4.36,1.07,6.04,2.57,2.08,1.87,3.22,4.52,3.22,7.46,0,.29,0,.57-.03,.86,.36-.04,.72-.06,1.08-.06,1.38,0,2.73,.28,4.01,.83,1.73,.74,3.25,1.94,4.38,3.47,1.77,2.39,2.34,5.34,1.55,8.09-.33,1.15-.77,2.34-1.34,3.67-.62,1.43-1.38,2.85-2.29,4.24-.57,.87-1.17,1.71-1.8,2.51-.76,.97-1.58,1.87-2.45,2.69-.97,.9-2.02,1.7-3.13,2.39-1.13,.7-2.33,1.26-3.56,1.68-1.9,.72-3.88,1.11-5.87,1.15h-.44Z"/>
      <path class="cls-10" d="M419.57,217.39c-1.11,0-2.22-.15-3.32-.46-2.98-.85-5.41-2.63-7.08-5.18-1.17-1.79-2-3.85-2.46-6.14-.37-1.87-.53-3.88-.46-5.99,.06-1.8,.23-3.58,.49-5.29,.27-1.73,.62-3.38,1.06-4.9,.43-1.53,.9-2.82,1.42-3.91-.23-1.21-.25-2.45-.03-3.67,.47-2.62,1.79-4.82,3.82-6.39,1.82-1.4,3.98-2.12,6.27-2.12,.29,0,.58,.01,.89,.04,2.92,.24,5.58,1.77,7.5,4.32l.23,.31,.2,.33c1.52,2.51,1.93,5.39,1.14,8.12-.2,.68-.45,1.33-.77,1.94,.08,.46,.12,.94,.13,1.41,.28,.08,.56,.17,.83,.27,2.04,.76,3.73,2.15,4.86,4.03,1.33,2.23,1.67,4.82,.97,7.35-.33,1.25-.81,2.64-1.47,4.22-.76,1.81-1.72,3.53-2.86,5.11-1.38,1.92-3.03,3.5-4.91,4.69-1.95,1.24-4.18,1.9-6.45,1.9Z"/>
      <path class="cls-10" d="M430,217.72c-.41,0-.82-.02-1.23-.06-1.57-.16-3.05-.58-4.42-1.25-2.73-1.33-4.64-3.69-5.23-6.5-.39-1.82-.76-3.63-1.11-5.43-.34-1.76-.67-3.42-.99-5-.32-1.59-.61-3.05-.89-4.4-.25-1.2-.46-2.28-.65-3.23-.74-2.56-.43-5.27,.87-7.55,1-1.77,2.5-3.23,4.31-4.19,1.54-.82,3.22-1.24,4.96-1.24,.28,0,.55,.01,.83,.03,1.81,.13,3.51,.79,4.92,1.85,1.17-.96,2.54-1.63,4.03-1.97,.8-.18,1.59-.26,2.37-.26,1.45,0,2.85,.29,4.18,.87,2.06,.9,3.73,2.38,4.86,4.31,1.65,2.84,1.7,6.27,.16,9.24-.26,.52-.57,1.2-.93,2.02-.41,.94-.83,1.95-1.27,3.05-.45,1.13-.92,2.31-1.39,3.53-.46,1.2-.89,2.36-1.29,3.48-.41,1.14-.77,2.2-1.1,3.19-.31,.93-.56,1.7-.74,2.32l-.06,.19-.06,.19c-.98,2.82-3.16,5.03-5.96,6.07-1.37,.5-2.76,.75-4.18,.75Z"/>
      <path class="cls-10" d="M447.16,217.6c-3.12,0-5.91-.74-8.32-2.2-2.29-1.39-4.14-3.25-5.5-5.51-1.24-2.06-2.05-4.38-2.42-6.88-.33-2.22-.33-4.5,0-6.76,.32-2.23,.98-4.44,1.95-6.55,1.03-2.24,2.39-4.24,4.05-5.94,1.81-1.86,3.97-3.29,6.42-4.25,1.91-.75,3.98-1.14,6.13-1.14,.27,0,.55,0,.82,.02,.91-.18,1.82-.28,2.7-.28,1.05,0,2.08,.13,3.07,.39,2.41,.63,4.55,1.94,6.18,3.78,1.27,1.44,2.27,3.17,2.95,5.12,.29,.82,.53,1.66,.72,2.53,.94,.2,1.84,.55,2.67,1.05,2.06,1.25,3.55,3.17,4.23,5.45,.45,1.47,.56,3.05,.33,4.66-.33,2.31-1.38,4.33-3.06,5.85-2.02,1.85-4.32,3.23-6.82,4.08-.88,.3-1.77,.54-2.67,.73-1.22,1.34-2.61,2.46-4.17,3.36-2.75,1.6-5.78,2.44-9,2.48h-.28Z"/>
      <path class="cls-10" d="M470.1,219.71c-1.78,0-3.55-.25-5.25-.73-2.2-.63-4.23-1.64-6.05-3.01-.28-.21-.54-.42-.8-.64-2.25-.28-4.25-1.24-5.82-2.81-1.65-1.66-2.64-3.82-2.87-6.25-.2-2.18,.3-4.4,1.45-6.44l.09-.16,.09-.15c.66-1.06,1.4-2.26,2.22-3.6,.81-1.32,1.62-2.68,2.45-4.09,0,0,4.2-7.14,4.94-8.38,1.1-1.91,2.75-3.4,4.79-4.32,1.47-.66,3.01-1,4.58-1,.27,0,.54,0,.8,.03,2.28,.18,4.35,1.06,6.04,2.56,2.09,1.88,3.23,4.52,3.23,7.46,0,.29,0,.57-.03,.85,.36-.04,.72-.06,1.07-.06,1.38,0,2.73,.28,4.01,.83,1.74,.74,3.25,1.94,4.38,3.47,1.77,2.39,2.34,5.34,1.55,8.09-.34,1.16-.77,2.34-1.34,3.67-.62,1.43-1.38,2.85-2.29,4.24-.57,.87-1.17,1.71-1.8,2.51-.75,.97-1.58,1.87-2.45,2.69-.97,.91-2.02,1.71-3.13,2.39-1.13,.69-2.33,1.26-3.56,1.67-1.9,.72-3.88,1.11-5.87,1.15h-.44Z"/>
    </g>
    <g>
      <path class="cls-7" d="M323.15,191.22c-.05,1.28-.28,2.56-.69,3.85-.41,1.29-1.01,2.45-1.8,3.48-.79,1.03-1.76,1.86-2.89,2.49-1.14,.63-2.43,.89-3.89,.78,.03,.79,.11,1.56,.27,2.3,.15,.74,.4,1.37,.75,1.9,.34,.52,.81,.89,1.4,1.11,.59,.22,1.33,.19,2.22-.1,.89-.25,1.75-.68,2.57-1.26,.82-.59,1.55-1.26,2.2-2.03,.65-.77,1.2-1.58,1.65-2.43,.45-.85,.77-1.69,.98-2.51,.1-.43,.34-.7,.73-.8,.38-.1,.78-.09,1.21,.04,.42,.13,.78,.35,1.07,.67,.29,.32,.39,.68,.29,1.09-.56,1.48-1.12,2.8-1.67,3.94-.55,1.15-1.16,2.16-1.82,3.04-.66,.88-1.41,1.63-2.24,2.24-.83,.61-1.81,1.12-2.93,1.53-1.51,.54-2.9,.77-4.17,.71-1.28-.06-2.39-.4-3.33-1.01-.94-.61-1.69-1.48-2.24-2.6-.55-1.12-.86-2.49-.94-4.1-.05-.77-.07-1.69-.06-2.78,.01-1.08,.08-2.22,.21-3.41,.13-1.19,.33-2.39,.61-3.62,.28-1.23,.66-2.37,1.15-3.43,.48-1.06,1.09-1.99,1.82-2.8,.73-.8,1.61-1.38,2.66-1.74,.87-.31,1.72-.42,2.57-.34s1.59,.34,2.24,.8c.65,.46,1.17,1.1,1.55,1.93,.38,.83,.56,1.84,.54,3.04Zm-4.82-1c-.36-.23-.71-.25-1.05-.06-.35,.19-.67,.51-.98,.96-.31,.45-.57,.98-.8,1.59s-.42,1.24-.57,1.9c-.15,.65-.27,1.27-.34,1.86-.08,.59-.09,1.06-.04,1.42,1.17-.23,2.11-.71,2.8-1.46,.69-.74,1.17-1.53,1.44-2.37,.27-.84,.36-1.63,.27-2.37-.09-.74-.33-1.23-.71-1.46Z"/>
      <path class="cls-7" d="M324.07,188.54c.03-.69,.27-1.19,.73-1.51,.46-.32,.95-.46,1.47-.42,.52,.04,.98,.25,1.36,.63s.52,.93,.42,1.65c-.05,.31-.07,.73-.06,1.26,.01,.54,.06,1.14,.13,1.82,.08,.68,.2,1.39,.36,2.13,.17,.74,.39,1.46,.67,2.14,.31,.79,.68,1.52,1.13,2.18,.45,.66,.98,1.19,1.59,1.57l7.85-12.98c.41-.61,.9-.93,1.47-.94,.57-.01,1.08,.17,1.51,.56,.43,.38,.71,.89,.84,1.53,.13,.64-.05,1.29-.54,1.95l-8.04,12.44c.97,.84,1.94,1.42,2.91,1.74,.97,.32,1.9,.39,2.8,.21,1.17-.2,2.23-.8,3.18-1.8,.94-1,1.7-2.37,2.26-4.14,.05-.41,.25-.68,.59-.8,.34-.13,.71-.13,1.09,0,.38,.13,.73,.38,1.03,.75,.31,.37,.46,.86,.46,1.47-.77,2.3-1.79,4.14-3.08,5.53-1.29,1.39-2.74,2.3-4.35,2.74-1.38,.38-2.82,.42-4.33,.11-1.51-.31-3.05-1-4.63-2.07l-2.34,4.06c-.38,.64-.89,.98-1.51,1.02-.63,.04-1.21-.1-1.74-.4s-.93-.72-1.19-1.23c-.26-.51-.2-.98,.15-1.42l3.06-4.71c-1.05-.97-1.9-1.98-2.55-3.04-.65-1.06-1.17-2.14-1.55-3.24-.59-1.66-.94-3.26-1.07-4.81-.13-1.54-.17-2.88-.11-4Z"/>
      <path class="cls-7" d="M357.84,194.59c-.05,0-.09-.01-.11-.04-.28,.61-.64,1.06-1.09,1.34-.45,.28-.9,.39-1.36,.33-.46-.06-.87-.29-1.24-.67-.37-.38-.62-.92-.75-1.61,0-.33,.04-.75,.11-1.24,.08-.5,.13-.98,.17-1.46,.04-.47,.02-.88-.06-1.23-.08-.35-.28-.54-.61-.59-.59,.33-1.1,.89-1.53,1.67-.43,.78-.79,1.66-1.07,2.64-.28,.98-.48,2.02-.59,3.12-.11,1.1-.15,2.15-.11,3.16,.04,1.01,.17,1.91,.38,2.7,.22,.79,.53,1.37,.94,1.72,.51,.49,1.07,.78,1.68,.88,.61,.1,1.25,.09,1.91-.04,.56-.1,1.2-.29,1.91-.57,.71-.28,1.44-.69,2.16-1.23,.73-.54,1.43-1.23,2.11-2.07,.68-.84,1.27-1.9,1.78-3.18,.18-.38,.49-.61,.94-.69,.45-.08,.89-.03,1.32,.13,.43,.17,.78,.44,1.03,.82,.25,.38,.28,.86,.08,1.42-.51,1.2-1.14,2.27-1.9,3.22-.75,.94-1.56,1.77-2.43,2.49-.87,.72-1.77,1.33-2.72,1.84-.94,.51-1.86,.93-2.76,1.26-.69,.26-1.42,.45-2.18,.59-.77,.14-1.54,.17-2.32,.1-.78-.08-1.53-.27-2.24-.59-.72-.32-1.35-.82-1.91-1.51-.66-.79-1.18-1.77-1.55-2.95-.37-1.17-.61-2.42-.71-3.75-.1-1.33-.07-2.69,.1-4.1,.17-1.4,.45-2.74,.84-4,.4-1.26,.91-2.41,1.53-3.45,.63-1.03,1.35-1.84,2.16-2.43,1.33-.89,2.62-1.31,3.89-1.24,1.26,.06,2.26,.63,3.01,1.7,.59,.08,1.06,.37,1.42,.88,.36,.51,.46,1.1,.31,1.76l-.54,4.86Z"/>
      <path class="cls-7" d="M373.39,176.4c1.02,.26,1.72,.87,2.11,1.86,.38,.98,.52,2.2,.42,3.64-.1,1.44-.42,3.04-.96,4.81s-1.23,3.57-2.09,5.42c-.86,1.85-1.83,3.68-2.93,5.48-1.1,1.8-2.25,3.45-3.45,4.96,.2,.94,.52,1.63,.96,2.05,.43,.42,.94,.65,1.51,.69,.57,.04,1.18-.08,1.82-.36,.64-.28,1.28-.68,1.91-1.19,.82-.66,1.58-1.44,2.28-2.32,.7-.88,1.24-1.76,1.63-2.62,.08-.28,.31-.47,.71-.57,.4-.1,.81-.11,1.24-.02,.43,.09,.82,.28,1.15,.57,.33,.29,.47,.7,.42,1.21-.56,1.38-1.24,2.64-2.05,3.77-.8,1.14-1.69,2.11-2.66,2.93-1.51,1.3-3.04,2.16-4.59,2.57-1.53,.41-2.89,.4-4.06-.04-1.17-.43-2.16-1.16-2.95-2.18-.79-1.02-1.39-2.28-1.8-3.77-.41-1.49-.61-3.11-.61-4.84,0-1.05,.03-2.15,.1-3.31,.06-1.16,.17-2.33,.33-3.52,.15-1.19,.34-2.37,.57-3.54,.23-1.17,.52-2.31,.88-3.41,.43-1.38,.96-2.65,1.57-3.81,.61-1.16,1.33-2.13,2.16-2.89,.83-.77,1.77-1.3,2.83-1.59,1.06-.29,2.24-.27,3.54,.06Zm-2.49,4.4c-.31-.03-.63,.14-.96,.5-.33,.36-.66,.84-.98,1.46-.32,.61-.63,1.33-.94,2.16-.31,.83-.59,1.69-.84,2.59-.28,.92-.53,1.85-.75,2.8-.22,.94-.41,1.83-.58,2.64-.17,.82-.29,1.55-.38,2.2-.09,.65-.13,1.14-.13,1.47,.36-.48,.73-1.06,1.13-1.72,.4-.66,.79-1.37,1.19-2.12,.4-.75,.78-1.54,1.15-2.36,.37-.82,.71-1.62,1.01-2.41,.38-.94,.71-1.84,.98-2.7,.27-.85,.46-1.61,.57-2.26,.12-.65,.14-1.18,.08-1.59-.06-.41-.25-.63-.55-.65Z"/>
      <path class="cls-7" d="M378.33,188.12c.36-.64,.78-1.08,1.28-1.32,.5-.24,.98-.31,1.46-.19,.47,.12,.87,.4,1.21,.84,.33,.45,.5,1.04,.5,1.78-.08,.31-.22,.92-.42,1.84-.2,.92-.43,1.98-.67,3.18-.24,1.2-.48,2.47-.71,3.81-.23,1.34-.38,2.57-.46,3.69-.08,1.12-.06,2.07,.06,2.83,.12,.77,.38,1.19,.79,1.26,.74,.13,1.43-.15,2.07-.84,.64-.69,1.23-1.6,1.76-2.74,.54-1.14,1.02-2.41,1.46-3.81,.43-1.4,.81-2.75,1.13-4.04,.32-1.29,.58-2.43,.79-3.43,.2-1,.36-1.66,.46-1.99,.18-.64,.41-1.16,.71-1.57,.29-.41,.75-.74,1.36-1,.89-.1,1.59,.08,2.09,.55,.5,.47,.76,1.16,.78,2.05-.2,1-.43,2.06-.69,3.18-.26,1.12-.5,2.24-.73,3.35-.23,1.11-.42,2.18-.57,3.22-.15,1.03-.25,1.96-.29,2.78-.04,.82,0,1.51,.12,2.07,.11,.56,.35,.92,.71,1.07,.82,.13,1.55-.29,2.2-1.26,.65-.97,1.35-2.55,2.09-4.75,.23-.56,.57-.91,1.03-1.03,.46-.13,.89-.1,1.28,.1,.4,.19,.7,.53,.92,1.01,.22,.49,.21,1.07-.02,1.76-.15,.43-.34,.94-.57,1.51-.23,.57-.5,1.17-.82,1.78-.32,.61-.67,1.23-1.05,1.84s-.79,1.16-1.23,1.65c-.64,.77-1.35,1.31-2.14,1.63-.79,.32-1.57,.43-2.34,.33s-1.49-.42-2.18-.96-1.25-1.29-1.68-2.26c-.46,.66-.93,1.28-1.4,1.84-.47,.56-1,1.05-1.57,1.46-.57,.41-1.21,.71-1.91,.9-.7,.19-1.53,.26-2.47,.21-.92-.05-1.68-.31-2.28-.77-.6-.46-1.07-1.05-1.4-1.76-.33-.71-.56-1.5-.69-2.35-.13-.86-.19-1.72-.19-2.59s.03-1.69,.1-2.47c.06-.78,.12-1.44,.17-1.97,.08-.69,.2-1.49,.36-2.41,.17-.92,.34-1.86,.54-2.81,.19-.96,.39-1.89,.59-2.8,.2-.91,.37-1.7,.5-2.39Z"/>
      <path class="cls-7" d="M396.13,206.88c-.61,.38-1.18,.55-1.7,.52-.52-.04-.94-.22-1.26-.54-.32-.32-.5-.76-.55-1.32-.05-.56,.1-1.16,.46-1.8,.66-1.07,1.41-2.28,2.24-3.64,.83-1.35,1.67-2.76,2.53-4.21,.86-1.46,1.71-2.91,2.57-4.37,.85-1.46,1.65-2.81,2.39-4.06,.25-.46,.64-.8,1.15-1.03,.51-.23,1.01-.33,1.51-.29,.5,.04,.93,.22,1.3,.56,.37,.33,.55,.83,.55,1.49,0,.41-.06,.82-.19,1.24-.13,.42-.13,.84,0,1.24,.31,1.02,.64,2.25,1,3.7,.36,1.44,.64,2.97,.84,4.58,.08,.61,.13,1.28,.17,1.99,.04,.72,.05,1.43,.04,2.14-.01,.72-.06,1.41-.13,2.09-.08,.68-.18,1.27-.31,1.78,.66-.31,1.25-.69,1.76-1.15,.51-.46,1-1.03,1.46-1.72s.91-1.51,1.36-2.47c.45-.96,.93-2.09,1.44-3.39,.25-.66,.62-1.05,1.09-1.17,.47-.12,.93-.08,1.38,.11,.45,.19,.82,.49,1.11,.88,.29,.4,.39,.77,.29,1.13-.23,.79-.56,1.69-1,2.7-.43,1.01-.98,2.02-1.65,3.04-.43,.66-.9,1.32-1.4,1.95-.5,.64-1.03,1.23-1.61,1.76-.58,.54-1.19,1.01-1.86,1.42-.66,.41-1.35,.73-2.07,.96-1.1,.43-2.21,.66-3.35,.69-1.14,.03-2.24-.11-3.31-.42-1.25-.36-2.39-.93-3.43-1.7-1.03-.78-1.88-1.77-2.55-2.97l-.27,.27Zm7.51-12.25c-.36,.59-.7,1.17-1.03,1.76-.33,.59-.66,1.17-1,1.76-.33,.61-.67,1.23-1.02,1.86-.34,.63-.73,1.28-1.17,1.97,.13,.31,.32,.72,.57,1.23,.25,.51,.59,1.02,1,1.53,.36,.46,.76,.88,1.21,1.26,.45,.38,.93,.64,1.44,.77,.2-.31,.36-.69,.46-1.15,.1-.46,.17-.98,.21-1.55,.04-.57,.04-1.19,.02-1.84-.03-.65-.06-1.31-.11-1.97-.08-1.1-.18-2.15-.31-3.16-.13-1.01-.22-1.83-.27-2.47Z"/>
      <path class="cls-7" d="M416.54,188.73c.51-.51,1.03-.8,1.57-.86,.54-.06,1.01,.03,1.42,.27,.41,.24,.71,.6,.9,1.07,.19,.47,.21,.99,.06,1.55-.26,.54-.5,1.24-.73,2.11-.23,.87-.43,1.79-.61,2.76-.18,.97-.32,1.97-.42,2.99-.1,1.02-.15,1.95-.13,2.8,.01,.84,.1,1.57,.25,2.18s.4,1,.73,1.15c.33,.15,.68,.19,1.05,.1,.37-.09,.77-.36,1.19-.82,.42-.46,.87-1.15,1.36-2.07,.48-.92,1-2.16,1.53-3.71,.2-.38,.49-.62,.86-.71,.37-.09,.73-.07,1.07,.06,.35,.13,.61,.35,.8,.67,.19,.32,.22,.7,.1,1.13-.23,.89-.61,1.97-1.13,3.22-.52,1.25-1.18,2.43-1.97,3.52-.79,1.1-1.7,1.97-2.72,2.62-1.02,.65-2.13,.81-3.33,.48-1.07-.31-1.91-.93-2.53-1.86-.61-.93-1.05-2.03-1.3-3.31-.26-1.28-.36-2.66-.31-4.15,.05-1.49,.19-2.94,.4-4.35,.22-1.4,.5-2.71,.84-3.92,.34-1.21,.69-2.18,1.05-2.89Zm1.11-3.48c-.51-.69-.71-1.35-.59-1.99,.12-.64,.4-1.13,.84-1.47,.45-.34,.98-.49,1.61-.44,.63,.05,1.21,.43,1.74,1.15,.36,.59,.45,1.17,.29,1.74-.17,.58-.46,1.03-.88,1.38-.42,.35-.92,.52-1.49,.52s-1.08-.29-1.51-.88Z"/>
      <path class="cls-7" d="M426.92,187.55c.97,4.03,1.73,7.26,2.28,9.67,.55,2.41,.86,3.96,.94,4.65,.36-.92,.75-1.99,1.19-3.22,.43-1.23,.89-2.48,1.38-3.75,.48-1.28,.99-2.54,1.51-3.79,.52-1.25,1.07-2.37,1.63-3.37,.31-.64,.75-1.02,1.32-1.15,.57-.13,1.11-.08,1.61,.13,.5,.22,.88,.55,1.15,1.01,.27,.46,.25,.97-.06,1.53-.33,.66-.72,1.49-1.15,2.49-.43,1-.89,2.08-1.36,3.25-.47,1.17-.95,2.39-1.44,3.66-.49,1.26-.94,2.49-1.36,3.68-.42,1.19-.8,2.3-1.15,3.33-.35,1.03-.62,1.9-.82,2.59-.2,.59-.6,.99-1.19,1.21-.59,.22-1.19,.29-1.82,.23-.63-.06-1.2-.22-1.72-.48-.52-.25-.82-.57-.9-.96-.38-1.79-.75-3.56-1.09-5.32-.34-1.76-.68-3.44-1-5.03-.32-1.6-.62-3.08-.9-4.44-.28-1.37-.52-2.57-.73-3.62-.23-.59-.21-1.12,.06-1.59,.27-.47,.63-.83,1.09-1.07,.46-.24,.94-.35,1.44-.31,.5,.04,.86,.26,1.09,.67Z"/>
      <path class="cls-7" d="M450.97,186.47c1.17-.38,2.2-.46,3.08-.23,.88,.23,1.61,.68,2.2,1.34,.59,.66,1.05,1.49,1.4,2.47,.35,.98,.58,2.02,.71,3.12,.05,.51,.08,1.07,.1,1.68,.01,.61,0,1.23-.04,1.84-.04,.61-.09,1.2-.15,1.76-.06,.56-.15,1.07-.25,1.53,.61-.03,1.16-.11,1.65-.25,.48-.14,.93-.31,1.34-.5,.41-.19,.8-.4,1.17-.63,.37-.23,.75-.45,1.13-.65,.48-.25,.89-.29,1.21-.1,.32,.19,.54,.48,.65,.86,.12,.38,.14,.8,.08,1.24-.06,.45-.24,.8-.52,1.05-1.23,1.12-2.57,1.93-4.02,2.43-1.46,.5-2.94,.75-4.44,.75-1,1.76-2.27,3.1-3.83,4-1.56,.91-3.25,1.37-5.09,1.4-1.71,.03-3.15-.32-4.33-1.03-1.17-.71-2.11-1.65-2.8-2.8s-1.14-2.46-1.36-3.93c-.22-1.47-.22-2.95,0-4.44,.22-1.49,.65-2.95,1.3-4.37,.65-1.42,1.49-2.65,2.51-3.69,1.02-1.05,2.23-1.84,3.62-2.39,1.39-.55,2.95-.71,4.69-.48Zm-2.76,4.4c-.82,.18-1.57,.63-2.26,1.36-.69,.73-1.28,1.59-1.76,2.6-.49,1.01-.83,2.1-1.03,3.27-.2,1.17-.22,2.28-.06,3.31,.17,1.03,.56,1.93,1.17,2.7s1.49,1.26,2.64,1.49c.41,.08,.87,.04,1.38-.11,.51-.15,1.01-.38,1.49-.69,.48-.31,.93-.67,1.32-1.09,.4-.42,.69-.85,.9-1.28-.72-.43-1.32-.96-1.82-1.57-.5-.61-.93-1.29-1.28-2.03-.56-1.23-.89-2.53-1-3.92-.1-1.39,0-2.74,.31-4.04Zm4.75,.19c-.72,.43-1.12,1.04-1.21,1.82-.09,.78-.02,1.57,.21,2.37,.23,.8,.55,1.53,.96,2.16,.41,.64,.75,1.03,1.03,1.19,.15-.13,.27-.43,.36-.9,.09-.47,.15-1.01,.17-1.63,.03-.61,.01-1.25-.04-1.91-.05-.66-.14-1.25-.27-1.76-.13-.51-.29-.9-.5-1.17-.2-.27-.45-.33-.73-.17Z"/>
      <path class="cls-7" d="M460.81,206.88c-.61,.38-1.18,.55-1.7,.52-.52-.04-.94-.22-1.26-.54-.32-.32-.5-.76-.55-1.32-.05-.56,.1-1.16,.46-1.8,.66-1.07,1.41-2.28,2.24-3.64,.83-1.35,1.67-2.76,2.53-4.21,.86-1.46,1.71-2.91,2.57-4.37,.85-1.46,1.65-2.81,2.39-4.06,.25-.46,.64-.8,1.15-1.03,.51-.23,1.01-.33,1.51-.29,.5,.04,.93,.22,1.3,.56,.37,.33,.55,.83,.55,1.49,0,.41-.06,.82-.19,1.24-.13,.42-.13,.84,0,1.24,.31,1.02,.64,2.25,1,3.7,.36,1.44,.64,2.97,.84,4.58,.08,.61,.13,1.28,.17,1.99,.04,.72,.05,1.43,.04,2.14-.01,.72-.06,1.41-.13,2.09-.08,.68-.18,1.27-.31,1.78,.66-.31,1.25-.69,1.76-1.15,.51-.46,1-1.03,1.46-1.72s.91-1.51,1.36-2.47c.45-.96,.93-2.09,1.44-3.39,.25-.66,.62-1.05,1.09-1.17,.47-.12,.93-.08,1.38,.11,.45,.19,.82,.49,1.11,.88,.29,.4,.39,.77,.29,1.13-.23,.79-.56,1.69-1,2.7-.43,1.01-.98,2.02-1.65,3.04-.43,.66-.9,1.32-1.4,1.95-.5,.64-1.03,1.23-1.61,1.76-.58,.54-1.19,1.01-1.86,1.42-.66,.41-1.35,.73-2.07,.96-1.1,.43-2.21,.66-3.35,.69-1.14,.03-2.24-.11-3.31-.42-1.25-.36-2.39-.93-3.43-1.7-1.03-.78-1.88-1.77-2.55-2.97l-.27,.27Zm7.51-12.25c-.36,.59-.7,1.17-1.03,1.76-.33,.59-.66,1.17-1,1.76-.33,.61-.67,1.23-1.02,1.86-.34,.63-.73,1.28-1.17,1.97,.13,.31,.32,.72,.57,1.23,.25,.51,.59,1.02,1,1.53,.36,.46,.76,.88,1.21,1.26,.45,.38,.93,.64,1.44,.77,.2-.31,.36-.69,.46-1.15,.1-.46,.17-.98,.21-1.55,.04-.57,.04-1.19,.02-1.84-.03-.65-.06-1.31-.11-1.97-.08-1.1-.18-2.15-.31-3.16-.13-1.01-.22-1.83-.27-2.47Z"/>
    </g>
  </g>
  <circle class="cls-7" cx="396.56" cy="400.2" r="173.76"/>
  <g>
    <g>
      <g>
        <path class="cls-10" d="M272.6,115.64c-1.52,0-3.01-.27-4.43-.79-3.88-1.46-6.42-4.76-6.93-8.85-1.34-4.66-2.53-8.86-3.57-12.6-1.1-3.94-2.1-7.5-3.01-10.7-.44-1.54-.87-3.02-1.3-4.43-.82,.31-1.64,.56-2.43,.76-.72,.18-1.39,.37-2,.56l-.2,.06-.2,.05c-1.12,.29-2.25,.44-3.35,.44-2.59,0-5.04-.81-7.08-2.35-2.17-1.63-3.75-3.8-4.6-6.27-.87-2.52-.95-5.22-.21-7.77,1.09-3.77,4.06-6.65,7.93-7.71,.82-.23,1.87-.6,3.02-1.07,.84-.34,1.61-.75,2.3-1.22,.2-.14,.38-.29,.53-.44v-.04c.24-2.65,1.08-5,2.47-6.98,1.54-2.17,3.6-3.76,5.97-4.63,1.37-.5,2.77-.74,4.2-.74,1.14,0,2.29,.16,3.43,.46,.32,.09,.64,.19,.95,.3,.48-.59,.98-1.16,1.5-1.71,2.08-2.2,4.46-3.84,7.08-4.89,2.43-.99,4.85-1.5,7.17-1.5,.7,0,1.41,.05,2.09,.14,2.99,.41,5.66,1.53,7.95,3.34,2.05,1.62,3.72,3.68,4.96,6.13,1.01,2,1.76,4.16,2.22,6.44,.43,2.09,.63,4.29,.61,6.53-.03,2.25-.28,4.39-.74,6.38-.1,.44-.21,.88-.33,1.34,1.2-1.16,2.64-2.04,4.24-2.54,1.11-.35,2.28-.53,3.45-.53,1.62,0,3.2,.34,4.71,1.01,2.16,.98,4,2.57,5.35,4.63,1.56,2.38,2.22,5.14,1.93,7.98l-.08,.77s-1.21,4.31-1.8,6.42c-.71,2.52-1.62,5.04-2.72,7.48-1.19,2.66-2.66,5.15-4.37,7.41-2.16,2.87-4.84,5.1-7.98,6.62-2.44,1.21-5.03,1.82-7.7,1.82-.46,0-.91-.02-1.37-.05-1.34-.11-2.68-.33-4-.68-.32,2.77-1.6,5.32-3.74,7.35-1.78,1.69-3.86,2.88-6.19,3.54-1.25,.35-2.5,.53-3.74,.53Z"/>
        <path class="cls-10" d="M311.22,104.83c-.38,0-.75,0-1.12-.03-3.71-.19-7.06-1.24-9.96-3.12-2.94-1.9-5.26-4.56-6.89-7.9-1.43-2.92-2.25-6.35-2.45-10.19-.1-1.48-.13-3.23-.11-5.19,.02-2.05,.16-4.23,.4-6.46,.25-2.3,.65-4.65,1.18-7,.6-2.6,1.43-5.08,2.48-7.38,1.18-2.58,2.7-4.9,4.51-6.9,2.24-2.47,4.99-4.28,8.17-5.36,2.02-.71,4.17-1.09,6.31-1.09,.55,0,1.1,.02,1.65,.07,2.99,.27,5.71,1.26,8.09,2.94,2.38,1.69,4.25,3.97,5.55,6.78,1.21,2.62,1.79,5.64,1.72,8.99v.18c-.03,.6-.07,1.2-.13,1.8,.47,.09,.93,.2,1.39,.34,2.24,.68,4.25,1.94,5.82,3.65,2.55,2.78,3.5,6.47,2.59,10.12l-.13,.52-.19,.5c-1.01,2.66-2.03,5.07-3.03,7.17-1.16,2.43-2.49,4.63-3.93,6.55-1.61,2.14-3.47,3.99-5.54,5.52-2.05,1.52-4.44,2.78-7.1,3.74-3.24,1.15-6.34,1.73-9.29,1.73Z"/>
        <path class="cls-10" d="M328.17,127.39c-2.42,0-4.83-.56-7.17-1.67-5.02-2.35-7.37-5.95-8.46-8.54-1.34-3.21-1.73-6.7-1.14-10.36,.49-3.08,1.64-6.18,3.42-9.22,1.3-2.22,2.86-4.32,4.65-6.26-.81-1.07-1.49-2.24-2.03-3.51-1.6-3.74-2.15-7.95-1.65-12.5,.43-3.93,1.5-7.8,3.18-11.48,1.63-3.61,3.8-6.78,6.45-9.42,2.66-2.65,5.65-4.71,8.88-6.11,3.12-1.35,6.38-2.04,9.69-2.04,.35,0,.69,0,1.04,.02,2.2,.09,4.34,.52,6.4,1.26,.68-.12,1.38-.18,2.06-.18,1.88,0,3.7,.43,5.41,1.27,1.88,.94,4.42,2.83,5.93,6.58,1.12,2.78,1.21,5.97,.25,9.49l-.08,.3s-1.38,4-1.49,4.33c.62,.12,1.23,.29,1.84,.52,2.05,.77,3.91,2.1,5.35,3.83,1.49,1.79,2.46,3.98,2.82,6.33,.47,3.17-.35,6.32-2.31,8.88l-.13,.17-.14,.16c-3.39,4.02-7.13,7.18-11.13,9.38-2.16,1.19-4.39,2.2-6.69,3.02-.13,.36-.26,.72-.39,1.09-.83,2.24-1.82,4.53-2.96,6.82-1.17,2.34-2.5,4.61-3.94,6.73-1.69,2.48-3.59,4.61-5.65,6.34-2.46,2.06-5.17,3.49-8.05,4.25-1.3,.34-2.63,.51-3.96,.51Z"/>
        <path class="cls-10" d="M368.29,101.72c-1.45,0-2.91-.2-4.36-.6-3.92-1.12-7.12-3.47-9.31-6.81-1.65-2.5-2.81-5.41-3.45-8.65-.55-2.76-.78-5.76-.67-8.91,.09-2.79,.35-5.55,.76-8.21,.41-2.65,.96-5.19,1.62-7.54,.73-2.57,1.5-4.64,2.34-6.33l.37-.74c-.68-2.26-.6-4.29-.33-5.82,.58-3.27,2.24-6.04,4.78-8,2.21-1.71,4.91-2.62,7.79-2.62,.37,0,.74,.01,1.12,.04,2.57,.21,6.27,1.33,9.39,5.48l.27,.36,.23,.38c1.9,3.13,2.41,6.71,1.43,10.09-.38,1.31-.94,2.54-1.65,3.66,.57,2.09,.6,4.29,.08,6.48,.07,0,.14,0,.21,0,1.42,0,2.82,.25,4.16,.75,2.53,.94,4.59,2.65,5.97,4.96,1.58,2.63,1.99,5.79,1.13,8.88-.49,1.87-1.22,3.97-2.24,6.41-1.12,2.69-2.55,5.24-4.25,7.59-1.96,2.73-4.3,4.96-6.94,6.65-2.6,1.65-5.42,2.49-8.41,2.49Z"/>
        <path class="cls-10" d="M390.22,105.54c-2.55,0-5.07-.35-7.5-1.04-3.12-.89-6.01-2.33-8.59-4.27-.73-.55-1.42-1.13-2.08-1.76-.19,0-.38-.02-.57-.03-3.02-.22-5.74-1.43-7.82-3.52-2.03-2.02-3.25-4.71-3.53-7.76-.25-2.77,.38-5.54,1.87-8.21l.1-.17,.11-.17c1.08-1.75,2.3-3.73,3.66-5.94,1.29-2.11,2.66-4.39,4.07-6.78l4.21-7.17c1.39-2.37,2.69-4.57,3.9-6.61,1.37-2.4,3.45-4.27,6.02-5.43,1.88-.85,3.85-1.28,5.85-1.28,.35,0,.7,.01,1.06,.04,2.8,.21,5.4,1.32,7.49,3.2,2.53,2.28,3.93,5.54,3.93,9.21,0,.97-.09,1.95-.28,2.93,.31,1.08,.62,2.26,.96,3.56,.78-.37,1.5-.6,2.1-.74,1-.24,2.01-.36,3.01-.36,1.71,0,3.39,.35,4.98,1.03,2.18,.93,4.1,2.45,5.53,4.38,2.15,2.9,2.85,6.45,1.91,9.74-.5,1.72-1.16,3.51-2.03,5.54-.91,2.12-2.07,4.26-3.43,6.36-.87,1.33-1.79,2.61-2.75,3.85-1.1,1.41-2.32,2.74-3.6,3.94-1.36,1.27-2.87,2.42-4.48,3.42-1.62,1-3.33,1.8-5.1,2.39-2.71,1.04-5.52,1.59-8.36,1.66-.21,0-.42,0-.63,0Z"/>
        <path class="cls-10" d="M414.39,101.83c-3.99,0-7.46-.99-10.31-2.94-2.74-1.87-4.84-4.44-6.22-7.62-1.07-2.46-1.76-5.29-2.04-8.4-.23-2.59-.25-5.36-.08-8.24,.16-2.65,.43-5.45,.82-8.31,0,0,0-.02,0-.03-1.15-.89-2.13-1.99-2.89-3.28-1.31-2.23-1.94-4.77-1.81-7.35,.12-2.34,.8-4.53,2.01-6.55,1.55-2.58,3.92-4.44,6.75-5.3l1-5.54,.09-.34c.86-3.26,3.01-5.94,6.06-7.55,2-1.06,4.15-1.59,6.37-1.59,.33,0,.67,.01,1,.04,2.86,.21,5.5,1.33,7.62,3.24,1.65,1.49,4.3,4.79,3.72,10.36l-.03,.28-.13,.77c3.22,.47,5.99,2.17,7.85,4.83,1.4,1.99,2.22,4.37,2.35,6.85,.12,2.35-.35,4.64-1.41,6.81-.4,.83-.88,1.6-1.43,2.3,2.26,.6,4.3,1.77,5.95,3.42,2.78,2.78,3.88,6.56,3.04,10.37-.7,3.18-1.75,6.17-3.11,8.88-1.51,2.98-3.46,5.6-5.8,7.79-2.45,2.28-5.35,4.06-8.64,5.29-3.19,1.2-6.8,1.8-10.73,1.8Z"/>
        <path class="cls-10" d="M450.06,106.39c-1.62,0-3.23-.22-4.79-.67-2.57-.73-4.9-2-6.94-3.8-1.1-.96-2.05-2.06-2.85-3.26-1.94,2.3-4.67,3.73-7.72,3.98-.38,.03-.75,.05-1.12,.05-1.87,0-3.7-.38-5.44-1.12-1.93-.83-3.59-2-4.96-3.48-2.9-3.14-3.72-7.43-2.15-11.21,.28-.68,.65-1.59,1.1-2.7,.26-.63,.71-1.85,1.44-4.21,.62-1.98,1.34-4.67,2.15-8.01,.81-3.35,1.75-7.7,2.79-12.92,.68-4.56,3.02-7.2,4.89-8.62,2.26-1.71,4.92-2.61,7.68-2.61,.38,0,.76,.02,1.15,.05,1.5,.12,3.05,.52,4.52,1.19,1.8,.83,3.34,2.02,4.58,3.56,1.15,1.42,1.98,3.05,2.48,4.86,.02,.07,.04,.14,.06,.21,.38,.19,.81,.36,1.28,.52,.8,.26,1.73,.55,2.77,.83l1.36,.37,1.18,.77c1.86,1.21,3.3,2.65,4.3,4.28,1.44-.55,2.94-.83,4.46-.83,.71,0,1.43,.06,2.13,.18,2.51,.43,4.81,1.58,6.64,3.34,2.72,2.61,3.9,6.34,3.17,10.03-.3,1.78-.73,3.74-1.29,5.83-.62,2.32-1.44,4.65-2.44,6.93-1.05,2.38-2.31,4.66-3.75,6.77-1.75,2.56-3.86,4.71-6.27,6.38-2.19,1.54-4.66,2.57-7.3,3.03-1.03,.18-2.07,.27-3.1,.27Z"/>
        <path class="cls-10" d="M488.17,103.27c-1.85,0-3.73-.31-5.59-.93-1.94-.65-3.76-1.64-5.43-2.94-.14-.11-.27-.21-.41-.33-.3,.14-.59,.28-.9,.42-2.19,.96-4.52,1.46-6.92,1.46-6.19,0-10.13-2.54-12.35-4.66-2.71-2.59-4.6-5.87-5.61-9.75-.84-3.23-1.11-6.77-.8-10.51,.29-3.47,1.04-6.93,2.21-10.27,1.17-3.32,2.73-6.45,4.64-9.3,2.22-3.31,4.89-5.94,7.95-7.8,3.12-1.9,6.55-2.86,10.19-2.86,.5,0,1,.02,1.52,.06,2.46,.18,4.89,.89,7.26,2.11,.55-.07,1.1-.1,1.65-.1,1.68,0,3.35,.31,4.95,.93,2.39,.92,4.49,2.51,6.05,4.61,1.95,2.63,2.68,5.89,2.1,9.15,.58-.09,1.18-.13,1.77-.13,1.89,0,3.71,.45,5.42,1.33,2.2,1.14,4.02,2.89,5.29,5.08,1.61,2.79,1.97,5.95,1.07,8.89-.43,2.1-1.14,4.34-2.14,6.8-1.13,2.77-2.58,5.44-4.33,7.93-1.88,2.69-4.06,5-6.48,6.9-3.3,2.57-7.14,3.93-11.11,3.93Z"/>
        <path class="cls-10" d="M506.54,101.83c-3.99,0-7.46-.99-10.31-2.94-2.74-1.87-4.84-4.44-6.22-7.62-1.07-2.46-1.76-5.29-2.04-8.4-.23-2.59-.25-5.36-.08-8.24,.16-2.65,.43-5.45,.82-8.31,0,0,0-.02,0-.03-1.15-.89-2.13-1.99-2.89-3.28-1.31-2.23-1.94-4.77-1.81-7.35,.12-2.33,.8-4.52,2-6.54,1.56-2.59,3.93-4.45,6.75-5.3l1-5.54,.09-.34c.86-3.26,3.01-5.94,6.06-7.55,2-1.06,4.15-1.59,6.37-1.59,.33,0,.67,.01,1,.04,2.86,.21,5.5,1.33,7.62,3.24,1.65,1.49,4.3,4.79,3.72,10.36l-.03,.28-.13,.77c3.22,.47,5.99,2.17,7.85,4.83,1.4,1.99,2.22,4.37,2.35,6.85,.12,2.35-.35,4.64-1.41,6.81-.4,.83-.88,1.6-1.43,2.3,2.26,.6,4.3,1.77,5.95,3.42,2.78,2.78,3.88,6.56,3.04,10.37-.7,3.18-1.75,6.17-3.11,8.88-1.51,2.99-3.46,5.61-5.81,7.8-2.44,2.28-5.35,4.06-8.64,5.29-3.19,1.2-6.8,1.8-10.73,1.8Z"/>
        <path class="cls-10" d="M530.79,104.83c-.38,0-.75,0-1.12-.03-3.71-.19-7.06-1.24-9.96-3.12-2.94-1.91-5.26-4.57-6.89-7.91-1.43-2.92-2.25-6.35-2.45-10.19-.1-1.48-.13-3.23-.11-5.19,.02-2.05,.16-4.23,.4-6.46,.25-2.29,.64-4.64,1.18-7,.6-2.6,1.43-5.09,2.48-7.38,1.18-2.58,2.7-4.9,4.51-6.9,2.24-2.47,4.99-4.28,8.17-5.36,2.02-.71,4.17-1.09,6.31-1.09,.55,0,1.1,.02,1.65,.07,2.99,.27,5.71,1.26,8.09,2.94,2.38,1.69,4.25,3.97,5.55,6.78,1.21,2.62,1.78,5.64,1.71,8.99v.17c-.03,.6-.07,1.21-.13,1.81,.47,.09,.93,.2,1.39,.34,2.24,.68,4.25,1.94,5.82,3.65,2.55,2.78,3.5,6.47,2.59,10.12l-.13,.52-.19,.5c-1.01,2.65-2.03,5.07-3.03,7.17-1.16,2.43-2.49,4.63-3.93,6.55-1.61,2.14-3.47,3.99-5.54,5.52-2.05,1.52-4.44,2.78-7.1,3.74-3.24,1.15-6.34,1.73-9.29,1.73Z"/>
      </g>
      <g>
        <path class="cls-7" d="M246.23,70.93c-1.07,.28-1.96,.15-2.67-.38-.71-.54-1.2-1.19-1.47-1.97-.27-.78-.29-1.54-.07-2.3s.76-1.26,1.62-1.49c1.22-.35,2.56-.81,4.02-1.4,1.46-.59,2.81-1.31,4.06-2.17,1.25-.86,2.29-1.89,3.12-3.07,.83-1.18,1.26-2.54,1.29-4.06,.09-1.05,.38-1.9,.84-2.56,.47-.66,1.03-1.11,1.68-1.35,.65-.24,1.37-.25,2.14-.04s1.52,.71,2.23,1.5c.63,1.24,1.17,2.43,1.62,3.58,.45,1.15,.87,2.38,1.25,3.67,.15-1.12,.5-2.45,1.05-3.99,.54-1.54,1.26-3.06,2.16-4.57,.9-1.51,1.94-2.89,3.11-4.13,1.18-1.24,2.46-2.14,3.87-2.71,1.75-.71,3.3-.98,4.66-.79,1.36,.19,2.55,.68,3.55,1.47,1.01,.8,1.83,1.83,2.48,3.11,.64,1.28,1.12,2.66,1.42,4.15,.31,1.49,.45,3.03,.43,4.61-.02,1.59-.19,3.06-.51,4.44-.32,1.47-.81,2.99-1.44,4.57-.64,1.58-1.39,3.14-2.25,4.68-.86,1.54-1.81,3.02-2.85,4.42s-2.13,2.68-3.28,3.82c.4,.51,.96,1.16,1.67,1.95,.71,.79,1.5,1.61,2.37,2.47,.87,.86,1.8,1.69,2.77,2.5,.97,.81,1.93,1.53,2.88,2.14,.95,.61,1.88,1.06,2.77,1.33,.9,.27,1.7,.28,2.41,.02,.63-.23,1.26-.72,1.9-1.48,.63-.75,1.24-1.66,1.84-2.72,.59-1.06,1.17-2.2,1.74-3.43s1.08-2.43,1.55-3.62c.47-1.19,.87-2.28,1.22-3.27,.34-.99,.64-1.8,.88-2.4,.29-.81,.72-1.31,1.31-1.49,.58-.18,1.16-.15,1.73,.11,.57,.26,1.06,.7,1.46,1.32,.41,.62,.57,1.32,.49,2.08-.47,1.67-.99,3.55-1.59,5.66-.59,2.11-1.35,4.19-2.27,6.23-.92,2.04-2.03,3.93-3.34,5.66-1.3,1.73-2.88,3.05-4.73,3.94-1.39,.69-2.84,.98-4.36,.86-1.51-.12-3.02-.5-4.5-1.13-1.49-.63-2.94-1.48-4.36-2.53s-2.76-2.19-4.01-3.4c-1.26-1.21-2.41-2.42-3.46-3.64-1.05-1.21-1.95-2.3-2.68-3.26,.07,.7,.24,1.64,.51,2.83,.26,1.19,.57,2.47,.92,3.85,.35,1.38,.72,2.81,1.11,4.29,.39,1.48,.77,2.87,1.13,4.17,.36,1.31,.69,2.46,.98,3.45s.51,1.71,.66,2.15c.06,.89-.26,1.67-.97,2.34-.71,.67-1.53,1.14-2.44,1.4-.92,.26-1.76,.25-2.52-.04-.76-.29-1.14-.94-1.12-1.95-1.44-5-2.71-9.47-3.81-13.43-1.1-3.96-2.11-7.54-3.02-10.76-.91-3.21-1.79-6.12-2.63-8.73-.84-2.61-1.69-5.03-2.57-7.25-1.22,1.31-2.38,2.35-3.48,3.12-1.1,.78-2.16,1.4-3.17,1.86-1.01,.46-1.96,.81-2.84,1.03-.89,.22-1.71,.46-2.47,.7Zm24.78,2.75c1.64-.76,3.09-1.83,4.36-3.23,1.27-1.4,2.34-2.92,3.22-4.59,.88-1.66,1.56-3.36,2.04-5.1s.75-3.34,.82-4.82c.07-1.47-.07-2.71-.42-3.73-.35-1.01-.9-1.65-1.66-1.92-.9-.29-1.84-.03-2.82,.78-.97,.81-1.86,2.18-2.67,4.11-.81,1.93-1.47,4.42-2,7.48-.52,3.06-.82,6.73-.88,11.01Z"/>
        <path class="cls-7" d="M321.68,62.82c-.08,2.1-.46,4.2-1.13,6.32-.67,2.12-1.66,4.03-2.96,5.72-1.3,1.7-2.88,3.06-4.75,4.09-1.87,1.03-3.99,1.46-6.38,1.29,.04,1.3,.19,2.56,.44,3.77,.25,1.22,.66,2.25,1.23,3.11,.57,.86,1.33,1.47,2.3,1.82,.96,.36,2.18,.3,3.65-.16,1.47-.42,2.87-1.11,4.21-2.08,1.34-.96,2.55-2.08,3.62-3.33,1.07-1.26,1.97-2.59,2.7-3.99s1.27-2.78,1.6-4.12c.17-.71,.57-1.15,1.2-1.32,.63-.17,1.29-.15,1.98,.06,.69,.21,1.28,.58,1.76,1.1s.64,1.12,.47,1.79c-.92,2.43-1.83,4.59-2.74,6.48s-1.9,3.55-2.99,5c-1.09,1.45-2.32,2.67-3.68,3.68s-2.97,1.84-4.81,2.52c-2.47,.88-4.76,1.27-6.86,1.16-2.1-.11-3.92-.66-5.47-1.67-1.55-1.01-2.78-2.43-3.68-4.28-.9-1.84-1.42-4.09-1.54-6.73-.08-1.26-.12-2.78-.09-4.56,.02-1.78,.14-3.65,.35-5.6,.21-1.95,.54-3.93,1.01-5.94,.46-2.01,1.09-3.89,1.89-5.63,.8-1.74,1.79-3.27,2.99-4.59,1.2-1.32,2.65-2.27,4.37-2.86,1.43-.5,2.83-.69,4.21-.57s2.61,.57,3.68,1.32c1.07,.75,1.92,1.81,2.55,3.18,.63,1.36,.92,3.03,.88,5Zm-7.92-1.64c-.59-.38-1.16-.41-1.73-.09-.57,.32-1.1,.84-1.6,1.57s-.94,1.6-1.32,2.61-.69,2.04-.94,3.11c-.25,1.07-.44,2.09-.57,3.05-.13,.96-.15,1.74-.06,2.33,1.93-.38,3.46-1.17,4.59-2.39,1.13-1.22,1.92-2.52,2.36-3.9,.44-1.38,.59-2.68,.44-3.9-.15-1.22-.53-2.01-1.16-2.39Z"/>
        <path class="cls-7" d="M351.19,57.52c.3-.48,.83-.81,1.57-.98,.74-.17,1.45-.09,2.12,.24,.67,.33,1.19,.95,1.55,1.85,.36,.9,.33,2.14-.09,3.72-.21,.6-.56,1.62-1.06,3.07s-1.06,3.08-1.68,4.89-1.27,3.71-1.96,5.69c-.69,1.99-1.31,3.78-1.88,5.39-.56,1.61-1.03,2.94-1.4,3.99-.37,1.05-.54,1.58-.5,1.59,.49-.04,1.12-.15,1.88-.34,.77-.18,1.68-.58,2.73-1.19,1.05-.6,2.25-1.44,3.58-2.52s2.81-2.52,4.43-4.34c.5-.39,1.05-.47,1.66-.24,.61,.23,1.14,.61,1.58,1.14,.44,.53,.72,1.16,.83,1.89,.11,.72-.07,1.39-.54,2-2.68,3.18-5.55,5.61-8.58,7.29-3.04,1.68-6.22,2.89-9.55,3.64-.38,1.55-.92,3.3-1.65,5.26-.72,1.95-1.58,3.93-2.57,5.92-.99,1.99-2.1,3.88-3.33,5.68-1.22,1.8-2.55,3.3-3.98,4.5-1.43,1.2-2.94,2.01-4.53,2.42-1.59,.42-3.23,.22-4.92-.58-1.97-.92-3.29-2.2-3.98-3.84-.69-1.64-.87-3.45-.55-5.43,.32-1.98,1.08-4.01,2.3-6.09,1.21-2.08,2.73-4.01,4.56-5.77,1.82-1.77,3.86-3.28,6.11-4.54,2.25-1.26,4.62-2.07,7.11-2.45l.39-1.46c-1.23,.54-2.59,.91-4.08,1.11-1.49,.21-2.95,.18-4.38-.07-1.43-.26-2.74-.76-3.92-1.52-1.19-.75-2.07-1.82-2.66-3.19-.98-2.31-1.31-4.96-.98-7.95,.33-2.99,1.14-5.9,2.42-8.73,1.19-2.63,2.72-4.88,4.59-6.74,1.87-1.86,3.9-3.27,6.09-4.22,2.19-.95,4.43-1.38,6.73-1.28,2.3,.1,4.48,.82,6.55,2.16Zm-17.82,24.25c1.22,.46,2.39,.47,3.51,.04,1.12-.44,2.16-1.18,3.14-2.21,.98-1.04,1.89-2.28,2.73-3.72,.84-1.44,1.6-2.95,2.26-4.5,.66-1.56,1.22-3.08,1.69-4.56,.47-1.48,.83-2.79,1.1-3.94-2.88-.43-5.53,.04-7.94,1.41-2.41,1.37-4.29,3.43-5.65,6.19-.21,.46-.52,1.25-.93,2.36-.41,1.11-.72,2.28-.95,3.52-.23,1.24-.3,2.39-.21,3.43s.5,1.71,1.25,2Zm-5.77,29.58c.65,.31,1.37,.22,2.16-.26,.78-.48,1.57-1.19,2.37-2.13,.8-.94,1.57-2.03,2.32-3.28,.75-1.25,1.43-2.49,2.05-3.72,.61-1.22,1.14-2.37,1.58-3.45,.44-1.08,.76-1.91,.97-2.51-.97,.22-2.02,.71-3.14,1.5-1.12,.78-2.22,1.7-3.29,2.76-1.07,1.06-2.05,2.17-2.95,3.34-.9,1.17-1.6,2.28-2.11,3.34-.5,1.06-.79,1.99-.85,2.8-.07,.81,.23,1.34,.9,1.61Z"/>
        <path class="cls-7" d="M363.32,58.73c.84-.84,1.7-1.31,2.58-1.42,.88-.1,1.66,.04,2.33,.44,.67,.4,1.16,.99,1.48,1.76,.31,.78,.35,1.62,.09,2.55-.42,.88-.82,2.03-1.2,3.46-.38,1.43-.71,2.94-1.01,4.53-.29,1.59-.52,3.23-.69,4.91-.17,1.68-.24,3.21-.22,4.59,.02,1.38,.16,2.58,.41,3.59s.65,1.64,1.2,1.89c.54,.25,1.12,.3,1.73,.16s1.26-.6,1.95-1.35c.69-.75,1.44-1.89,2.23-3.4,.8-1.51,1.64-3.54,2.52-6.1,.33-.63,.81-1.02,1.42-1.16,.61-.15,1.19-.11,1.76,.09,.57,.21,1.01,.58,1.32,1.1,.32,.52,.37,1.14,.16,1.85-.38,1.47-1,3.23-1.85,5.28-.86,2.06-1.94,3.98-3.24,5.79-1.3,1.8-2.79,3.24-4.47,4.31-1.68,1.07-3.5,1.33-5.47,.79-1.76-.5-3.14-1.52-4.15-3.05-1.01-1.53-1.72-3.34-2.14-5.44-.42-2.1-.59-4.37-.5-6.82,.08-2.45,.3-4.83,.66-7.14,.36-2.31,.82-4.45,1.38-6.45,.57-1.99,1.14-3.57,1.73-4.75Zm1.82-5.72c-.84-1.13-1.16-2.22-.97-3.27,.19-1.05,.65-1.86,1.38-2.42,.73-.57,1.61-.81,2.64-.72,1.03,.08,1.98,.71,2.86,1.89,.59,.96,.74,1.92,.47,2.86-.27,.94-.75,1.7-1.45,2.26-.69,.57-1.51,.85-2.45,.85s-1.77-.48-2.48-1.45Z"/>
        <path class="cls-7" d="M374.96,88.54c-1.01,.63-1.94,.91-2.8,.85-.86-.06-1.55-.36-2.07-.88-.52-.52-.83-1.25-.91-2.17-.08-.92,.17-1.91,.75-2.96,1.09-1.76,2.32-3.75,3.68-5.98,1.36-2.22,2.75-4.53,4.15-6.92,1.4-2.39,2.81-4.78,4.21-7.17,1.4-2.39,2.72-4.61,3.93-6.67,.42-.75,1.05-1.32,1.89-1.7,.84-.38,1.67-.54,2.48-.47,.82,.06,1.53,.37,2.14,.91,.61,.55,.91,1.36,.91,2.45,0,.67-.11,1.35-.31,2.04-.21,.69-.21,1.37,0,2.04,.5,1.68,1.05,3.7,1.64,6.07,.59,2.37,1.05,4.87,1.38,7.52,.13,1.01,.22,2.1,.28,3.27,.06,1.17,.08,2.35,.06,3.52-.02,1.17-.09,2.32-.22,3.43-.13,1.11-.29,2.09-.5,2.93,1.09-.5,2.05-1.13,2.89-1.89,.84-.75,1.64-1.7,2.39-2.83s1.5-2.48,2.23-4.06c.73-1.57,1.52-3.43,2.36-5.57,.42-1.09,1.02-1.73,1.79-1.92,.78-.19,1.53-.13,2.26,.19,.73,.31,1.34,.8,1.82,1.45,.48,.65,.64,1.27,.47,1.86-.38,1.3-.92,2.78-1.64,4.43-.71,1.66-1.61,3.32-2.7,5-.71,1.09-1.48,2.16-2.3,3.21-.82,1.05-1.7,2.01-2.64,2.89-.94,.88-1.96,1.66-3.05,2.33-1.09,.67-2.22,1.2-3.4,1.57-1.8,.71-3.64,1.09-5.5,1.13-1.87,.04-3.68-.19-5.44-.69-2.06-.59-3.93-1.52-5.63-2.8-1.7-1.28-3.09-2.9-4.18-4.87l-.44,.44Zm12.33-20.13c-.59,.96-1.15,1.93-1.7,2.89-.55,.96-1.09,1.93-1.64,2.89-.55,1.01-1.1,2.02-1.67,3.05-.57,1.03-1.21,2.11-1.92,3.24,.21,.5,.52,1.17,.94,2.01,.42,.84,.96,1.68,1.64,2.52,.59,.75,1.25,1.45,1.98,2.08,.73,.63,1.52,1.05,2.36,1.26,.33-.5,.59-1.13,.75-1.89,.17-.75,.28-1.6,.35-2.55,.06-.94,.07-1.95,.03-3.02-.04-1.07-.11-2.15-.19-3.24-.13-1.8-.29-3.53-.5-5.19-.21-1.66-.36-3.01-.44-4.06Z"/>
        <path class="cls-7" d="M403.51,59.67c-.92-.13-1.59-.54-2.01-1.26-.42-.71-.61-1.48-.57-2.3,.04-.82,.28-1.59,.72-2.33,.44-.73,1.06-1.18,1.85-1.35,.96-.08,1.76-.08,2.39,0,.63,.08,1.43,.08,2.39,0l2.2-12.2c.21-.8,.71-1.4,1.51-1.82,.8-.42,1.62-.6,2.48-.53,.86,.06,1.6,.38,2.23,.94,.63,.57,.88,1.46,.75,2.67l-1.82,10.94h9.25c.8,.08,1.42,.44,1.85,1.07,.44,.63,.68,1.34,.72,2.14,.04,.8-.13,1.58-.5,2.36s-.96,1.33-1.76,1.67h-10.57c-.08,.88-.27,2.14-.57,3.77-.29,1.64-.59,3.42-.88,5.35-.29,1.93-.52,3.89-.69,5.88-.17,1.99-.19,3.81-.06,5.44,.13,1.64,.46,2.98,1.01,4.03,.54,1.05,1.4,1.59,2.58,1.64,1.05,.04,2.18-.09,3.4-.41,1.22-.31,2.37-.87,3.46-1.67,1.09-.8,2.08-1.87,2.96-3.21,.88-1.34,1.51-3.06,1.89-5.16,.13-1.05,.54-1.74,1.26-2.08,.71-.33,1.46-.42,2.23-.25,.78,.17,1.45,.53,2.01,1.1s.76,1.23,.6,1.98c-.55,2.47-1.33,4.73-2.36,6.76-1.03,2.03-2.33,3.79-3.9,5.25-1.57,1.47-3.45,2.61-5.63,3.43-2.18,.82-4.7,1.23-7.55,1.23-2.14,0-3.87-.45-5.19-1.35-1.32-.9-2.33-2.15-3.02-3.74-.69-1.59-1.13-3.46-1.32-5.6-.19-2.14-.21-4.43-.06-6.89,.15-2.45,.4-5,.75-7.64,.36-2.64,.74-5.26,1.16-7.86-.5,.04-1.04,.04-1.6,0-.57-.04-1.1-.04-1.6,0Z"/>
        <path class="cls-7" d="M428.8,92.44c-.42,.71-1.02,1.1-1.79,1.16-.78,.06-1.53-.06-2.26-.38-.73-.32-1.35-.75-1.85-1.29s-.65-1.07-.44-1.57c.29-.71,.67-1.64,1.13-2.77,.46-1.13,1.03-2.78,1.7-4.94,.67-2.16,1.44-5.01,2.3-8.55,.86-3.54,1.83-8.06,2.92-13.55,.17-1.34,.64-2.31,1.41-2.89,.78-.59,1.62-.84,2.55-.75,.54,.04,1.07,.18,1.57,.41,.5,.23,.93,.57,1.29,1.01,.36,.44,.62,.97,.79,1.57,.17,.61,.17,1.29,0,2.04,.75,.88,1.5,1.63,2.23,2.23s1.51,1.12,2.33,1.54c.82,.42,1.7,.79,2.64,1.1,.94,.31,2.02,.64,3.24,.97,.84,.55,1.38,1.09,1.64,1.64,.25,.55,.33,1.12,.25,1.73-.08,.61-.27,1.26-.57,1.95-.29,.69-.57,1.44-.82,2.23-.13,.46-.27,1.13-.44,2.01-.17,.88-.3,1.85-.41,2.93-.11,1.07-.18,2.17-.22,3.3-.04,1.13-.01,2.17,.09,3.11,.1,.94,.3,1.74,.6,2.39,.29,.65,.71,1.02,1.26,1.1,1.76,.34,3.42-.71,4.97-3.14,1.55-2.43,3.04-6.42,4.47-11.95,.21-1.01,.66-1.68,1.35-2.01,.69-.33,1.4-.44,2.14-.31s1.36,.44,1.89,.94,.7,1.11,.54,1.82c-.25,1.55-.63,3.27-1.13,5.16s-1.16,3.76-1.98,5.63c-.82,1.87-1.79,3.63-2.93,5.28-1.13,1.66-2.45,3.01-3.96,4.06-1.13,.8-2.36,1.31-3.68,1.54-1.32,.23-2.61,.17-3.87-.19-1.26-.36-2.4-.99-3.43-1.89-1.03-.9-1.77-2.07-2.23-3.49-.96-2.89-1.36-5.86-1.2-8.9,.17-3.04,.63-6.07,1.38-9.09-.96-.42-2.03-.87-3.21-1.35-1.17-.48-2.18-1.04-3.02-1.67-1.47,4.61-2.62,8.28-3.46,11.01-.84,2.73-1.51,4.84-2.01,6.35-.5,1.51-.87,2.56-1.1,3.14-.23,.59-.45,1.03-.66,1.32Z"/>
        <path class="cls-7" d="M468.92,91.87c-2.56,0-4.58-.71-6.07-2.14-1.49-1.43-2.53-3.26-3.11-5.5-.59-2.24-.77-4.73-.53-7.45,.23-2.72,.81-5.4,1.73-8.02,.92-2.62,2.13-5.04,3.62-7.26,1.49-2.22,3.2-3.92,5.13-5.09,1.93-1.17,4.04-1.68,6.32-1.51,2.29,.17,4.66,1.32,7.14,3.46,.25-.75,.8-1.2,1.64-1.35,.84-.15,1.67-.06,2.48,.25,.82,.31,1.5,.84,2.04,1.57,.54,.73,.65,1.63,.31,2.67-.29,1.17-.67,2.61-1.13,4.31-.46,1.7-.91,3.47-1.35,5.31-.44,1.85-.82,3.7-1.13,5.57-.32,1.87-.46,3.54-.44,5.03,.02,1.49,.24,2.73,.66,3.71,.42,.99,1.15,1.52,2.2,1.6,1.26,.08,2.44-.35,3.55-1.29,1.11-.94,2.1-2.13,2.96-3.55,.86-1.43,1.58-2.93,2.17-4.53,.59-1.59,.96-2.98,1.13-4.15,.29-1.09,.79-1.73,1.48-1.92,.69-.19,1.36-.12,2.01,.22,.65,.34,1.17,.85,1.57,1.54,.4,.69,.45,1.35,.16,1.98-.29,1.68-.88,3.6-1.76,5.75-.88,2.16-2,4.21-3.36,6.16-1.36,1.95-2.9,3.6-4.62,4.94-1.72,1.34-3.56,2.01-5.53,2.01-.88,0-1.79-.16-2.74-.47-.94-.32-1.85-.81-2.7-1.48-.86-.67-1.63-1.53-2.3-2.58-.67-1.05-1.15-2.33-1.45-3.84-.38,.46-.9,1.04-1.57,1.73-.67,.69-1.45,1.35-2.33,1.98-.88,.63-1.85,1.17-2.89,1.64-1.05,.46-2.14,.69-3.27,.69Zm-.06-7.86c1.34,.13,2.53-.19,3.55-.94,1.03-.75,1.94-1.77,2.74-3.05,.8-1.28,1.47-2.72,2.01-4.31,.54-1.59,1-3.13,1.35-4.62s.64-2.85,.85-4.09c.21-1.24,.36-2.13,.44-2.67-1.34-1.13-2.6-1.72-3.77-1.76-1.17-.04-2.25,.28-3.24,.98-.99,.69-1.86,1.67-2.61,2.92s-1.39,2.63-1.92,4.12c-.53,1.49-.91,3.01-1.16,4.56-.25,1.55-.37,2.98-.35,4.28,.02,1.3,.21,2.37,.57,3.21,.36,.84,.87,1.3,1.54,1.38Z"/>
        <path class="cls-7" d="M495.65,59.67c-.92-.13-1.59-.54-2.01-1.26-.42-.71-.61-1.48-.57-2.3,.04-.82,.28-1.59,.72-2.33,.44-.73,1.06-1.18,1.85-1.35,.96-.08,1.76-.08,2.39,0,.63,.08,1.43,.08,2.39,0l2.2-12.2c.21-.8,.71-1.4,1.51-1.82,.8-.42,1.62-.6,2.48-.53,.86,.06,1.6,.38,2.23,.94,.63,.57,.88,1.46,.75,2.67l-1.82,10.94h9.25c.8,.08,1.42,.44,1.85,1.07,.44,.63,.68,1.34,.72,2.14,.04,.8-.13,1.58-.5,2.36s-.96,1.33-1.76,1.67h-10.57c-.08,.88-.27,2.14-.57,3.77-.29,1.64-.59,3.42-.88,5.35-.29,1.93-.52,3.89-.69,5.88-.17,1.99-.19,3.81-.06,5.44s.46,2.98,1.01,4.03c.54,1.05,1.4,1.59,2.58,1.64,1.05,.04,2.18-.09,3.4-.41,1.22-.31,2.37-.87,3.46-1.67,1.09-.8,2.08-1.87,2.96-3.21,.88-1.34,1.51-3.06,1.89-5.16,.13-1.05,.54-1.74,1.26-2.08,.71-.33,1.46-.42,2.23-.25,.78,.17,1.45,.53,2.01,1.1s.76,1.23,.6,1.98c-.55,2.47-1.33,4.73-2.36,6.76-1.03,2.03-2.33,3.79-3.9,5.25-1.57,1.47-3.45,2.61-5.63,3.43-2.18,.82-4.7,1.23-7.55,1.23-2.14,0-3.87-.45-5.19-1.35-1.32-.9-2.33-2.15-3.02-3.74-.69-1.59-1.13-3.46-1.32-5.6-.19-2.14-.21-4.43-.06-6.89,.15-2.45,.4-5,.75-7.64,.36-2.64,.74-5.26,1.16-7.86-.5,.04-1.04,.04-1.6,0-.57-.04-1.1-.04-1.6,0Z"/>
        <path class="cls-7" d="M541.25,62.82c-.08,2.1-.46,4.2-1.13,6.32-.67,2.12-1.66,4.03-2.96,5.72-1.3,1.7-2.88,3.06-4.75,4.09-1.87,1.03-3.99,1.46-6.38,1.29,.04,1.3,.19,2.56,.44,3.77,.25,1.22,.66,2.25,1.23,3.11,.57,.86,1.33,1.47,2.3,1.82,.96,.36,2.18,.3,3.65-.16,1.47-.42,2.87-1.11,4.21-2.08,1.34-.96,2.55-2.08,3.62-3.33,1.07-1.26,1.97-2.59,2.7-3.99s1.27-2.78,1.6-4.12c.17-.71,.57-1.15,1.2-1.32,.63-.17,1.29-.15,1.98,.06,.69,.21,1.28,.58,1.76,1.1s.64,1.12,.47,1.79c-.92,2.43-1.83,4.59-2.74,6.48-.9,1.89-1.9,3.55-2.99,5-1.09,1.45-2.32,2.67-3.68,3.68s-2.97,1.84-4.81,2.52c-2.47,.88-4.76,1.27-6.86,1.16-2.1-.11-3.92-.66-5.47-1.67-1.55-1.01-2.78-2.43-3.68-4.28-.9-1.84-1.42-4.09-1.54-6.73-.08-1.26-.12-2.78-.09-4.56,.02-1.78,.14-3.65,.35-5.6,.21-1.95,.54-3.93,1.01-5.94,.46-2.01,1.09-3.89,1.89-5.63,.8-1.74,1.79-3.27,2.99-4.59,1.2-1.32,2.65-2.27,4.37-2.86,1.43-.5,2.83-.69,4.21-.57s2.61,.57,3.68,1.32c1.07,.75,1.92,1.81,2.55,3.18,.63,1.36,.92,3.03,.88,5Zm-7.92-1.64c-.59-.38-1.16-.41-1.73-.09-.57,.32-1.1,.84-1.6,1.57s-.94,1.6-1.32,2.61-.69,2.04-.94,3.11c-.25,1.07-.44,2.09-.57,3.05-.13,.96-.15,1.74-.06,2.33,1.93-.38,3.46-1.17,4.59-2.39,1.13-1.22,1.92-2.52,2.36-3.9,.44-1.38,.59-2.68,.44-3.9-.15-1.22-.53-2.01-1.16-2.39Z"/>
      </g>
    </g>
    <circle class="cls-7" cx="545.11" cy="109.52" r="5.44"/>
    <circle class="cls-7" cx="509.22" cy="109.52" r="5.44"/>
    <circle class="cls-7" cx="473.33" cy="109.52" r="5.44"/>
    <circle class="cls-7" cx="437.44" cy="109.52" r="5.44"/>
    <circle class="cls-7" cx="401.54" cy="109.52" r="5.44"/>
    <circle class="cls-7" cx="365.65" cy="109.52" r="5.44"/>
    <circle class="cls-7" cx="293.87" cy="109.52" r="5.44"/>
    <circle class="cls-7" cx="257.98" cy="109.52" r="5.44"/>
  </g>
  <g>
    <path class="cls-11" d="M291.58,353.97c-2.76,11.01-5.52,22.01-8.27,33.03-.19,.75-.27,1.53-.41,2.3-4.58,.17-9.15,.05-13.69-.68-7.62-3.73-14.89-7.87-20.03-14.97-8.44-11.64-10.06-24.46-6.33-38.01,2.35-8.53,11.72-12.85,20.34-9.85,13.96,4.85,23.51,14.17,28.38,28.18Z"/>
    <path class="cls-11" d="M501.54,353.97c2.76,11.01,5.52,22.01,8.27,33.03,.19,.75,.27,1.53,.41,2.3,4.58,.17,9.15,.05,13.69-.68,7.62-3.73,14.89-7.87,20.03-14.97,8.44-11.64,10.06-24.46,6.33-38.01-2.35-8.53-11.72-12.85-20.34-9.85-13.96,4.85-23.51,14.17-28.38,28.18Z"/>
    <path class="cls-9" d="M523.35,389.16c-31.36,37.86-221.77,34.53-253.55-.02,7.7-33.82,17.38-67.25,29.05-99.93,24.26-1.01,168.34-.04,195.87,.89,11.49,32.68,21.05,65.42,28.64,99.06Z"/>
    <path class="cls-10" d="M396.85,374.3c-.1,0-.19,0-.28,0s-.18,0-.28,0c-8.27,.19-23.55-6.62-19.31-16.49,3.41-6.29,10.39-2.25,19.59-1.87,9.2-.37,16.18-4.42,19.59,1.87,4.24,9.88-11.03,16.69-19.31,16.49Z"/>
    <g>
      <ellipse class="cls-5" cx="331.36" cy="358.86" rx="25.22" ry="19.41"/>
      <ellipse class="cls-5" cx="461.79" cy="358.86" rx="25.22" ry="19.41"/>
    </g>
    <path class="cls-10" d="M297.95,290.95c64.64,9.73,130.44,9.48,197.32,0,0,0-10.45-37.73-98.83-38.86-92.27-1.17-98.49,38.86-98.49,38.86Z"/>
    <path class="cls-4" d="M433.65,271.07c-15.84,11.75-65.2,10.89-73.6-2.97-3.12-4.59,1.63-12.64,6.91-15.75,3.77-2.22,6.01-5.1,7.48-9.12,3.27-8.95,8.08-12.42,16.48-12.47,4.44,.12,8.96-.54,13.28,.91,5.55,1.86,9.26,5.7,11.35,11.14,1.66,4.32,4.25,7.48,8.71,9.54,7.84,3.63,9.79,10.71,9.38,18.73Z"/>
    <path class="cls-10" d="M342.51,330.77c-7.51-.87-13.85,1.78-19.52,6.47-2.94,2.39-6.28,8.63-5.52,9.92,1.51,2.59,13.72-5.39,23.98-1.97,2.21,.34,3.73,1.84,5.42,3.12,3.37,2.56,7.18,2.27,9.8-.57,2.64-2.88,2.57-6.64-.31-9.8-3.72-4.08-8.49-6.18-13.83-7.16Z"/>
    <ellipse class="cls-10" cx="447.49" cy="343.1" rx="11.56" ry="13.49"/>
  </g>
  <g>
    <path class="cls-11" d="M392.31,245.44c-.79,3.07-1.58,6.15-2.37,9.22-.05,.21-.08,.43-.12,.64-1.28,.04-2.56,0-3.83-.21-2.12-1.06-4.15-2.23-5.58-4.22-2.34-3.27-2.77-6.86-1.7-10.64,.67-2.38,3.3-3.57,5.71-2.72,3.9,1.38,6.55,4,7.89,7.93Z"/>
    <ellipse class="cls-6" cx="391.53" cy="257.7" rx="13.66" ry="13.11"/>
    <path class="cls-3" d="M393.74,249.93c3.21-8,8.7-13.72,19.78-13.87"/>
  </g>
  <path class="cls-4" d="M408.21,267.81c.28,3.86-24.06,6.78-23.28,2.99,.82-4,4.84-7.85,10.95-8.62,9.29-1.16,12.05,1.77,12.33,5.63Z"/>
  <path class="cls-12" d="M0,389.7H207.55c-6.46-47.87,29.68-111.91,45.25-128.67C203.47,190.05,207.16,98.24,229.09-.74L0-2.15V389.7Z"/>
  <path class="cls-13" d="M793.13,389.7h-207.55c6.46-47.87-29.68-111.91-45.25-128.67,49.33-70.99,45.64-162.8,23.7-261.78l229.09-1.41V389.7Z"/>
</svg>