<?xml version="1.0" encoding="UTF-8"?>
<svg id="Capa_1" data-name="Capa 1" xmlns="http://www.w3.org/2000/svg" viewBox="0 0 248.03 217.27">
  <defs>
    <style>
      .cls-1 {
        fill: #f6933a;
      }

      .cls-2 {
        fill: #743a32;
      }
    </style>
  </defs>
  <path class="cls-2" d="M0,5.4C1.92,1.21,5.24-.06,9.74,0c13.15,.19,26.3,.06,39.45,.07,5.57,0,7.88,1.81,9.1,7.28,1.62,7.23,3.17,14.47,4.74,21.7-4.87,.04-9.74,.08-14.62,.12-.97-4.14-2-8.28-2.86-12.44-.33-1.58-.87-2.19-2.65-2.18-11.06,.1-22.11-.09-33.17,.12-4.5,.08-7.81-1.21-9.74-5.4v-3.88Z"/>
  <path class="cls-1" d="M239.78,29.03c-27.44,.21-54.88,.1-82.33,.1-4.36,0-8.71,.05-13.07,.08-13.8-.03-27.6-.05-41.4-.08-13.32-.03-26.63-.05-39.95-.08-4.87,.04-9.74,.08-14.62,.12,.03,.4,.02,.81,.1,1.2,5.87,26.39,11.76,52.78,17.61,79.18,1.6,7.22,3.11,14.47,4.66,21.7,1.44,4.61,2.18,9.39,3.31,14.07,7.49,.03,14.97,.08,22.46,.08,15.94,0,31.88-.05,47.82-.08,.72,.03,1.45,.09,2.17,.09,21.23,0,42.45,0,63.68,0,5.33,0,7.57-1.65,9.04-6.82,9.44-33.02,18.82-66.06,28.32-99.06,1.88-6.53-2.72-10.54-7.82-10.5Z"/>
  <path class="cls-2" d="M90.52,174.13c33.21-5.62,33.3,48.4,.12,42.73-23.38-3.4-23.16-39.4-.12-42.73Zm3.99,28.6c9.51,.07,9.15-14.4-.04-14.53-9.14,.17-9.53,14.5,.04,14.53Z"/>
  <path class="cls-2" d="M188.81,174.13c33.21-5.62,33.3,48.4,.12,42.73-23.38-3.4-23.16-39.4-.12-42.73Zm3.99,28.6c9.51,.07,9.15-14.4-.04-14.53-9.14,.17-9.53,14.5,.04,14.53Z"/>
  <path class="cls-2" d="M212.13,159.92c-38.71-.05-77.41,.15-116.12,.01-7.34-.01-14.67,.04-22.01-.02-9.52-.01-9.94-14.11,.09-14.6-1.13-4.68-1.88-9.46-3.31-14.07-26.26,3.34-23.39,43.47,3.26,43.2,9-.13,17.68,.49,26.4,.04,37.3-.22,74.86,.14,111.65,.03,10.14,.96,11.13-15.16,.03-14.6Z"/>
</svg>