<?xml version="1.0" encoding="UTF-8"?>
<svg id="Capa_1" data-name="Capa 1" xmlns="http://www.w3.org/2000/svg" viewBox="0 0 211.01 256.17">
  <defs>
    <style>
      .cls-1 {
        fill: #f4bdab;
      }

      .cls-2 {
        fill: #ffcdbb;
      }

      .cls-3 {
        fill: #743a32;
      }

      .cls-4 {
        fill: #4fb678;
      }
    </style>
  </defs>
  <path class="cls-3" d="M205.1,107.28c-1.22-.82-2.41-1.7-3.68-2.47-5.14-3.13-10.56-4.74-16.56-2.75-6.8-6.57-12.38-13.79-14.44-23.39-1.51-7.05-6.18-10.11-13.49-10.46-6.67-.33-12.33,2.03-17.94,5.26-17.32,9.98-35.56,11.69-54.55,5.52-1.94-.56-3.88-1.13-5.82-1.69-8.1-4.8-15.92-10.18-26.16-9.06-5.9,.65-10.79,3.6-12.09,9.35-2.17,9.61-7.49,17.18-14.07,24.1-7.76-1.69-14.31,.97-20.3,5.62-.22-15.73,3.47-30.55,10.47-44.58,1.67-3.35,2.91-6.73,3.47-10.51,2.44-16.58,12.75-27.74,26.2-36.34C61.9,5.8,79.43,1.13,98.02,.2c1.98-.1,3.96-.12,5.94-.17,15.85-.33,31.19,2.17,45.93,8.11,12.94,5.22,24.28,12.62,32.81,23.9,4.69,6.19,7.63,13.12,8.54,20.82,.39,3.31,1.58,6.21,3.04,9.13,7.13,14.25,11.03,29.28,10.82,45.29Z"/>
  <path class="cls-4" d="M190.99,229.68c-3.82-14.04-11.29-26.08-21.5-36.51-5.16-5.27-10.92-9.71-16.8-14.08-5.13,2.88-9.99,6.25-15.55,8.33-.68,.26-.83,.83-.95,1.45,.54,7.35-.15,14.53-4.2,20.86-11.32,17.7-34.38,20.06-48.35,5.51-.86-.89-1.84-1.66-2.76-2.49-5.24-7.43-6.72-15.77-5.95-24.66-5.48-3.01-10.96-6.01-16.45-9.02-.88,.68-1.74,1.39-2.65,2.03-16.92,11.83-29.01,27.28-35.4,47.05-4.5,13.93,5.04,27.23,19.7,27.25,16.31,.02,32.63,0,48.94,0,.26,.25,.51,.51,.77,.76h85.3c.11-1.9,1.79-1.41,2.83-1.78,10.69-3.88,16.03-13.65,13.02-24.71Z"/>
  <path class="cls-2" d="M205.11,107.28c-1.23-.83-2.42-1.7-3.68-2.47-5.15-3.13-10.56-4.74-16.57-2.76-6.79-6.57-12.37-13.79-14.43-23.38-1.51-7.05-6.18-10.11-13.49-10.46-6.67-.32-12.33,2.03-17.94,5.26-17.32,9.98-35.56,11.69-54.55,5.52-1.94-.56-3.88-1.13-5.82-1.69-8.1-4.8-15.92-10.18-26.16-9.06-5.9,.65-10.79,3.6-12.09,9.35-2.17,9.61-7.48,17.18-14.07,24.11q-2.14,7.43,0,0c-7.75-1.69-14.3,.97-20.3,5.62-.68,1.04-1.37,2.08-2.05,3.11-5.65,8.53-5.33,18.57,1.53,26.16,6.66,7.37,15.09,9.03,24.47,5.78,5.01,10.99,11.32,21.09,20.12,29.51,2.67,2.56,6.05,4.29,8.4,7.2,5.48,3.01,10.96,6.01,16.45,9.02,10.19,3.53,20.61,6.26,31.43,5.82,7.03-.29,14.29-.3,20.9-3.56,0,0,0,0,0,0,3.11,.28,5.77-2.15,8.95-1.49,.11-.61,.26-1.19,.94-1.45,5.56-2.08,10.42-5.45,15.55-8.33,12.7-9.73,22.18-21.96,28.46-36.68,.71,.21,1.42,.43,2.14,.62,12.76,3.32,24.04-3.52,27.18-16.37,1.83-7.5-1.25-13.56-5.36-19.38Zm-115.66,12.01c2.23-2.19,5.28-2.13,8.03,.17,6.03,5.04,10.1,5.04,16.14-.01,2.74-2.29,5.81-2.35,8.03-.15,2.39,2.37,2.35,5.52-.3,8.29-4.34,4.53-9.69,6.84-16,6.76-6.2,0-11.39-2.35-15.63-6.78-2.65-2.76-2.68-5.92-.28-8.28Zm-24.48-.22s-.06,0-.1,0c0,1.74,.25,3.52-.06,5.2-.56,3.03-2.45,4.89-5.7,4.75-3.19-.14-5.11-1.92-5.31-5.11-.2-3.09-.22-6.21-.06-9.3,.17-3.26,2.49-5.52,5.37-5.61,3.01-.09,5.52,2.26,5.83,5.61,.14,1.48,.02,2.98,.02,4.47Zm92.31,4.98c-.32,2.98-2.06,4.76-5.08,4.97-3.21,.22-5.46-1.45-5.82-4.53-.42-3.54-.41-7.2-.04-10.75,.33-3.11,2.67-4.85,5.77-4.65,3.07,.19,4.99,2.08,5.22,5.29,.11,1.61,.02,3.23,.02,4.84-.01,0-.03,0-.04,0,0,1.61,.14,3.24-.03,4.83Z"/>
  <path class="cls-1" d="M80.87,212.76c-5.24-7.43-6.72-15.77-5.95-24.66,10.19,3.53,20.61,6.26,31.43,5.82,7.03-.29,14.29-.3,20.9-3.56,3.11,.28,5.77-2.14,8.95-1.49,.54,7.35-.15,14.53-4.2,20.86-11.32,17.7-34.38,20.06-48.35,5.51-.86-.89-1.84-1.66-2.76-2.49Z"/>
  <path class="cls-3" d="M105.35,134.35c-6.19,0-11.38-2.35-15.63-6.77-2.65-2.76-2.68-5.92-.28-8.28,2.23-2.19,5.28-2.13,8.03,.17,6.03,5.04,10.1,5.04,16.14-.01,2.74-2.29,5.81-2.35,8.03-.15,2.39,2.37,2.35,5.52-.3,8.29-4.34,4.53-9.69,6.84-16.01,6.76Z"/>
  <path class="cls-3" d="M157.31,119.21c0,1.61,.14,3.24-.03,4.83-.32,2.98-2.06,4.76-5.08,4.97-3.21,.22-5.46-1.45-5.82-4.53-.42-3.54-.41-7.2-.04-10.75,.33-3.11,2.67-4.85,5.77-4.65,3.07,.19,4.99,2.08,5.22,5.29,.11,1.61,.02,3.23,.02,4.84h-.04Z"/>
  <path class="cls-3" d="M64.88,119.07c0,1.74,.25,3.52-.06,5.2-.56,3.03-2.45,4.89-5.7,4.75-3.19-.14-5.11-1.92-5.31-5.11-.2-3.09-.22-6.21-.06-9.3,.17-3.26,2.49-5.52,5.37-5.61,3.01-.09,5.52,2.26,5.83,5.61,.14,1.48,.02,2.98,.02,4.47-.03,0-.06,0-.1,0Z"/>
</svg>