<?xml version="1.0" encoding="UTF-8"?>
<svg id="Capa_1" data-name="Capa 1" xmlns="http://www.w3.org/2000/svg" viewBox="0 0 630.56 61.17">
  <defs>
    <style>
      .cls-1 {
        fill: #fff;
      }
    </style>
  </defs>
  <path class="cls-1" d="M3.46,15.76c.23-.5,.58-.88,1.05-1.15,.46-.27,.95-.43,1.47-.5,.51-.07,1.03-.02,1.54,.12,.51,.15,.96,.4,1.35,.75,.38,.35,.64,.8,.77,1.34,.13,.55,.08,1.2-.15,1.97-.27,.76-.62,2.06-1.07,3.88-.45,1.83-.86,3.9-1.24,6.23-.38,2.32-.69,4.75-.92,7.27-.23,2.52-.27,4.86-.12,7,.15,2.14,.53,3.93,1.15,5.38,.61,1.44,1.57,2.27,2.86,2.46,.8,.1,1.58-.12,2.34-.67,.76-.55,1.48-1.29,2.14-2.22,.66-.93,1.28-1.97,1.84-3.14,.56-1.16,1.07-2.31,1.52-3.44,.45-1.13,.82-2.17,1.12-3.11,.3-.95,.51-1.67,.65-2.17l3.93-19.47c.1-.8,.49-1.34,1.17-1.62s1.41-.36,2.19-.22c.78,.13,1.46,.45,2.04,.95,.58,.5,.82,1.15,.72,1.94-.07,.33-.22,1.07-.47,2.22-.25,1.14-.56,2.55-.92,4.21-.37,1.66-.76,3.5-1.17,5.5-.42,2.01-.81,4.04-1.2,6.1-.38,2.06-.71,4.07-1,6.03-.28,1.96-.47,3.73-.57,5.3-.1,1.58-.07,2.88,.07,3.91,.15,1.03,.46,1.63,.92,1.79,.5,.2,1.02,.07,1.57-.4,.55-.46,1.1-1.13,1.64-1.99,.55-.86,1.07-1.87,1.57-3.01,.5-1.14,.96-2.32,1.39-3.51,.13-.53,.49-.91,1.07-1.15,.58-.23,1.17-.31,1.77-.22,.6,.08,1.1,.35,1.49,.8,.4,.45,.48,1.07,.25,1.87-.2,.86-.51,1.83-.92,2.91-.42,1.08-.91,2.18-1.49,3.29-.58,1.11-1.24,2.18-1.99,3.19-.75,1.01-1.54,1.89-2.39,2.62-.85,.73-1.76,1.28-2.74,1.64-.98,.37-1.99,.43-3.01,.2-.76-.17-1.4-.49-1.92-.97-.51-.48-.95-1.05-1.29-1.72-.35-.66-.63-1.39-.85-2.17-.22-.78-.39-1.54-.52-2.27-.53,.67-1.14,1.32-1.82,1.97-.68,.65-1.43,1.23-2.24,1.74-.81,.51-1.68,.91-2.59,1.2-.91,.28-1.87,.36-2.86,.22-1.79-.23-3.3-.88-4.51-1.94-1.21-1.06-2.19-2.42-2.94-4.06-.75-1.64-1.29-3.49-1.62-5.55C.19,43.04,.02,40.89,0,38.65c-.02-2.24,.08-4.5,.3-6.77,.21-2.27,.5-4.43,.85-6.47,.35-2.04,.73-3.9,1.15-5.58,.41-1.68,.8-3.03,1.17-4.06Zm14.69-3.74c-.33,.5-.84,.71-1.52,.62-.68-.08-1.31-.33-1.89-.75-.58-.42-1.02-.93-1.32-1.54-.3-.61-.23-1.22,.2-1.82L19.45,.87C19.85,.28,20.4-.02,21.09,0c.7,.02,1.34,.22,1.94,.6,.6,.38,1.03,.91,1.29,1.57,.27,.67,.15,1.36-.35,2.09l-5.83,7.77Z"/>
  <path class="cls-1" d="M31.05,33.59c.17-1.1,.56-1.89,1.2-2.39,.63-.5,1.29-.72,1.99-.67,.7,.05,1.32,.37,1.87,.97,.55,.6,.84,1.44,.87,2.54v1.1c.6-.8,1.26-1.59,1.99-2.39,.73-.8,1.52-1.5,2.37-2.12,.85-.61,1.79-1.06,2.81-1.35,1.03-.28,2.14-.31,3.34-.07,1.23,.27,2.22,.79,2.96,1.57,.75,.78,1.3,1.73,1.67,2.84,.37,1.11,.58,2.33,.65,3.66,.07,1.33,.06,2.66-.02,4.01-.08,1.34-.21,2.66-.37,3.93-.17,1.28-.31,2.42-.42,3.41-.12,1-.17,1.8-.15,2.42s.17,.94,.47,.97c.5,.07,1.04-.07,1.62-.4,.58-.33,1.17-.87,1.77-1.62,.6-.75,1.18-1.69,1.74-2.84,.56-1.15,1.05-2.5,1.44-4.06,.17-.7,.52-1.09,1.07-1.17,.55-.08,1.09,.02,1.62,.3,.53,.28,.98,.71,1.34,1.27,.37,.57,.45,1.15,.25,1.74-.63,1.89-1.37,3.66-2.22,5.3-.85,1.64-1.79,3.05-2.81,4.21-1.03,1.16-2.15,2.03-3.36,2.61-1.21,.58-2.48,.74-3.81,.47-1.33-.27-2.35-.77-3.06-1.52-.71-.75-1.22-1.64-1.52-2.69-.3-1.05-.43-2.19-.4-3.44,.03-1.24,.13-2.51,.3-3.81,.17-1.29,.35-2.56,.55-3.79,.2-1.23,.32-2.34,.35-3.34,.03-1-.05-1.83-.25-2.52-.2-.68-.63-1.1-1.29-1.27-.9-.23-1.76-.05-2.59,.55-.83,.6-1.6,1.47-2.32,2.61-.71,1.15-1.37,2.47-1.97,3.96s-1.11,3.02-1.54,4.58c-.43,1.56-.77,3.08-1.02,4.56-.25,1.48-.39,2.73-.42,3.76-.1,.47-.43,.87-1,1.22-.57,.35-1.18,.56-1.84,.62-.67,.07-1.3-.07-1.92-.4-.61-.33-1-.96-1.17-1.89-.03-.6-.02-1.29,.05-2.07,.07-.78,.17-1.92,.3-3.44,.13-1.51,.27-3.53,.42-6.05,.15-2.52,.31-5.83,.47-9.91Z"/>
  <path class="cls-1" d="M75.53,33.84c-.07,1.66-.37,3.33-.9,5-.53,1.68-1.31,3.19-2.34,4.53-1.03,1.34-2.28,2.42-3.76,3.24-1.48,.81-3.16,1.15-5.06,1.02,.03,1.03,.15,2.03,.35,2.99,.2,.96,.52,1.79,.97,2.46,.45,.68,1.05,1.16,1.82,1.45,.76,.28,1.73,.24,2.89-.12,1.16-.33,2.27-.88,3.34-1.64,1.06-.76,2.02-1.64,2.86-2.64,.85-1,1.56-2.05,2.14-3.16s1-2.2,1.27-3.26c.13-.56,.45-.91,.95-1.05,.5-.13,1.02-.12,1.57,.05,.55,.17,1.01,.46,1.39,.87s.51,.89,.37,1.42c-.73,1.93-1.45,3.64-2.17,5.13s-1.5,2.81-2.37,3.96c-.86,1.15-1.83,2.12-2.91,2.91s-2.35,1.46-3.81,1.99c-1.96,.7-3.77,1-5.43,.92-1.66-.08-3.11-.52-4.33-1.32-1.23-.8-2.2-1.92-2.91-3.39-.71-1.46-1.12-3.24-1.22-5.33-.07-1-.09-2.2-.07-3.61,.02-1.41,.11-2.89,.27-4.43,.17-1.54,.43-3.11,.8-4.71,.37-1.59,.86-3.08,1.49-4.46,.63-1.38,1.42-2.59,2.37-3.63,.95-1.05,2.1-1.8,3.46-2.27,1.13-.4,2.24-.55,3.34-.45s2.07,.45,2.91,1.05c.85,.6,1.52,1.44,2.02,2.51,.5,1.08,.73,2.4,.7,3.96Zm-6.28-1.29c-.47-.3-.92-.32-1.37-.08-.45,.25-.87,.67-1.27,1.25s-.75,1.27-1.05,2.07-.55,1.62-.75,2.46c-.2,.85-.35,1.65-.45,2.42-.1,.76-.12,1.38-.05,1.84,1.53-.3,2.74-.93,3.64-1.89,.9-.96,1.52-1.99,1.87-3.09,.35-1.1,.46-2.12,.35-3.09-.12-.96-.42-1.59-.92-1.89Z"/>
  <path class="cls-1" d="M78.12,31.35c-.73-.1-1.26-.43-1.59-1-.33-.56-.48-1.17-.45-1.82,.03-.65,.22-1.26,.57-1.84,.35-.58,.84-.94,1.47-1.07,.76-.07,1.39-.07,1.89,0,.5,.07,1.13,.07,1.89,0l1.74-9.66c.17-.63,.56-1.11,1.2-1.44,.63-.33,1.29-.47,1.97-.42,.68,.05,1.27,.3,1.77,.75,.5,.45,.7,1.15,.6,2.12l-1.44,8.67h7.32c.63,.07,1.12,.35,1.47,.85,.35,.5,.54,1.06,.57,1.69,.03,.63-.1,1.25-.4,1.87s-.76,1.05-1.39,1.32h-8.37c-.07,.7-.22,1.69-.45,2.99-.23,1.29-.47,2.71-.7,4.23-.23,1.53-.42,3.08-.55,4.66-.13,1.58-.15,3.01-.05,4.31s.37,2.36,.8,3.19c.43,.83,1.11,1.26,2.04,1.29,.83,.03,1.73-.07,2.69-.32,.96-.25,1.88-.69,2.74-1.32,.86-.63,1.64-1.48,2.34-2.54,.7-1.06,1.2-2.42,1.49-4.08,.1-.83,.43-1.38,1-1.64,.56-.27,1.15-.33,1.77-.2,.61,.13,1.14,.42,1.59,.87s.6,.97,.47,1.57c-.43,1.96-1.05,3.74-1.87,5.35-.81,1.61-1.84,3-3.09,4.16-1.25,1.16-2.73,2.07-4.46,2.71-1.73,.65-3.72,.97-5.98,.97-1.69,0-3.06-.36-4.11-1.07-1.05-.71-1.84-1.7-2.39-2.96-.55-1.26-.9-2.74-1.05-4.43-.15-1.69-.17-3.51-.05-5.45,.12-1.94,.31-3.96,.6-6.05,.28-2.09,.59-4.17,.92-6.23-.4,.03-.82,.03-1.27,0-.45-.03-.87-.03-1.27,0Z"/>
  <path class="cls-1" d="M114.23,33.84c-.07,1.66-.37,3.33-.9,5-.53,1.68-1.31,3.19-2.34,4.53-1.03,1.34-2.28,2.42-3.76,3.24-1.48,.81-3.16,1.15-5.06,1.02,.03,1.03,.15,2.03,.35,2.99,.2,.96,.52,1.79,.97,2.46,.45,.68,1.05,1.16,1.82,1.45,.76,.28,1.73,.24,2.89-.12,1.16-.33,2.27-.88,3.34-1.64,1.06-.76,2.02-1.64,2.86-2.64,.85-1,1.56-2.05,2.14-3.16s1-2.2,1.27-3.26c.13-.56,.45-.91,.95-1.05,.5-.13,1.02-.12,1.57,.05,.55,.17,1.01,.46,1.39,.87s.51,.89,.37,1.42c-.73,1.93-1.45,3.64-2.17,5.13s-1.5,2.81-2.37,3.96c-.86,1.15-1.83,2.12-2.91,2.91s-2.35,1.46-3.81,1.99c-1.96,.7-3.77,1-5.43,.92-1.66-.08-3.11-.52-4.33-1.32-1.23-.8-2.2-1.92-2.91-3.39-.71-1.46-1.12-3.24-1.22-5.33-.07-1-.09-2.2-.07-3.61,.02-1.41,.11-2.89,.27-4.43,.17-1.54,.43-3.11,.8-4.71,.37-1.59,.86-3.08,1.49-4.46,.63-1.38,1.42-2.59,2.37-3.63,.95-1.05,2.1-1.8,3.46-2.27,1.13-.4,2.24-.55,3.34-.45s2.07,.45,2.91,1.05c.85,.6,1.52,1.44,2.02,2.51,.5,1.08,.73,2.4,.7,3.96Zm-6.28-1.29c-.47-.3-.92-.32-1.37-.08-.45,.25-.87,.67-1.27,1.25s-.75,1.27-1.05,2.07-.55,1.62-.75,2.46c-.2,.85-.35,1.65-.45,2.42-.1,.76-.12,1.38-.05,1.84,1.53-.3,2.74-.93,3.64-1.89,.9-.96,1.52-1.99,1.87-3.09,.35-1.1,.46-2.12,.35-3.09-.12-.96-.42-1.59-.92-1.89Z"/>
  <path class="cls-1" d="M139.13,56.85c-2.03,0-3.63-.56-4.81-1.69-1.18-1.13-2-2.58-2.47-4.36-.47-1.78-.61-3.74-.42-5.9,.18-2.16,.64-4.27,1.37-6.35,.73-2.07,1.68-3.99,2.86-5.75,1.18-1.76,2.53-3.1,4.06-4.03,1.53-.93,3.2-1.33,5-1.2,1.81,.13,3.69,1.05,5.65,2.74,.2-.6,.63-.95,1.29-1.07,.66-.12,1.32-.05,1.97,.2,.65,.25,1.19,.66,1.62,1.24,.43,.58,.51,1.29,.25,2.12-.23,.93-.53,2.07-.9,3.41-.37,1.34-.72,2.75-1.07,4.21-.35,1.46-.65,2.93-.9,4.41-.25,1.48-.37,2.81-.35,3.98,.02,1.18,.19,2.16,.52,2.94,.33,.78,.91,1.2,1.74,1.27,1,.07,1.93-.27,2.81-1.02,.88-.75,1.66-1.68,2.34-2.81,.68-1.13,1.25-2.32,1.72-3.59,.46-1.26,.76-2.36,.9-3.29,.23-.86,.62-1.37,1.17-1.52,.55-.15,1.08-.09,1.59,.17,.51,.27,.93,.67,1.24,1.22,.32,.55,.36,1.07,.12,1.57-.23,1.33-.7,2.85-1.39,4.56-.7,1.71-1.59,3.34-2.66,4.88-1.08,1.54-2.3,2.85-3.66,3.91-1.36,1.06-2.82,1.59-4.38,1.59-.7,0-1.42-.12-2.17-.37-.75-.25-1.46-.64-2.14-1.17-.68-.53-1.29-1.21-1.82-2.04-.53-.83-.91-1.84-1.15-3.04-.3,.37-.71,.82-1.25,1.37-.53,.55-1.15,1.07-1.84,1.57s-1.46,.93-2.29,1.29c-.83,.37-1.69,.55-2.59,.55Zm-.05-6.23c1.06,.1,2-.15,2.81-.75,.81-.6,1.54-1.4,2.17-2.42,.63-1.01,1.16-2.15,1.59-3.41,.43-1.26,.79-2.48,1.07-3.66s.51-2.26,.67-3.24c.17-.98,.28-1.68,.35-2.12-1.06-.9-2.06-1.36-2.99-1.39-.93-.03-1.79,.22-2.56,.77-.78,.55-1.47,1.32-2.07,2.32s-1.1,2.08-1.52,3.26c-.42,1.18-.72,2.38-.92,3.61-.2,1.23-.29,2.36-.27,3.39,.02,1.03,.17,1.88,.45,2.54,.28,.67,.69,1.03,1.22,1.1Z"/>
  <path class="cls-1" d="M178.38,25.58c-.67-.2-1.13-.64-1.39-1.32-.27-.68-.33-1.35-.2-1.99,.13-.65,.46-1.17,1-1.57,.53-.4,1.25-.43,2.14-.1,1.49,.3,2.71,.32,3.66,.05,.95-.27,1.72-.72,2.32-1.37,.6-.65,1.07-1.4,1.42-2.27,.35-.86,.67-1.74,.97-2.64,.27-.73,.76-1.19,1.49-1.37,.73-.18,1.45-.16,2.17,.07,.71,.23,1.29,.64,1.74,1.22,.45,.58,.52,1.25,.22,2.02-.1,.3-.16,.61-.17,.92-.02,.32-.11,.69-.27,1.12,1.06-.86,2.37-1.67,3.93-2.42,1.56-.75,3.15-1.2,4.78-1.37,1.79-.17,3.25,.05,4.38,.65,1.13,.6,2,1.45,2.62,2.57,.61,1.11,1,2.44,1.17,3.98,.17,1.54,.18,3.19,.05,4.93-.13,1.74-.37,3.54-.72,5.4-.35,1.86-.74,3.66-1.17,5.4-.43,1.74-.86,3.37-1.29,4.88-.43,1.51-.8,2.81-1.1,3.91-.43,1.59-.71,2.94-.82,4.03-.12,1.1,.06,1.81,.52,2.14,.27,.2,.65,.18,1.15-.05,.5-.23,1.03-.61,1.59-1.12,.56-.51,1.15-1.13,1.74-1.84s1.15-1.47,1.67-2.27c.51-.8,.95-1.59,1.32-2.39,.37-.8,.61-1.53,.75-2.19,.3-.56,.71-.85,1.25-.87,.53-.02,1.02,.17,1.47,.55,.45,.38,.79,.91,1.02,1.59,.23,.68,.2,1.42-.1,2.22-.3,.86-.7,1.83-1.2,2.89-.5,1.06-1.09,2.11-1.77,3.14-.68,1.03-1.44,2-2.29,2.91-.85,.91-1.76,1.68-2.74,2.29-.98,.61-2.02,1.02-3.11,1.22s-2.22,.1-3.39-.3c-1.03-.33-1.87-.88-2.52-1.64-.65-.76-1.12-1.66-1.42-2.69-.3-1.03-.43-2.17-.4-3.44,.03-1.26,.2-2.57,.5-3.93,.3-1.29,.71-2.85,1.22-4.66s1.03-3.68,1.54-5.6c.51-1.92,.98-3.83,1.39-5.73,.41-1.89,.66-3.58,.75-5.06,.08-1.48-.06-2.67-.42-3.59-.37-.91-1.05-1.35-2.04-1.32-.8,.03-1.67,.26-2.62,.67-.95,.42-1.88,.95-2.81,1.62-.93,.67-1.79,1.39-2.57,2.19s-1.4,1.59-1.87,2.39c-.13,.93-.32,2.12-.55,3.59-.23,1.46-.5,3.06-.8,4.81-.3,1.74-.62,3.56-.97,5.45-.35,1.89-.7,3.76-1.04,5.6-.35,1.84-.7,3.58-1.05,5.21-.35,1.63-.67,3.04-.97,4.23-.23,.86-.72,1.39-1.47,1.59-.75,.2-1.5,.18-2.27-.05-.76-.23-1.4-.62-1.92-1.17-.52-.55-.67-1.12-.47-1.72v-.05c.3-1.06,.68-2.61,1.15-4.66,.46-2.04,.96-4.4,1.49-7.07,.53-2.67,1.05-5.55,1.57-8.64s.97-6.21,1.37-9.36c-.57,.37-1.25,.62-2.04,.75-.8,.13-1.59,.19-2.37,.17-.78-.02-1.48-.08-2.09-.2-.62-.12-.99-.24-1.12-.37Z"/>
  <path class="cls-1" d="M216.18,29.81c.46-.83,1.02-1.4,1.67-1.72,.65-.31,1.28-.4,1.89-.25,.61,.15,1.14,.51,1.57,1.1,.43,.58,.65,1.35,.65,2.32-.1,.4-.28,1.2-.55,2.39-.27,1.2-.56,2.57-.87,4.13-.32,1.56-.62,3.21-.92,4.96-.3,1.74-.5,3.35-.6,4.81-.1,1.46-.08,2.69,.08,3.69,.15,1,.49,1.54,1.02,1.64,.96,.17,1.86-.2,2.69-1.1,.83-.9,1.59-2.08,2.29-3.56,.7-1.48,1.33-3.13,1.89-4.96,.56-1.83,1.05-3.58,1.47-5.25,.41-1.68,.75-3.16,1.02-4.46,.27-1.29,.46-2.16,.6-2.59,.23-.83,.54-1.51,.92-2.04,.38-.53,.97-.96,1.77-1.29,1.16-.13,2.07,.11,2.71,.72,.65,.61,.99,1.5,1.02,2.66-.27,1.29-.57,2.67-.9,4.13-.33,1.46-.65,2.91-.95,4.36-.3,1.44-.55,2.84-.75,4.18-.2,1.34-.32,2.55-.37,3.61-.05,1.06,0,1.96,.15,2.69,.15,.73,.46,1.2,.92,1.39,1.06,.17,2.02-.38,2.86-1.64,.85-1.26,1.75-3.32,2.71-6.18,.3-.73,.75-1.18,1.34-1.34,.6-.17,1.15-.12,1.67,.12,.51,.25,.91,.69,1.2,1.32,.28,.63,.27,1.39-.03,2.29-.2,.57-.45,1.22-.75,1.97-.3,.75-.66,1.52-1.07,2.32s-.87,1.59-1.37,2.39-1.03,1.51-1.59,2.14c-.83,1-1.76,1.7-2.79,2.12-1.03,.42-2.04,.56-3.04,.42s-1.94-.55-2.84-1.25-1.63-1.68-2.19-2.94c-.6,.86-1.2,1.66-1.82,2.39-.61,.73-1.29,1.36-2.04,1.89-.75,.53-1.58,.92-2.49,1.17-.91,.25-1.99,.34-3.21,.27-1.2-.07-2.18-.4-2.96-1-.78-.6-1.39-1.36-1.82-2.29-.43-.93-.73-1.95-.9-3.06-.17-1.11-.25-2.23-.25-3.36s.04-2.2,.12-3.21c.08-1.01,.16-1.87,.22-2.56,.1-.9,.26-1.94,.47-3.14s.45-2.42,.7-3.66c.25-1.24,.51-2.46,.77-3.63,.27-1.18,.48-2.22,.65-3.11Z"/>
  <path class="cls-1" d="M256.92,33.84c-.07,1.66-.37,3.33-.9,5-.53,1.68-1.31,3.19-2.34,4.53-1.03,1.34-2.28,2.42-3.76,3.24-1.48,.81-3.16,1.15-5.06,1.02,.03,1.03,.15,2.03,.35,2.99,.2,.96,.52,1.79,.97,2.46,.45,.68,1.05,1.16,1.82,1.45,.76,.28,1.73,.24,2.89-.12,1.16-.33,2.27-.88,3.34-1.64,1.06-.76,2.02-1.64,2.86-2.64,.85-1,1.56-2.05,2.14-3.16s1-2.2,1.27-3.26c.13-.56,.45-.91,.95-1.05,.5-.13,1.02-.12,1.57,.05,.55,.17,1.01,.46,1.39,.87s.51,.89,.37,1.42c-.73,1.93-1.45,3.64-2.17,5.13s-1.5,2.81-2.37,3.96c-.86,1.15-1.83,2.12-2.91,2.91s-2.35,1.46-3.81,1.99c-1.96,.7-3.77,1-5.43,.92-1.66-.08-3.11-.52-4.33-1.32-1.23-.8-2.2-1.92-2.91-3.39-.71-1.46-1.12-3.24-1.22-5.33-.07-1-.09-2.2-.07-3.61,.02-1.41,.11-2.89,.27-4.43,.17-1.54,.43-3.11,.8-4.71,.37-1.59,.86-3.08,1.49-4.46,.63-1.38,1.42-2.59,2.37-3.63,.95-1.05,2.1-1.8,3.46-2.27,1.13-.4,2.24-.55,3.34-.45s2.07,.45,2.91,1.05c.85,.6,1.52,1.44,2.02,2.51,.5,1.08,.73,2.4,.7,3.96Zm-6.28-1.29c-.47-.3-.92-.32-1.37-.08-.45,.25-.87,.67-1.27,1.25s-.75,1.27-1.05,2.07-.55,1.62-.75,2.46c-.2,.85-.35,1.65-.45,2.42-.1,.76-.12,1.38-.05,1.84,1.53-.3,2.74-.93,3.64-1.89,.9-.96,1.52-1.99,1.87-3.09,.35-1.1,.46-2.12,.35-3.09-.12-.96-.42-1.59-.92-1.89Z"/>
  <path class="cls-1" d="M260.31,54.21c-.8,.5-1.54,.72-2.22,.67-.68-.05-1.23-.28-1.64-.7-.42-.41-.66-.99-.72-1.72-.07-.73,.13-1.51,.6-2.34,.86-1.39,1.83-2.97,2.91-4.73,1.08-1.76,2.17-3.59,3.29-5.48,1.11-1.89,2.22-3.79,3.34-5.68s2.15-3.65,3.11-5.28c.33-.6,.83-1.05,1.49-1.34,.66-.3,1.32-.42,1.97-.37,.65,.05,1.21,.29,1.69,.72,.48,.43,.72,1.08,.72,1.94,0,.53-.08,1.07-.25,1.62-.17,.55-.17,1.09,0,1.62,.4,1.33,.83,2.93,1.29,4.81,.46,1.88,.83,3.86,1.1,5.95,.1,.8,.17,1.66,.22,2.59,.05,.93,.07,1.86,.05,2.79-.02,.93-.08,1.83-.17,2.71-.1,.88-.23,1.65-.4,2.32,.86-.4,1.63-.9,2.29-1.49,.66-.6,1.29-1.34,1.89-2.24s1.19-1.97,1.77-3.21c.58-1.25,1.2-2.71,1.87-4.41,.33-.86,.8-1.37,1.42-1.52,.61-.15,1.21-.1,1.79,.15,.58,.25,1.06,.63,1.44,1.14,.38,.52,.51,1,.37,1.47-.3,1.03-.73,2.2-1.29,3.51-.57,1.31-1.28,2.63-2.14,3.96-.57,.86-1.17,1.71-1.82,2.54-.65,.83-1.34,1.59-2.09,2.29-.75,.7-1.55,1.31-2.42,1.84-.86,.53-1.76,.95-2.69,1.25-1.43,.56-2.88,.86-4.36,.9-1.48,.03-2.91-.15-4.31-.55-1.63-.47-3.11-1.2-4.46-2.22-1.34-1.01-2.45-2.3-3.31-3.86l-.35,.35Zm9.76-15.94c-.47,.76-.91,1.53-1.34,2.29-.43,.76-.86,1.53-1.29,2.29-.43,.8-.87,1.6-1.32,2.42-.45,.81-.96,1.67-1.52,2.56,.17,.4,.42,.93,.75,1.59,.33,.67,.76,1.33,1.29,1.99,.46,.6,.99,1.15,1.57,1.64,.58,.5,1.2,.83,1.87,1,.27-.4,.46-.9,.6-1.49,.13-.6,.22-1.27,.27-2.02,.05-.75,.06-1.54,.03-2.39-.03-.85-.08-1.7-.15-2.57-.1-1.43-.23-2.8-.4-4.11-.17-1.31-.28-2.38-.35-3.21Z"/>
  <path class="cls-1" d="M282.92,31.35c-.73-.1-1.26-.43-1.59-1-.33-.56-.48-1.17-.45-1.82,.03-.65,.22-1.26,.57-1.84,.35-.58,.84-.94,1.47-1.07,.76-.07,1.39-.07,1.89,0,.5,.07,1.13,.07,1.89,0l1.74-9.66c.17-.63,.56-1.11,1.2-1.44,.63-.33,1.29-.47,1.97-.42,.68,.05,1.27,.3,1.77,.75,.5,.45,.7,1.15,.6,2.12l-1.44,8.67h7.32c.63,.07,1.12,.35,1.47,.85,.35,.5,.54,1.06,.57,1.69,.03,.63-.1,1.25-.4,1.87s-.76,1.05-1.39,1.32h-8.37c-.07,.7-.22,1.69-.45,2.99-.23,1.29-.47,2.71-.7,4.23-.23,1.53-.42,3.08-.55,4.66-.13,1.58-.15,3.01-.05,4.31s.37,2.36,.8,3.19c.43,.83,1.11,1.26,2.04,1.29,.83,.03,1.73-.07,2.69-.32,.96-.25,1.88-.69,2.74-1.32,.86-.63,1.64-1.48,2.34-2.54,.7-1.06,1.2-2.42,1.49-4.08,.1-.83,.43-1.38,1-1.64,.56-.27,1.15-.33,1.77-.2,.61,.13,1.14,.42,1.59,.87s.6,.97,.47,1.57c-.43,1.96-1.05,3.74-1.87,5.35-.81,1.61-1.84,3-3.09,4.16-1.25,1.16-2.73,2.07-4.46,2.71-1.73,.65-3.72,.97-5.98,.97-1.69,0-3.06-.36-4.11-1.07-1.05-.71-1.84-1.7-2.39-2.96-.55-1.26-.9-2.74-1.05-4.43-.15-1.69-.17-3.51-.05-5.45,.12-1.94,.31-3.96,.6-6.05,.28-2.09,.59-4.17,.92-6.23-.4,.03-.82,.03-1.27,0-.45-.03-.87-.03-1.27,0Z"/>
  <path class="cls-1" d="M302.94,57.3c-.33,.56-.81,.87-1.42,.92-.61,.05-1.21-.05-1.79-.3-.58-.25-1.07-.59-1.47-1.02s-.51-.85-.35-1.25c.23-.56,.53-1.29,.9-2.19,.37-.9,.81-2.2,1.34-3.91,.53-1.71,1.14-3.97,1.82-6.77,.68-2.81,1.45-6.38,2.32-10.73,.13-1.06,.51-1.83,1.12-2.29,.61-.46,1.29-.66,2.02-.6,.43,.03,.85,.14,1.25,.32,.4,.18,.74,.45,1.02,.8,.28,.35,.49,.76,.62,1.25,.13,.48,.13,1.02,0,1.62,.6,.7,1.19,1.29,1.77,1.77s1.2,.89,1.84,1.22c.65,.33,1.34,.62,2.09,.87,.75,.25,1.6,.51,2.56,.77,.66,.43,1.1,.86,1.29,1.29,.2,.43,.27,.89,.2,1.37-.07,.48-.22,1-.45,1.54-.23,.55-.45,1.14-.65,1.77-.1,.37-.22,.9-.35,1.59-.13,.7-.24,1.47-.32,2.32-.08,.85-.14,1.72-.17,2.61-.03,.9,0,1.72,.08,2.47,.08,.75,.24,1.38,.47,1.89,.23,.51,.56,.8,1,.87,1.39,.27,2.71-.56,3.93-2.49,1.23-1.92,2.41-5.08,3.54-9.46,.17-.8,.52-1.33,1.07-1.59,.55-.27,1.11-.35,1.69-.25s1.08,.35,1.49,.75,.56,.88,.42,1.44c-.2,1.23-.5,2.59-.9,4.08s-.92,2.98-1.57,4.46c-.65,1.48-1.42,2.87-2.32,4.18-.9,1.31-1.94,2.38-3.14,3.21-.9,.63-1.87,1.04-2.91,1.22-1.05,.18-2.07,.13-3.06-.15-1-.28-1.9-.78-2.71-1.49-.81-.71-1.4-1.64-1.77-2.76-.76-2.29-1.08-4.64-.95-7.05,.13-2.41,.5-4.81,1.1-7.2-.76-.33-1.61-.69-2.54-1.07-.93-.38-1.73-.82-2.39-1.32-1.16,3.65-2.08,6.56-2.74,8.72-.67,2.16-1.2,3.83-1.59,5.03s-.69,2.03-.87,2.49c-.18,.47-.36,.81-.52,1.05Z"/>
  <path class="cls-1" d="M334.71,56.85c-2.03,0-3.63-.56-4.81-1.69-1.18-1.13-2-2.58-2.47-4.36-.47-1.78-.61-3.74-.42-5.9,.18-2.16,.64-4.27,1.37-6.35,.73-2.07,1.68-3.99,2.86-5.75,1.18-1.76,2.53-3.1,4.06-4.03,1.53-.93,3.2-1.33,5-1.2,1.81,.13,3.69,1.05,5.65,2.74,.2-.6,.63-.95,1.29-1.07,.66-.12,1.32-.05,1.97,.2,.65,.25,1.19,.66,1.62,1.24,.43,.58,.51,1.29,.25,2.12-.23,.93-.53,2.07-.9,3.41-.37,1.34-.72,2.75-1.07,4.21-.35,1.46-.65,2.93-.9,4.41-.25,1.48-.37,2.81-.35,3.98,.02,1.18,.19,2.16,.52,2.94,.33,.78,.91,1.2,1.74,1.27,1,.07,1.93-.27,2.81-1.02,.88-.75,1.66-1.68,2.34-2.81,.68-1.13,1.25-2.32,1.72-3.59,.46-1.26,.76-2.36,.9-3.29,.23-.86,.62-1.37,1.17-1.52,.55-.15,1.08-.09,1.59,.17,.51,.27,.93,.67,1.24,1.22,.32,.55,.36,1.07,.12,1.57-.23,1.33-.7,2.85-1.39,4.56-.7,1.71-1.59,3.34-2.66,4.88-1.08,1.54-2.3,2.85-3.66,3.91-1.36,1.06-2.82,1.59-4.38,1.59-.7,0-1.42-.12-2.17-.37-.75-.25-1.46-.64-2.14-1.17-.68-.53-1.29-1.21-1.82-2.04-.53-.83-.91-1.84-1.15-3.04-.3,.37-.71,.82-1.25,1.37-.53,.55-1.15,1.07-1.84,1.57s-1.46,.93-2.29,1.29c-.83,.37-1.69,.55-2.59,.55Zm-.05-6.23c1.06,.1,2-.15,2.81-.75,.81-.6,1.54-1.4,2.17-2.42,.63-1.01,1.16-2.15,1.59-3.41,.43-1.26,.79-2.48,1.07-3.66s.51-2.26,.67-3.24c.17-.98,.28-1.68,.35-2.12-1.06-.9-2.06-1.36-2.99-1.39-.93-.03-1.79,.22-2.56,.77-.78,.55-1.47,1.32-2.07,2.32s-1.1,2.08-1.52,3.26c-.42,1.18-.72,2.38-.92,3.61-.2,1.23-.29,2.36-.27,3.39,.02,1.03,.17,1.88,.45,2.54,.28,.67,.69,1.03,1.22,1.1Z"/>
  <path class="cls-1" d="M388.5,32.5c.43-.9,.77-1.94,1.02-3.14,.25-1.2,.35-2.34,.3-3.44-.05-1.1-.27-2.03-.65-2.81-.38-.78-.99-1.19-1.82-1.22-1.66,.3-3.06,.99-4.21,2.07-1.15,1.08-2.09,2.37-2.84,3.86-.75,1.49-1.33,3.09-1.74,4.78-.42,1.69-.72,3.3-.92,4.83-.13,1-.2,2.07-.2,3.21s.09,2.28,.27,3.39c.18,1.11,.49,2.18,.92,3.19,.43,1.01,1.02,1.91,1.77,2.69,.75,.78,1.67,1.4,2.76,1.87,1.1,.47,2.41,.7,3.93,.7,.8,0,1.63-.12,2.52-.35,.88-.23,1.77-.67,2.66-1.32,.9-.65,1.79-1.56,2.69-2.74s1.76-2.73,2.59-4.66c.3-.66,.73-1.07,1.29-1.22,.56-.15,1.1-.12,1.62,.07,.51,.2,.95,.52,1.29,.95,.35,.43,.44,.9,.27,1.39-1.59,4.12-3.67,7.34-6.23,9.66-2.56,2.32-5.58,3.65-9.06,3.98-2.09,.2-3.97,.02-5.63-.52-1.66-.55-3.1-1.35-4.31-2.42-1.21-1.06-2.22-2.34-3.04-3.83-.81-1.49-1.43-3.1-1.84-4.81s-.66-3.47-.72-5.28c-.07-1.81,.03-3.56,.3-5.25,.2-1.36,.51-2.86,.95-4.48,.43-1.63,.97-3.24,1.62-4.83,.65-1.59,1.43-3.11,2.34-4.56,.91-1.45,1.97-2.69,3.16-3.74,1.2-1.04,2.55-1.82,4.06-2.32,1.51-.5,3.19-.61,5.05-.35,.66,.1,1.2,.25,1.59,.45s.72,.42,.97,.67c.25,.25,.46,.53,.62,.85,.17,.32,.35,.62,.55,.92,.6-.53,1.22-.85,1.87-.95,.65-.1,1.21,0,1.69,.27,.48,.28,.82,.74,1.02,1.37,.2,.63,.15,1.39-.15,2.29-.63,2.16-1.15,3.94-1.54,5.35-.4,1.41-.72,2.6-.97,3.56-.25,.96-.46,1.76-.62,2.39-.17,.63-.32,1.25-.45,1.84-.23,.5-.64,.83-1.22,1-.58,.17-1.16,.15-1.74-.05-.58-.2-1.07-.57-1.47-1.12-.4-.55-.52-1.29-.35-2.22Z"/>
  <path class="cls-1" d="M412.86,27.67c1.53-.5,2.86-.6,4.01-.3,1.14,.3,2.1,.88,2.86,1.74,.76,.86,1.37,1.93,1.82,3.21,.45,1.28,.75,2.63,.92,4.06,.07,.67,.11,1.39,.12,2.19s0,1.59-.05,2.39c-.05,.8-.12,1.56-.2,2.29-.08,.73-.19,1.39-.32,1.99,.8-.03,1.51-.14,2.14-.32,.63-.18,1.21-.4,1.74-.65,.53-.25,1.04-.52,1.52-.82,.48-.3,.97-.58,1.47-.85,.63-.33,1.15-.37,1.57-.12,.42,.25,.7,.62,.85,1.12,.15,.5,.18,1.04,.1,1.62-.08,.58-.31,1.04-.67,1.37-1.59,1.46-3.34,2.51-5.23,3.16-1.89,.65-3.82,.97-5.78,.97-1.29,2.29-2.96,4.03-4.98,5.21-2.03,1.18-4.23,1.78-6.62,1.82-2.22,.03-4.1-.42-5.63-1.34-1.53-.93-2.74-2.14-3.64-3.64s-1.49-3.2-1.77-5.1-.28-3.84,0-5.78c.28-1.94,.85-3.84,1.69-5.68,.85-1.84,1.93-3.44,3.26-4.81,1.33-1.36,2.9-2.4,4.71-3.11,1.81-.71,3.84-.92,6.1-.62Zm-3.59,5.73c-1.06,.23-2.04,.82-2.94,1.77-.9,.95-1.66,2.08-2.29,3.39-.63,1.31-1.08,2.73-1.34,4.26-.27,1.53-.29,2.96-.07,4.31,.21,1.35,.72,2.52,1.52,3.51s1.94,1.64,3.44,1.94c.53,.1,1.13,.05,1.79-.15,.66-.2,1.31-.5,1.94-.9,.63-.4,1.2-.87,1.72-1.42,.51-.55,.9-1.1,1.17-1.67-.93-.56-1.72-1.25-2.37-2.04-.65-.8-1.2-1.68-1.67-2.64-.73-1.59-1.16-3.29-1.29-5.11-.13-1.81,0-3.56,.4-5.25Zm6.18,.25c-.93,.57-1.45,1.35-1.57,2.37-.12,1.01-.03,2.04,.27,3.09,.3,1.04,.71,1.98,1.25,2.81,.53,.83,.98,1.34,1.34,1.54,.2-.17,.36-.56,.47-1.17s.19-1.32,.22-2.12c.03-.8,.02-1.63-.05-2.49-.07-.86-.18-1.63-.35-2.29-.17-.66-.38-1.17-.65-1.52-.27-.35-.58-.42-.95-.22Z"/>
  <path class="cls-1" d="M425.51,56.01c.46-3.02,.8-5.68,1.02-7.97s.34-4.29,.37-6c.03-1.71,0-3.15-.08-4.33s-.19-2.18-.32-3.01c-.13-.83-.27-1.5-.42-2.02-.15-.51-.24-.95-.27-1.32-.07-.5-.02-.94,.12-1.32,.15-.38,.37-.71,.65-.97,.28-.27,.6-.47,.97-.62,.37-.15,.73-.22,1.1-.22,.73,0,1.29,.12,1.69,.35,.4,.23,.71,.57,.92,1.02,.21,.45,.36,1,.45,1.64,.08,.65,.16,1.4,.22,2.27,.43-.73,.93-1.47,1.49-2.22,.56-.75,1.2-1.42,1.89-2.02s1.47-1.09,2.32-1.47c.85-.38,1.77-.57,2.76-.57s2.01,.19,2.94,.57c.93,.38,1.77,.91,2.51,1.59,.75,.68,1.38,1.48,1.89,2.39,.51,.91,.9,1.9,1.17,2.96,.73-1.39,1.54-2.72,2.42-3.98,.88-1.26,2.07-2.24,3.56-2.94s2.89-.9,4.18-.6,2.43,.91,3.41,1.82,1.75,2.06,2.32,3.44c.56,1.38,.85,2.81,.85,4.31,0,1.73-.11,3.54-.32,5.43-.22,1.89-.41,3.65-.57,5.28-.17,1.63-.22,2.99-.17,4.08,.05,1.1,.34,1.71,.87,1.84,.9,.23,1.76-.03,2.59-.8,.83-.76,1.58-1.71,2.27-2.84,.68-1.13,1.28-2.28,1.79-3.46,.51-1.18,.92-2.1,1.22-2.76,.23-.56,.61-.91,1.12-1.05,.51-.13,1.01-.1,1.49,.1s.88,.56,1.2,1.07,.42,1.14,.32,1.87c-.4,1.63-.95,3.25-1.64,4.88-.7,1.63-1.57,3.1-2.61,4.41-1.05,1.31-2.3,2.37-3.76,3.19-1.46,.81-3.14,1.22-5.03,1.22-1.26,0-2.3-.34-3.11-1.02-.81-.68-1.45-1.51-1.92-2.49-.47-.98-.78-2.02-.95-3.11-.17-1.1-.25-2.06-.25-2.89,0-1.2,.08-2.34,.22-3.44,.15-1.1,.32-2.17,.52-3.21,.2-1.05,.37-2.06,.52-3.04,.15-.98,.22-1.93,.22-2.86,0-1.26-.14-2.26-.42-2.99-.28-.73-.69-1.1-1.22-1.1-1.03,0-2,.61-2.91,1.82s-1.74,2.77-2.49,4.68c-.75,1.91-1.41,4.07-1.99,6.47s-1.04,4.81-1.37,7.2c-.1,.83-.47,1.42-1.1,1.77-.63,.35-1.3,.48-2.02,.4s-1.36-.35-1.94-.8c-.58-.45-.87-1.05-.87-1.82,.07-.43,.17-1.22,.32-2.37,.15-1.15,.28-2.45,.4-3.91,.12-1.46,.18-2.98,.2-4.56s-.08-3.03-.3-4.36c-.22-1.33-.58-2.42-1.1-3.26-.51-.85-1.24-1.27-2.17-1.27-.76,0-1.49,.36-2.19,1.07-.7,.71-1.37,1.67-2.02,2.86-.65,1.2-1.24,2.57-1.77,4.13-.53,1.56-1,3.21-1.42,4.93-.42,1.73-.76,3.47-1.04,5.23-.28,1.76-.47,3.42-.57,4.98-.1,.83-.49,1.41-1.17,1.74-.68,.33-1.4,.46-2.17,.4-.76-.07-1.44-.32-2.04-.75s-.86-1-.8-1.69Z"/>
  <path class="cls-1" d="M475.16,29.81c.46-.83,1.02-1.4,1.67-1.72,.65-.31,1.28-.4,1.89-.25,.61,.15,1.14,.51,1.57,1.1,.43,.58,.65,1.35,.65,2.32-.1,.4-.28,1.2-.55,2.39-.27,1.2-.56,2.57-.87,4.13-.32,1.56-.62,3.21-.92,4.96-.3,1.74-.5,3.35-.6,4.81-.1,1.46-.08,2.69,.08,3.69,.15,1,.49,1.54,1.02,1.64,.96,.17,1.86-.2,2.69-1.1,.83-.9,1.59-2.08,2.29-3.56,.7-1.48,1.33-3.13,1.89-4.96,.56-1.83,1.05-3.58,1.47-5.25,.41-1.68,.75-3.16,1.02-4.46,.27-1.29,.46-2.16,.6-2.59,.23-.83,.54-1.51,.92-2.04,.38-.53,.97-.96,1.77-1.29,1.16-.13,2.07,.11,2.71,.72,.65,.61,.99,1.5,1.02,2.66-.27,1.29-.57,2.67-.9,4.13-.33,1.46-.65,2.91-.95,4.36-.3,1.44-.55,2.84-.75,4.18-.2,1.34-.32,2.55-.37,3.61-.05,1.06,0,1.96,.15,2.69,.15,.73,.46,1.2,.92,1.39,1.06,.17,2.02-.38,2.86-1.64,.85-1.26,1.75-3.32,2.71-6.18,.3-.73,.75-1.18,1.34-1.34,.6-.17,1.15-.12,1.67,.12,.51,.25,.91,.69,1.2,1.32,.28,.63,.27,1.39-.03,2.29-.2,.57-.45,1.22-.75,1.97-.3,.75-.66,1.52-1.07,2.32s-.87,1.59-1.37,2.39-1.03,1.51-1.59,2.14c-.83,1-1.76,1.7-2.79,2.12-1.03,.42-2.04,.56-3.04,.42s-1.94-.55-2.84-1.25-1.63-1.68-2.19-2.94c-.6,.86-1.2,1.66-1.82,2.39-.61,.73-1.29,1.36-2.04,1.89-.75,.53-1.58,.92-2.49,1.17-.91,.25-1.99,.34-3.21,.27-1.2-.07-2.18-.4-2.96-1-.78-.6-1.39-1.36-1.82-2.29-.43-.93-.73-1.95-.9-3.06-.17-1.11-.25-2.23-.25-3.36s.04-2.2,.12-3.21c.08-1.01,.16-1.87,.22-2.56,.1-.9,.26-1.94,.47-3.14s.45-2.42,.7-3.66c.25-1.24,.51-2.46,.77-3.63,.27-1.18,.48-2.22,.65-3.11Z"/>
  <path class="cls-1" d="M499.17,33.59c.17-1.1,.56-1.89,1.2-2.39,.63-.5,1.29-.72,1.99-.67,.7,.05,1.32,.37,1.87,.97,.55,.6,.84,1.44,.87,2.54v1.1c.6-.8,1.26-1.59,1.99-2.39,.73-.8,1.52-1.5,2.37-2.12,.85-.61,1.79-1.06,2.81-1.35,1.03-.28,2.14-.31,3.34-.07,1.23,.27,2.22,.79,2.96,1.57,.75,.78,1.3,1.73,1.67,2.84,.37,1.11,.58,2.33,.65,3.66,.07,1.33,.06,2.66-.02,4.01-.08,1.34-.21,2.66-.37,3.93-.17,1.28-.31,2.42-.42,3.41-.12,1-.17,1.8-.15,2.42s.17,.94,.47,.97c.5,.07,1.04-.07,1.62-.4,.58-.33,1.17-.87,1.77-1.62,.6-.75,1.18-1.69,1.74-2.84,.56-1.15,1.05-2.5,1.44-4.06,.17-.7,.52-1.09,1.07-1.17,.55-.08,1.09,.02,1.62,.3,.53,.28,.98,.71,1.34,1.27,.37,.57,.45,1.15,.25,1.74-.63,1.89-1.37,3.66-2.22,5.3-.85,1.64-1.79,3.05-2.81,4.21-1.03,1.16-2.15,2.03-3.36,2.61-1.21,.58-2.48,.74-3.81,.47-1.33-.27-2.35-.77-3.06-1.52-.71-.75-1.22-1.64-1.52-2.69-.3-1.05-.43-2.19-.4-3.44,.03-1.24,.13-2.51,.3-3.81,.17-1.29,.35-2.56,.55-3.79,.2-1.23,.32-2.34,.35-3.34,.03-1-.05-1.83-.25-2.52-.2-.68-.63-1.1-1.29-1.27-.9-.23-1.76-.05-2.59,.55-.83,.6-1.6,1.47-2.32,2.61-.71,1.15-1.37,2.47-1.97,3.96s-1.11,3.02-1.54,4.58c-.43,1.56-.77,3.08-1.02,4.56-.25,1.48-.39,2.73-.42,3.76-.1,.47-.43,.87-1,1.22-.57,.35-1.18,.56-1.84,.62-.67,.07-1.3-.07-1.92-.4-.61-.33-1-.96-1.17-1.89-.03-.6-.02-1.29,.05-2.07,.07-.78,.17-1.92,.3-3.44,.13-1.51,.27-3.53,.42-6.05,.15-2.52,.31-5.83,.47-9.91Z"/>
  <path class="cls-1" d="M529.2,30.61c.66-.66,1.34-1.04,2.04-1.12,.7-.08,1.31,.03,1.84,.35,.53,.32,.92,.78,1.17,1.39,.25,.61,.27,1.29,.07,2.02-.33,.7-.65,1.61-.95,2.74-.3,1.13-.57,2.32-.8,3.59-.23,1.26-.42,2.56-.55,3.88-.13,1.33-.19,2.54-.17,3.64,.02,1.1,.12,2.04,.32,2.84s.51,1.29,.95,1.49c.43,.2,.89,.24,1.37,.12s1-.47,1.54-1.07c.55-.6,1.14-1.49,1.77-2.69,.63-1.2,1.29-2.81,1.99-4.83,.27-.5,.64-.8,1.12-.92,.48-.12,.95-.09,1.39,.08,.45,.17,.8,.46,1.04,.87,.25,.42,.29,.9,.12,1.47-.3,1.16-.79,2.56-1.47,4.18-.68,1.63-1.54,3.16-2.57,4.58-1.03,1.43-2.21,2.56-3.54,3.41-1.33,.85-2.77,1.05-4.33,.62-1.39-.4-2.49-1.2-3.29-2.42s-1.36-2.65-1.69-4.31c-.33-1.66-.46-3.46-.4-5.4,.07-1.94,.24-3.83,.52-5.65,.28-1.83,.65-3.53,1.1-5.11,.45-1.58,.9-2.83,1.37-3.76Zm1.44-4.53c-.67-.9-.92-1.76-.77-2.59,.15-.83,.51-1.47,1.1-1.92,.58-.45,1.28-.64,2.09-.57,.81,.07,1.57,.57,2.27,1.49,.46,.76,.59,1.52,.37,2.27-.22,.75-.6,1.34-1.14,1.79-.55,.45-1.2,.67-1.94,.67s-1.4-.38-1.97-1.15Z"/>
  <path class="cls-1" d="M539.21,47.34c-.2-1.63-.14-3.3,.17-5.03,.32-1.73,.85-3.34,1.62-4.83,.76-1.49,1.72-2.8,2.86-3.91,1.15-1.11,2.45-1.9,3.91-2.37,1.16-.37,2.42-.48,3.76-.35,1.35,.13,2.76,.63,4.26,1.49,.2-.73,.45-1.79,.75-3.19s.62-2.89,.97-4.48c.35-1.59,.69-3.18,1.02-4.76,.33-1.58,.6-2.95,.8-4.11,.13-.8,.5-1.34,1.1-1.64s1.22-.38,1.87-.25c.65,.13,1.21,.45,1.69,.95s.66,1.16,.52,1.99c-.23,1.59-.56,3.53-.97,5.8-.42,2.27-.83,4.67-1.25,7.2-.42,2.52-.79,5.05-1.12,7.57-.33,2.52-.52,4.83-.57,6.92-.05,2.09,.07,3.86,.35,5.3,.28,1.44,.82,2.35,1.62,2.71,.43,.2,.91,.14,1.44-.17,.53-.31,1.05-.8,1.54-1.47,.5-.66,.93-1.49,1.29-2.49,.37-1,.58-2.09,.65-3.29,.23-.9,.61-1.49,1.15-1.77,.53-.28,1.05-.35,1.57-.2,.51,.15,.95,.47,1.29,.97,.35,.5,.46,1.08,.32,1.74-.07,1.13-.33,2.4-.8,3.81-.47,1.41-1.11,2.75-1.94,4.01-.83,1.26-1.83,2.32-2.99,3.19-1.16,.86-2.46,1.29-3.88,1.29-.86,0-1.66-.22-2.39-.67-.73-.45-1.38-1-1.94-1.64-.57-.65-1.04-1.34-1.42-2.09-.38-.75-.66-1.44-.82-2.07-.86,1.2-1.82,2.16-2.86,2.89-1.05,.73-2.15,1.23-3.31,1.49-1.16,.27-2.31,.28-3.44,.05-1.13-.23-2.17-.71-3.11-1.42-.95-.71-1.75-1.67-2.42-2.86-.67-1.2-1.1-2.64-1.29-4.33Zm15.74-8.67c-.93-.9-1.85-1.45-2.76-1.67-.91-.22-1.79-.19-2.62,.07-.7,.23-1.34,.62-1.92,1.17-.58,.55-1.09,1.2-1.52,1.94-.43,.75-.76,1.57-1,2.46-.23,.9-.33,1.81-.3,2.74,.07,1.89,.54,3.23,1.42,4.01,.88,.78,1.85,1.07,2.91,.87,.86-.17,1.7-.64,2.52-1.42,.81-.78,1.44-1.87,1.87-3.26,.17-.53,.33-1.11,.5-1.74,.17-.63,.32-1.26,.45-1.89,.13-.63,.24-1.24,.32-1.82,.08-.58,.12-1.07,.12-1.47Z"/>
  <path class="cls-1" d="M575.12,56.85c-2.03,0-3.63-.56-4.81-1.69-1.18-1.13-2-2.58-2.47-4.36-.47-1.78-.61-3.74-.42-5.9,.18-2.16,.64-4.27,1.37-6.35,.73-2.07,1.68-3.99,2.86-5.75,1.18-1.76,2.53-3.1,4.06-4.03,1.53-.93,3.2-1.33,5-1.2,1.81,.13,3.69,1.05,5.65,2.74,.2-.6,.63-.95,1.29-1.07,.66-.12,1.32-.05,1.97,.2,.65,.25,1.19,.66,1.62,1.24,.43,.58,.51,1.29,.25,2.12-.23,.93-.53,2.07-.9,3.41-.37,1.34-.72,2.75-1.07,4.21-.35,1.46-.65,2.93-.9,4.41-.25,1.48-.37,2.81-.35,3.98,.02,1.18,.19,2.16,.52,2.94,.33,.78,.91,1.2,1.74,1.27,1,.07,1.93-.27,2.81-1.02,.88-.75,1.66-1.68,2.34-2.81,.68-1.13,1.25-2.32,1.72-3.59,.46-1.26,.76-2.36,.9-3.29,.23-.86,.62-1.37,1.17-1.52,.55-.15,1.08-.09,1.59,.17,.51,.27,.93,.67,1.24,1.22,.32,.55,.36,1.07,.12,1.57-.23,1.33-.7,2.85-1.39,4.56-.7,1.71-1.59,3.34-2.66,4.88-1.08,1.54-2.3,2.85-3.66,3.91-1.36,1.06-2.82,1.59-4.38,1.59-.7,0-1.42-.12-2.17-.37-.75-.25-1.46-.64-2.14-1.17-.68-.53-1.29-1.21-1.82-2.04-.53-.83-.91-1.84-1.15-3.04-.3,.37-.71,.82-1.25,1.37-.53,.55-1.15,1.07-1.84,1.57s-1.46,.93-2.29,1.29c-.83,.37-1.69,.55-2.59,.55Zm-.05-6.23c1.06,.1,2-.15,2.81-.75,.81-.6,1.54-1.4,2.17-2.42,.63-1.01,1.16-2.15,1.59-3.41,.43-1.26,.79-2.48,1.07-3.66s.51-2.26,.67-3.24c.17-.98,.28-1.68,.35-2.12-1.06-.9-2.06-1.36-2.99-1.39-.93-.03-1.79,.22-2.56,.77-.78,.55-1.47,1.32-2.07,2.32s-1.1,2.08-1.52,3.26c-.42,1.18-.72,2.38-.92,3.61-.2,1.23-.29,2.36-.27,3.39,.02,1.03,.17,1.88,.45,2.54,.28,.67,.69,1.03,1.22,1.1Z"/>
  <path class="cls-1" d="M597.88,47.34c-.2-1.63-.14-3.3,.17-5.03,.32-1.73,.85-3.34,1.62-4.83,.76-1.49,1.72-2.8,2.86-3.91,1.15-1.11,2.45-1.9,3.91-2.37,1.16-.37,2.42-.48,3.76-.35,1.35,.13,2.76,.63,4.26,1.49,.2-.73,.45-1.79,.75-3.19s.62-2.89,.97-4.48c.35-1.59,.69-3.18,1.02-4.76,.33-1.58,.6-2.95,.8-4.11,.13-.8,.5-1.34,1.1-1.64s1.22-.38,1.87-.25c.65,.13,1.21,.45,1.69,.95s.66,1.16,.52,1.99c-.23,1.59-.56,3.53-.97,5.8-.42,2.27-.83,4.67-1.25,7.2-.42,2.52-.79,5.05-1.12,7.57-.33,2.52-.52,4.83-.57,6.92-.05,2.09,.07,3.86,.35,5.3,.28,1.44,.82,2.35,1.62,2.71,.43,.2,.91,.14,1.44-.17,.53-.31,1.05-.8,1.54-1.47,.5-.66,.93-1.49,1.29-2.49,.37-1,.58-2.09,.65-3.29,.23-.9,.61-1.49,1.15-1.77,.53-.28,1.05-.35,1.57-.2,.51,.15,.95,.47,1.29,.97,.35,.5,.46,1.08,.32,1.74-.07,1.13-.33,2.4-.8,3.81-.47,1.41-1.11,2.75-1.94,4.01-.83,1.26-1.83,2.32-2.99,3.19-1.16,.86-2.46,1.29-3.88,1.29-.86,0-1.66-.22-2.39-.67-.73-.45-1.38-1-1.94-1.64-.57-.65-1.04-1.34-1.42-2.09-.38-.75-.66-1.44-.82-2.07-.86,1.2-1.82,2.16-2.86,2.89-1.05,.73-2.15,1.23-3.31,1.49-1.16,.27-2.31,.28-3.44,.05-1.13-.23-2.17-.71-3.11-1.42-.95-.71-1.75-1.67-2.42-2.86-.67-1.2-1.1-2.64-1.29-4.33Zm15.74-8.67c-.93-.9-1.85-1.45-2.76-1.67-.91-.22-1.79-.19-2.62,.07-.7,.23-1.34,.62-1.92,1.17-.58,.55-1.09,1.2-1.52,1.94-.43,.75-.76,1.57-1,2.46-.23,.9-.33,1.81-.3,2.74,.07,1.89,.54,3.23,1.42,4.01,.88,.78,1.85,1.07,2.91,.87,.86-.17,1.7-.64,2.52-1.42,.81-.78,1.44-1.87,1.87-3.26,.17-.53,.33-1.11,.5-1.74,.17-.63,.32-1.26,.45-1.89,.13-.63,.24-1.24,.32-1.82,.08-.58,.12-1.07,.12-1.47Z"/>
</svg>