<?xml version="1.0" encoding="UTF-8"?>
<svg id="Capa_1" data-name="Capa 1" xmlns="http://www.w3.org/2000/svg" viewBox="0 0 293.89 175.28">
  <defs>
    <style>
      .cls-1 {
        fill: #eeecfe;
      }

      .cls-2 {
        fill: #f28393;
      }

      .cls-3 {
        fill: #fcc660;
      }

      .cls-4 {
        fill: #743a32;
      }

      .cls-5 {
        fill: #4fb678;
      }
    </style>
  </defs>
  <path class="cls-5" d="M47.8,116.4c-2.6,10.4-5.21,20.79-7.81,31.19-.18,.71-.26,1.45-.38,2.17-4.33,.16-8.64,.05-12.93-.64-7.19-3.52-14.06-7.44-18.92-14.14C-.2,123.99-1.74,111.88,1.79,99.09c2.22-8.05,11.07-12.13,19.21-9.3,13.18,4.58,22.2,13.38,26.8,26.62Z"/>
  <path class="cls-5" d="M246.09,116.4c2.6,10.4,5.21,20.79,7.81,31.19,.18,.71,.26,1.45,.38,2.17,4.33,.16,8.64,.05,12.93-.64,7.19-3.52,14.06-7.44,18.92-14.14,7.97-11,9.5-23.1,5.98-35.9-2.22-8.05-11.07-12.13-19.21-9.3-13.18,4.58-22.2,13.38-26.8,26.62Z"/>
  <path class="cls-3" d="M266.68,149.64c-29.61,35.76-209.44,32.61-239.45-.02,7.28-31.94,16.42-63.51,27.43-94.37,22.91-.95,158.98-.04,184.98,.84,10.85,30.87,19.88,61.79,27.04,93.55Z"/>
  <path class="cls-4" d="M147.27,143.36c-.11,0-.22-.01-.32-.01s-.21,.01-.32,.01c-9.5,.22-27.04-7.6-22.17-18.94,3.91-7.22,11.93-2.58,22.49-2.15,10.56-.43,18.58-5.07,22.49,2.15,4.87,11.34-12.67,19.16-22.17,18.94Z"/>
  <g>
    <ellipse class="cls-2" cx="85.37" cy="121.03" rx="23.82" ry="18.33"/>
    <ellipse class="cls-2" cx="208.54" cy="121.03" rx="23.82" ry="18.33"/>
  </g>
  <g>
    <path class="cls-4" d="M208.9,108.94c-4.8,4.35-10.41,6.3-16.88,5.61-4.01-.8-7.54-2.5-10.4-5.49-2.85-2.98-3.16-6.05-.81-8.63,2.29-2.52,5.51-2.49,8.64,.07,3.94,3.23,7.17,3.38,10.72,.49,3.58-2.91,6.02-3.2,8.62-1.02,2.67,2.25,2.7,4.69,.12,8.96Z"/>
    <path class="cls-4" d="M101.69,114.51c-6.12,.88-11.36-1.16-16.1-4.86-.91-1.42-2.31-2.52-2.46-4.44-.2-2.61,.63-4.62,2.9-5.93,2.32-1.34,4.59-.94,6.51,.75,2.32,2.05,4.68,3.65,7.96,2.72,1.8-.32,3.01-1.59,4.36-2.67,2.7-2.17,5.82-2.01,8.02,.25,2.22,2.29,2.24,5.37-.04,8.02-2.95,3.42-6.81,5.24-11.15,6.16Z"/>
  </g>
  <path class="cls-4" d="M53.81,56.89c61.04,9.19,123.19,8.95,186.35,0,0,0-9.87-35.64-93.33-36.7-87.14-1.11-93.02,36.7-93.02,36.7Z"/>
  <path class="cls-1" d="M181.97,38.12c-14.96,11.1-61.57,10.28-69.5-2.81-2.95-4.33,1.54-11.94,6.52-14.88,3.56-2.1,5.68-4.82,7.07-8.61C129.15,3.37,133.69,.09,141.62,.05c4.19,.11,8.46-.51,12.54,.86,5.24,1.76,8.74,5.38,10.72,10.52,1.57,4.08,4.01,7.06,8.22,9.01,7.4,3.43,9.24,10.11,8.86,17.68Z"/>
</svg>