<?xml version="1.0" encoding="UTF-8"?>
<svg id="Capa_1" data-name="Capa 1" xmlns="http://www.w3.org/2000/svg" viewBox="0 0 115.72 115.22">
  <defs>
    <style>
      .cls-1 {
        fill: #fcc660;
      }
    </style>
  </defs>
  <path class="cls-1" d="M49.13,115.11C23.7,111.5-1.01,88.16,.42,55.24,1.79,23.68,28.51-1.26,60.47,.17c31.28,1.41,56.23,28.07,54.83,60.2-1.39,31.9-26.75,52.64-50.4,54.74v-44.35h13.48c.7-5.3,1.37-10.44,2.07-15.73h-15.03c0-4.08-.21-8.04,.07-11.96,.21-2.92,2.03-4.51,5.02-4.75,3.06-.25,6.15-.18,9.23-.25,.46-.01,.92,0,1.45,0v-14.38c-.74-.08-1.49-.23-2.24-.22-4.82,.05-9.73-.4-14.46,.33-8.81,1.36-14.57,8.21-15.09,17.2-.24,4.11-.14,8.25-.19,12.37,0,.6,0,1.2,0,1.98h-13.42v15.73h13.34v44.06Z"/>
</svg>