<?xml version="1.0" encoding="UTF-8"?>
<svg id="Capa_1" data-name="Capa 1" xmlns="http://www.w3.org/2000/svg" viewBox="0 0 462.88 60.63">
  <defs>
    <style>
      .cls-1 {
        fill: #fff;
      }
    </style>
  </defs>
  <path class="cls-1" d="M6.01,3.81c-.15-.86-.02-1.61,.39-2.24,.42-.63,.93-1.08,1.55-1.34,.62-.26,1.22-.3,1.83-.11,.6,.18,1.02,.66,1.27,1.43,.15,.92,.32,1.78,.49,2.56,.17,.79,.41,1.53,.74,2.24,.32,.71,.76,1.39,1.32,2.06s1.29,1.32,2.22,1.96c.31-.92,.7-2.03,1.18-3.33,.48-1.29,1.09-2.48,1.82-3.56,.74-1.08,1.65-1.92,2.73-2.52,1.08-.6,2.36-.68,3.84-.25,.55,.15,1.1,.41,1.64,.76s1.01,.79,1.41,1.32,.71,1.13,.92,1.83c.22,.69,.29,1.45,.23,2.29-.09,1.42-.5,2.76-1.22,4.02-.73,1.26-1.59,2.37-2.61,3.33s-2.09,1.69-3.23,2.22-2.17,.75-3.1,.69c-.25,.62-.48,1.32-.72,2.13-.23,.8-.46,1.63-.69,2.47-.23,.85-.46,1.67-.69,2.47-.23,.8-.45,1.52-.67,2.17,1.17,.77,2.11,1.74,2.82,2.91,.71,1.17,1.36,2.31,1.94,3.42s1.17,2.06,1.76,2.87,1.32,1.22,2.22,1.25c1.14,.03,2.16-.25,3.07-.83,.91-.59,1.7-1.33,2.38-2.24,.68-.91,1.23-1.9,1.66-2.98s.75-2.11,.97-3.1c.15-.68,.51-1.05,1.06-1.13,.55-.08,1.12,.02,1.71,.3s1.07,.66,1.46,1.16c.38,.49,.5,.97,.35,1.43-.46,1.36-1.06,2.82-1.78,4.39-.72,1.57-1.63,3.02-2.72,4.34-1.1,1.32-2.38,2.39-3.86,3.19-1.48,.8-3.2,1.11-5.18,.92-1.57-.15-2.8-.53-3.7-1.13-.89-.6-1.65-1.35-2.26-2.24s-1.16-1.89-1.64-3c-.48-1.11-1.09-2.23-1.83-3.37-.34,1.17-.76,2.37-1.27,3.58-.51,1.22-1.15,2.3-1.92,3.26s-1.69,1.71-2.75,2.26c-1.06,.55-2.33,.74-3.81,.55-1.36-.18-2.46-.7-3.33-1.55-.86-.85-1.45-1.89-1.76-3.12s-.31-2.57,0-4c.31-1.43,.97-2.8,1.99-4.09,1.11-1.48,2.47-2.63,4.09-3.47,1.62-.83,3.3-1.23,5.06-1.2,.34-1.23,.76-2.66,1.27-4.27,.51-1.62,.95-3.2,1.32-4.74-1.39-.77-2.55-1.65-3.49-2.63-.94-.99-1.72-2.02-2.33-3.1s-1.09-2.16-1.43-3.23-.57-2.08-.69-3Zm1.34,32.72c.77-.77,1.31-1.72,1.62-2.84,.31-1.12,.63-2.23,.97-3.3-.59,.15-1.16,.4-1.73,.74-.57,.34-1.08,.73-1.53,1.18-.45,.45-.82,.93-1.13,1.46-.31,.52-.49,1.03-.55,1.52-.06,.37-.03,.7,.09,.99,.12,.29,.3,.51,.53,.65,.23,.14,.5,.18,.81,.14,.31-.05,.62-.22,.92-.53ZM24.21,5.24c-.25,0-.54,.25-.88,.74s-.67,1.08-.99,1.76c-.32,.68-.62,1.37-.9,2.08s-.48,1.26-.6,1.66c.37,.09,.75,0,1.16-.28s.77-.65,1.11-1.11,.65-.97,.92-1.52,.48-1.08,.6-1.57,.15-.9,.09-1.23c-.06-.32-.23-.5-.51-.53Z"/>
  <path class="cls-1" d="M47.97,12.91c1.42-.46,2.66-.55,3.72-.28,1.06,.28,1.95,.82,2.66,1.62s1.27,1.8,1.69,2.98c.42,1.19,.7,2.44,.86,3.77,.06,.62,.1,1.29,.12,2.03,.01,.74,0,1.48-.05,2.22-.04,.74-.11,1.45-.18,2.13s-.18,1.29-.3,1.85c.74-.03,1.4-.13,1.99-.3s1.12-.37,1.62-.6c.49-.23,.96-.48,1.41-.76s.9-.54,1.36-.79c.59-.31,1.07-.35,1.46-.12,.38,.23,.65,.58,.78,1.04,.14,.46,.17,.96,.09,1.5s-.28,.96-.62,1.27c-1.48,1.36-3.1,2.33-4.85,2.93-1.76,.6-3.54,.9-5.36,.9-1.2,2.13-2.74,3.74-4.62,4.83-1.88,1.1-3.93,1.66-6.15,1.69-2.06,.03-3.8-.39-5.22-1.25s-2.54-1.99-3.37-3.37-1.38-2.96-1.64-4.74c-.26-1.77-.26-3.56,0-5.36,.26-1.8,.78-3.56,1.57-5.27,.78-1.71,1.79-3.2,3.03-4.46,1.23-1.26,2.69-2.23,4.37-2.89,1.68-.66,3.57-.86,5.66-.58Zm-3.33,5.31c-.99,.22-1.89,.76-2.73,1.64-.83,.88-1.54,1.93-2.13,3.14s-1,2.53-1.25,3.95-.27,2.75-.07,4c.2,1.25,.67,2.33,1.41,3.26,.74,.92,1.8,1.52,3.19,1.8,.49,.09,1.05,.05,1.66-.14s1.22-.46,1.8-.83,1.12-.81,1.59-1.32c.48-.51,.84-1.03,1.09-1.55-.86-.52-1.59-1.16-2.19-1.89-.6-.74-1.12-1.56-1.55-2.45-.68-1.48-1.08-3.06-1.2-4.74-.12-1.68,0-3.3,.37-4.88Zm5.73,.23c-.86,.52-1.35,1.26-1.46,2.19-.11,.94-.02,1.9,.25,2.87,.28,.97,.66,1.84,1.16,2.61s.91,1.25,1.25,1.43c.18-.15,.33-.52,.44-1.09,.11-.57,.18-1.22,.21-1.96s.02-1.51-.05-2.31-.17-1.51-.32-2.13-.35-1.09-.6-1.41c-.25-.32-.54-.39-.88-.21Z"/>
  <path class="cls-1" d="M59.84,37.54c-.74,.46-1.42,.67-2.06,.62-.63-.05-1.14-.26-1.53-.65-.38-.39-.61-.92-.67-1.59s.12-1.4,.55-2.17c.8-1.29,1.7-2.76,2.7-4.39,1-1.63,2.02-3.33,3.05-5.08,1.03-1.76,2.06-3.51,3.1-5.27,1.03-1.76,1.99-3.39,2.89-4.9,.31-.55,.77-.97,1.39-1.25s1.22-.39,1.83-.35c.6,.05,1.12,.27,1.57,.67,.45,.4,.67,1,.67,1.8,0,.49-.08,.99-.23,1.5-.15,.51-.15,1.01,0,1.5,.37,1.23,.77,2.72,1.2,4.46s.77,3.58,1.02,5.52c.09,.74,.16,1.54,.21,2.4,.04,.86,.06,1.73,.04,2.59s-.07,1.7-.16,2.52-.22,1.53-.37,2.15c.8-.37,1.51-.83,2.13-1.39s1.2-1.25,1.76-2.08c.55-.83,1.1-1.82,1.64-2.98,.54-1.15,1.12-2.52,1.73-4.09,.31-.8,.75-1.27,1.32-1.41,.57-.14,1.12-.09,1.66,.14,.54,.23,.99,.59,1.34,1.06,.35,.48,.47,.93,.35,1.36-.28,.96-.68,2.04-1.2,3.26s-1.19,2.44-1.99,3.67c-.52,.8-1.09,1.59-1.69,2.36-.6,.77-1.25,1.48-1.94,2.13-.69,.65-1.44,1.22-2.24,1.71s-1.63,.88-2.5,1.16c-1.32,.52-2.67,.8-4.04,.83-1.37,.03-2.7-.14-4-.51-1.51-.43-2.89-1.12-4.14-2.06-1.25-.94-2.27-2.13-3.07-3.58l-.32,.32Zm9.06-14.79c-.43,.71-.85,1.42-1.25,2.13s-.8,1.42-1.2,2.13c-.4,.74-.81,1.49-1.23,2.24-.41,.76-.88,1.55-1.41,2.38,.15,.37,.39,.86,.69,1.48s.71,1.23,1.2,1.85c.43,.55,.92,1.06,1.45,1.52s1.12,.77,1.73,.92c.25-.37,.43-.83,.55-1.39,.12-.55,.21-1.18,.25-1.87,.04-.69,.05-1.43,.02-2.22-.03-.78-.08-1.58-.14-2.38-.09-1.32-.22-2.59-.37-3.81-.15-1.22-.26-2.21-.32-2.98Z"/>
  <path class="cls-1" d="M97.5,2.15c.43-.77,.98-1.26,1.64-1.48,.66-.22,1.29-.23,1.87-.05s1.06,.52,1.43,1.02,.46,1.06,.28,1.71l-2.87,30.68c1.32-.09,2.62-.36,3.88-.81,1.26-.45,2.48-1.02,3.65-1.71,1.17-.69,2.29-1.47,3.35-2.33,1.06-.86,2.06-1.74,2.98-2.63,.49-.25,.93-.15,1.32,.28,.38,.43,.66,.98,.83,1.64,.17,.66,.2,1.35,.09,2.06-.11,.71-.41,1.22-.9,1.52-.65,.49-1.37,1.04-2.17,1.64-.8,.6-1.61,1.17-2.43,1.71s-1.61,1.02-2.38,1.45-1.43,.72-1.99,.88c.92,1.02,1.65,2.31,2.17,3.88,.52,1.57,.85,3.24,.97,5.01,.12,1.77,.04,3.54-.25,5.29-.29,1.76-.79,3.3-1.5,4.64-.71,1.34-1.63,2.39-2.77,3.16-1.14,.77-2.5,1.05-4.07,.83-1.48-.18-2.67-.75-3.58-1.71s-1.61-2.12-2.1-3.49c-.49-1.37-.82-2.9-.97-4.58s-.22-3.34-.18-4.99c.03-1.65,.1-3.22,.21-4.71,.11-1.49,.18-2.75,.21-3.77,0-.59,.06-1.69,.18-3.33s.27-3.56,.44-5.78c.17-2.22,.37-4.61,.6-7.16,.23-2.56,.46-5.04,.69-7.44,.23-2.4,.46-4.62,.69-6.65,.23-2.03,.45-3.64,.67-4.81Zm3.37,52.4c.83-.03,1.52-.41,2.08-1.13,.55-.73,.96-1.61,1.22-2.66,.26-1.05,.36-2.2,.3-3.44-.06-1.25-.28-2.41-.65-3.49-.37-1.08-.9-2.01-1.59-2.79-.69-.79-1.56-1.24-2.61-1.36-.06,.52-.15,1.26-.25,2.22s-.2,1.99-.28,3.1-.12,2.23-.14,3.37c-.02,1.14,.03,2.17,.14,3.1s.3,1.68,.58,2.26,.68,.86,1.2,.83Z"/>
  <path class="cls-1" d="M119.08,39.99c-1.88,0-3.37-.52-4.46-1.57s-1.86-2.39-2.29-4.04-.56-3.47-.39-5.48c.17-2,.59-3.97,1.27-5.89s1.56-3.71,2.66-5.34c1.09-1.63,2.35-2.88,3.77-3.74s2.96-1.23,4.64-1.11c1.68,.12,3.43,.97,5.24,2.54,.18-.55,.59-.88,1.2-.99,.62-.11,1.23-.04,1.82,.18,.6,.23,1.1,.62,1.5,1.16s.48,1.19,.23,1.96c-.22,.86-.49,1.92-.83,3.16-.34,1.25-.67,2.55-.99,3.91-.32,1.36-.6,2.72-.83,4.09-.23,1.37-.34,2.6-.32,3.7,.01,1.09,.18,2,.48,2.72,.31,.73,.85,1.12,1.62,1.18,.92,.06,1.79-.25,2.61-.95,.81-.69,1.54-1.56,2.17-2.61s1.16-2.16,1.59-3.33c.43-1.17,.71-2.19,.83-3.05,.22-.8,.58-1.27,1.09-1.41,.51-.14,1-.08,1.48,.16s.86,.62,1.16,1.13c.29,.51,.33,.99,.11,1.46-.22,1.23-.65,2.64-1.29,4.23s-1.47,3.09-2.47,4.53c-1,1.43-2.13,2.64-3.4,3.63-1.26,.99-2.62,1.48-4.07,1.48-.65,0-1.32-.11-2.01-.35-.69-.23-1.36-.59-1.99-1.09s-1.19-1.12-1.69-1.89-.85-1.71-1.06-2.82c-.28,.34-.66,.76-1.16,1.27-.49,.51-1.06,.99-1.71,1.46s-1.36,.86-2.13,1.2-1.57,.51-2.4,.51Zm-.05-5.78c.99,.09,1.86-.14,2.61-.69s1.43-1.3,2.01-2.24c.59-.94,1.08-1.99,1.48-3.16,.4-1.17,.73-2.3,.99-3.4,.26-1.09,.47-2.09,.62-3s.26-1.56,.32-1.96c-.99-.83-1.91-1.26-2.77-1.29s-1.66,.21-2.38,.72c-.72,.51-1.36,1.23-1.92,2.15s-1.03,1.93-1.41,3.03c-.39,1.1-.67,2.21-.85,3.35s-.27,2.19-.25,3.14c.02,.96,.15,1.74,.42,2.36,.26,.62,.64,.96,1.13,1.02Z"/>
  <path class="cls-1" d="M143.43,14.21c1.17,4.87,2.09,8.76,2.75,11.67,.66,2.91,1.04,4.78,1.13,5.61,.43-1.11,.91-2.4,1.43-3.88s1.08-2.99,1.66-4.53,1.19-3.07,1.82-4.57,1.29-2.87,1.96-4.07c.37-.77,.9-1.23,1.59-1.39,.69-.15,1.34-.1,1.94,.16,.6,.26,1.06,.67,1.39,1.22,.32,.55,.3,1.17-.07,1.85-.4,.8-.86,1.8-1.39,3s-1.07,2.51-1.64,3.93-1.15,2.89-1.73,4.41c-.59,1.52-1.13,3-1.64,4.44-.51,1.43-.97,2.77-1.39,4.02-.42,1.25-.75,2.29-.99,3.12-.25,.71-.72,1.19-1.43,1.46-.71,.26-1.44,.35-2.19,.28-.76-.08-1.45-.27-2.08-.58s-.99-.69-1.09-1.16c-.46-2.16-.9-4.3-1.32-6.42-.41-2.13-.82-4.15-1.2-6.08-.39-1.93-.75-3.71-1.09-5.36-.34-1.65-.63-3.1-.88-4.37-.28-.71-.25-1.35,.07-1.92,.32-.57,.76-1,1.32-1.29s1.13-.42,1.73-.37c.6,.04,1.04,.32,1.32,.81Z"/>
  <path class="cls-1" d="M172.45,12.91c1.42-.46,2.66-.55,3.72-.28,1.06,.28,1.95,.82,2.66,1.62s1.27,1.8,1.69,2.98c.42,1.19,.7,2.44,.86,3.77,.06,.62,.1,1.29,.12,2.03,.01,.74,0,1.48-.05,2.22-.04,.74-.11,1.45-.18,2.13s-.18,1.29-.3,1.85c.74-.03,1.4-.13,1.99-.3s1.12-.37,1.62-.6c.49-.23,.96-.48,1.41-.76s.9-.54,1.36-.79c.59-.31,1.07-.35,1.46-.12,.38,.23,.65,.58,.78,1.04,.14,.46,.17,.96,.09,1.5s-.28,.96-.62,1.27c-1.48,1.36-3.1,2.33-4.85,2.93-1.76,.6-3.54,.9-5.36,.9-1.2,2.13-2.74,3.74-4.62,4.83-1.88,1.1-3.93,1.66-6.15,1.69-2.06,.03-3.8-.39-5.22-1.25s-2.54-1.99-3.37-3.37-1.38-2.96-1.64-4.74c-.26-1.77-.26-3.56,0-5.36,.26-1.8,.78-3.56,1.57-5.27,.78-1.71,1.79-3.2,3.03-4.46s2.69-2.23,4.37-2.89c1.68-.66,3.57-.86,5.66-.58Zm-3.33,5.31c-.99,.22-1.89,.76-2.73,1.64-.83,.88-1.54,1.93-2.13,3.14s-1,2.53-1.25,3.95-.27,2.75-.07,4c.2,1.25,.67,2.33,1.41,3.26s1.8,1.52,3.19,1.8c.49,.09,1.05,.05,1.66-.14s1.22-.46,1.8-.83,1.12-.81,1.59-1.32c.48-.51,.84-1.03,1.09-1.55-.86-.52-1.59-1.16-2.19-1.89-.6-.74-1.12-1.56-1.55-2.45-.68-1.48-1.08-3.06-1.2-4.74s0-3.3,.37-4.88Zm5.73,.23c-.86,.52-1.35,1.26-1.46,2.19-.11,.94-.02,1.9,.25,2.87,.28,.97,.66,1.84,1.16,2.61s.91,1.25,1.25,1.43c.18-.15,.33-.52,.44-1.09,.11-.57,.18-1.22,.21-1.96s.02-1.51-.05-2.31-.17-1.51-.32-2.13-.35-1.09-.6-1.41c-.25-.32-.54-.39-.88-.21Z"/>
  <path class="cls-1" d="M186.27,40.41c-.31,.52-.75,.81-1.32,.85-.57,.05-1.12-.04-1.66-.28-.54-.23-.99-.55-1.36-.95s-.48-.79-.32-1.16c.22-.52,.49-1.2,.83-2.03s.75-2.04,1.25-3.63c.49-1.59,1.06-3.68,1.69-6.28,.63-2.6,1.35-5.92,2.15-9.96,.12-.99,.47-1.69,1.04-2.13,.57-.43,1.19-.62,1.87-.55,.4,.03,.79,.13,1.16,.3s.68,.41,.95,.74c.26,.32,.45,.71,.58,1.15,.12,.45,.12,.95,0,1.5,.55,.65,1.1,1.19,1.64,1.64,.54,.45,1.11,.82,1.71,1.13,.6,.31,1.25,.58,1.94,.81,.69,.23,1.49,.47,2.38,.72,.62,.4,1.02,.8,1.2,1.2s.25,.82,.18,1.27-.2,.92-.42,1.43c-.22,.51-.42,1.06-.6,1.64-.09,.34-.2,.83-.32,1.48s-.22,1.36-.3,2.15c-.08,.79-.13,1.59-.16,2.43s0,1.59,.07,2.29c.08,.69,.22,1.28,.44,1.76,.22,.48,.52,.75,.92,.81,1.29,.25,2.51-.52,3.65-2.31s2.23-4.71,3.28-8.78c.15-.74,.48-1.23,.99-1.48,.51-.25,1.03-.32,1.57-.23,.54,.09,1,.32,1.39,.69,.38,.37,.52,.82,.39,1.34-.18,1.14-.46,2.4-.83,3.79s-.85,2.77-1.46,4.14c-.6,1.37-1.32,2.67-2.15,3.88-.83,1.22-1.8,2.21-2.91,2.98-.83,.59-1.73,.96-2.7,1.13-.97,.17-1.92,.12-2.84-.14s-1.76-.72-2.52-1.39-1.3-1.52-1.64-2.56c-.71-2.13-1-4.3-.88-6.54,.12-2.23,.46-4.46,1.02-6.68-.71-.31-1.49-.64-2.36-.99s-1.6-.76-2.22-1.23c-1.08,3.39-1.93,6.08-2.54,8.09s-1.11,3.56-1.48,4.67c-.37,1.11-.64,1.88-.81,2.31s-.33,.75-.48,.97Z"/>
  <path class="cls-1" d="M210.95,15.64c.62-.62,1.25-.96,1.89-1.04s1.22,.03,1.71,.32c.49,.29,.86,.73,1.09,1.29,.23,.57,.25,1.19,.07,1.87-.31,.65-.6,1.49-.88,2.54s-.52,2.16-.74,3.33-.39,2.37-.51,3.6-.18,2.36-.16,3.37c.02,1.02,.12,1.89,.3,2.63s.48,1.2,.88,1.39,.82,.22,1.27,.11c.45-.11,.92-.44,1.43-.99,.51-.55,1.06-1.39,1.64-2.5s1.2-2.6,1.85-4.48c.25-.46,.59-.75,1.04-.85s.88-.09,1.29,.07c.42,.15,.74,.42,.97,.81,.23,.39,.27,.84,.11,1.36-.28,1.08-.73,2.37-1.36,3.88s-1.42,2.93-2.38,4.25-2.05,2.38-3.28,3.16c-1.23,.79-2.57,.98-4.02,.58-1.29-.37-2.31-1.12-3.05-2.24-.74-1.12-1.26-2.46-1.57-4s-.43-3.21-.37-5.01c.06-1.8,.22-3.55,.49-5.25,.26-1.69,.6-3.27,1.02-4.74,.41-1.46,.84-2.63,1.27-3.49Zm1.34-4.21c-.62-.83-.85-1.63-.72-2.4,.14-.77,.48-1.36,1.02-1.78,.54-.41,1.19-.59,1.94-.53s1.46,.52,2.1,1.39c.43,.71,.55,1.41,.35,2.1-.2,.69-.55,1.25-1.06,1.66-.51,.42-1.11,.62-1.8,.62s-1.3-.35-1.83-1.06Z"/>
  <path class="cls-1" d="M218.76,16.33c-.68-.09-1.17-.4-1.48-.92s-.45-1.09-.42-1.69c.03-.6,.21-1.17,.53-1.71,.32-.54,.78-.87,1.36-.99,.71-.06,1.29-.06,1.76,0s1.05,.06,1.76,0l1.62-8.96c.15-.59,.52-1.03,1.11-1.34s1.19-.44,1.82-.39c.63,.05,1.18,.28,1.64,.69,.46,.41,.65,1.07,.55,1.96l-1.34,8.04h6.79c.59,.06,1.04,.32,1.36,.79,.32,.46,.5,.99,.53,1.57s-.09,1.16-.37,1.73c-.28,.57-.71,.98-1.29,1.23h-7.76c-.06,.65-.2,1.57-.42,2.77s-.43,2.51-.65,3.93-.39,2.86-.51,4.32-.14,2.79-.05,4,.34,2.19,.74,2.96,1.03,1.17,1.89,1.2c.77,.03,1.6-.07,2.5-.3,.89-.23,1.74-.64,2.54-1.23,.8-.59,1.52-1.37,2.17-2.36s1.11-2.25,1.39-3.79c.09-.77,.4-1.28,.92-1.52s1.07-.31,1.64-.18,1.06,.39,1.48,.81,.56,.9,.44,1.46c-.4,1.82-.98,3.47-1.73,4.97s-1.71,2.78-2.87,3.86c-1.15,1.08-2.53,1.92-4.14,2.52-1.6,.6-3.45,.9-5.55,.9-1.57,0-2.84-.33-3.81-.99-.97-.66-1.71-1.58-2.22-2.75-.51-1.17-.83-2.54-.97-4.11-.14-1.57-.16-3.26-.05-5.06,.11-1.8,.29-3.67,.55-5.62s.55-3.87,.86-5.78c-.37,.03-.76,.03-1.18,0-.42-.03-.81-.03-1.18,0Z"/>
  <path class="cls-1" d="M251.2,12.91c1.42-.46,2.66-.55,3.72-.28,1.06,.28,1.95,.82,2.66,1.62s1.27,1.8,1.69,2.98c.42,1.19,.7,2.44,.86,3.77,.06,.62,.1,1.29,.12,2.03,.01,.74,0,1.48-.05,2.22-.04,.74-.11,1.45-.18,2.13s-.18,1.29-.3,1.85c.74-.03,1.4-.13,1.99-.3s1.12-.37,1.62-.6c.49-.23,.96-.48,1.41-.76s.9-.54,1.36-.79c.59-.31,1.07-.35,1.46-.12,.38,.23,.65,.58,.78,1.04,.14,.46,.17,.96,.09,1.5s-.28,.96-.62,1.27c-1.48,1.36-3.1,2.33-4.85,2.93-1.76,.6-3.54,.9-5.36,.9-1.2,2.13-2.74,3.74-4.62,4.83-1.88,1.1-3.93,1.66-6.15,1.69-2.06,.03-3.8-.39-5.22-1.25s-2.54-1.99-3.37-3.37-1.38-2.96-1.64-4.74c-.26-1.77-.26-3.56,0-5.36,.26-1.8,.78-3.56,1.57-5.27,.78-1.71,1.79-3.2,3.03-4.46,1.23-1.26,2.69-2.23,4.37-2.89,1.68-.66,3.57-.86,5.66-.58Zm-3.33,5.31c-.99,.22-1.89,.76-2.73,1.64-.83,.88-1.54,1.93-2.13,3.14-.59,1.22-1,2.53-1.25,3.95-.25,1.42-.27,2.75-.07,4,.2,1.25,.67,2.33,1.41,3.26s1.8,1.52,3.19,1.8c.49,.09,1.05,.05,1.66-.14s1.22-.46,1.8-.83,1.12-.81,1.59-1.32c.48-.51,.84-1.03,1.09-1.55-.86-.52-1.59-1.16-2.19-1.89-.6-.74-1.12-1.56-1.55-2.45-.68-1.48-1.08-3.06-1.2-4.74s0-3.3,.37-4.88Zm5.73,.23c-.86,.52-1.35,1.26-1.46,2.19-.11,.94-.02,1.9,.25,2.87,.28,.97,.66,1.84,1.16,2.61s.91,1.25,1.25,1.43c.18-.15,.33-.52,.44-1.09,.11-.57,.18-1.22,.21-1.96s.02-1.51-.05-2.31-.17-1.51-.32-2.13-.35-1.09-.6-1.41c-.25-.32-.54-.39-.88-.21Z"/>
  <path class="cls-1" d="M263.07,37.54c-.74,.46-1.42,.67-2.06,.62-.63-.05-1.14-.26-1.53-.65-.38-.39-.61-.92-.67-1.59s.12-1.4,.55-2.17c.8-1.29,1.7-2.76,2.7-4.39,1-1.63,2.02-3.33,3.05-5.08s2.06-3.51,3.1-5.27c1.03-1.76,1.99-3.39,2.89-4.9,.31-.55,.77-.97,1.39-1.25s1.22-.39,1.83-.35c.6,.05,1.12,.27,1.57,.67,.45,.4,.67,1,.67,1.8,0,.49-.08,.99-.23,1.5-.15,.51-.15,1.01,0,1.5,.37,1.23,.77,2.72,1.2,4.46s.77,3.58,1.02,5.52c.09,.74,.16,1.54,.21,2.4,.04,.86,.06,1.73,.04,2.59s-.07,1.7-.16,2.52-.22,1.53-.37,2.15c.8-.37,1.51-.83,2.13-1.39s1.2-1.25,1.76-2.08,1.1-1.82,1.64-2.98c.54-1.15,1.12-2.52,1.73-4.09,.31-.8,.75-1.27,1.32-1.41,.57-.14,1.12-.09,1.66,.14,.54,.23,.99,.59,1.34,1.06,.35,.48,.47,.93,.35,1.36-.28,.96-.68,2.04-1.2,3.26-.52,1.22-1.19,2.44-1.99,3.67-.52,.8-1.09,1.59-1.69,2.36-.6,.77-1.25,1.48-1.94,2.13-.69,.65-1.44,1.22-2.24,1.71s-1.63,.88-2.5,1.16c-1.32,.52-2.67,.8-4.04,.83-1.37,.03-2.7-.14-4-.51-1.51-.43-2.89-1.12-4.14-2.06-1.25-.94-2.27-2.13-3.07-3.58l-.32,.32Zm9.06-14.79c-.43,.71-.85,1.42-1.25,2.13l-1.2,2.13c-.4,.74-.81,1.49-1.23,2.24-.41,.76-.88,1.55-1.41,2.38,.15,.37,.39,.86,.69,1.48s.71,1.23,1.2,1.85c.43,.55,.92,1.06,1.45,1.52,.54,.46,1.12,.77,1.73,.92,.25-.37,.43-.83,.55-1.39s.21-1.18,.25-1.87c.04-.69,.05-1.43,.02-2.22-.03-.78-.08-1.58-.14-2.38-.09-1.32-.22-2.59-.37-3.81-.15-1.22-.26-2.21-.32-2.98Z"/>
  <path class="cls-1" d="M298.61,31.17c-.18-1.51-.13-3.07,.16-4.67,.29-1.6,.79-3.1,1.5-4.48,.71-1.39,1.59-2.59,2.66-3.63,1.06-1.03,2.27-1.76,3.63-2.2,1.08-.34,2.24-.45,3.49-.32,1.25,.12,2.56,.59,3.95,1.39,.18-.68,.42-1.66,.69-2.96,.28-1.29,.58-2.68,.9-4.16,.32-1.48,.64-2.95,.95-4.41,.31-1.46,.55-2.73,.74-3.81,.12-.74,.46-1.25,1.02-1.52s1.13-.35,1.73-.23c.6,.12,1.12,.42,1.57,.88,.45,.46,.61,1.08,.48,1.85-.22,1.48-.52,3.27-.9,5.38-.39,2.11-.77,4.34-1.15,6.68-.39,2.34-.73,4.68-1.04,7.02s-.49,4.48-.53,6.42c-.05,1.94,.06,3.58,.32,4.92,.26,1.34,.76,2.18,1.5,2.52,.4,.18,.85,.13,1.34-.16s.97-.75,1.43-1.36,.86-1.39,1.2-2.31,.54-1.94,.6-3.05c.22-.83,.57-1.38,1.06-1.64,.49-.26,.98-.32,1.45-.18,.48,.14,.88,.44,1.2,.9,.32,.46,.42,1,.3,1.62-.06,1.05-.31,2.23-.74,3.54s-1.03,2.55-1.8,3.72-1.69,2.16-2.77,2.96c-1.08,.8-2.28,1.2-3.6,1.2-.8,0-1.54-.21-2.22-.62-.68-.41-1.28-.92-1.8-1.52-.52-.6-.96-1.25-1.32-1.94-.35-.69-.61-1.33-.76-1.92-.8,1.11-1.69,2-2.66,2.68-.97,.68-1.99,1.14-3.07,1.39s-2.14,.26-3.19,.05-2.01-.65-2.89-1.32c-.88-.66-1.62-1.55-2.24-2.66-.62-1.11-1.02-2.45-1.2-4.02Zm14.6-8.04c-.86-.83-1.72-1.35-2.57-1.55-.85-.2-1.66-.18-2.43,.07-.65,.22-1.24,.58-1.78,1.09-.54,.51-1.01,1.11-1.41,1.8-.4,.69-.71,1.46-.92,2.29s-.31,1.68-.28,2.54c.06,1.76,.5,3,1.32,3.72,.81,.72,1.72,.99,2.7,.81,.8-.15,1.58-.59,2.33-1.32,.75-.72,1.33-1.73,1.73-3.03,.15-.49,.31-1.03,.46-1.62s.29-1.17,.42-1.76,.22-1.15,.3-1.69c.08-.54,.11-.99,.11-1.36Z"/>
  <path class="cls-1" d="M340.52,18.64c-.06,1.54-.34,3.09-.83,4.64-.49,1.56-1.22,2.96-2.17,4.2-.96,1.25-2.12,2.25-3.49,3.01s-2.93,1.07-4.69,.95c.03,.96,.14,1.88,.32,2.77s.48,1.66,.9,2.29c.41,.63,.98,1.08,1.69,1.34,.71,.26,1.6,.22,2.68-.11,1.08-.31,2.11-.82,3.1-1.52,.99-.71,1.87-1.52,2.66-2.45,.79-.92,1.45-1.9,1.99-2.94,.54-1.03,.93-2.04,1.18-3.03,.12-.52,.42-.85,.88-.97s.95-.11,1.46,.05c.51,.15,.94,.42,1.29,.81,.35,.39,.47,.82,.35,1.32-.68,1.79-1.35,3.37-2.01,4.76-.66,1.39-1.39,2.61-2.2,3.67-.8,1.06-1.7,1.96-2.7,2.7-1,.74-2.18,1.36-3.54,1.85-1.82,.65-3.5,.93-5.04,.85-1.54-.08-2.88-.48-4.02-1.22s-2.04-1.79-2.7-3.14-1.04-3-1.13-4.94c-.06-.92-.09-2.04-.07-3.35,.02-1.31,.1-2.68,.25-4.11,.15-1.43,.4-2.89,.74-4.37,.34-1.48,.8-2.86,1.39-4.14,.59-1.28,1.32-2.4,2.2-3.37,.88-.97,1.95-1.67,3.21-2.1,1.05-.37,2.08-.51,3.1-.42s1.92,.42,2.7,.97c.79,.55,1.41,1.33,1.87,2.33s.68,2.23,.65,3.67Zm-5.82-1.2c-.43-.28-.86-.3-1.27-.07-.42,.23-.81,.62-1.18,1.15-.37,.54-.69,1.18-.97,1.92s-.51,1.5-.69,2.29c-.18,.78-.32,1.53-.42,2.24s-.11,1.28-.05,1.71c1.42-.28,2.54-.86,3.37-1.76s1.41-1.85,1.73-2.87c.32-1.02,.43-1.97,.32-2.87-.11-.89-.39-1.48-.86-1.76Z"/>
  <path class="cls-1" d="M357.02,.76c1.23,.31,2.08,1.06,2.54,2.24,.46,1.19,.63,2.65,.51,4.39s-.51,3.67-1.16,5.8-1.49,4.31-2.52,6.54c-1.03,2.23-2.21,4.44-3.54,6.61-1.32,2.17-2.71,4.17-4.16,5.98,.25,1.14,.63,1.96,1.16,2.47,.52,.51,1.13,.79,1.83,.83,.69,.05,1.42-.1,2.19-.44s1.54-.82,2.31-1.43c.99-.8,1.9-1.73,2.75-2.79,.85-1.06,1.5-2.12,1.96-3.17,.09-.34,.38-.57,.86-.69,.48-.12,.98-.13,1.5-.02s.99,.34,1.39,.69c.4,.36,.57,.84,.51,1.46-.68,1.66-1.5,3.18-2.47,4.55-.97,1.37-2.04,2.55-3.21,3.54-1.82,1.57-3.67,2.6-5.55,3.1-1.85,.49-3.48,.48-4.9-.05s-2.6-1.4-3.56-2.63c-.96-1.23-1.68-2.75-2.17-4.55-.49-1.8-.74-3.75-.74-5.85,0-1.26,.04-2.59,.11-4,.08-1.4,.21-2.82,.39-4.25,.18-1.43,.42-2.86,.69-4.27,.28-1.42,.63-2.79,1.06-4.11,.52-1.66,1.16-3.2,1.89-4.6,.74-1.4,1.61-2.57,2.61-3.49,1-.92,2.14-1.56,3.42-1.92,1.28-.35,2.7-.33,4.28,.07Zm-3,5.31c-.37-.03-.75,.17-1.16,.6s-.79,1.02-1.18,1.76c-.39,.74-.76,1.61-1.13,2.61-.37,1-.71,2.04-1.02,3.12-.34,1.11-.64,2.23-.9,3.37-.26,1.14-.49,2.2-.69,3.19s-.35,1.87-.46,2.66c-.11,.78-.16,1.38-.16,1.78,.43-.59,.88-1.28,1.36-2.08s.96-1.66,1.43-2.56c.48-.91,.94-1.86,1.39-2.84,.45-.99,.85-1.96,1.22-2.91,.46-1.14,.85-2.23,1.18-3.26,.32-1.03,.55-1.94,.69-2.72,.14-.79,.17-1.43,.09-1.92s-.3-.75-.67-.79Z"/>
  <path class="cls-1" d="M373.05,39.21c.43-2.8,.75-5.27,.95-7.39,.2-2.13,.32-3.98,.35-5.57s0-2.93-.07-4.02c-.08-1.09-.18-2.02-.3-2.79s-.25-1.39-.39-1.87c-.14-.48-.22-.89-.25-1.23-.06-.46-.02-.87,.12-1.23,.14-.35,.34-.65,.6-.9s.56-.44,.9-.58c.34-.14,.68-.21,1.02-.21,.68,0,1.2,.11,1.57,.32s.65,.53,.85,.95c.2,.41,.34,.92,.42,1.52,.08,.6,.15,1.3,.21,2.1,.4-.68,.86-1.36,1.39-2.06,.52-.69,1.11-1.32,1.76-1.87s1.36-1.01,2.15-1.36c.79-.35,1.64-.53,2.57-.53s1.86,.18,2.73,.53,1.64,.85,2.33,1.48c.69,.63,1.28,1.37,1.76,2.22,.48,.85,.84,1.76,1.09,2.75,.68-1.29,1.42-2.53,2.24-3.7,.81-1.17,1.92-2.08,3.3-2.73s2.68-.83,3.88-.55c1.2,.28,2.26,.84,3.17,1.69,.91,.85,1.62,1.91,2.15,3.19s.79,2.61,.79,4c0,1.6-.1,3.28-.3,5.04s-.38,3.39-.53,4.9c-.15,1.51-.21,2.77-.16,3.79,.04,1.02,.32,1.59,.81,1.71,.83,.22,1.63-.03,2.4-.74s1.47-1.59,2.1-2.63,1.19-2.12,1.66-3.21,.86-1.95,1.13-2.57c.22-.52,.56-.85,1.04-.97,.48-.12,.94-.09,1.39,.09,.45,.18,.81,.52,1.11,.99,.29,.48,.39,1.06,.3,1.73-.37,1.51-.88,3.02-1.52,4.53s-1.45,2.87-2.43,4.09c-.97,1.22-2.13,2.2-3.49,2.96-1.36,.75-2.91,1.13-4.67,1.13-1.17,0-2.13-.32-2.89-.95-.76-.63-1.35-1.4-1.78-2.31-.43-.91-.72-1.87-.88-2.89-.15-1.02-.23-1.91-.23-2.68,0-1.11,.07-2.17,.21-3.19,.14-1.02,.3-2.01,.48-2.98,.18-.97,.35-1.91,.48-2.82,.14-.91,.21-1.8,.21-2.66,0-1.17-.13-2.09-.39-2.77s-.64-1.02-1.13-1.02c-.96,0-1.86,.56-2.7,1.69-.85,1.13-1.62,2.57-2.31,4.34-.69,1.77-1.31,3.78-1.85,6.01-.54,2.23-.96,4.46-1.27,6.68-.09,.77-.43,1.32-1.02,1.64-.59,.32-1.21,.45-1.87,.37-.66-.08-1.26-.32-1.8-.74-.54-.41-.81-.98-.81-1.69,.06-.4,.16-1.13,.3-2.2,.14-1.06,.26-2.27,.37-3.63,.11-1.36,.17-2.76,.18-4.23,.01-1.46-.08-2.81-.28-4.04-.2-1.23-.54-2.24-1.02-3.03-.48-.79-1.15-1.18-2.01-1.18-.71,0-1.39,.33-2.03,.99s-1.27,1.55-1.87,2.66c-.6,1.11-1.15,2.39-1.64,3.84-.49,1.45-.93,2.97-1.32,4.57-.39,1.6-.71,3.22-.97,4.85-.26,1.63-.44,3.17-.53,4.62-.09,.77-.46,1.31-1.09,1.62-.63,.31-1.3,.43-2.01,.37s-1.34-.29-1.89-.69-.8-.92-.74-1.57Z"/>
  <path class="cls-1" d="M432.57,18.64c-.06,1.54-.34,3.09-.83,4.64-.49,1.56-1.22,2.96-2.17,4.2-.96,1.25-2.12,2.25-3.49,3.01s-2.93,1.07-4.69,.95c.03,.96,.14,1.88,.32,2.77s.48,1.66,.9,2.29c.41,.63,.98,1.08,1.69,1.34,.71,.26,1.6,.22,2.68-.11,1.08-.31,2.11-.82,3.1-1.52,.99-.71,1.87-1.52,2.66-2.45,.79-.92,1.45-1.9,1.99-2.94,.54-1.03,.93-2.04,1.18-3.03,.12-.52,.42-.85,.88-.97s.95-.11,1.46,.05c.51,.15,.94,.42,1.29,.81,.35,.39,.47,.82,.35,1.32-.68,1.79-1.35,3.37-2.01,4.76-.66,1.39-1.39,2.61-2.2,3.67-.8,1.06-1.7,1.96-2.7,2.7-1,.74-2.18,1.36-3.54,1.85-1.82,.65-3.5,.93-5.04,.85-1.54-.08-2.88-.48-4.02-1.22s-2.04-1.79-2.7-3.14c-.66-1.36-1.04-3-1.13-4.94-.06-.92-.09-2.04-.07-3.35,.02-1.31,.1-2.68,.25-4.11,.15-1.43,.4-2.89,.74-4.37s.8-2.86,1.39-4.14c.59-1.28,1.32-2.4,2.2-3.37,.88-.97,1.95-1.67,3.21-2.1,1.05-.37,2.08-.51,3.1-.42s1.92,.42,2.7,.97c.79,.55,1.41,1.33,1.87,2.33s.68,2.23,.65,3.67Zm-5.82-1.2c-.43-.28-.86-.3-1.27-.07-.42,.23-.81,.62-1.18,1.15-.37,.54-.69,1.18-.97,1.92s-.51,1.5-.69,2.29c-.18,.78-.32,1.53-.42,2.24s-.11,1.28-.05,1.71c1.42-.28,2.54-.86,3.37-1.76s1.41-1.85,1.73-2.87c.32-1.02,.43-1.97,.32-2.87-.11-.89-.39-1.48-.86-1.76Z"/>
  <path class="cls-1" d="M435.71,37.54c-.74,.46-1.42,.67-2.06,.62-.63-.05-1.14-.26-1.53-.65-.38-.39-.61-.92-.67-1.59s.12-1.4,.55-2.17c.8-1.29,1.7-2.76,2.7-4.39,1-1.63,2.02-3.33,3.05-5.08,1.03-1.76,2.06-3.51,3.1-5.27,1.03-1.76,1.99-3.39,2.89-4.9,.31-.55,.77-.97,1.39-1.25s1.22-.39,1.83-.35c.6,.05,1.12,.27,1.57,.67,.45,.4,.67,1,.67,1.8,0,.49-.08,.99-.23,1.5-.15,.51-.15,1.01,0,1.5,.37,1.23,.77,2.72,1.2,4.46s.77,3.58,1.02,5.52c.09,.74,.16,1.54,.21,2.4,.04,.86,.06,1.73,.04,2.59s-.07,1.7-.16,2.52-.22,1.53-.37,2.15c.8-.37,1.51-.83,2.13-1.39s1.2-1.25,1.76-2.08,1.1-1.82,1.64-2.98c.54-1.15,1.12-2.52,1.73-4.09,.31-.8,.75-1.27,1.32-1.41,.57-.14,1.12-.09,1.66,.14,.54,.23,.99,.59,1.34,1.06,.35,.48,.47,.93,.35,1.36-.28,.96-.68,2.04-1.2,3.26s-1.19,2.44-1.99,3.67c-.52,.8-1.09,1.59-1.69,2.36-.6,.77-1.25,1.48-1.94,2.13-.69,.65-1.44,1.22-2.24,1.71s-1.63,.88-2.5,1.16c-1.32,.52-2.67,.8-4.04,.83-1.37,.03-2.7-.14-4-.51-1.51-.43-2.89-1.12-4.14-2.06-1.25-.94-2.27-2.13-3.07-3.58l-.32,.32Zm9.06-14.79c-.43,.71-.85,1.42-1.25,2.13l-1.2,2.13c-.4,.74-.81,1.49-1.23,2.24-.41,.76-.88,1.55-1.41,2.38,.15,.37,.39,.86,.69,1.48s.71,1.23,1.2,1.85c.43,.55,.92,1.06,1.45,1.52s1.12,.77,1.73,.92c.25-.37,.43-.83,.55-1.39s.21-1.18,.25-1.87c.04-.69,.05-1.43,.02-2.22-.03-.78-.08-1.58-.14-2.38-.09-1.32-.22-2.59-.37-3.81-.15-1.22-.26-2.21-.32-2.98Z"/>
</svg>