<?xml version="1.0" encoding="UTF-8"?>
<svg id="Capa_1" data-name="Capa 1" xmlns="http://www.w3.org/2000/svg" viewBox="0 0 207.69 175.28">
  <defs>
    <style>
      .cls-1 {
        fill: #eeecfe;
      }

      .cls-2 {
        fill: #f28393;
      }

      .cls-3 {
        fill: #e55a75;
      }

      .cls-4 {
        fill: #fcc660;
      }

      .cls-5 {
        fill: #743a32;
      }

      .cls-6 {
        fill: #4fb678;
      }

      .cls-7 {
        fill: none;
        stroke: #743a32;
        stroke-linecap: round;
        stroke-miterlimit: 10;
        stroke-width: 4.18px;
      }
    </style>
  </defs>
  <g>
    <path class="cls-4" d="M.06,84.4v90.5l196.47,.02s-15.91-61.59-26.76-92.73c-.1-.28-.19-.55-.29-.82-22.37-.76-126.31-1.54-169.42-1.14v4.17Z"/>
    <path class="cls-5" d="M102.83,155.46c-.11,0-.22-.01-.32-.01s-.21,.01-.32,.01c-9.5,.22-27.04-7.6-22.17-18.94,3.91-7.22,11.93-2.58,22.49-2.15,10.56-.43,18.58-5.07,22.49,2.15,4.87,11.34-12.67,19.16-22.17,18.94Z"/>
    <g>
      <ellipse class="cls-2" cx="53.84" cy="136.61" rx="18.53" ry="18.33"/>
      <ellipse class="cls-2" cx="157.35" cy="136.9" rx="18.53" ry="18.33"/>
    </g>
    <path class="cls-5" d="M.06,84.4c55.68,6.83,112.28,5.92,169.71-2.21l.24-.03s-6.65-23.99-55.14-33.19c-10.6-2.01-23.21-3.31-38.19-3.5-5.92-.08-11.45,.03-16.64,.29t-.01,0C29.5,47.29,11.11,54.19,.06,61.57v22.83Z"/>
    <path class="cls-1" d="M120.84,64.95c-14.96,11.1-61.57,10.28-69.5-2.81-2.95-4.33,1.54-11.94,6.52-14.88,3.56-2.1,5.68-4.82,7.07-8.61,3.09-8.45,7.63-11.73,15.57-11.77,4.19,.11,8.46-.51,12.54,.86,5.24,1.76,8.74,5.38,10.72,10.52,1.57,4.08,4.01,7.06,8.22,9.01,7.4,3.43,9.24,10.11,8.86,17.68Z"/>
    <g>
      <ellipse class="cls-5" cx="144.33" cy="120.51" rx="9.74" ry="11.31"/>
      <ellipse class="cls-5" cx="63.84" cy="120.51" rx="9.74" ry="11.31"/>
    </g>
  </g>
  <g>
    <path class="cls-6" d="M87.15,31.86c.96,3.72,1.91,7.43,2.86,11.15,.07,.25,.1,.52,.14,.78,1.55,.05,3.09,0,4.63-.26,2.57-1.28,5.02-2.69,6.74-5.1,2.83-3.95,3.35-8.29,2.06-12.86-.81-2.88-3.99-4.32-6.9-3.29-4.71,1.67-7.92,4.84-9.53,9.59Z"/>
    <ellipse class="cls-3" cx="88.08" cy="46.67" rx="16.51" ry="15.84"/>
    <path class="cls-7" d="M85.41,37.28c-3.88-9.67-10.51-16.58-23.91-16.76"/>
  </g>
  <path class="cls-1" d="M69.11,58.89c-.34,4.67,29.07,8.19,28.13,3.61-.99-4.83-5.85-9.49-13.23-10.41-11.22-1.41-14.56,2.14-14.9,6.8Z"/>
</svg>