<?xml version="1.0" encoding="UTF-8"?>
<svg id="Capa_1" data-name="Capa 1" xmlns="http://www.w3.org/2000/svg" viewBox="0 0 207.69 175.28">
  <defs>
    <style>
      .cls-1 {
        fill: #eeecfe;
      }

      .cls-2 {
        fill: #f28393;
      }

      .cls-3 {
        fill: #fcc660;
      }

      .cls-4 {
        fill: #743a32;
      }

      .cls-5 {
        fill: #4fb678;
      }
    </style>
  </defs>
  <path class="cls-5" d="M44.85,146.97c-3.74,9.47-23.51,28.38-23.94,28.21-6.34-4.21-12.33-8.75-16.07-15.66-6.15-11.34-6.09-22.94-1.19-34.56,3.09-7.31,11.93-10.06,19.25-6.39,11.85,5.94,19.26,15.35,21.95,28.39Z"/>
  <path class="cls-3" d="M207.58,85.32c-40.96-.38-139.71,.36-160.97,1.08-.1,.26-.18,.51-.28,.78-10.31,29.59-25.43,88.1-25.43,88.1l186.67-.02V89.28s0-3.96,0-3.96Z"/>
  <path class="cls-4" d="M117.37,125.66c-.1,0-.21,0-.3,0s-.2,0-.3,0c-9.03-.17-25.69,5.95-21.06,14.83,3.71,5.65,11.33,2.02,21.37,1.68,10.03,.34,17.65,3.97,21.37-1.68,4.63-8.88-12.04-15-21.06-14.83Z"/>
  <g>
    <ellipse class="cls-2" cx="166.87" cy="135.77" rx="17.6" ry="17.42"/>
    <ellipse class="cls-2" cx="68.53" cy="136.04" rx="17.6" ry="17.42"/>
  </g>
  <path class="cls-4" d="M207.58,85.32v-17.73c-10.5-7.01-27.97-13.57-56.98-15.02t0,0c-4.93-.25-10.19-.35-15.81-.28-14.23,.18-26.21,1.42-36.28,3.33-46.07,8.74-52.39,31.53-52.39,31.53l.23,.03c54.56,7.72,108.34,8.59,161.24,2.1v-3.96Z"/>
  <path class="cls-1" d="M92.82,70.8c14.22,10.55,58.5,9.77,66.04-2.67,2.8-4.12-1.46-11.35-6.2-14.13-3.38-1.99-5.4-4.58-6.72-8.18-2.94-8.03-7.25-11.15-14.79-11.19-3.98,.1-8.04-.48-11.92,.81-4.98,1.67-8.31,5.12-10.18,9.99-1.49,3.87-3.81,6.71-7.81,8.56-7.03,3.26-8.78,9.61-8.42,16.8Z"/>
  <g>
    <ellipse class="cls-4" cx="79.51" cy="119.09" rx="9.26" ry="10.74"/>
    <ellipse class="cls-4" cx="155.98" cy="119.09" rx="9.26" ry="10.74"/>
  </g>
</svg>