<?xml version="1.0" encoding="utf-8"?>
<!-- Generator: Adobe Illustrator 26.5.0, SVG Export Plug-In . SVG Version: 6.00 Build 0)  -->
<svg version="1.1" id="Capa_1" xmlns="http://www.w3.org/2000/svg" xmlns:xlink="http://www.w3.org/1999/xlink" x="0px" y="0px"
	 viewBox="0 0 225.7 153.1" style="enable-background:new 0 0 225.7 153.1;" xml:space="preserve">
<style type="text/css">
	.st0{fill:#4FB678;}
	.st1{fill:#FCC660;}
	.st2{fill:#743A32;}
	.st3{fill:#F28393;}
	.st4{fill:#EEECFE;}
</style>
<g>
	<path class="st0" d="M48.7,122.3c-4.1,10.3-25.6,30.9-26,30.7c-6.9-4.6-13.4-9.5-17.5-17c-6.7-12.3-6.6-25-1.3-37.6
		c3.4-7.9,13-10.9,20.9-6.9C37.7,97.8,45.8,108.1,48.7,122.3L48.7,122.3z"/>
	<path class="st1" d="M225.7,55.2c-44.6-0.4-152,0.4-175.1,1.2c-0.1,0.3-0.2,0.6-0.3,0.8c-11.2,32.2-27.7,95.8-27.7,95.8l203.1,0
		V59.5L225.7,55.2L225.7,55.2z"/>
	<path class="st2" d="M127.6,99.1c-0.1,0-0.2,0-0.3,0s-0.2,0-0.3,0c-9.8-0.2-28,6.5-22.9,16.1c4,6.1,12.3,2.2,23.2,1.8
		c10.9,0.4,19.2,4.3,23.2-1.8C155.5,105.6,137.4,98.9,127.6,99.1L127.6,99.1z"/>
	<g>
		<ellipse class="st3" cx="181.4" cy="110.1" rx="19.1" ry="18.9"/>
		<ellipse class="st3" cx="74.4" cy="110.4" rx="19.2" ry="18.9"/>
	</g>
	<path class="st2" d="M225.7,55.2V35.9c-11.4-7.6-30.4-14.8-62-16.3c-21-1.1-21-1.1,0,0c-5.4-0.3-11.1-0.4-17.2-0.3
		C131,19.5,118,20.8,107,22.9c-50.1,9.5-57,34.3-57,34.3l0.2,0c59.4,8.4,117.9,9.3,175.4,2.3L225.7,55.2L225.7,55.2z"/>
	<path class="st4" d="M100.9,39.4c15.5,11.5,63.6,10.6,71.8-2.9c3-4.5-1.6-12.3-6.7-15.4c-3.7-2.2-5.9-5-7.3-8.9
		c-3.2-8.7-7.9-12.1-16.1-12.2c-4.3,0.1-8.7-0.5-13,0.9c-5.4,1.8-9,5.6-11.1,10.9c-1.6,4.2-4.2,7.3-8.5,9.3
		C102.4,24.7,100.5,31.6,100.9,39.4L100.9,39.4z"/>
	<g>
		<ellipse class="st2" cx="86.4" cy="91.9" rx="10.1" ry="11.7"/>
		<ellipse class="st2" cx="169.6" cy="91.9" rx="10.1" ry="11.7"/>
	</g>
</g>
</svg>
