<?xml version="1.0" encoding="UTF-8"?>
<svg id="Capa_1" data-name="Capa 1" xmlns="http://www.w3.org/2000/svg" viewBox="0 0 788.59 203.63">
  <defs>
    <style>
      .cls-1 {
        fill: #eeecfe;
      }

      .cls-2 {
        fill: #f28393;
      }

      .cls-3 {
        fill: #f6933a;
      }

      .cls-4 {
        fill: #e6e6e6;
      }

      .cls-5 {
        fill: #fcc660;
      }

      .cls-6, .cls-7 {
        fill: #999;
      }

      .cls-8 {
        fill: #743a32;
      }

      .cls-9, .cls-10 {
        fill: #e27b27;
      }

      .cls-11 {
        fill: #63a1fc;
      }

      .cls-12 {
        fill: #511914;
      }

      .cls-13 {
        fill: #4fb678;
      }

      .cls-10 {
        stroke: #e27b27;
        stroke-width: 1.19px;
      }

      .cls-10, .cls-14, .cls-15, .cls-16, .cls-7, .cls-17 {
        stroke-miterlimit: 10;
      }

      .cls-14 {
        fill: #ffaf6e;
        stroke: #ffaf6e;
        stroke-width: 1.59px;
      }

      .cls-15 {
        fill: gray;
        stroke: gray;
      }

      .cls-15, .cls-16 {
        stroke-width: 7.01px;
      }

      .cls-16 {
        fill: #ccc;
        stroke: #ccc;
      }

      .cls-7 {
        stroke: #999;
        stroke-width: 2.3px;
      }

      .cls-17 {
        fill: #fff;
        stroke: #fff;
        stroke-width: 3px;
      }
    </style>
  </defs>
  <rect class="cls-8" x="-.15" y="150.59" width="789.27" height="52.89" rx="26.45" ry="26.45"/>
  <g>
    <path class="cls-12" d="M288.49,155.84c-.37,21.85,53.66,41.41,107.1,41.41,43.14,0,103.64-12.33,104.08-37.85,.46-27.15-60.32-40.57-113.75-41.48-53.43-.91-97.05,16.07-97.42,37.92Z"/>
    <g>
      <path class="cls-13" d="M305.6,125.24c-2.33,9.3-4.66,18.6-6.98,27.9-.16,.64-.23,1.3-.34,1.95-3.87,.15-7.73,.04-11.56-.58-6.43-3.15-12.58-6.65-16.92-12.64-7.13-9.84-8.5-20.67-5.35-32.11,1.99-7.2,9.9-10.85,17.19-8.32,11.79,4.1,19.86,11.97,23.97,23.81Z"/>
      <path class="cls-13" d="M482.98,125.24c2.33,9.3,4.66,18.6,6.98,27.9,.16,.64,.23,1.3,.34,1.95,3.87,.15,7.73,.04,11.56-.58,6.43-3.15,12.58-6.65,16.92-12.64,7.13-9.84,8.5-20.67,5.35-32.11-1.99-7.2-9.9-10.85-17.19-8.32-11.79,4.1-19.86,11.97-23.97,23.81Z"/>
      <path class="cls-5" d="M501.4,154.97c-26.49,31.98-187.36,29.17-214.2-.02,6.51-28.57,14.69-56.81,24.54-84.42,20.49-.85,142.21-.03,165.47,.75,9.71,27.61,17.79,55.27,24.19,83.68Z"/>
      <g>
        <ellipse class="cls-2" cx="339.21" cy="129.37" rx="21.3" ry="16.4"/>
        <ellipse class="cls-2" cx="449.4" cy="129.37" rx="21.3" ry="16.4"/>
      </g>
      <path class="cls-8" d="M310.98,72c54.61,8.22,110.2,8.01,166.7,0,0,0-8.83-31.88-83.49-32.83-77.95-.99-83.21,32.83-83.21,32.83Z"/>
      <path class="cls-1" d="M425.63,55.21c-13.39,9.93-55.08,9.2-62.17-2.51-2.64-3.88,1.38-10.68,5.84-13.31,3.18-1.87,5.08-4.31,6.32-7.71,2.76-7.56,6.82-10.49,13.92-10.53,3.75,.1,7.57-.46,11.22,.77,4.69,1.57,7.82,4.82,9.59,9.41,1.4,3.65,3.59,6.32,7.36,8.06,6.62,3.07,8.27,9.04,7.93,15.82Z"/>
      <path class="cls-8" d="M393.27,128.06c-.11,0-.22,0-.31,0s-.21,0-.31,0c-9.3-.18-26.46,6.13-21.69,15.27,3.83,5.82,11.67,2.08,22.01,1.73,10.33,.35,18.18,4.09,22.01-1.73,4.77-9.14-12.4-15.45-21.69-15.27Z"/>
      <g>
        <path class="cls-8" d="M448.79,118.15c-4.3,3.89-9.31,5.63-15.1,5.02-3.58-.72-6.74-2.24-9.3-4.91-2.55-2.67-2.82-5.41-.72-7.72,2.05-2.25,4.93-2.23,7.73,.06,3.53,2.89,6.41,3.02,9.59,.44,3.2-2.6,5.39-2.86,7.71-.91,2.39,2.01,2.42,4.19,.11,8.02Z"/>
        <path class="cls-8" d="M352.89,123.13c-5.48,.78-10.17-1.03-14.4-4.35-.82-1.27-2.07-2.26-2.2-3.97-.18-2.33,.56-4.13,2.6-5.3,2.08-1.19,4.11-.84,5.82,.67,2.07,1.83,4.19,3.27,7.12,2.43,1.61-.29,2.69-1.42,3.9-2.39,2.41-1.94,5.21-1.8,7.17,.23,1.99,2.05,2.01,4.81-.04,7.17-2.64,3.06-6.09,4.69-9.98,5.51Z"/>
      </g>
      <rect class="cls-11" x="441.44" y="116.31" width="13.68" height="13.19" rx="6.6" ry="6.6"/>
      <rect class="cls-11" x="454.2" y="130.52" width="13.68" height="13.19" rx="6.6" ry="6.6"/>
      <rect class="cls-11" x="451.21" y="149.69" width="13.68" height="13.19" rx="6.6" ry="6.6"/>
      <rect class="cls-11" x="329.05" y="115.43" width="13.68" height="13.19" rx="6.6" ry="6.6"/>
      <rect class="cls-11" x="315.28" y="130.48" width="13.68" height="13.19" rx="6.6" ry="6.6"/>
      <rect class="cls-11" x="320.22" y="149.06" width="13.68" height="13.19" rx="6.6" ry="6.6"/>
    </g>
  </g>
  <g>
    <path class="cls-12" d="M58.45,176.88c-.1,6.01,20.43,11.23,45.85,11.66,25.43,.43,54.52-2.95,54.64-9.96,.13-7.46-28.84-11.36-54.27-11.79-25.43-.43-46.12,4.09-46.22,10.09Z"/>
    <path class="cls-16" d="M43.13,94.96c1.08-2.77,3.41-4.56,6.3-5.72,4.59-1.84,9.42-2.04,14.28-1.87,9.67,.32,19.1,2.17,28.46,4.47,11.01,2.7,21.77,6.16,32.28,10.38,12.07,4.85,23.86,10.26,34.34,18.13,3.35,2.52,6.45,5.32,8.57,9.02,1.96,3.42,2.7,6.94,.4,10.53-1.6,2.5-4.05,3.8-6.77,4.68-4.63,1.5-9.42,1.59-14.21,1.36-7.91-.38-15.67-1.77-23.37-3.53-.37-.09-.88-.69-.9-1.07-.29-7.47-.56-14.94-.73-22.41-.06-2.61-1.2-4.65-3.04-6.26-5.87-5.12-12.76-7.48-20.54-7.01-2.86,.17-5.02,1.49-6.88,3.9-4.37,5.68-9.09,11.09-13.71,16.58-.23,.27-.93,.44-1.24,.29-9.13-4.3-18.12-8.85-25.87-15.45-2.81-2.39-5.29-5.08-6.87-8.48-1.09-2.35-1.34-4.78-.48-7.53Z"/>
    <path class="cls-5" d="M46.47,108.84c44.08,9.22,78.38,23,104.07,40.78,.02,0,.03,.03,.02,.05l-4.89,12.49s-.03,.03-.05,.02L41.55,121.4s-.03-.03-.02-.05l4.89-12.49s.03-.03,.05-.02Z"/>
    <path class="cls-15" d="M81.77,128.83c3.64-4.38,7.11-8.55,10.6-12.75,6.84,6.67,14.91,9.48,24.54,8.32,.21,5.38,.43,10.85,.65,16.59-12.3-3.17-24.09-7.18-35.79-12.16Z"/>
    <ellipse class="cls-4" cx="106.15" cy="115.73" rx="5.5" ry="14.85" transform="translate(-37.58 178.99) rotate(-71.23)"/>
    <path class="cls-6" d="M169.3,145.24c-4.17,6.65-9.08,12.51-14.98,17.52-13.31,11.29-28.78,15.79-46.04,14.44-17.45-1.37-33.14-7.43-46.7-18.52-15.24-12.47-22.19-28.97-22.63-48.42-.07-3.02,.03-7.02,.12-10.4,10.21,20.79,108.22,62.9,129.64,45.41,.14-.04,.29-.01,.59-.02Z"/>
    <path class="cls-5" d="M150.17,149.29c9.83,.28,8.55-5.23,15.68-6.34,10.09-1.87,4.56,26.39,18.37,37.98,14.26,23.54-22.07,28.58-21.88,3.53,3.09-30.52,2.53-35.6-12.17-35.18Z"/>
  </g>
  <g>
    <path class="cls-12" d="M605.85,167.98c-.06,3.62,5.33,6.65,12.04,6.77,6.71,.11,14.41-2.09,14.48-6.32,.08-4.5-7.55-6.68-14.26-6.8-6.71-.11-12.2,2.73-12.26,6.35Z"/>
    <path class="cls-12" d="M575.06,167.49c-.06,3.62,5.33,6.65,12.04,6.77,6.71,.11,14.41-2.09,14.48-6.32,.08-4.5-7.55-6.68-14.26-6.8-6.71-.11-12.2,2.73-12.26,6.35Z"/>
    <path class="cls-12" d="M557.01,170.4c-.06,3.62,5.33,6.65,12.04,6.77,6.71,.11,14.41-2.09,14.48-6.32,.08-4.5-7.55-6.68-14.26-6.8-6.71-.11-12.2,2.73-12.26,6.35Z"/>
    <path class="cls-9" d="M603.84,161.4c-.09,5.14,5.28,9.4,11.99,9.51,6.71,.11,14.43-3.07,14.53-9.07,.11-6.39-7.5-9.43-14.21-9.54s-12.22,3.96-12.31,9.1Z"/>
    <g>
      <path class="cls-14" d="M566.37,168.98c-1.11-.69-2.86-1.65-4.09-2.41,.5-.52,.96-1.01,1.5-1.57-.6-.26-1.07-.47-1.6-.7,1.05-1.44,2.09-2.87,3.16-4.34-.96-.63-1.89-1.24-2.86-1.87,1.5-1.52,2.98-3.02,4.53-4.59,.19,.6,.38,1.13,.53,1.68,.09,.34,.27,.45,.62,.47,1.31,.08,2.62,.19,4.01,.3-.37,.88-.71,1.71-1.09,2.61,.61,.32,1.21,.63,1.93,1.01-.94,.13-1.77,.18-2.56,.37-1,.24-2.23,.16-2.94,.9-2.67,2.78,1.09,5.51,2.47,4.95-1,.79-2.49,2.32-3.6,3.2Z"/>
      <path class="cls-9" d="M591.86,150.79c-.39-2.35-1.57-4.25-3.62-5.52-2.48-1.53-5.14-1.58-7.84-.75-3.96,1.22-6.83,3.8-8.86,7.36-.46,.81-.8,1.69-1.21,2.59,1.1,.09,2.08,.17,3.12,.25-.46,1.1-.9,2.14-1.35,3.23,.89,.46,1.72,.9,2.57,1.31,.21,.1,.47,.15,.71,.15,1.68,0,3.36-.1,5.03-.03,1.42,.06,2.76,.5,3.55,1.82,.73,1.23,1.86,1.65,3.18,1.77,.14,.01,.34-.09,.45-.2,.38-.39,.75-.79,1.09-1.22,2.5-3.16,3.87-6.67,3.19-10.76Z"/>
      <path class="cls-17" d="M581.33,160.66c1.08,.04,1.95,.51,2.56,1.6,.74,1.31,1.97,1.86,3.31,1.98,1.31,.12,2.63,.07,3.94,.12,.4,.01,.82,.05,1.21,.15,.6,.16,.8,.7,.47,1.26-.24,.42-.55,.79-.83,1.19-.34,.49-.71,.96-1.02,1.47-.41,.68-.43,1.42-.08,2.14,.24,.5,.52,.97,.8,1.44,.51,.84,1.05,1.66,1.53,2.52,.59,1.05,.6,2.19,.35,3.34-.21,.95-.8,1.57-1.55,2.05-1.11,.7-2.33,.98-3.58,1.19-.69,.11-1.4,.19-2.1,.23-.79,.05-1.47,.35-2.07,.89-.26,.23-.52,.47-.75,.73-1.21,1.35-2.69,2.16-4.41,2.37-2.37,.29-4.76,.4-7.13-.12-.61-.14-1.23-.39-1.78-.71-.84-.5-1.08-1.44-.62-2.36,.22-.44,.55-.83,.85-1.22,.36-.47,.78-.9,1.11-1.4,.58-.89,.55-1.77-.11-2.59-.45-.56-.99-1.05-1.53-1.52-.37-.32-.79-.58-1.2-.84-1.35-.82-1.83-3-.73-4.45,.73-.96,1.62-1.71,2.55-2.43,.44-.34,.89-.66,1.31-1.03,.63-.56,.52-1.3-.24-1.66-.38-.18-.8-.28-1.19-.44-.42-.17-.85-.33-1.24-.57-.62-.38-.72-1.1-.2-1.62,.31-.31,.7-.54,1.1-.7,1.34-.54,9.62-1.06,11.29-1Zm-.58,15.4c.3-.05,.73-.09,1.16-.18,1.67-.36,3.17-1.09,4.33-2.48,1.01-1.21,1.47-2.62,1.05-4.27-.32-1.24-1.07-2.15-2.04-2.85-1.43-1.04-3.03-1.46-4.71-1.45-2.29,.01-4.37,.68-6.02,2.46-2.03,2.2-1.81,5.18,.5,7.08,1.67,1.37,3.59,1.77,5.75,1.69Z"/>
      <path class="cls-10" d="M560.76,166.53c.45-.48,.85-.9,1.27-1.34-.46-.2-.89-.39-1.35-.59,1.13-1.56,2.23-3.06,3.34-4.59-1.03-.67-2.03-1.33-3.06-2.01,1.73-1.77,5.03-5.28,5.12-5.39-1.09,.03-2.12,.18-3.13,.45-2.69,.73-5.14,1.77-7.1,3.8-3.67,3.78-3.46,9.04,.52,12.49,1.77,1.53,3.85,2.43,6.14,2.87,.86,.16,1.74,.23,2.69,.35-.18-1.11,0-2.06,.54-2.94-1.65-1.02-3.26-2.02-4.97-3.09Z"/>
      <ellipse class="cls-17" cx="580.34" cy="170.54" rx="6.2" ry="4.08"/>
      <path class="cls-3" d="M587.33,172.38c-.35-.42-.76-.79-1.18-1.09-1.24-.87-2.58-1.12-4.06-1.08,0,0,0,0-.01,0h0s-.09,0-.14,0c-.21,.03-.54,.07-.86,.14-1.42,.31-2.72,.94-3.73,2.27-1.34,1.76-1.21,4.03,.31,5.64,.27,.28,.56,.54,.87,.74,1.79,1.18,3.66,1.37,5.57,.86,1.4-.38,2.65-1.11,3.55-2.56,.97-1.56,.86-3.5-.3-4.92Z"/>
    </g>
  </g>
  <path class="cls-12" d="M201.63,173.64c-.06,3.62,5.33,6.65,12.04,6.77,6.71,.11,14.41-2.09,14.48-6.32,.08-4.5-7.55-6.68-14.26-6.8-6.71-.11-12.2,2.73-12.26,6.35Z"/>
  <path class="cls-9" d="M199.62,167.06c-.09,5.14,5.28,9.4,11.99,9.51,6.71,.11,14.43-3.07,14.53-9.07,.11-6.39-7.5-9.43-14.21-9.54s-12.22,3.96-12.31,9.1Z"/>
  <g>
    <path class="cls-12" d="M706.99,185.95c-10.29,2.59-30.68,7.25-30.75,6.98-3.49-7.52-5.56-30.9,7.72-29.29,5.59-1.42,8.7-2.18,13.76-3.07,.85,3.2,8.46,22.31,9.26,25.38Z"/>
    <path class="cls-2" d="M705.49,184.15c-9.91,2.44-19.87,4.9-29.9,7.37-.04-.14-.13-.39-.2-.64-1.03-3.8-2.06-7.6-3.08-11.4-2.03-7.55,1.98-14.39,9.56-16.27,5.38-1.34,10.77-2.66,16.15-3.99,.24-.06,.48-.1,.64-.14,.83,3.07,6.03,22.13,6.82,25.07Z"/>
    <path class="cls-7" d="M691.47,176.3c-.24-.93-.45-1.76-.73-2.86,.3,0,.63,.05,.93-.03,21.72-5.61,43.43-11.22,65.15-16.84,.22-.06,.44-.13,.67-.16,.83-.13,1.47,.27,1.64,1.02,.17,.72-.18,1.34-.93,1.62-.24,.09-.5,.14-.75,.21-16.77,4.34-33.53,8.67-50.3,13.01-4.92,1.27-9.84,2.55-14.76,3.82-.3,.08-.61,.14-.93,.22Z"/>
  </g>
</svg>