<?xml version="1.0" encoding="utf-8"?>
<!-- Generator: Adobe Illustrator 26.5.0, SVG Export Plug-In . SVG Version: 6.00 Build 0)  -->
<svg version="1.1" id="layer" xmlns="http://www.w3.org/2000/svg" xmlns:xlink="http://www.w3.org/1999/xlink" x="0px" y="0px"
	 viewBox="0 0 599.9 151.6" style="enable-background:new 0 0 599.9 151.6;" xml:space="preserve">
<style type="text/css">
	.st0{fill:#FFFFFF;}
</style>
<g>
	<path class="st0" d="M109.4,0.1C49,0.1,0,32.2,0,71.7c0,1,0,3.8,0,4.2c0,41.8,42.8,75.7,109.4,75.7s109.4-33.9,109.4-75.7v-4.2
		C218.8,32.2,169.8,0.1,109.4,0.1L109.4,0.1z M213.8,63.7c-23.8,5.3-41.5,13-46,14.9c-10.4-9.1-34.4-29.9-40.9-34.8
		c-3.7-2.8-6.2-4.3-8.5-4.9c-1-0.3-2.4-0.6-4.2-0.6c-1.7,0-3.4,0.3-5.3,0.9c-4.2,1.3-8.4,4.7-12.4,7.9v0.1c-3.8,3-7.7,6.1-10.6,6.8
		c-1.3,0.3-2.6,0.4-3.9,0.4c-3.3,0-6.3-1-7.4-2.4c-0.2-0.2-0.1-0.6,0.4-1.2l0.1-0.1l9.1-9.8c7.2-7.2,13.9-13.9,29.5-14.3
		c0.3,0,0.5,0,0.8,0c9.7,0,19.4,4.3,20.4,4.8c9.1,4.4,18.4,6.7,27.9,6.7c9.8,0,19.9-2.4,30.5-7.3C204.2,40.2,211.6,51.5,213.8,63.7
		L213.8,63.7z M109.4,4.3c32.1,0,60.8,9.2,80.1,23.7c-9.3,4-18.2,6.1-26.8,6.1c-8.8,0-17.6-2.1-26.1-6.3c-0.4-0.2-11.1-5.3-22.3-5.3
		c-0.3,0-0.6,0-0.9,0c-13.1,0.3-20.4,4.9-25.4,9c-4.8,0.1-9,1.3-12.7,2.3c-3.3,0.9-6.1,1.7-8.9,1.7c-1.1,0-3.2-0.1-3.4-0.1
		c-3.2-0.1-19.2-4-32-8.8C50.4,12.9,78.3,4.3,109.4,4.3L109.4,4.3z M27.4,29.4c13.3,5.5,29.5,9.7,34.7,10c1.4,0.1,2.9,0.3,4.5,0.3
		c3.4,0,6.8-1,10.1-1.9c1.9-0.5,4.1-1.1,6.3-1.6c-0.6,0.6-1.2,1.2-1.8,1.8l-9.3,10c-0.7,0.7-2.3,2.7-1.3,5.1c0.4,1,1.3,1.9,2.4,2.7
		c2.2,1.5,6.2,2.5,9.8,2.5c1.4,0,2.7-0.1,3.9-0.4c3.9-0.9,8-4.1,12.3-7.6c3.4-2.7,8.3-6.2,12.1-7.2c1.1-0.3,2.3-0.5,3.4-0.5
		c0.3,0,0.6,0,0.9,0.1c2.5,0.3,4.9,1.2,9.1,4.4c7.6,5.7,41.3,35.2,41.6,35.5c0,0,2.2,1.9,2,5c-0.1,1.7-1,3.2-2.7,4.3
		c-1.4,0.9-2.9,1.4-4.4,1.4c-2.3,0-3.8-1.1-3.9-1.1c-0.1-0.1-11.7-10.7-15.9-14.3c-0.7-0.6-1.3-1.1-2-1.1c-0.4,0-0.7,0.2-0.9,0.4
		c-0.7,0.8,0.1,2,1,2.7l13.5,13.6c0,0,1.7,1.6,1.9,3.7c0.1,2.2-1,4.1-3.2,5.6c-1.6,1.1-3.2,1.6-4.8,1.6c-2.1,0-3.5-0.9-3.8-1.2
		l-1.9-1.9c-3.5-3.5-7.2-7.1-9.9-9.3c-0.7-0.5-1.3-1-2-1c-0.3,0-0.6,0.1-0.9,0.4c-0.3,0.3-0.5,0.9,0.2,2c0.3,0.4,0.7,0.8,0.7,0.8
		l9.8,11.1c0.1,0.1,2,2.4,0.2,4.7l-0.4,0.4c-0.3,0.3-0.6,0.6-0.9,0.9c-1.7,1.4-3.9,1.5-4.8,1.5c-0.5,0-0.9,0-1.3-0.1
		c-1-0.2-1.6-0.4-1.9-0.8l-0.1-0.1c-0.5-0.6-5.5-5.6-9.6-9c-0.5-0.5-1.2-1-1.9-1c-0.3,0-0.6,0.1-0.9,0.4c-0.8,0.9,0.4,2.2,0.9,2.7
		l8.4,9.3c0,0.1-0.1,0.3-0.3,0.6c-0.3,0.4-1.3,1.4-4.4,1.8c-0.4,0-0.7,0.1-1.1,0.1c-3.1,0-6.5-1.5-8.2-2.4c0.8-1.7,1.2-3.5,1.2-5.3
		c0-6.9-5.6-12.5-12.5-12.5c-0.1,0-0.3,0-0.4,0c0.2-3.2-0.2-9.1-6.4-11.8c-1.8-0.8-3.5-1.2-5.2-1.2c-1.3,0-2.6,0.2-3.8,0.7
		c-1.3-2.5-3.4-4.3-6.1-5.2c-1.5-0.5-3-0.8-4.5-0.8c-2.6,0-4.9,0.8-7,2.2c-2-2.5-5-4-8.2-4c-2.8,0-5.5,1.1-7.5,3.1
		c-2.6-2-13-8.6-40.7-14.9c-1.3-0.3-4.3-1.2-6.2-1.7C7.7,50.2,15.6,38.8,27.4,29.4L27.4,29.4z M78.8,101.7l-0.3-0.3h-0.3
		c-0.2,0-0.5,0.1-0.8,0.3c-1.4,1-2.8,1.5-4.1,1.5c-0.8,0-1.5-0.2-2.3-0.4c-6.4-2.5-5.9-8.6-5.6-10.4c0-0.4,0-0.7-0.3-0.9l-0.5-0.4
		l-0.4,0.4c-1.3,1.2-2.9,1.9-4.6,1.9c-3.7,0-6.7-3-6.7-6.7s3-6.7,6.7-6.7c3.3,0,6.2,2.5,6.6,5.8l0.2,1.8l1-1.5
		c0.1-0.2,2.8-4.3,7.8-4.3c0.9,0,1.9,0.2,2.9,0.5c4,1.2,4.6,4.8,4.7,6.3c0.1,0.9,0.7,0.9,0.8,0.9c0.3,0,0.6-0.2,0.8-0.4
		c0.7-0.8,2.4-2.1,4.9-2.1c1.2,0,2.4,0.3,3.7,0.8c6.3,2.7,3.4,10.7,3.4,10.8c-0.5,1.3-0.6,1.9-0.1,2.2l0.2,0.1h0.2
		c0.3,0,0.6-0.1,1.2-0.3c0.9-0.3,2.1-0.7,3.4-0.7l0,0c4.7,0.1,8.6,3.9,8.6,8.6s-3.9,8.6-8.6,8.6c-4.6,0-8.4-3.6-8.6-8.2
		c0-0.4-0.1-1.4-0.9-1.4c-0.4,0-0.7,0.2-1,0.5c-1,0.9-2.3,1.9-4.2,1.9c-0.9,0-1.8-0.2-2.8-0.6c-4.9-2-5-5.3-4.8-6.7
		C79,102.3,79.1,102,78.8,101.7L78.8,101.7z M109.4,138.9c-58.1,0-105.2-30.1-105.2-67.3c0-1.5,0.1-3,0.3-4.5c0.5,0.1,5.1,1.2,6,1.4
		c28.3,6.3,37.7,12.8,39.3,14.1c-0.5,1.3-0.8,2.7-0.8,4.1c0,5.9,4.8,10.6,10.6,10.6c0.7,0,1.3-0.1,2-0.2c0.9,4.3,3.7,7.6,8,9.3
		c1.3,0.5,2.5,0.7,3.8,0.7c0.8,0,1.6-0.1,2.4-0.3c0.8,2,2.6,4.5,6.6,6.2c1.4,0.6,2.8,0.9,4.2,0.9c1.1,0,2.2-0.2,3.2-0.6
		c1.9,4.7,6.5,7.8,11.6,7.8c3.4,0,6.6-1.4,9-3.8c2,1.1,6.3,3.2,10.6,3.2c0.6,0,1.1,0,1.6-0.1c4.3-0.5,6.3-2.2,7.2-3.5
		c0.2-0.2,0.3-0.5,0.4-0.7c1,0.3,2.1,0.5,3.4,0.5c2.3,0,4.6-0.8,6.9-2.4c2.2-1.6,3.8-3.9,4-5.9v-0.1c0.8,0.2,1.5,0.2,2.3,0.2
		c2.4,0,4.8-0.7,7-2.2c4.4-2.9,5.1-6.6,5.1-9c0.8,0.2,1.5,0.2,2.3,0.2c2.3,0,4.5-0.7,6.6-2c2.7-1.7,4.3-4.4,4.6-7.5
		c0.2-2.1-0.4-4.2-1.5-6c7.3-3.1,24-9.2,43.6-13.7c0.1,1.1,0.1,2.2,0.1,3.4C214.6,108.8,167.5,138.9,109.4,138.9L109.4,138.9z"/>
	<path class="st0" d="M593.9,22.1c-4-5-10-7.5-18.1-7.5s-14.1,2.5-18.1,7.5s-6,10.9-6,17.6c0,6.8,2,12.8,6,17.7
		c4,4.9,10,7.4,18.1,7.4s14.1-2.5,18.1-7.4s6-10.8,6-17.7C599.9,32.8,597.9,27.1,593.9,22.1z M584.1,50.7c-1.9,2.6-4.7,3.8-8.3,3.8
		s-6.4-1.3-8.3-3.8c-1.9-2.6-2.9-6.2-2.9-10.9s1-8.3,2.9-10.9c1.9-2.5,4.7-3.8,8.3-3.8s6.4,1.3,8.3,3.8c1.9,2.5,2.9,6.2,2.9,10.9
		S586,48.1,584.1,50.7L584.1,50.7z M492.4,17.9c-4-2-8.6-3.1-13.8-3.1c-8,0-13.6,2.1-16.9,6.2c-2.1,2.7-3.2,6.1-3.5,10.2h11.9
		c0.3-1.8,0.9-3.3,1.8-4.3c1.2-1.4,3.3-2.2,6.3-2.2c2.6,0,4.6,0.4,6,1.1s2,2.1,2,4c0,1.6-0.9,2.8-2.7,3.5c-1,0.4-2.6,0.8-4.9,1.1
		l-4.2,0.5c-4.8,0.6-8.4,1.6-10.9,3c-4.5,2.6-6.8,6.8-6.8,12.6c0,4.5,1.4,7.9,4.2,10.4c2.8,2.4,6.4,3.5,10.7,3.7
		c27,1.2,26.7-14.2,26.9-17.4V29.5C498.4,23.9,496.4,20,492.4,17.9L492.4,17.9z M486.1,44.8c-0.1,4.1-1.3,7-3.5,8.5
		c-2.3,1.6-4.8,2.3-7.5,2.3c-1.7,0-3.2-0.5-4.3-1.4c-1.2-0.9-1.8-2.5-1.8-4.6c0-2.4,1-4.1,2.9-5.2c1.2-0.7,3-1.2,5.7-1.7l2.8-0.5
		c1.4-0.3,2.5-0.6,3.3-0.9s1.6-0.7,2.4-1.2V44.8L486.1,44.8z M430.9,25.4c3.1,0,5.3,1,6.8,2.9c1,1.4,1.6,3,1.9,4.8h13.3
		c-0.7-6.7-3.1-11.4-7-14c-4-2.6-9.1-4-15.3-4c-7.3,0-13.1,2.2-17.2,6.7c-4.2,4.5-6.2,10.8-6.2,18.9c0,7.1,1.9,13,5.7,17.5
		c3.8,4.5,9.6,6.7,17.6,6.7s14-2.7,18.1-8.1c2.6-3.3,4-6.9,4.3-10.6h-13.4c-0.3,2.5-1,4.5-2.3,6.1c-1.3,1.5-3.4,2.3-6.5,2.3
		c-4.3,0-7.2-2-8.8-5.9c-0.9-2.1-1.3-4.9-1.3-8.3s0.4-6.5,1.3-8.7C423.5,27.5,426.5,25.4,430.9,25.4L430.9,25.4z M403.5,15
		c-27.3,0-25.7,24.2-25.7,24.2v24.6h12.4v-23c0-3.8,0.5-6.6,1.4-8.4c1.7-3.2,5-4.8,10-4.8c0.4,0,0.9,0,1.5,0.1
		c0.6,0,1.3,0.1,2.1,0.2V15.3c-0.5,0-0.9-0.1-1.1-0.1C403.9,15,403.7,15,403.5,15L403.5,15z M367.9,24.2c-2.1-3.2-4.9-5.5-8.1-7
		c-3.3-1.5-7-2.2-11.1-2.2c-6.9,0-12.5,2.2-16.8,6.5c-4.3,4.4-6.5,10.6-6.5,18.8c0,8.7,2.4,15,7.2,18.9c4.8,3.9,10.3,5.8,16.6,5.8
		c7.6,0,13.5-2.3,17.7-6.9c2.3-2.4,3.7-4.8,4.3-7.1H358c-0.5,0.7-1.1,1.4-1.7,1.9c-1.8,1.4-4.1,1.9-6.9,1.9c-2.6,0-4.7-0.4-6.6-1.6
		c-3.1-1.9-4.8-5.1-5-9.8h34.3c0-4.1-0.1-7.2-0.4-9.4C371.1,30.2,369.8,27,367.9,24.2L367.9,24.2z M338,35.1
		c0.4-3.1,1.5-5.5,3.3-7.3c1.7-1.8,4.2-2.7,7.4-2.7c2.9,0,5.3,0.8,7.3,2.5s3,4.2,3.3,7.4H338L338,35.1L338,35.1z M300.7,14.8
		c-5.8,0-10.7,2.5-14.1,6.6c-3.2-4-8.1-6.6-14.1-6.6c-12.1,0-19.9,8.9-19.9,20.7v28.2h11.3V35.2c0-5.2,3.5-8.8,8.6-8.8
		c7.5,0,8.2,6.2,8.2,8.8v28.5H292V35.2c0-5.2,3.6-8.8,8.6-8.8c7.5,0,8.3,6.2,8.3,8.8v28.5h11.3V35.5
		C320.4,23.4,313.1,14.8,300.7,14.8L300.7,14.8z M535.6,8.8v13.3c-1.4-2.2-3.2-4-5.4-5.2s-4.7-1.9-7.6-1.9c-6.2,0-11.1,2.3-14.8,6.9
		s-5.6,11.3-5.6,19.3c0,7,1.9,12.7,5.6,17.1c3.8,4.4,11.1,6.4,17.7,6.4c22.8,0,22.6-19.6,22.6-19.6v-45
		C548.1,0.1,535.6-1.2,535.6,8.8L535.6,8.8z M533.2,50.8c-1.8,2.6-4.5,3.9-7.9,3.9s-6.1-1.3-7.8-3.9s-2.6-6.4-2.6-10.8
		c0-4,0.8-7.4,2.5-10.1s4.3-4.1,7.9-4.1c2.4,0,4.4,0.7,6.2,2.2c2.9,2.5,4.4,6.9,4.4,12.7C536,44.8,535,48.2,533.2,50.8L533.2,50.8z
		 M278.8,82.7c-10.2-0.5-15.4,2-18.7,4.5c-4.6,3.5-7.5,8.8-7.5,17.2v43.1h6c1.6,0,3.2-0.6,4.4-1.6c1.3-1.2,2-2.7,2-4.5v-16.2
		c1.5,2.5,3.4,4.4,5.8,5.6c2.3,1.1,5,1.6,8,1.6c5.7,0,10.4-2.3,14-6.8c3.6-4.7,5.5-10.8,5.5-18.3c0-7.6-1.7-12.9-5.9-18
		C289.2,85.2,284.1,82.9,278.8,82.7L278.8,82.7z M283.1,118c-1.8,2.5-4.3,3.8-7.5,3.8c-3.4,0-6-1.2-7.8-3.8
		c-1.8-2.3-2.7-5.7-2.7-10.2c0-4.9,0.8-8.5,2.5-10.8c1.8-2.5,4.4-3.8,7.7-3.8c3.3,0,6,1.3,7.8,3.8s2.7,6.1,2.7,10.8
		C285.8,112.1,284.9,115.5,283.1,118z M385.3,87.1c-4.2-3.2-8.5-4.9-15.9-4.7c-7.5,0.2-13,2.3-16.4,6.9s-5.1,10.6-5.1,18
		c0,6.3,1.3,11.5,3.8,15.4c2.6,3.9,5.6,6.6,9.2,8s7.2,1.7,10.8,0.9c3.6-0.8,6.5-2.9,8.7-6.3v3c-0.2,3.8-1.2,6.7-2.8,8.6
		c-1.6,1.9-3.4,3.1-5.4,3.5s-3.9,0.2-5.9-0.7c-2-0.9-3.4-2.2-4.4-3.9h-13.1c3.4,10.2,9.5,14.7,20.4,15.4
		c17.6,1.3,23.3-13.7,23.3-21.7v-25.3C392.7,96,389.9,90.6,385.3,87.1L385.3,87.1z M380.1,112c-0.5,2.8-1.2,4.9-2.3,6.2
		c-2.3,3.1-5.8,4.2-10.5,3.3c-4.8-0.9-7.2-5.5-7.2-13.7c0-3.8,0.7-7.2,2.1-10.2s4.2-4.5,8.2-4.5c3,0,5.3,1.1,6.8,3.2
		c1.6,2.2,2.5,4.6,3,7.4C380.6,106.4,380.6,109.2,380.1,112L380.1,112z M337.3,85.9c-4-2-8.6-3.1-13.8-3.1c-8,0-13.6,2.1-16.9,6.2
		c-2.1,2.7-3.2,6.1-3.5,10.2H315c0.3-1.8,0.9-3.3,1.8-4.3c1.2-1.4,3.3-2.2,6.3-2.2c2.6,0,4.6,0.4,6,1.1s2,2.1,2,4
		c0,1.6-0.9,2.8-2.7,3.5c-1,0.4-2.6,0.8-4.9,1.1l-4.2,0.5c-4.8,0.6-8.5,1.6-10.9,3c-4.5,2.6-6.8,6.8-6.8,12.6
		c0,4.5,1.4,7.9,4.2,10.4c2.8,2.4,6.4,3.5,10.7,3.7c26.9,1.2,26.6-14.2,26.9-17.4V97.5C343.4,91.8,341.4,87.9,337.3,85.9L337.3,85.9
		z M331,112.8c-0.1,4.1-1.3,7-3.5,8.5c-2.3,1.6-4.8,2.3-7.5,2.3c-1.7,0-3.1-0.5-4.3-1.4c-1.2-0.9-1.8-2.5-1.8-4.6
		c0-2.4,1-4.1,2.9-5.2c1.2-0.7,3-1.2,5.7-1.7l2.8-0.5c1.4-0.3,2.5-0.5,3.3-0.9c0.8-0.3,1.6-0.7,2.4-1.2V112.8L331,112.8z
		 M439.5,89.8c-4-5-10-7.5-18.1-7.5s-14.1,2.5-18.1,7.5s-6,10.9-6,17.6s2,12.8,6,17.7c4,4.9,10,7.3,18.1,7.3s14.1-2.5,18.1-7.3
		c4-4.9,6-10.8,6-17.7S443.5,94.8,439.5,89.8z M429.7,118.3c-1.9,2.6-4.7,3.8-8.3,3.8c-3.6,0-6.4-1.3-8.3-3.8
		c-2-2.6-2.9-6.2-2.9-10.9c0-4.7,1-8.3,2.9-10.9c1.9-2.5,4.7-3.8,8.3-3.8c3.6,0,6.4,1.3,8.3,3.8s2.9,6.2,2.9,10.9
		C432.6,112.2,431.6,115.8,429.7,118.3z"/>
</g>
</svg>
