<?xml version="1.0" encoding="UTF-8"?>
<svg id="Capa_1" data-name="Capa 1" xmlns="http://www.w3.org/2000/svg" viewBox="0 0 489.84 60.46">
  <defs>
    <style>
      .cls-1 {
        fill: #fff;
      }
    </style>
  </defs>
  <path class="cls-1" d="M4.81,57.13c-.97,.49-1.85,.54-2.62,.15s-1.35-.97-1.73-1.77-.53-1.64-.43-2.56,.52-1.65,1.25-2.22c1.18-.69,2.35-1.53,3.53-2.53s2.35-2.08,3.53-3.26c-.04-.69,.04-1.3,.24-1.83s.49-.97,.85-1.34,.78-.63,1.25-.79,.96-.2,1.49-.12c2.15-2.52,4.2-5.12,6.15-7.82,1.95-2.7,3.69-5.27,5.24-7.7-.57-1.58-1.06-3.17-1.46-4.75-.49-1.87-.82-3.9-1-6.09s-.02-4.22,.49-6.09,1.45-3.39,2.83-4.57,3.39-1.66,6.03-1.46c1.79,.12,3.15,.66,4.08,1.61s1.54,2.16,1.83,3.62,.31,3.06,.09,4.81-.6,3.49-1.13,5.24-1.14,3.39-1.83,4.93-1.34,2.82-1.95,3.84c.61,1.7,1.25,3.45,1.92,5.24,.67,1.79,1.28,3.6,1.83,5.45s.99,3.72,1.34,5.63,.5,3.84,.46,5.78c.85-.53,1.71-1.15,2.59-1.86s1.69-1.49,2.47-2.34,1.48-1.76,2.13-2.71,1.18-1.92,1.58-2.89,.97-1.54,1.7-1.7,1.42-.08,2.07,.24,1.13,.84,1.43,1.55,.25,1.49-.15,2.34c-1.58,3.77-3.75,6.91-6.51,9.4s-5.88,4.23-9.37,5.2c-1.54,.45-3.3,.69-5.27,.73s-3.97-.13-6-.52-4.02-1-5.97-1.86-3.65-1.97-5.11-3.35c-.53,.49-1.11,1.01-1.73,1.58s-1.29,1.14-1.98,1.7-1.39,1.12-2.1,1.64-1.39,.99-2.04,1.4Zm21.91-24.05c-1.5,2.07-3.05,4.22-4.66,6.45-1.6,2.23-3.26,4.38-4.96,6.45,1.58,1.58,3.44,2.76,5.57,3.53s4.43,.91,6.91,.43c.41-1.7,.53-3.45,.37-5.24s-.45-3.46-.85-5.02-.84-2.93-1.31-4.11-.82-2.01-1.07-2.5Zm2.86-25.02c-.85-.16-1.44,.15-1.77,.94s-.48,1.77-.46,2.92,.15,2.34,.4,3.56,.49,2.15,.73,2.8c.41-.45,.78-1.21,1.13-2.28s.6-2.18,.76-3.32,.19-2.16,.09-3.07-.4-1.43-.88-1.55Z"/>
  <path class="cls-1" d="M66.72,27.06c-.08,2.03-.45,4.07-1.1,6.12s-1.6,3.9-2.86,5.54c-1.26,1.64-2.79,2.96-4.6,3.96-1.81,.99-3.87,1.41-6.18,1.25,.04,1.26,.18,2.48,.43,3.65s.64,2.18,1.19,3.01,1.29,1.42,2.22,1.77,2.11,.29,3.53-.15c1.42-.41,2.78-1.08,4.08-2.01s2.47-2.01,3.5-3.23,1.91-2.51,2.62-3.87,1.23-2.69,1.55-3.99c.16-.69,.55-1.12,1.16-1.28s1.25-.14,1.92,.06,1.24,.56,1.7,1.07,.62,1.09,.46,1.73c-.89,2.35-1.78,4.44-2.65,6.27s-1.84,3.44-2.89,4.84-2.24,2.59-3.56,3.56-2.87,1.79-4.66,2.43c-2.39,.85-4.61,1.23-6.64,1.13s-3.79-.64-5.3-1.61-2.69-2.35-3.56-4.14-1.37-3.96-1.49-6.51c-.08-1.22-.11-2.69-.09-4.41s.13-3.53,.33-5.42,.53-3.8,.97-5.75,1.06-3.76,1.83-5.45,1.73-3.17,2.89-4.44,2.57-2.2,4.23-2.77c1.38-.49,2.74-.67,4.08-.55s2.53,.55,3.56,1.28,1.86,1.76,2.47,3.07,.89,2.93,.85,4.84Zm-7.67-1.58c-.57-.37-1.13-.4-1.67-.09s-1.07,.81-1.55,1.52-.91,1.55-1.28,2.53-.67,1.98-.91,3.01-.43,2.02-.55,2.95-.14,1.68-.06,2.25c1.87-.37,3.35-1.14,4.44-2.31s1.86-2.43,2.28-3.77,.57-2.6,.43-3.77-.52-1.95-1.13-2.31Z"/>
  <path class="cls-1" d="M90.64,32.42c-.08,0-.14-.02-.18-.06-.45,.97-1.02,1.68-1.73,2.13s-1.43,.62-2.16,.52-1.39-.46-1.98-1.07-.98-1.46-1.19-2.56c0-.53,.06-1.19,.18-1.98s.21-1.56,.27-2.31,.03-1.4-.09-1.95-.45-.86-.97-.94c-.93,.53-1.75,1.41-2.43,2.65s-1.26,2.64-1.7,4.2-.76,3.22-.94,4.96-.24,3.42-.18,5.02,.26,3.03,.61,4.29,.84,2.17,1.49,2.74c.81,.77,1.7,1.24,2.68,1.4s1.99,.14,3.04-.06c.89-.16,1.91-.47,3.04-.91s2.28-1.1,3.44-1.95,2.27-1.95,3.35-3.29,2.02-3.02,2.83-5.05c.28-.61,.78-.97,1.49-1.1s1.41-.05,2.1,.21,1.24,.7,1.64,1.31,.45,1.36,.12,2.25c-.81,1.91-1.82,3.61-3.01,5.11s-2.49,2.82-3.87,3.96-2.82,2.11-4.32,2.92-2.96,1.48-4.38,2.01c-1.1,.41-2.25,.72-3.47,.94-1.22,.22-2.45,.27-3.68,.15s-2.42-.44-3.56-.94-2.15-1.31-3.04-2.4c-1.06-1.26-1.88-2.82-2.47-4.69-.59-1.87-.96-3.86-1.13-5.97s-.11-4.28,.15-6.51,.71-4.35,1.34-6.36,1.44-3.84,2.43-5.48,2.14-2.93,3.44-3.87c2.11-1.42,4.17-2.08,6.18-1.98s3.6,1,4.78,2.71c.93,.12,1.68,.59,2.25,1.4s.73,1.75,.49,2.8l-.85,7.73Z"/>
  <path class="cls-1" d="M117.55,32.42c-.08,0-.14-.02-.18-.06-.45,.97-1.02,1.68-1.73,2.13s-1.43,.62-2.16,.52-1.39-.46-1.98-1.07-.98-1.46-1.19-2.56c0-.53,.06-1.19,.18-1.98s.21-1.56,.27-2.31,.03-1.4-.09-1.95-.45-.86-.97-.94c-.93,.53-1.75,1.41-2.43,2.65s-1.26,2.64-1.7,4.2-.76,3.22-.94,4.96-.24,3.42-.18,5.02,.26,3.03,.61,4.29,.84,2.17,1.49,2.74c.81,.77,1.7,1.24,2.68,1.4s1.99,.14,3.04-.06c.89-.16,1.91-.47,3.04-.91s2.28-1.1,3.44-1.95,2.27-1.95,3.35-3.29,2.02-3.02,2.83-5.05c.28-.61,.78-.97,1.49-1.1s1.41-.05,2.1,.21,1.24,.7,1.64,1.31,.45,1.36,.12,2.25c-.81,1.91-1.82,3.61-3.01,5.11s-2.49,2.82-3.87,3.96-2.82,2.11-4.32,2.92-2.96,1.48-4.38,2.01c-1.1,.41-2.25,.72-3.47,.94-1.22,.22-2.45,.27-3.68,.15s-2.42-.44-3.56-.94-2.15-1.31-3.04-2.4c-1.06-1.26-1.88-2.82-2.47-4.69s-.96-3.86-1.13-5.97c-.16-2.11-.11-4.28,.15-6.51s.71-4.35,1.34-6.36,1.44-3.84,2.43-5.48,2.14-2.93,3.44-3.87c2.11-1.42,4.17-2.08,6.18-1.98s3.6,1,4.78,2.71c.93,.12,1.68,.59,2.25,1.4s.73,1.75,.49,2.8l-.85,7.73Z"/>
  <path class="cls-1" d="M127.41,23.1c.81-.81,1.64-1.27,2.5-1.37s1.6,.04,2.25,.43,1.13,.95,1.43,1.7,.33,1.57,.09,2.47c-.41,.85-.79,1.97-1.16,3.35s-.69,2.84-.97,4.38-.51,3.12-.67,4.75-.23,3.1-.21,4.44,.15,2.5,.4,3.47,.63,1.58,1.16,1.83,1.09,.29,1.67,.15,1.22-.58,1.89-1.31,1.39-1.83,2.16-3.29,1.58-3.43,2.43-5.9c.32-.61,.78-.98,1.37-1.13s1.16-.11,1.7,.09,.97,.56,1.28,1.07,.36,1.11,.15,1.8c-.37,1.42-.96,3.12-1.8,5.11s-1.88,3.86-3.13,5.6c-1.26,1.75-2.7,3.13-4.32,4.17s-3.39,1.29-5.3,.76c-1.7-.49-3.04-1.47-4.02-2.95s-1.66-3.24-2.07-5.27-.57-4.23-.49-6.6,.29-4.68,.64-6.91,.79-4.31,1.34-6.24,1.11-3.46,1.67-4.6Zm1.77-5.54c-.81-1.1-1.13-2.15-.94-3.17s.63-1.8,1.34-2.34,1.56-.78,2.56-.7,1.92,.69,2.77,1.83c.57,.93,.72,1.86,.46,2.77s-.73,1.64-1.4,2.19-1.46,.82-2.37,.82-1.71-.47-2.4-1.4Z"/>
  <path class="cls-1" d="M158.76,19.51c1.87-.61,3.5-.73,4.9-.37s2.57,1.08,3.5,2.13,1.67,2.36,2.22,3.93,.92,3.22,1.13,4.96c.08,.81,.13,1.7,.15,2.68s0,1.95-.06,2.92-.14,1.91-.24,2.8-.23,1.7-.4,2.43c.97-.04,1.85-.17,2.62-.4s1.48-.49,2.13-.79,1.27-.64,1.86-1,1.19-.71,1.8-1.03c.77-.41,1.41-.46,1.92-.15s.85,.76,1.03,1.37,.22,1.27,.12,1.98-.38,1.27-.82,1.67c-1.95,1.79-4.08,3.07-6.39,3.87s-4.67,1.19-7.06,1.19c-1.58,2.8-3.61,4.92-6.09,6.36s-5.17,2.18-8.1,2.22c-2.72,.04-5.01-.51-6.88-1.64s-3.35-2.62-4.44-4.44c-1.1-1.83-1.82-3.91-2.16-6.24s-.34-4.69,0-7.06,1.03-4.69,2.07-6.94c1.03-2.25,2.36-4.21,3.99-5.87s3.54-2.93,5.75-3.8,4.7-1.13,7.46-.76Zm-4.38,7c-1.3,.28-2.5,1-3.59,2.16-1.1,1.16-2.03,2.54-2.8,4.14s-1.32,3.34-1.64,5.2-.36,3.62-.09,5.27,.88,3.07,1.86,4.29,2.37,2.01,4.2,2.37c.65,.12,1.38,.06,2.19-.18s1.6-.61,2.37-1.1,1.47-1.07,2.1-1.73,1.11-1.35,1.43-2.04c-1.14-.69-2.1-1.52-2.89-2.5s-1.47-2.05-2.04-3.23c-.89-1.95-1.42-4.03-1.58-6.24s0-4.35,.49-6.42Zm6.09-11.81c-.41,.61-1.02,.86-1.86,.76s-1.6-.41-2.31-.91-1.25-1.14-1.61-1.89-.28-1.49,.24-2.22l7.12-9.37c.49-.73,1.16-1.09,2.01-1.07s1.64,.26,2.37,.73,1.26,1.11,1.58,1.92,.18,1.66-.43,2.56l-7.12,9.5Zm1.46,12.11c-1.14,.69-1.78,1.65-1.92,2.89s-.03,2.5,.33,3.77,.87,2.42,1.52,3.44,1.2,1.64,1.64,1.89c.24-.2,.44-.68,.58-1.43s.23-1.61,.27-2.59,.02-1.99-.06-3.04-.22-1.99-.43-2.8-.47-1.43-.79-1.86-.71-.52-1.16-.27Z"/>
  <path class="cls-1" d="M175.44,26.75c.2-1.34,.69-2.31,1.46-2.92s1.58-.88,2.43-.82,1.61,.46,2.28,1.19,1.02,1.77,1.07,3.1v1.34c.73-.97,1.54-1.95,2.43-2.92s1.86-1.84,2.89-2.59,2.18-1.3,3.44-1.64,2.62-.38,4.08-.09c1.5,.32,2.71,.96,3.62,1.92s1.59,2.11,2.04,3.47,.71,2.85,.79,4.47,.07,3.26-.03,4.9-.25,3.25-.46,4.81-.38,2.95-.52,4.17-.2,2.2-.18,2.95,.21,1.15,.58,1.19c.61,.08,1.27-.08,1.98-.49s1.43-1.07,2.16-1.98,1.44-2.07,2.13-3.47,1.28-3.05,1.77-4.96c.2-.85,.64-1.33,1.31-1.43s1.33,.02,1.98,.37,1.2,.86,1.64,1.55,.55,1.4,.3,2.13c-.77,2.31-1.67,4.47-2.71,6.48s-2.18,3.72-3.44,5.14-2.63,2.49-4.11,3.2-3.03,.9-4.66,.58-2.87-.94-3.74-1.86-1.49-2.01-1.86-3.29-.53-2.68-.49-4.2,.16-3.07,.37-4.66c.2-1.58,.43-3.12,.67-4.63s.39-2.86,.43-4.08-.06-2.24-.3-3.07-.77-1.35-1.58-1.55c-1.1-.28-2.15-.06-3.17,.67s-1.96,1.8-2.83,3.2-1.67,3.01-2.4,4.84-1.36,3.69-1.89,5.6-.94,3.76-1.25,5.57-.48,3.34-.52,4.6c-.12,.57-.53,1.07-1.22,1.49s-1.44,.68-2.25,.76-1.59-.08-2.34-.49-1.23-1.18-1.43-2.31c-.04-.73-.02-1.57,.06-2.53s.2-2.35,.37-4.2,.33-4.31,.52-7.4,.38-7.12,.58-12.11Z"/>
  <path class="cls-1" d="M226.88,8.31c.04-.97,.41-1.7,1.1-2.19s1.46-.77,2.31-.85,1.63,.03,2.34,.33,1.11,.78,1.19,1.43c.28,.93,.7,1.62,1.25,2.07s1.13,.64,1.73,.58,1.19-.36,1.73-.88,.98-1.32,1.31-2.37c.16-.93,.62-1.69,1.37-2.28s1.55-.96,2.4-1.13,1.65-.12,2.4,.12,1.21,.71,1.37,1.4v2.19c1.06-.89,2.34-1.61,3.87-2.16s3.08-.85,4.69-.91,3.18,.13,4.72,.58,2.86,1.18,3.96,2.19c1.3,1.18,2.33,2.61,3.1,4.29s1.28,3.5,1.52,5.45,.25,3.95,.03,6-.64,4.01-1.25,5.87-1.4,3.58-2.37,5.14-2.09,2.81-3.35,3.74c-1.7,1.3-3.46,2.21-5.27,2.74s-3.53,.75-5.17,.67-3.13-.44-4.47-1.07-2.37-1.49-3.1-2.59l-1.7,19.18c-.32,.69-.92,1.21-1.8,1.55s-1.77,.49-2.68,.43-1.72-.33-2.43-.82-1.04-1.26-1-2.31c-.04-.53,.02-1.64,.18-3.35s.4-3.73,.7-6.09,.64-4.92,1-7.7c.37-2.78,.72-5.52,1.07-8.22s.68-5.24,1-7.61,.57-4.33,.73-5.87c-1.22,.69-2.53,.94-3.93,.76s-2.72-.65-3.96-1.4-2.29-1.73-3.17-2.95-1.35-2.54-1.43-3.96Zm32.87,2.98c-1.87-1.22-3.68-1.57-5.45-1.07s-3.34,1.56-4.72,3.17-2.48,3.59-3.29,5.97-1.18,4.84-1.1,7.4c0,.77,.33,1.71,1,2.83s1.57,2.03,2.71,2.74,2.5,1.04,4.08,1c1.58-.04,3.29-.81,5.11-2.31,.69-.57,1.34-1.37,1.95-2.4s1.13-2.19,1.55-3.47,.74-2.61,.94-3.99,.24-2.71,.12-3.99-.42-2.43-.88-3.47-1.15-1.84-2.04-2.4Z"/>
  <path class="cls-1" d="M269.73,55.73c-.41,.69-.98,1.07-1.73,1.13s-1.48-.06-2.19-.37-1.31-.72-1.8-1.25-.63-1.03-.43-1.52c.28-.69,.65-1.58,1.1-2.68s.99-2.69,1.64-4.78,1.39-4.85,2.22-8.28,1.78-7.8,2.83-13.12c.16-1.3,.62-2.23,1.37-2.8s1.57-.81,2.47-.73c.53,.04,1.03,.17,1.52,.4s.9,.55,1.25,.97,.6,.93,.76,1.52,.16,1.25,0,1.98c.73,.85,1.45,1.57,2.16,2.16s1.46,1.09,2.25,1.49,1.64,.76,2.56,1.07,1.96,.62,3.13,.94c.81,.53,1.34,1.06,1.58,1.58s.32,1.09,.24,1.67-.26,1.22-.55,1.89-.55,1.39-.79,2.16c-.12,.45-.26,1.1-.43,1.95s-.29,1.8-.4,2.83-.17,2.1-.21,3.2-.01,2.1,.09,3.01,.29,1.68,.58,2.31,.69,.98,1.22,1.07c1.7,.32,3.31-.69,4.81-3.04s2.94-6.21,4.32-11.57c.2-.97,.64-1.62,1.31-1.95s1.36-.43,2.07-.3,1.32,.43,1.83,.91,.68,1.08,.52,1.77c-.24,1.5-.61,3.17-1.1,4.99s-1.13,3.64-1.92,5.45c-.79,1.81-1.73,3.51-2.83,5.11s-2.37,2.91-3.84,3.93c-1.1,.77-2.28,1.27-3.56,1.49s-2.53,.16-3.74-.18-2.32-.95-3.32-1.83-1.71-2-2.16-3.38c-.93-2.8-1.32-5.67-1.16-8.61,.16-2.94,.61-5.87,1.34-8.8-.93-.41-1.97-.84-3.1-1.31s-2.11-1-2.92-1.61c-1.42,4.46-2.54,8.02-3.35,10.65s-1.46,4.69-1.95,6.15-.84,2.48-1.07,3.04-.44,.99-.64,1.28Z"/>
  <path class="cls-1" d="M319.89,27.06c-.08,2.03-.45,4.07-1.1,6.12-.65,2.05-1.6,3.9-2.86,5.54-1.26,1.64-2.79,2.96-4.6,3.96s-3.87,1.41-6.18,1.25c.04,1.26,.18,2.48,.43,3.65s.64,2.18,1.19,3.01,1.29,1.42,2.22,1.77,2.11,.29,3.53-.15c1.42-.41,2.78-1.08,4.08-2.01s2.47-2.01,3.5-3.23,1.91-2.51,2.62-3.87,1.23-2.69,1.55-3.99c.16-.69,.55-1.12,1.16-1.28s1.25-.14,1.92,.06,1.24,.56,1.7,1.07,.62,1.09,.46,1.73c-.89,2.35-1.78,4.44-2.65,6.27s-1.84,3.44-2.89,4.84-2.24,2.59-3.56,3.56-2.87,1.79-4.66,2.43c-2.39,.85-4.61,1.23-6.64,1.13s-3.79-.64-5.3-1.61-2.69-2.35-3.56-4.14-1.37-3.96-1.49-6.51c-.08-1.22-.11-2.69-.09-4.41s.13-3.53,.33-5.42,.53-3.8,.97-5.75,1.06-3.76,1.83-5.45,1.73-3.17,2.89-4.44c1.16-1.28,2.57-2.2,4.23-2.77,1.38-.49,2.74-.67,4.08-.55s2.53,.55,3.56,1.28,1.86,1.76,2.47,3.07,.89,2.93,.85,4.84Zm-7.67-1.58c-.57-.37-1.13-.4-1.67-.09s-1.07,.81-1.55,1.52-.91,1.55-1.28,2.53-.67,1.98-.91,3.01-.43,2.02-.55,2.95-.14,1.68-.06,2.25c1.87-.37,3.35-1.14,4.44-2.31s1.86-2.43,2.28-3.77,.57-2.6,.43-3.77-.52-1.95-1.13-2.31Z"/>
  <path class="cls-1" d="M322.39,54.15c.57-3.69,.98-6.94,1.25-9.74s.42-5.25,.46-7.34c.04-2.09,.01-3.86-.09-5.3s-.23-2.67-.4-3.68-.33-1.84-.52-2.47-.29-1.17-.33-1.61c-.08-.61-.03-1.15,.15-1.61s.45-.86,.79-1.19,.74-.58,1.19-.76,.89-.27,1.34-.27c.89,0,1.58,.14,2.07,.43s.86,.7,1.13,1.25,.45,1.22,.55,2.01,.19,1.71,.27,2.77c.53-.89,1.14-1.8,1.83-2.71s1.46-1.73,2.31-2.47,1.8-1.33,2.83-1.8,2.16-.7,3.38-.7,2.46,.23,3.59,.7,2.16,1.12,3.07,1.95,1.68,1.81,2.31,2.92,1.11,2.32,1.43,3.62c.89-1.7,1.88-3.33,2.95-4.87s2.53-2.74,4.35-3.59,3.53-1.1,5.11-.73,2.97,1.11,4.17,2.22,2.14,2.52,2.83,4.2,1.03,3.44,1.03,5.27c0,2.11-.13,4.32-.4,6.64s-.5,4.46-.7,6.45-.27,3.65-.21,4.99,.42,2.09,1.07,2.25c1.1,.28,2.15-.04,3.17-.97s1.94-2.09,2.77-3.47,1.56-2.79,2.19-4.23,1.13-2.57,1.49-3.38c.28-.69,.74-1.12,1.37-1.28s1.24-.12,1.83,.12,1.08,.68,1.46,1.31,.52,1.39,.4,2.28c-.49,1.99-1.16,3.98-2.01,5.97s-1.92,3.78-3.2,5.39c-1.28,1.6-2.81,2.9-4.6,3.9s-3.84,1.49-6.15,1.49c-1.54,0-2.81-.42-3.8-1.25s-1.78-1.85-2.34-3.04-.95-2.47-1.16-3.8-.3-2.52-.3-3.53c0-1.46,.09-2.86,.27-4.2s.4-2.65,.64-3.93,.46-2.52,.64-3.71,.27-2.36,.27-3.5c0-1.54-.17-2.76-.52-3.65s-.84-1.34-1.49-1.34c-1.26,0-2.45,.74-3.56,2.22s-2.13,3.39-3.04,5.72c-.91,2.33-1.72,4.97-2.43,7.91s-1.27,5.87-1.67,8.8c-.12,1.01-.57,1.73-1.34,2.16s-1.59,.59-2.47,.49-1.66-.43-2.37-.97-1.07-1.29-1.07-2.22c.08-.53,.21-1.49,.4-2.89s.34-2.99,.49-4.78c.14-1.79,.22-3.64,.24-5.57s-.1-3.7-.37-5.33-.71-2.95-1.34-3.99-1.51-1.55-2.65-1.55c-.93,0-1.83,.44-2.68,1.31s-1.67,2.04-2.47,3.5-1.51,3.15-2.16,5.05-1.23,3.92-1.73,6.03-.93,4.24-1.28,6.39-.58,4.18-.7,6.09c-.12,1.01-.6,1.72-1.43,2.13s-1.71,.57-2.65,.49-1.77-.39-2.5-.91-1.06-1.22-.97-2.07Z"/>
  <path class="cls-1" d="M383.14,23.1c.81-.81,1.64-1.27,2.5-1.37s1.6,.04,2.25,.43,1.13,.95,1.43,1.7,.33,1.57,.09,2.47c-.41,.85-.79,1.97-1.16,3.35s-.69,2.84-.97,4.38-.51,3.12-.67,4.75-.23,3.1-.21,4.44,.15,2.5,.4,3.47,.63,1.58,1.16,1.83,1.09,.29,1.67,.15,1.22-.58,1.89-1.31,1.39-1.83,2.16-3.29,1.58-3.43,2.43-5.9c.32-.61,.78-.98,1.37-1.13s1.16-.11,1.7,.09,.97,.56,1.28,1.07,.36,1.11,.15,1.8c-.37,1.42-.96,3.12-1.8,5.11s-1.88,3.86-3.13,5.6c-1.26,1.75-2.7,3.13-4.32,4.17s-3.39,1.29-5.3,.76c-1.7-.49-3.04-1.47-4.02-2.95s-1.66-3.24-2.07-5.27c-.41-2.03-.57-4.23-.49-6.6s.29-4.68,.64-6.91,.79-4.31,1.34-6.24,1.11-3.46,1.67-4.6Zm1.77-5.54c-.81-1.1-1.13-2.15-.94-3.17s.63-1.8,1.34-2.34,1.56-.78,2.56-.7,1.92,.69,2.77,1.83c.57,.93,.72,1.86,.46,2.77s-.73,1.64-1.4,2.19-1.46,.82-2.37,.82-1.71-.47-2.4-1.4Z"/>
  <path class="cls-1" d="M398.18,22.13c.57-1.01,1.25-1.71,2.04-2.1s1.56-.49,2.31-.3,1.39,.63,1.92,1.34,.79,1.65,.79,2.83c-.12,.49-.34,1.46-.67,2.92s-.68,3.15-1.07,5.05c-.39,1.91-.76,3.93-1.13,6.06-.37,2.13-.61,4.09-.73,5.87s-.09,3.29,.09,4.5,.6,1.89,1.25,2.01c1.18,.2,2.27-.24,3.29-1.34s1.95-2.55,2.8-4.35,1.62-3.82,2.31-6.06,1.29-4.37,1.8-6.42,.92-3.87,1.25-5.45,.57-2.64,.73-3.17c.28-1.01,.66-1.85,1.13-2.5,.47-.65,1.19-1.18,2.16-1.58,1.42-.16,2.53,.13,3.32,.88s1.21,1.84,1.25,3.26c-.32,1.58-.69,3.27-1.1,5.05s-.79,3.56-1.16,5.33-.67,3.47-.91,5.11-.4,3.11-.46,4.41,0,2.39,.18,3.29,.56,1.46,1.13,1.7c1.3,.2,2.47-.47,3.5-2.01s2.14-4.06,3.32-7.55c.37-.89,.91-1.44,1.64-1.64s1.41-.15,2.04,.15,1.12,.84,1.46,1.61,.33,1.7-.03,2.8c-.24,.69-.55,1.49-.91,2.4s-.8,1.86-1.31,2.83-1.07,1.95-1.67,2.92-1.26,1.85-1.95,2.62c-1.01,1.22-2.15,2.08-3.41,2.59s-2.5,.68-3.71,.52-2.37-.67-3.47-1.52-1.99-2.05-2.68-3.59c-.73,1.06-1.47,2.03-2.22,2.92s-1.58,1.66-2.5,2.31-1.93,1.13-3.04,1.43-2.42,.42-3.93,.33c-1.46-.08-2.67-.49-3.62-1.22s-1.69-1.66-2.22-2.8-.89-2.38-1.1-3.74-.3-2.73-.3-4.11,.05-2.69,.15-3.93,.19-2.28,.27-3.13c.12-1.1,.31-2.37,.58-3.84s.55-2.95,.85-4.47,.62-3,.94-4.44,.59-2.71,.79-3.8Z"/>
  <path class="cls-1" d="M426.3,54.15c.57-3.69,.98-6.94,1.25-9.74s.42-5.25,.46-7.34,.01-3.86-.09-5.3-.23-2.67-.4-3.68-.33-1.84-.52-2.47-.29-1.17-.33-1.61c-.08-.61-.03-1.15,.15-1.61s.45-.86,.79-1.19,.74-.58,1.19-.76,.89-.27,1.34-.27c.89,0,1.58,.14,2.07,.43s.86,.7,1.13,1.25,.45,1.22,.55,2.01,.19,1.71,.27,2.77c.53-.89,1.14-1.8,1.83-2.71s1.46-1.73,2.31-2.47,1.8-1.33,2.83-1.8,2.16-.7,3.38-.7,2.46,.23,3.59,.7,2.16,1.12,3.07,1.95,1.68,1.81,2.31,2.92,1.11,2.32,1.43,3.62c.89-1.7,1.88-3.33,2.95-4.87s2.53-2.74,4.35-3.59,3.53-1.1,5.11-.73,2.97,1.11,4.17,2.22,2.14,2.52,2.83,4.2,1.03,3.44,1.03,5.27c0,2.11-.13,4.32-.4,6.64s-.5,4.46-.7,6.45-.27,3.65-.21,4.99,.42,2.09,1.07,2.25c1.1,.28,2.15-.04,3.17-.97s1.94-2.09,2.77-3.47,1.56-2.79,2.19-4.23,1.13-2.57,1.49-3.38c.28-.69,.74-1.12,1.37-1.28s1.24-.12,1.83,.12,1.08,.68,1.46,1.31,.52,1.39,.4,2.28c-.49,1.99-1.16,3.98-2.01,5.97-.85,1.99-1.92,3.78-3.2,5.39-1.28,1.6-2.81,2.9-4.6,3.9-1.79,.99-3.84,1.49-6.15,1.49-1.54,0-2.81-.42-3.8-1.25s-1.78-1.85-2.34-3.04-.95-2.47-1.16-3.8-.3-2.52-.3-3.53c0-1.46,.09-2.86,.27-4.2s.4-2.65,.64-3.93,.46-2.52,.64-3.71,.27-2.36,.27-3.5c0-1.54-.17-2.76-.52-3.65s-.84-1.34-1.49-1.34c-1.26,0-2.45,.74-3.56,2.22s-2.13,3.39-3.04,5.72-1.72,4.97-2.43,7.91c-.71,2.94-1.27,5.87-1.67,8.8-.12,1.01-.57,1.73-1.34,2.16s-1.59,.59-2.47,.49-1.66-.43-2.37-.97-1.07-1.29-1.07-2.22c.08-.53,.21-1.49,.4-2.89s.34-2.99,.49-4.78,.22-3.64,.24-5.57-.1-3.7-.37-5.33-.71-2.95-1.34-3.99-1.51-1.55-2.65-1.55c-.93,0-1.83,.44-2.68,1.31s-1.67,2.04-2.47,3.5-1.51,3.15-2.16,5.05-1.23,3.92-1.73,6.03-.93,4.24-1.28,6.39-.58,4.18-.7,6.09c-.12,1.01-.6,1.72-1.43,2.13s-1.71,.57-2.65,.49-1.77-.39-2.5-.91-1.06-1.22-.97-2.07Z"/>
</svg>