<?xml version="1.0" encoding="UTF-8"?>
<svg id="Capa_1" data-name="Capa 1" xmlns="http://www.w3.org/2000/svg" viewBox="0 0 535.14 56.4">
  <defs>
    <style>
      .cls-1 {
        fill: #fff;
      }
    </style>
  </defs>
  <path class="cls-1" d="M1.94,14.83c-.78-.23-1.32-.75-1.63-1.54C0,12.49-.08,11.72,.08,10.96c.15-.76,.54-1.37,1.16-1.83,.62-.47,1.45-.5,2.5-.12,1.75,.35,3.17,.37,4.28,.06,1.11-.31,2.01-.84,2.7-1.6s1.25-1.64,1.66-2.65c.41-1.01,.79-2.04,1.13-3.08,.31-.85,.89-1.39,1.75-1.6,.85-.21,1.7-.18,2.53,.09,.83,.27,1.51,.75,2.04,1.43,.52,.68,.61,1.46,.26,2.36-.12,.35-.18,.71-.2,1.08-.02,.37-.13,.81-.32,1.31,1.24-1.01,2.77-1.95,4.6-2.82,1.82-.87,3.68-1.41,5.58-1.6,2.09-.19,3.8,.06,5.12,.76,1.32,.7,2.34,1.7,3.05,3,.72,1.3,1.17,2.85,1.37,4.65,.19,1.8,.21,3.72,.06,5.76-.16,2.04-.44,4.14-.84,6.31-.41,2.17-.86,4.28-1.37,6.31-.5,2.04-1.01,3.94-1.51,5.7-.5,1.77-.93,3.29-1.28,4.57-.5,1.86-.82,3.43-.96,4.71-.14,1.28,.07,2.11,.61,2.5,.31,.23,.76,.21,1.34-.06,.58-.27,1.2-.71,1.86-1.31,.66-.6,1.34-1.32,2.04-2.15,.7-.83,1.35-1.72,1.95-2.65,.6-.93,1.11-1.86,1.54-2.79,.43-.93,.72-1.78,.87-2.56,.35-.66,.83-1,1.45-1.02,.62-.02,1.19,.19,1.72,.64,.52,.45,.92,1.07,1.19,1.86,.27,.8,.23,1.66-.12,2.59-.35,1.01-.81,2.13-1.4,3.37-.58,1.24-1.27,2.46-2.07,3.66-.8,1.2-1.69,2.34-2.68,3.4-.99,1.07-2.06,1.96-3.2,2.68-1.14,.72-2.36,1.19-3.64,1.43s-2.6,.12-3.96-.35c-1.2-.39-2.18-1.03-2.94-1.92s-1.31-1.94-1.66-3.14c-.35-1.2-.5-2.54-.47-4.01,.04-1.47,.23-3,.58-4.6,.35-1.51,.82-3.32,1.43-5.44,.6-2.11,1.2-4.29,1.8-6.54,.6-2.25,1.14-4.48,1.63-6.69,.48-2.21,.78-4.18,.87-5.9,.1-1.72-.07-3.12-.49-4.19-.43-1.07-1.22-1.58-2.39-1.54-.93,.04-1.95,.3-3.05,.79-1.11,.49-2.2,1.12-3.29,1.89-1.09,.78-2.09,1.63-3,2.56-.91,.93-1.64,1.86-2.18,2.79-.16,1.09-.37,2.48-.64,4.19-.27,1.71-.58,3.58-.93,5.61s-.73,4.16-1.13,6.37-.81,4.39-1.22,6.54-.81,4.18-1.22,6.08c-.41,1.9-.79,3.55-1.13,4.94-.27,1.01-.84,1.63-1.72,1.86s-1.76,.21-2.65-.06c-.89-.27-1.64-.73-2.24-1.37-.6-.64-.79-1.31-.55-2.01v-.06c.35-1.24,.79-3.05,1.34-5.44,.54-2.39,1.12-5.14,1.75-8.26,.62-3.12,1.23-6.49,1.83-10.09,.6-3.61,1.13-7.25,1.6-10.94-.66,.43-1.45,.72-2.39,.87-.93,.16-1.85,.22-2.76,.2-.91-.02-1.73-.1-2.44-.23-.72-.14-1.15-.28-1.31-.44Z"/>
  <path class="cls-1" d="M46.09,19.77c.54-.97,1.19-1.64,1.95-2.01,.76-.37,1.49-.47,2.21-.29,.72,.17,1.33,.6,1.83,1.28,.5,.68,.76,1.58,.76,2.7-.12,.47-.33,1.4-.64,2.79-.31,1.4-.65,3.01-1.02,4.83-.37,1.82-.73,3.75-1.08,5.79s-.58,3.91-.7,5.61c-.12,1.71-.09,3.14,.09,4.3s.57,1.8,1.19,1.92c1.12,.19,2.17-.23,3.14-1.28,.97-1.05,1.86-2.43,2.68-4.16,.81-1.72,1.55-3.65,2.21-5.79,.66-2.13,1.23-4.18,1.72-6.14,.48-1.96,.88-3.69,1.19-5.21,.31-1.51,.54-2.52,.7-3.02,.27-.97,.63-1.76,1.08-2.39,.45-.62,1.13-1.12,2.07-1.51,1.36-.15,2.41,.13,3.17,.84,.76,.72,1.15,1.76,1.19,3.11-.31,1.51-.66,3.12-1.05,4.83-.39,1.71-.76,3.4-1.11,5.09s-.64,3.32-.87,4.89-.38,2.98-.44,4.22c-.06,1.24,0,2.29,.17,3.14,.17,.85,.53,1.4,1.08,1.63,1.24,.19,2.36-.45,3.34-1.92,.99-1.47,2.04-3.88,3.17-7.21,.35-.85,.87-1.38,1.57-1.57,.7-.19,1.35-.15,1.95,.15,.6,.29,1.07,.81,1.4,1.54,.33,.74,.32,1.63-.03,2.68-.23,.66-.52,1.43-.87,2.3s-.77,1.77-1.25,2.7c-.49,.93-1.02,1.86-1.6,2.79s-1.2,1.77-1.86,2.5c-.97,1.16-2.06,1.99-3.26,2.47-1.2,.49-2.39,.65-3.55,.49s-2.27-.64-3.32-1.45-1.9-1.96-2.56-3.43c-.7,1.01-1.41,1.94-2.12,2.79-.72,.85-1.51,1.59-2.39,2.21s-1.84,1.08-2.91,1.37c-1.07,.29-2.32,.4-3.75,.32-1.4-.08-2.55-.47-3.46-1.16-.91-.7-1.62-1.59-2.12-2.68-.5-1.09-.85-2.28-1.05-3.58-.19-1.3-.29-2.61-.29-3.93s.05-2.57,.15-3.75c.1-1.18,.18-2.18,.26-3,.12-1.05,.3-2.27,.55-3.66,.25-1.4,.52-2.82,.81-4.28s.59-2.87,.9-4.25c.31-1.38,.56-2.59,.76-3.64Z"/>
  <path class="cls-1" d="M93.68,24.48c-.08,1.94-.43,3.89-1.05,5.85-.62,1.96-1.53,3.72-2.73,5.29-1.2,1.57-2.67,2.83-4.39,3.78-1.73,.95-3.69,1.35-5.9,1.19,.04,1.2,.17,2.37,.41,3.49,.23,1.13,.61,2.09,1.13,2.88,.52,.8,1.23,1.36,2.12,1.69,.89,.33,2.02,.28,3.37-.15,1.36-.39,2.66-1.03,3.9-1.92,1.24-.89,2.36-1.92,3.34-3.08s1.82-2.39,2.5-3.69c.68-1.3,1.17-2.57,1.48-3.81,.15-.66,.52-1.07,1.11-1.22,.58-.15,1.19-.14,1.83,.06,.64,.19,1.18,.53,1.63,1.02,.45,.49,.59,1.04,.44,1.66-.85,2.25-1.7,4.25-2.53,5.99-.83,1.75-1.76,3.29-2.76,4.62-1.01,1.34-2.14,2.47-3.4,3.4-1.26,.93-2.74,1.71-4.45,2.33-2.29,.81-4.4,1.17-6.34,1.08-1.94-.1-3.63-.61-5.06-1.54-1.44-.93-2.57-2.25-3.4-3.96-.83-1.71-1.31-3.78-1.43-6.22-.08-1.16-.11-2.57-.09-4.22,.02-1.65,.13-3.37,.32-5.18,.19-1.8,.5-3.64,.93-5.5,.43-1.86,1.01-3.6,1.75-5.21,.74-1.61,1.66-3.02,2.76-4.25s2.45-2.1,4.04-2.65c1.32-.47,2.62-.64,3.9-.52s2.41,.52,3.4,1.22,1.77,1.68,2.36,2.94c.58,1.26,.85,2.8,.81,4.62Zm-7.33-1.51c-.54-.35-1.08-.38-1.6-.09s-1.02,.78-1.48,1.45c-.47,.68-.87,1.48-1.22,2.41s-.64,1.89-.87,2.88-.41,1.93-.52,2.82c-.12,.89-.14,1.61-.06,2.15,1.78-.35,3.2-1.09,4.25-2.21,1.05-1.12,1.77-2.33,2.18-3.61s.54-2.48,.41-3.61c-.14-1.12-.49-1.86-1.08-2.21Z"/>
  <path class="cls-1" d="M97.63,48.28c-.93,.58-1.79,.84-2.59,.79-.79-.06-1.43-.33-1.92-.81s-.77-1.15-.84-2.01c-.08-.85,.16-1.76,.7-2.73,1.01-1.63,2.14-3.47,3.4-5.53,1.26-2.05,2.54-4.19,3.84-6.4,1.3-2.21,2.6-4.42,3.9-6.63,1.3-2.21,2.51-4.27,3.64-6.17,.39-.7,.97-1.22,1.75-1.57,.78-.35,1.54-.49,2.3-.44s1.42,.34,1.98,.84c.56,.5,.84,1.26,.84,2.27,0,.62-.1,1.25-.29,1.89-.19,.64-.19,1.27,0,1.89,.47,1.55,.97,3.42,1.51,5.61,.54,2.19,.97,4.51,1.28,6.95,.12,.93,.2,1.94,.26,3.02,.06,1.09,.08,2.17,.06,3.26-.02,1.09-.09,2.14-.2,3.17-.12,1.03-.27,1.93-.47,2.7,1.01-.47,1.9-1.05,2.68-1.75,.78-.7,1.51-1.57,2.21-2.62s1.39-2.3,2.07-3.75c.68-1.45,1.41-3.17,2.18-5.15,.39-1.01,.94-1.6,1.66-1.77,.72-.17,1.42-.12,2.09,.17,.68,.29,1.24,.74,1.69,1.34,.45,.6,.59,1.17,.44,1.72-.35,1.2-.85,2.57-1.51,4.1-.66,1.53-1.49,3.07-2.5,4.62-.66,1.01-1.37,2-2.12,2.97-.76,.97-1.57,1.86-2.44,2.68s-1.81,1.53-2.82,2.15c-1.01,.62-2.06,1.11-3.14,1.45-1.67,.66-3.37,1.01-5.09,1.05-1.73,.04-3.4-.17-5.03-.64-1.9-.54-3.64-1.41-5.21-2.59s-2.86-2.68-3.87-4.51l-.41,.41Zm11.4-18.61c-.54,.89-1.07,1.78-1.57,2.68-.5,.89-1.01,1.78-1.51,2.68-.5,.93-1.02,1.87-1.54,2.82-.52,.95-1.12,1.95-1.77,3,.19,.47,.48,1.09,.87,1.86,.39,.78,.89,1.55,1.51,2.33,.54,.7,1.15,1.34,1.83,1.92,.68,.58,1.41,.97,2.18,1.16,.31-.47,.54-1.05,.7-1.75,.15-.7,.26-1.48,.32-2.36s.07-1.8,.03-2.79c-.04-.99-.1-1.99-.17-3-.12-1.67-.27-3.27-.47-4.8-.19-1.53-.33-2.78-.41-3.75Z"/>
  <path class="cls-1" d="M124.04,21.58c-.85-.12-1.47-.5-1.86-1.16-.39-.66-.56-1.37-.52-2.12,.04-.76,.26-1.47,.67-2.15,.41-.68,.98-1.1,1.72-1.25,.89-.08,1.63-.08,2.21,0,.58,.08,1.32,.08,2.21,0l2.04-11.29c.19-.74,.66-1.3,1.4-1.69,.74-.39,1.5-.55,2.3-.49,.79,.06,1.48,.35,2.07,.87s.81,1.35,.7,2.47l-1.69,10.12h8.55c.74,.08,1.31,.41,1.72,.99s.63,1.24,.67,1.98c.04,.74-.12,1.46-.47,2.18-.35,.72-.89,1.23-1.63,1.54h-9.77c-.08,.81-.25,1.98-.52,3.49-.27,1.51-.54,3.16-.81,4.94-.27,1.78-.49,3.6-.64,5.44-.16,1.84-.17,3.52-.06,5.03s.43,2.75,.93,3.72c.5,.97,1.3,1.47,2.39,1.51,.97,.04,2.02-.09,3.14-.38,1.12-.29,2.19-.8,3.2-1.54,1.01-.74,1.92-1.72,2.73-2.97,.81-1.24,1.4-2.83,1.75-4.77,.12-.97,.5-1.61,1.16-1.92,.66-.31,1.35-.39,2.07-.23,.72,.16,1.34,.49,1.86,1.02s.71,1.13,.55,1.83c-.5,2.29-1.23,4.37-2.18,6.25-.95,1.88-2.15,3.5-3.61,4.86-1.45,1.36-3.19,2.41-5.21,3.17-2.02,.76-4.34,1.13-6.98,1.13-1.98,0-3.58-.42-4.8-1.25-1.22-.83-2.15-1.99-2.79-3.46-.64-1.47-1.05-3.2-1.22-5.18s-.19-4.1-.06-6.37c.14-2.27,.37-4.62,.7-7.07,.33-2.44,.69-4.87,1.08-7.27-.47,.04-.96,.04-1.48,0-.52-.04-1.02-.04-1.48,0Z"/>
  <path class="cls-1" d="M147.43,51.88c-.39,.66-.94,1.02-1.66,1.08s-1.42-.06-2.09-.35c-.68-.29-1.25-.69-1.72-1.19s-.6-.99-.41-1.45c.27-.66,.62-1.51,1.05-2.56,.43-1.05,.95-2.57,1.57-4.57,.62-2,1.33-4.63,2.12-7.91,.79-3.28,1.7-7.45,2.7-12.54,.15-1.24,.59-2.13,1.31-2.68,.72-.54,1.5-.78,2.36-.7,.5,.04,.99,.17,1.45,.38,.47,.21,.86,.52,1.19,.93,.33,.41,.57,.89,.73,1.45,.15,.56,.15,1.19,0,1.89,.7,.81,1.39,1.5,2.07,2.07,.68,.56,1.4,1.04,2.15,1.43,.76,.39,1.57,.73,2.44,1.02s1.87,.59,3,.9c.78,.5,1.28,1.01,1.51,1.51,.23,.5,.31,1.04,.23,1.6-.08,.56-.25,1.16-.52,1.8-.27,.64-.52,1.33-.76,2.07-.12,.43-.25,1.05-.41,1.86-.16,.81-.28,1.72-.38,2.7-.1,.99-.17,2.01-.2,3.05-.04,1.05-.01,2.01,.09,2.88,.1,.87,.28,1.61,.55,2.21,.27,.6,.66,.94,1.16,1.02,1.63,.31,3.16-.66,4.6-2.91,1.43-2.25,2.81-5.93,4.13-11.05,.19-.93,.61-1.55,1.25-1.86,.64-.31,1.3-.41,1.98-.29,.68,.12,1.26,.41,1.75,.87,.48,.47,.65,1.03,.49,1.69-.23,1.44-.58,3.02-1.05,4.77s-1.08,3.48-1.83,5.21c-.76,1.73-1.66,3.35-2.7,4.89s-2.27,2.78-3.66,3.75c-1.05,.74-2.18,1.21-3.4,1.43-1.22,.21-2.41,.15-3.58-.17-1.16-.33-2.22-.91-3.17-1.75-.95-.83-1.64-1.91-2.07-3.23-.89-2.68-1.26-5.42-1.11-8.23,.15-2.81,.58-5.61,1.28-8.41-.89-.39-1.88-.8-2.97-1.25-1.09-.45-2.02-.96-2.79-1.54-1.36,4.27-2.42,7.66-3.2,10.18-.78,2.52-1.4,4.48-1.86,5.88s-.81,2.37-1.02,2.91c-.21,.54-.42,.95-.61,1.22Z"/>
  <path class="cls-1" d="M194.02,17.27c1.78-.58,3.34-.7,4.68-.35s2.45,1.03,3.34,2.04c.89,1.01,1.6,2.26,2.12,3.75,.52,1.49,.88,3.07,1.08,4.74,.08,.78,.13,1.63,.15,2.56,.02,.93,0,1.86-.06,2.79s-.14,1.82-.23,2.68c-.1,.85-.22,1.63-.38,2.33,.93-.04,1.76-.16,2.5-.38,.74-.21,1.42-.47,2.04-.76,.62-.29,1.21-.61,1.77-.96,.56-.35,1.13-.68,1.72-.99,.74-.39,1.35-.44,1.83-.15,.48,.29,.81,.73,.99,1.31s.21,1.21,.12,1.89c-.1,.68-.36,1.21-.79,1.6-1.86,1.71-3.9,2.94-6.11,3.69s-4.46,1.13-6.75,1.13c-1.51,2.68-3.45,4.7-5.82,6.08-2.37,1.38-4.94,2.08-7.74,2.12-2.6,.04-4.79-.49-6.57-1.57-1.78-1.09-3.2-2.5-4.25-4.25s-1.74-3.73-2.07-5.96c-.33-2.23-.33-4.48,0-6.75,.33-2.27,.99-4.48,1.98-6.63s2.26-4.02,3.81-5.61c1.55-1.59,3.38-2.8,5.5-3.64,2.11-.83,4.49-1.08,7.13-.73Zm-4.19,6.69c-1.24,.27-2.39,.96-3.43,2.07s-1.94,2.42-2.68,3.96c-.74,1.53-1.26,3.19-1.57,4.97-.31,1.78-.34,3.46-.09,5.03,.25,1.57,.84,2.94,1.77,4.1s2.27,1.92,4.01,2.27c.62,.12,1.32,.06,2.09-.17,.78-.23,1.53-.58,2.27-1.05,.74-.47,1.41-1.02,2.01-1.66,.6-.64,1.06-1.29,1.37-1.95-1.09-.66-2.01-1.45-2.76-2.39s-1.41-1.96-1.95-3.08c-.85-1.86-1.36-3.85-1.51-5.96-.16-2.11,0-4.16,.47-6.14Zm7.21,.29c-1.09,.66-1.7,1.58-1.83,2.76-.14,1.18-.03,2.39,.32,3.61s.83,2.32,1.45,3.29c.62,.97,1.14,1.57,1.57,1.8,.23-.19,.42-.65,.55-1.37,.14-.72,.22-1.54,.26-2.47,.04-.93,.02-1.9-.06-2.91-.08-1.01-.21-1.9-.41-2.68-.19-.78-.45-1.37-.76-1.77-.31-.41-.68-.49-1.11-.26Z"/>
  <path class="cls-1" d="M208.97,48.28c-.93,.58-1.79,.84-2.59,.79-.79-.06-1.43-.33-1.92-.81s-.77-1.15-.84-2.01c-.08-.85,.16-1.76,.7-2.73,1.01-1.63,2.14-3.47,3.4-5.53,1.26-2.05,2.54-4.19,3.84-6.4,1.3-2.21,2.6-4.42,3.9-6.63,1.3-2.21,2.51-4.27,3.64-6.17,.39-.7,.97-1.22,1.75-1.57,.78-.35,1.54-.49,2.3-.44s1.42,.34,1.98,.84c.56,.5,.84,1.26,.84,2.27,0,.62-.1,1.25-.29,1.89-.19,.64-.19,1.27,0,1.89,.47,1.55,.97,3.42,1.51,5.61,.54,2.19,.97,4.51,1.28,6.95,.12,.93,.2,1.94,.26,3.02,.06,1.09,.08,2.17,.06,3.26-.02,1.09-.09,2.14-.2,3.17-.12,1.03-.27,1.93-.47,2.7,1.01-.47,1.9-1.05,2.68-1.75,.78-.7,1.51-1.57,2.21-2.62s1.39-2.3,2.07-3.75c.68-1.45,1.41-3.17,2.18-5.15,.39-1.01,.94-1.6,1.66-1.77,.72-.17,1.42-.12,2.09,.17,.68,.29,1.24,.74,1.69,1.34,.45,.6,.59,1.17,.44,1.72-.35,1.2-.85,2.57-1.51,4.1-.66,1.53-1.49,3.07-2.5,4.62-.66,1.01-1.37,2-2.12,2.97-.76,.97-1.57,1.86-2.44,2.68s-1.81,1.53-2.82,2.15c-1.01,.62-2.06,1.11-3.14,1.45-1.67,.66-3.37,1.01-5.09,1.05-1.73,.04-3.4-.17-5.03-.64-1.9-.54-3.64-1.41-5.21-2.59s-2.86-2.68-3.87-4.51l-.41,.41Zm11.4-18.61c-.54,.89-1.07,1.78-1.57,2.68-.5,.89-1.01,1.78-1.51,2.68-.5,.93-1.02,1.87-1.54,2.82-.52,.95-1.12,1.95-1.77,3,.19,.47,.48,1.09,.87,1.86,.39,.78,.89,1.55,1.51,2.33,.54,.7,1.15,1.34,1.83,1.92,.68,.58,1.41,.97,2.18,1.16,.31-.47,.54-1.05,.7-1.75,.15-.7,.26-1.48,.32-2.36s.07-1.8,.03-2.79c-.04-.99-.1-1.99-.17-3-.12-1.67-.27-3.27-.47-4.8-.19-1.53-.33-2.78-.41-3.75Z"/>
  <path class="cls-1" d="M254.05,6.57c.04-.93,.39-1.63,1.05-2.09,.66-.47,1.4-.74,2.21-.81,.81-.08,1.56,.03,2.24,.32,.68,.29,1.06,.75,1.13,1.37,.27,.89,.67,1.55,1.19,1.98,.52,.43,1.08,.61,1.66,.55s1.13-.34,1.66-.84c.52-.5,.94-1.26,1.25-2.27,.15-.89,.59-1.62,1.31-2.18,.72-.56,1.48-.92,2.3-1.08,.81-.15,1.58-.12,2.3,.12,.72,.23,1.15,.68,1.31,1.34v2.09c1.01-.85,2.24-1.54,3.69-2.07s2.95-.81,4.48-.87c1.53-.06,3.03,.13,4.51,.55,1.47,.43,2.73,1.13,3.78,2.09,1.24,1.13,2.23,2.49,2.97,4.1,.74,1.61,1.22,3.34,1.45,5.21s.24,3.77,.03,5.73c-.21,1.96-.61,3.83-1.19,5.61-.58,1.78-1.34,3.42-2.27,4.92-.93,1.49-2,2.69-3.2,3.58-1.63,1.24-3.31,2.11-5.03,2.62-1.73,.5-3.37,.72-4.94,.64-1.57-.08-3-.42-4.28-1.02-1.28-.6-2.27-1.43-2.97-2.47l-1.63,18.32c-.31,.66-.88,1.15-1.72,1.48-.83,.33-1.69,.47-2.56,.41s-1.65-.32-2.33-.79c-.68-.47-1-1.2-.96-2.21-.04-.5,.02-1.57,.17-3.2,.15-1.63,.38-3.57,.67-5.82,.29-2.25,.61-4.7,.96-7.36,.35-2.66,.69-5.27,1.02-7.85,.33-2.58,.65-5,.96-7.27,.31-2.27,.54-4.14,.7-5.61-1.16,.66-2.41,.9-3.75,.73s-2.6-.62-3.78-1.34c-1.18-.72-2.19-1.66-3.02-2.82-.83-1.16-1.29-2.42-1.37-3.78Zm31.41,2.85c-1.78-1.16-3.52-1.5-5.21-1.02-1.69,.49-3.19,1.49-4.51,3.02-1.32,1.53-2.37,3.43-3.14,5.7-.78,2.27-1.13,4.62-1.05,7.07,0,.74,.32,1.64,.96,2.7,.64,1.07,1.5,1.94,2.59,2.62,1.09,.68,2.39,1,3.9,.96,1.51-.04,3.14-.78,4.89-2.21,.66-.54,1.28-1.31,1.86-2.3s1.08-2.09,1.48-3.32,.71-2.49,.9-3.81c.19-1.32,.23-2.59,.12-3.81s-.4-2.33-.84-3.32c-.45-.99-1.1-1.75-1.95-2.3Z"/>
  <path class="cls-1" d="M295.01,51.88c-.39,.66-.94,1.02-1.66,1.08s-1.42-.06-2.09-.35c-.68-.29-1.25-.69-1.72-1.19s-.6-.99-.41-1.45c.27-.66,.62-1.51,1.05-2.56,.43-1.05,.95-2.57,1.57-4.57,.62-2,1.33-4.63,2.12-7.91,.79-3.28,1.7-7.45,2.7-12.54,.15-1.24,.59-2.13,1.31-2.68,.72-.54,1.5-.78,2.36-.7,.5,.04,.99,.17,1.45,.38,.47,.21,.86,.52,1.19,.93,.33,.41,.57,.89,.73,1.45,.15,.56,.15,1.19,0,1.89,.7,.81,1.39,1.5,2.07,2.07,.68,.56,1.4,1.04,2.15,1.43,.76,.39,1.57,.73,2.44,1.02s1.87,.59,3,.9c.78,.5,1.28,1.01,1.51,1.51,.23,.5,.31,1.04,.23,1.6-.08,.56-.25,1.16-.52,1.8-.27,.64-.52,1.33-.76,2.07-.12,.43-.25,1.05-.41,1.86-.16,.81-.28,1.72-.38,2.7-.1,.99-.17,2.01-.2,3.05-.04,1.05-.01,2.01,.09,2.88,.1,.87,.28,1.61,.55,2.21,.27,.6,.66,.94,1.16,1.02,1.63,.31,3.16-.66,4.6-2.91,1.43-2.25,2.81-5.93,4.13-11.05,.19-.93,.61-1.55,1.25-1.86,.64-.31,1.3-.41,1.98-.29,.68,.12,1.26,.41,1.75,.87,.48,.47,.65,1.03,.49,1.69-.23,1.44-.58,3.02-1.05,4.77s-1.08,3.48-1.83,5.21c-.76,1.73-1.66,3.35-2.7,4.89s-2.27,2.78-3.66,3.75c-1.05,.74-2.18,1.21-3.4,1.43-1.22,.21-2.41,.15-3.58-.17-1.16-.33-2.22-.91-3.17-1.75-.95-.83-1.64-1.91-2.07-3.23-.89-2.68-1.26-5.42-1.11-8.23,.15-2.81,.58-5.61,1.28-8.41-.89-.39-1.88-.8-2.97-1.25-1.09-.45-2.02-.96-2.79-1.54-1.36,4.27-2.42,7.66-3.2,10.18-.78,2.52-1.4,4.48-1.86,5.88s-.81,2.37-1.02,2.91c-.21,.54-.42,.95-.61,1.22Z"/>
  <path class="cls-1" d="M341.6,17.27c1.78-.58,3.34-.7,4.68-.35s2.45,1.03,3.34,2.04c.89,1.01,1.6,2.26,2.12,3.75,.52,1.49,.88,3.07,1.08,4.74,.08,.78,.13,1.63,.15,2.56,.02,.93,0,1.86-.06,2.79s-.14,1.82-.23,2.68c-.1,.85-.22,1.63-.38,2.33,.93-.04,1.76-.16,2.5-.38,.74-.21,1.42-.47,2.04-.76,.62-.29,1.21-.61,1.77-.96,.56-.35,1.13-.68,1.72-.99,.74-.39,1.35-.44,1.83-.15,.48,.29,.81,.73,.99,1.31s.21,1.21,.12,1.89c-.1,.68-.36,1.21-.79,1.6-1.86,1.71-3.9,2.94-6.11,3.69s-4.46,1.13-6.75,1.13c-1.51,2.68-3.45,4.7-5.82,6.08-2.37,1.38-4.94,2.08-7.74,2.12-2.6,.04-4.79-.49-6.57-1.57-1.78-1.09-3.2-2.5-4.25-4.25s-1.74-3.73-2.07-5.96c-.33-2.23-.33-4.48,0-6.75,.33-2.27,.99-4.48,1.98-6.63s2.26-4.02,3.81-5.61c1.55-1.59,3.38-2.8,5.5-3.64,2.11-.83,4.49-1.08,7.13-.73Zm-4.19,6.69c-1.24,.27-2.39,.96-3.43,2.07s-1.94,2.42-2.68,3.96c-.74,1.53-1.26,3.19-1.57,4.97-.31,1.78-.34,3.46-.09,5.03,.25,1.57,.84,2.94,1.77,4.1s2.27,1.92,4.01,2.27c.62,.12,1.32,.06,2.09-.17,.78-.23,1.53-.58,2.27-1.05,.74-.47,1.41-1.02,2.01-1.66,.6-.64,1.06-1.29,1.37-1.95-1.09-.66-2.01-1.45-2.76-2.39s-1.41-1.96-1.95-3.08c-.85-1.86-1.36-3.85-1.51-5.96-.16-2.11,0-4.16,.47-6.14Zm7.21,.29c-1.09,.66-1.7,1.58-1.83,2.76-.14,1.18-.03,2.39,.32,3.61s.83,2.32,1.45,3.29c.62,.97,1.14,1.57,1.57,1.8,.23-.19,.42-.65,.55-1.37,.14-.72,.22-1.54,.26-2.47,.04-.93,.02-1.9-.06-2.91-.08-1.01-.21-1.9-.41-2.68-.19-.78-.45-1.37-.76-1.77-.31-.41-.68-.49-1.11-.26Z"/>
  <path class="cls-1" d="M357.48,40.25c-.23-1.9-.17-3.86,.2-5.88,.37-2.02,1-3.9,1.89-5.64,.89-1.75,2.01-3.27,3.34-4.57,1.34-1.3,2.86-2.22,4.57-2.76,1.36-.43,2.82-.56,4.39-.41,1.57,.16,3.23,.74,4.97,1.75,.23-.85,.52-2.09,.87-3.72s.73-3.37,1.13-5.24,.8-3.71,1.19-5.56c.39-1.84,.7-3.44,.93-4.8,.15-.93,.58-1.57,1.28-1.92s1.43-.45,2.18-.29c.76,.16,1.42,.52,1.98,1.11,.56,.58,.77,1.36,.61,2.33-.27,1.86-.65,4.12-1.13,6.78-.49,2.66-.97,5.46-1.45,8.41-.49,2.95-.92,5.9-1.31,8.84-.39,2.95-.61,5.64-.67,8.09s.08,4.51,.41,6.2c.33,1.69,.96,2.74,1.89,3.17,.5,.23,1.07,.17,1.69-.2,.62-.37,1.22-.94,1.8-1.72,.58-.78,1.09-1.75,1.51-2.91,.43-1.16,.68-2.44,.76-3.84,.27-1.05,.72-1.74,1.34-2.07,.62-.33,1.23-.41,1.83-.23,.6,.17,1.11,.55,1.51,1.13s.53,1.26,.38,2.04c-.08,1.32-.39,2.8-.93,4.45-.54,1.65-1.3,3.21-2.27,4.68-.97,1.47-2.13,2.72-3.49,3.72-1.36,1.01-2.87,1.51-4.54,1.51-1.01,0-1.94-.26-2.79-.79-.85-.52-1.61-1.16-2.27-1.92-.66-.76-1.21-1.57-1.66-2.44-.45-.87-.77-1.68-.96-2.41-1.01,1.4-2.12,2.52-3.34,3.37-1.22,.85-2.51,1.44-3.87,1.75-1.36,.31-2.7,.33-4.01,.06-1.32-.27-2.53-.82-3.64-1.66-1.11-.83-2.05-1.95-2.82-3.34-.78-1.4-1.28-3.08-1.51-5.06Zm18.38-10.12c-1.09-1.05-2.16-1.7-3.23-1.95-1.07-.25-2.09-.22-3.05,.09-.81,.27-1.56,.73-2.24,1.37-.68,.64-1.27,1.4-1.77,2.27-.5,.87-.89,1.83-1.16,2.88-.27,1.05-.39,2.11-.35,3.2,.08,2.21,.63,3.77,1.66,4.68,1.03,.91,2.16,1.25,3.4,1.02,1.01-.19,1.99-.75,2.94-1.66,.95-.91,1.68-2.18,2.18-3.81,.19-.62,.39-1.3,.58-2.04,.19-.74,.37-1.47,.52-2.21,.15-.74,.28-1.44,.38-2.12,.1-.68,.15-1.25,.15-1.72Z"/>
  <path class="cls-1" d="M393.32,19.77c.54-.97,1.19-1.64,1.95-2.01,.76-.37,1.49-.47,2.21-.29,.72,.17,1.33,.6,1.83,1.28,.5,.68,.76,1.58,.76,2.7-.12,.47-.33,1.4-.64,2.79-.31,1.4-.65,3.01-1.02,4.83-.37,1.82-.73,3.75-1.08,5.79s-.58,3.91-.7,5.61c-.12,1.71-.09,3.14,.09,4.3s.57,1.8,1.19,1.92c1.12,.19,2.17-.23,3.14-1.28,.97-1.05,1.86-2.43,2.68-4.16,.81-1.72,1.55-3.65,2.21-5.79,.66-2.13,1.23-4.18,1.72-6.14,.48-1.96,.88-3.69,1.19-5.21,.31-1.51,.54-2.52,.7-3.02,.27-.97,.63-1.76,1.08-2.39,.45-.62,1.13-1.12,2.07-1.51,1.36-.15,2.41,.13,3.17,.84,.76,.72,1.15,1.76,1.19,3.11-.31,1.51-.66,3.12-1.05,4.83-.39,1.71-.76,3.4-1.11,5.09s-.64,3.32-.87,4.89-.38,2.98-.44,4.22c-.06,1.24,0,2.29,.17,3.14,.17,.85,.53,1.4,1.08,1.63,1.24,.19,2.36-.45,3.34-1.92,.99-1.47,2.04-3.88,3.17-7.21,.35-.85,.87-1.38,1.57-1.57,.7-.19,1.35-.15,1.95,.15,.6,.29,1.07,.81,1.4,1.54,.33,.74,.32,1.63-.03,2.68-.23,.66-.52,1.43-.87,2.3s-.77,1.77-1.25,2.7c-.49,.93-1.02,1.86-1.6,2.79s-1.2,1.77-1.86,2.5c-.97,1.16-2.06,1.99-3.26,2.47-1.2,.49-2.39,.65-3.55,.49s-2.27-.64-3.32-1.45-1.9-1.96-2.56-3.43c-.7,1.01-1.41,1.94-2.12,2.79-.72,.85-1.51,1.59-2.39,2.21s-1.84,1.08-2.91,1.37c-1.07,.29-2.32,.4-3.75,.32-1.4-.08-2.55-.47-3.46-1.16-.91-.7-1.62-1.59-2.12-2.68-.5-1.09-.85-2.28-1.05-3.58-.19-1.3-.29-2.61-.29-3.93s.05-2.57,.15-3.75c.1-1.18,.18-2.18,.26-3,.12-1.05,.3-2.27,.55-3.66,.25-1.4,.52-2.82,.81-4.28s.59-2.87,.9-4.25c.31-1.38,.56-2.59,.76-3.64Z"/>
  <path class="cls-1" d="M440.32,29.6c-.08,0-.14-.02-.17-.06-.43,.93-.98,1.61-1.66,2.04-.68,.43-1.37,.59-2.07,.49-.7-.1-1.33-.44-1.89-1.02-.56-.58-.94-1.4-1.13-2.44,0-.5,.06-1.13,.17-1.89s.2-1.49,.26-2.21c.06-.72,.03-1.34-.09-1.86s-.43-.82-.93-.9c-.89,.5-1.67,1.35-2.33,2.53-.66,1.18-1.2,2.52-1.63,4.01-.43,1.49-.73,3.07-.9,4.74-.17,1.67-.23,3.27-.17,4.8,.06,1.53,.25,2.9,.58,4.1,.33,1.2,.8,2.08,1.43,2.62,.78,.74,1.63,1.18,2.56,1.34,.93,.16,1.9,.14,2.91-.06,.85-.15,1.82-.45,2.91-.87,1.09-.43,2.18-1.05,3.29-1.86s2.17-1.86,3.2-3.14c1.03-1.28,1.93-2.89,2.7-4.83,.27-.58,.75-.93,1.43-1.05,.68-.12,1.35-.05,2.01,.2,.66,.25,1.18,.67,1.57,1.25,.39,.58,.43,1.3,.12,2.15-.78,1.82-1.74,3.45-2.88,4.89-1.14,1.44-2.38,2.7-3.69,3.78-1.32,1.09-2.7,2.02-4.13,2.79-1.44,.78-2.83,1.42-4.19,1.92-1.05,.39-2.15,.69-3.32,.9s-2.34,.26-3.52,.15c-1.18-.12-2.32-.42-3.4-.9-1.09-.48-2.06-1.25-2.91-2.3-1.01-1.2-1.79-2.69-2.36-4.48-.56-1.78-.92-3.68-1.08-5.7-.16-2.02-.11-4.09,.15-6.22,.25-2.13,.68-4.16,1.28-6.08,.6-1.92,1.38-3.66,2.33-5.24,.95-1.57,2.04-2.8,3.29-3.69,2.02-1.36,3.98-1.99,5.9-1.89,1.92,.1,3.44,.96,4.57,2.59,.89,.12,1.61,.56,2.15,1.34,.54,.78,.7,1.67,.47,2.68l-.81,7.39Z"/>
  <path class="cls-1" d="M445.15,21.58c-.85-.12-1.47-.5-1.86-1.16-.39-.66-.56-1.37-.52-2.12,.04-.76,.26-1.47,.67-2.15,.41-.68,.98-1.1,1.72-1.25,.89-.08,1.63-.08,2.21,0,.58,.08,1.32,.08,2.21,0l2.04-11.29c.19-.74,.66-1.3,1.4-1.69,.74-.39,1.5-.55,2.3-.49,.79,.06,1.48,.35,2.07,.87s.81,1.35,.7,2.47l-1.69,10.12h8.55c.74,.08,1.31,.41,1.72,.99s.63,1.24,.67,1.98c.04,.74-.12,1.46-.47,2.18-.35,.72-.89,1.23-1.63,1.54h-9.77c-.08,.81-.25,1.98-.52,3.49-.27,1.51-.54,3.16-.81,4.94-.27,1.78-.49,3.6-.64,5.44-.16,1.84-.17,3.52-.06,5.03s.43,2.75,.93,3.72c.5,.97,1.3,1.47,2.39,1.51,.97,.04,2.02-.09,3.14-.38,1.12-.29,2.19-.8,3.2-1.54,1.01-.74,1.92-1.72,2.73-2.97,.81-1.24,1.4-2.83,1.75-4.77,.12-.97,.5-1.61,1.16-1.92,.66-.31,1.35-.39,2.07-.23,.72,.16,1.34,.49,1.86,1.02s.71,1.13,.55,1.83c-.5,2.29-1.23,4.37-2.18,6.25-.95,1.88-2.15,3.5-3.61,4.86-1.45,1.36-3.19,2.41-5.21,3.17-2.02,.76-4.34,1.13-6.98,1.13-1.98,0-3.58-.42-4.8-1.25-1.22-.83-2.15-1.99-2.79-3.46-.64-1.47-1.05-3.2-1.22-5.18s-.19-4.1-.06-6.37c.14-2.27,.37-4.62,.7-7.07,.33-2.44,.69-4.87,1.08-7.27-.47,.04-.96,.04-1.48,0-.52-.04-1.02-.04-1.48,0Z"/>
  <path class="cls-1" d="M485.98,17.27c1.78-.58,3.34-.7,4.68-.35s2.45,1.03,3.34,2.04c.89,1.01,1.6,2.26,2.12,3.75,.52,1.49,.88,3.07,1.08,4.74,.08,.78,.13,1.63,.15,2.56,.02,.93,0,1.86-.06,2.79s-.14,1.82-.23,2.68c-.1,.85-.22,1.63-.38,2.33,.93-.04,1.76-.16,2.5-.38,.74-.21,1.42-.47,2.04-.76,.62-.29,1.21-.61,1.77-.96,.56-.35,1.13-.68,1.72-.99,.74-.39,1.35-.44,1.83-.15,.48,.29,.81,.73,.99,1.31s.21,1.21,.12,1.89c-.1,.68-.36,1.21-.79,1.6-1.86,1.71-3.9,2.94-6.11,3.69s-4.46,1.13-6.75,1.13c-1.51,2.68-3.45,4.7-5.82,6.08-2.37,1.38-4.94,2.08-7.74,2.12-2.6,.04-4.79-.49-6.57-1.57-1.78-1.09-3.2-2.5-4.25-4.25s-1.74-3.73-2.07-5.96c-.33-2.23-.33-4.48,0-6.75,.33-2.27,.99-4.48,1.98-6.63s2.26-4.02,3.81-5.61c1.55-1.59,3.38-2.8,5.5-3.64,2.11-.83,4.49-1.08,7.13-.73Zm-4.19,6.69c-1.24,.27-2.39,.96-3.43,2.07s-1.94,2.42-2.68,3.96c-.74,1.53-1.26,3.19-1.57,4.97-.31,1.78-.34,3.46-.09,5.03,.25,1.57,.84,2.94,1.77,4.1s2.27,1.92,4.01,2.27c.62,.12,1.32,.06,2.09-.17,.78-.23,1.53-.58,2.27-1.05,.74-.47,1.41-1.02,2.01-1.66,.6-.64,1.06-1.29,1.37-1.95-1.09-.66-2.01-1.45-2.76-2.39s-1.41-1.96-1.95-3.08c-.85-1.86-1.36-3.85-1.51-5.96-.16-2.11,0-4.16,.47-6.14Zm7.21,.29c-1.09,.66-1.7,1.58-1.83,2.76-.14,1.18-.03,2.39,.32,3.61s.83,2.32,1.45,3.29c.62,.97,1.14,1.57,1.57,1.8,.23-.19,.42-.65,.55-1.37,.14-.72,.22-1.54,.26-2.47,.04-.93,.02-1.9-.06-2.91-.08-1.01-.21-1.9-.41-2.68-.19-.78-.45-1.37-.76-1.77-.31-.41-.68-.49-1.11-.26Z"/>
  <path class="cls-1" d="M500.93,48.28c-.93,.58-1.79,.84-2.59,.79-.79-.06-1.43-.33-1.92-.81s-.77-1.15-.84-2.01c-.08-.85,.16-1.76,.7-2.73,1.01-1.63,2.14-3.47,3.4-5.53,1.26-2.05,2.54-4.19,3.84-6.4,1.3-2.21,2.6-4.42,3.9-6.63,1.3-2.21,2.51-4.27,3.64-6.17,.39-.7,.97-1.22,1.75-1.57,.78-.35,1.54-.49,2.3-.44s1.42,.34,1.98,.84c.56,.5,.84,1.26,.84,2.27,0,.62-.1,1.25-.29,1.89-.19,.64-.19,1.27,0,1.89,.47,1.55,.97,3.42,1.51,5.61,.54,2.19,.97,4.51,1.28,6.95,.12,.93,.2,1.94,.26,3.02,.06,1.09,.08,2.17,.06,3.26-.02,1.09-.09,2.14-.2,3.17-.12,1.03-.27,1.93-.47,2.7,1.01-.47,1.9-1.05,2.68-1.75,.78-.7,1.51-1.57,2.21-2.62s1.39-2.3,2.07-3.75c.68-1.45,1.41-3.17,2.18-5.15,.39-1.01,.94-1.6,1.66-1.77,.72-.17,1.42-.12,2.09,.17,.68,.29,1.24,.74,1.69,1.34,.45,.6,.59,1.17,.44,1.72-.35,1.2-.85,2.57-1.51,4.1-.66,1.53-1.49,3.07-2.5,4.62-.66,1.01-1.37,2-2.12,2.97-.76,.97-1.57,1.86-2.44,2.68s-1.81,1.53-2.82,2.15c-1.01,.62-2.06,1.11-3.14,1.45-1.67,.66-3.37,1.01-5.09,1.05-1.73,.04-3.4-.17-5.03-.64-1.9-.54-3.64-1.41-5.21-2.59s-2.86-2.68-3.87-4.51l-.41,.41Zm11.4-18.61c-.54,.89-1.07,1.78-1.57,2.68-.5,.89-1.01,1.78-1.51,2.68-.5,.93-1.02,1.87-1.54,2.82-.52,.95-1.12,1.95-1.77,3,.19,.47,.48,1.09,.87,1.86,.39,.78,.89,1.55,1.51,2.33,.54,.7,1.15,1.34,1.83,1.92,.68,.58,1.41,.97,2.18,1.16,.31-.47,.54-1.05,.7-1.75,.15-.7,.26-1.48,.32-2.36s.07-1.8,.03-2.79c-.04-.99-.1-1.99-.17-3-.12-1.67-.27-3.27-.47-4.8-.19-1.53-.33-2.78-.41-3.75Z"/>
</svg>