<?xml version="1.0" encoding="UTF-8"?>
<svg id="Capa_1" data-name="Capa 1" xmlns="http://www.w3.org/2000/svg" viewBox="0 0 223.56 98.33">
  <defs>
    <style>
      .cls-1 {
        fill: #f6933a;
      }

      .cls-2 {
        fill: #fff;
      }

      .cls-3 {
        fill: #743a32;
      }
    </style>
  </defs>
  <path class="cls-3" d="M.18,39.69c-.35-1.25-.19-2.33,.48-3.23,.67-.9,1.53-1.58,2.58-2.03,1.05-.45,2.08-.63,3.11-.54,1.02,.09,1.72,.53,2.09,1.32,.74,1.07,1.56,1.77,2.43,2.11,.88,.34,1.69,.35,2.44,.02s1.36-.94,1.83-1.83c.48-.89,.7-2.07,.68-3.55-.18-1.25,.08-2.4,.79-3.45,.71-1.05,1.57-1.86,2.58-2.42,1.01-.56,2.04-.84,3.09-.84,1.05,0,1.82,.4,2.31,1.21l.9,2.77c.97-1.56,2.3-3.01,4-4.33s3.55-2.35,5.56-3.09c2-.74,4.07-1.14,6.21-1.21,2.14-.07,4.11,.31,5.91,1.14,2.13,.96,4.03,2.34,5.7,4.15,1.67,1.82,3.06,3.9,4.17,6.27s1.95,4.89,2.51,7.58c.56,2.69,.84,5.34,.84,7.95,0,2.62-.3,5.11-.88,7.49-.59,2.38-1.49,4.42-2.69,6.12-1.62,2.35-3.47,4.23-5.54,5.64-2.07,1.41-4.16,2.41-6.27,2.98-2.11,.58-4.15,.74-6.1,.5-1.95-.24-3.62-.91-5-2l5.75,24.98c-.13,1.01-.67,1.91-1.63,2.71-.96,.8-2.03,1.34-3.21,1.65-1.18,.3-2.32,.29-3.42-.04-1.1-.32-1.84-1.16-2.23-2.51-.27-.65-.65-2.09-1.15-4.31-.5-2.22-1.04-4.89-1.62-8-.59-3.1-1.22-6.49-1.9-10.16-.68-3.67-1.37-7.28-2.04-10.84-.68-3.56-1.3-6.91-1.87-10.05-.57-3.14-1.07-5.72-1.5-7.74-1.26,1.38-2.81,2.24-4.66,2.58s-3.71,.3-5.59-.14c-1.88-.44-3.62-1.25-5.23-2.43-1.61-1.18-2.75-2.65-3.44-4.42Zm42.85-9.78c-2.87-.77-5.31-.47-7.34,.9-2.03,1.37-3.58,3.36-4.67,5.95-1.09,2.6-1.65,5.57-1.7,8.91-.05,3.34,.51,6.61,1.66,9.82,.32,.98,1.13,2.03,2.44,3.17,1.31,1.14,2.83,1.92,4.56,2.35,1.73,.43,3.59,.29,5.58-.41,1.99-.7,3.83-2.38,5.52-5.04,.64-1,1.13-2.29,1.47-3.85s.52-3.24,.53-5.03-.14-3.61-.45-5.44c-.31-1.83-.81-3.53-1.49-5.1s-1.53-2.91-2.55-4.03c-1.02-1.12-2.21-1.85-3.57-2.2Z"/>
  <path class="cls-3" d="M66.8,50.96c.8-1.35,1.76-2.28,2.87-2.8,1.11-.51,2.2-.65,3.26-.41,1.06,.24,1.96,.84,2.7,1.78,.74,.95,1.11,2.2,1.11,3.77-.17,.65-.49,1.95-.94,3.89-.46,1.95-.96,4.19-1.5,6.73-.54,2.54-1.07,5.23-1.59,8.07s-.86,5.44-1.03,7.82c-.17,2.38-.13,4.38,.13,6s.84,2.51,1.76,2.67c1.66,.27,3.2-.32,4.63-1.78,1.43-1.46,2.74-3.39,3.94-5.79,1.2-2.4,2.29-5.09,3.26-8.07,.97-2.97,1.81-5.82,2.53-8.55,.71-2.73,1.3-5.15,1.76-7.25,.46-2.11,.8-3.51,1.03-4.21,.4-1.35,.93-2.46,1.59-3.32,.66-.86,1.67-1.57,3.04-2.11,2-.21,3.56,.18,4.67,1.18,1.11,1,1.7,2.45,1.76,4.34-.46,2.11-.97,4.35-1.54,6.73-.57,2.38-1.11,4.74-1.63,7.09-.51,2.35-.94,4.62-1.29,6.81s-.56,4.15-.64,5.88c-.09,1.73,0,3.19,.26,4.38,.26,1.19,.79,1.95,1.59,2.27,1.83,.27,3.47-.62,4.93-2.67,1.46-2.05,3.01-5.4,4.67-10.05,.51-1.19,1.29-1.92,2.32-2.19,1.03-.27,1.99-.2,2.87,.2,.89,.41,1.57,1.12,2.06,2.15,.49,1.03,.47,2.27-.04,3.73-.34,.92-.77,1.99-1.29,3.2s-1.13,2.47-1.84,3.77c-.72,1.3-1.5,2.59-2.36,3.89s-1.13,2.9-2.1,3.93c-1.43,1.62-3.18,2.54-4.95,3.22-1.77,.68-4.01,.69-5.72,.47-1.71-.21-3.34-.89-4.89-2.03s-2.8-2.73-3.77-4.78c-1.03,1.41-2.07,2.7-3.13,3.89-1.06,1.19-2.23,2.22-3.52,3.08-1.29,.86-2.72,1.5-4.29,1.9-1.57,.41-3.42,.55-5.53,.45-2.06-.11-3.76-.65-5.1-1.62-1.34-.97-2.39-2.21-3.13-3.73-.74-1.51-1.26-3.17-1.54-4.98-.29-1.81-.43-3.63-.43-5.47s.07-3.58,.21-5.23c.14-1.65,.27-3.04,.39-4.17,.17-1.46,.44-3.16,.81-5.11,.37-1.95,.77-3.93,1.2-5.96s.87-4,1.33-5.92c.46-1.92,.83-3.61,1.11-5.07Z"/>
  <path class="cls-3" d="M104.12,93.5c-.94-.41-.77-1.41-1.42-2.11-.65-.7-.84-1.38-.57-2.03,.38-.92,.87-2.11,1.46-3.57,.6-1.46,1.32-3.58,2.19-6.36,.87-2.78,1.85-6.46,2.96-11.02,1.11-4.57,2.36-10.39,3.77-17.47,.22-1.73,.82-2.97,1.82-3.73,1-.76,2.09-1.08,3.28-.97,.7,.05,1.38,.23,2.03,.53,.65,.3,1.2,.73,1.66,1.3,.46,.57,.8,1.24,1.01,2.03,.22,.78,.22,1.66,0,2.63,.97,1.13,1.93,2.09,2.88,2.88,.94,.78,1.95,1.45,3,1.99,1.05,.54,2.19,1.01,3.4,1.42s2.61,.82,4.17,1.26c1.08,.7,1.78,1.41,2.11,2.11,.32,.7,.43,1.45,.32,2.23-.11,.78-.35,1.62-.73,2.51-.38,.89-.73,1.85-1.05,2.88-.16,.6-.35,1.46-.57,2.59-.22,1.13-.39,2.39-.53,3.77-.14,1.38-.23,2.8-.28,4.25-.05,1.46-.01,2.8,.12,4.01,.13,1.22,.39,2.24,.77,3.08,.38,.84,.92,1.31,1.62,1.42,2.27,.43,4.4-.92,6.4-4.05,2-3.13,3.92-8.27,5.75-15.4,.27-1.3,.85-2.16,1.74-2.59,.89-.43,1.81-.57,2.76-.41s1.76,.57,2.43,1.22,.9,1.43,.69,2.35c-.32,2-.81,4.21-1.46,6.65s-1.5,4.85-2.55,7.25c-1.05,2.41-2.31,4.67-3.77,6.81-1.46,2.13-3.16,3.88-5.11,5.23-1.46,1.03-3.04,1.69-4.74,1.99s-3.36,.22-4.98-.24c-1.62-.46-3.09-1.27-4.42-2.43-1.32-1.16-2.28-2.66-2.88-4.5-1.24-3.73-1.76-7.55-1.54-11.47,.22-3.92,.81-7.82,1.78-11.71-1.24-.54-2.62-1.12-4.13-1.74-1.51-.62-2.81-1.34-3.89-2.15-1.89,5.95-3.38,10.67-4.46,14.18-1.08,3.51-1.25,4.38-1.9,6.33s-.17,2.15-3.3,5.78c-2.4,2.78-4.91,3.71-5.86,3.3Z"/>
  <path class="cls-3" d="M153.08,50.16c1.08-1.08,2.19-1.69,3.32-1.82,1.13-.13,2.13,.05,3,.57,.86,.51,1.5,1.27,1.9,2.27,.4,1,.45,2.09,.12,3.28-.54,1.13-1.05,2.62-1.54,4.46-.49,1.84-.92,3.78-1.3,5.84-.38,2.05-.68,4.16-.89,6.32-.22,2.16-.31,4.13-.28,5.92s.2,3.32,.53,4.62,.84,2.11,1.54,2.43c.7,.32,1.45,.39,2.23,.2,.78-.19,1.62-.77,2.51-1.74,.89-.97,1.85-2.43,2.88-4.38,1.03-1.95,2.11-4.57,3.24-7.86,.43-.81,1.04-1.31,1.82-1.5,.78-.19,1.54-.15,2.27,.12,.73,.27,1.3,.74,1.7,1.42,.41,.68,.47,1.47,.2,2.39-.49,1.89-1.28,4.16-2.39,6.81-1.11,2.65-2.5,5.13-4.17,7.46-1.68,2.32-3.6,4.17-5.76,5.55-2.16,1.38-4.51,1.71-7.05,1.01-2.27-.65-4.05-1.96-5.35-3.93-1.3-1.97-2.22-4.31-2.76-7.01-.54-2.7-.76-5.63-.65-8.79s.39-6.23,.85-9.2c.46-2.97,1.05-5.74,1.78-8.31,.73-2.57,1.47-4.61,2.23-6.12Zm2.35-7.38c-1.08-1.46-1.5-2.86-1.26-4.21,.24-1.35,.84-2.39,1.78-3.12s2.08-1.04,3.4-.93c1.32,.11,2.55,.92,3.69,2.43,.76,1.24,.96,2.47,.61,3.69s-.97,2.19-1.86,2.92c-.89,.73-1.95,1.09-3.16,1.09s-2.28-.62-3.2-1.86Z"/>
  <path class="cls-3" d="M171.19,57.12c.27-1.78,.92-3.08,1.95-3.89,1.03-.81,2.11-1.17,3.24-1.09s2.15,.61,3.04,1.58c.89,.97,1.36,2.35,1.42,4.13v1.78c.97-1.3,2.05-2.59,3.24-3.89,1.19-1.3,2.47-2.44,3.85-3.44,1.38-1,2.9-1.73,4.58-2.19,1.67-.46,3.49-.5,5.43-.12,2,.43,3.61,1.28,4.82,2.55,1.21,1.27,2.12,2.81,2.71,4.62,.59,1.81,.94,3.8,1.05,5.96,.11,2.16,.09,4.34-.04,6.53-.14,2.19-.34,4.32-.61,6.4-.27,2.08-.5,3.93-.69,5.55-.19,1.62-.27,2.93-.24,3.93,.03,1,.28,1.53,.77,1.58,.81,.11,1.69-.11,2.63-.65,.95-.54,1.91-1.42,2.88-2.63s1.92-2.76,2.84-4.62c.92-1.86,1.7-4.07,2.35-6.61,.27-1.13,.85-1.77,1.74-1.9,.89-.13,1.77,.03,2.63,.49,.86,.46,1.59,1.15,2.19,2.07,.59,.92,.73,1.86,.41,2.84-1.03,3.08-2.23,5.96-3.61,8.63-1.38,2.67-2.91,4.96-4.58,6.85-1.68,1.89-3.5,3.31-5.47,4.26-1.97,.94-4.04,1.2-6.2,.77-2.16-.43-3.82-1.26-4.98-2.47-1.16-1.22-1.99-2.67-2.47-4.38s-.7-3.57-.65-5.59c.05-2.03,.21-4.09,.49-6.2,.27-2.11,.57-4.16,.89-6.16,.32-2,.51-3.81,.57-5.43,.05-1.62-.08-2.98-.41-4.09-.32-1.11-1.03-1.8-2.11-2.07-1.46-.38-2.87-.08-4.21,.89-1.35,.97-2.61,2.39-3.77,4.26-1.16,1.86-2.23,4.01-3.2,6.44s-1.81,4.92-2.51,7.46c-.7,2.54-1.26,5.01-1.66,7.42-.4,2.41-.64,4.45-.69,6.12-.16,.76-.7,1.42-1.62,1.99-.92,.57-1.92,.91-3,1.01-1.08,.11-2.12-.11-3.12-.65-1-.54-1.63-1.57-1.9-3.08-.05-.97-.03-2.09,.08-3.36,.11-1.27,.27-3.13,.49-5.59,.22-2.46,.45-5.74,.69-9.85,.24-4.11,.5-9.48,.77-16.13Z"/>
  <path class="cls-2" d="M149.99,8.97c-.24,0-.5,.01-1.38,.12-1.04,.12-1.34,.12-1.37,.12-.47,0-.73-.03-.84-.05-.78-.13-1.44-.19-2-.19-1.04,0-2.15,.24-3.13,.79-.95-.55-2.03-.79-3.04-.79-.48,0-1.1,.06-1.96,.19-.06,0-.42,.05-1.52,.05-.12,0-.5,0-1.34-.1-.91-.1-1.57-.14-2.09-.14-1.36,0-2.72,.42-3.78,1.34V5.21C127.54,1.63,125.02,0,122.67,0l-2.47,.27s-.31,.04-1.05-.05C117.61,.02,117.04,0,116.69,0,114.01,0,110.89,1.68,110.89,6.44c0,3.4,1.58,5.15,3.38,5.82v3.77c-.37-1.89-1.14-3.51-2.29-4.86-1.82-2.15-4.34-3.28-7.29-3.28-1.32,0-2.99,.25-4.75,1.19-.61-.3-1.31-.46-2.07-.46-.27,0-.65,.02-1.14,.07-.2,.02-.36,.03-.47,.03-.19,0-.67-.02-1.74-.13-.79-.08-1.28-.12-1.64-.12-1.91,0-4.04,.87-5.09,3.12-2.24-2.36-5.29-3.6-8.88-3.6-4.19,0-7.64,1.64-9.97,4.75-2.14,2.85-3.23,6.76-3.23,11.63s1.09,8.69,3.23,11.52c2.34,3.09,5.75,4.72,9.87,4.72,3.68,0,6.77-1.3,9.02-3.77,1.08,2.26,3.25,3.13,5.19,3.13,.5,0,1.14-.04,2.01-.14,.83-.09,1.15-.1,1.23-.1,.14,0,.5,.01,1.31,.1,.88,.1,1.54,.14,2.07,.14,.92,0,1.89-.21,2.76-.7,.88,.49,1.85,.7,2.78,.7,.5,0,1.13-.04,2-.14,.81-.09,1.13-.1,1.23-.1,.45,0,.92,.03,1.38,.08,1.33,.14,1.8,.16,2.1,.16,.88,0,1.71-.19,2.46-.55,.82,.38,1.7,.55,2.54,.55,.51,0,1.2-.04,2.16-.13,.92-.1,1.31-.11,1.46-.11,.7,0,1.35,.03,1.92,.08,1.5,.15,2.07,.16,2.4,.16,.05,0,.09,0,.14-.01,.38,1.62,1.21,3.07,2.46,4.26,1.72,1.65,3.95,2.52,6.44,2.52,2.11,0,4.19-.65,6.17-1.94,1.86-1.21,3.37-2.81,4.5-4.76,1.51-2.63,2.79-5.67,3.8-9.05l3.97-9.76c1.92-.58,3.68-2.35,3.68-5.97s-2.41-6.29-6-6.29Z"/>
  <path class="cls-1" d="M78.92,37.17c-3.04,0-5.4-1.11-7.08-3.33-1.68-2.22-2.52-5.36-2.52-9.41s.84-7.29,2.52-9.53c1.68-2.24,4.07-3.36,7.18-3.36s5.33,1.09,6.98,3.26c1.65,2.17,2.47,5.22,2.47,9.14,0,4.25-.83,7.51-2.47,9.8-1.65,2.29-4.01,3.43-7.08,3.43Zm.1-19.75c-2.09,0-3.19,2.17-3.28,6.52-.03,.13-.05,.31-.05,.54,0,2.09,.29,3.75,.86,4.97,.57,1.22,1.35,1.84,2.33,1.84,2.12,0,3.18-2.32,3.18-6.96,0-2.12-.27-3.8-.81-5.05-.54-1.24-1.28-1.86-2.23-1.86Z"/>
  <path class="cls-1" d="M99.06,13.41v1.03c1.67-1.99,3.58-2.99,5.73-2.99,1.93,0,3.47,.68,4.63,2.05s1.74,3.22,1.74,5.56v10c0,1.37,.25,2.05,.73,2.05h.93c1.04,0,1.57,.78,1.57,2.35,0,.92-.22,1.66-.66,2.23-.44,.57-1.02,.86-1.74,.86-.26,0-.83-.05-1.72-.15-.59-.07-1.18-.1-1.76-.1-.36,0-.9,.04-1.62,.12s-1.26,.12-1.62,.12c-1.37,0-2.06-.95-2.06-2.84,0-1.21,.29-1.98,.86-2.3,.57-.33,.86-1.03,.86-2.11v-7.59c0-2.58-.75-3.87-2.25-3.87-1.6,0-2.4,1.44-2.4,4.31v7.01c0,1.18,.27,1.92,.81,2.23,.54,.31,.81,.99,.81,2.03,0,2.09-.72,3.14-2.16,3.14-.39,0-.96-.04-1.69-.12-.74-.08-1.3-.12-1.69-.12-.36,0-.9,.04-1.62,.12-.72,.08-1.26,.12-1.62,.12-1.6,0-2.4-1.03-2.4-3.09,0-1.57,.54-2.35,1.62-2.35h.96c.5,0,.76-.68,.76-2.04v-9.54c0-1.36-.21-2.04-.64-2.04-.1,0-.26,.02-.49,.07s-.41,.07-.54,.07c-1.11,0-1.67-.88-1.67-2.65,0-1.96,.75-2.94,2.25-2.94,.23,0,.65,.03,1.27,.1,.95,.1,1.65,.15,2.11,.15,.2,0,.47-.02,.81-.05,.34-.03,.61-.05,.81-.05,.72,0,1.08,.41,1.08,1.22Z"/>
  <path class="cls-1" d="M122.78,3.56c.91,0,1.37,.57,1.37,1.71V29.04c0,1.37,.26,2.05,.78,2.05h.88c1.04,0,1.57,.77,1.57,2.3,0,2.09-.82,3.14-2.45,3.14-.36,0-1.05-.05-2.06-.15-.69-.07-1.44-.1-2.25-.1-.39,0-1,.04-1.81,.12-.82,.08-1.42,.12-1.81,.12-1.57,0-2.35-1.03-2.35-3.09,0-1.57,.51-2.35,1.52-2.35h.93c.52,0,.78-.68,.78-2.05V11.04c0-1.37-.21-2.05-.64-2.05-.13,0-.31,.02-.54,.07-.23,.05-.39,.07-.49,.07-1.14,0-1.71-.88-1.71-2.65,0-1.96,.77-2.94,2.3-2.94,.33,0,1,.07,2.01,.2,.82,.1,1.47,.11,1.96,.05l1.86-.25h.15Z"/>
  <path class="cls-1" d="M139.12,19.34l2.15,5.53,2.26-5.53c.1-.42,.15-.7,.15-.83,0-.26-.25-.51-.74-.74-.69-.29-1.03-.98-1.03-2.06,0-2.12,.87-3.19,2.6-3.19,.36,0,.83,.05,1.42,.15,.39,.07,.87,.1,1.42,.1,.33,0,.91-.05,1.76-.15,.56-.07,.88-.1,.98-.1,1.67,0,2.5,.93,2.5,2.79s-.57,2.7-1.71,2.7h-.59c-.33,0-.56,.23-.69,.69l-.2,.68-4.26,10.51c-.95,3.2-2.12,6.02-3.53,8.46-.85,1.47-1.98,2.66-3.38,3.57s-2.83,1.37-4.26,1.37c-1.6,0-2.94-.51-4.02-1.54-1.08-1.03-1.62-2.31-1.62-3.85,0-1.14,.34-2.12,1.03-2.92,.69-.8,1.54-1.2,2.55-1.2,.88,0,1.59,.32,2.13,.96s.81,1.46,.81,2.47v.83c1.08-.42,1.94-1.67,2.6-3.72,.2-.62,.29-1.16,.29-1.62,0-.2-.03-.46-.1-.78l-5.09-12.88c-.2-.62-.42-.96-.69-1.03h-.83c-1.27,0-1.91-.9-1.91-2.7s.77-2.79,2.3-2.79c.39,0,.96,.04,1.71,.12,.75,.08,1.32,.12,1.71,.12,.95,0,1.63-.03,2.06-.1,.65-.1,1.13-.15,1.42-.15,1.57,0,2.35,1,2.35,2.99,0,1.27-.39,2.06-1.18,2.35-.39,.2-.59,.41-.59,.64v.05l.2,.78Z"/>
</svg>