<?xml version="1.0" encoding="UTF-8"?>
<svg id="Capa_1" data-name="Capa 1" xmlns="http://www.w3.org/2000/svg" viewBox="0 0 345.35 48.29">
  <defs>
    <style>
      .cls-1 {
        fill: #fff;
      }
    </style>
  </defs>
  <path class="cls-1" d="M3.94,45.57c-.8,.4-1.51,.44-2.14,.12-.63-.32-1.1-.8-1.42-1.44-.32-.65-.43-1.35-.35-2.09,.08-.75,.42-1.35,1.02-1.82,.96-.56,1.92-1.25,2.89-2.07,.96-.81,1.92-1.7,2.89-2.67-.03-.56,.03-1.06,.2-1.49,.17-.43,.4-.8,.7-1.1s.64-.51,1.02-.65c.38-.13,.79-.17,1.22-.1,1.76-2.06,3.44-4.19,5.03-6.4,1.59-2.21,3.02-4.31,4.28-6.3-.47-1.29-.86-2.59-1.2-3.88-.4-1.53-.67-3.19-.82-4.98-.15-1.79-.02-3.45,.4-4.98,.42-1.53,1.19-2.77,2.32-3.74,1.13-.96,2.77-1.36,4.93-1.2,1.46,.1,2.57,.54,3.34,1.32,.76,.78,1.26,1.77,1.49,2.96,.23,1.2,.26,2.51,.07,3.93-.18,1.43-.49,2.86-.92,4.28-.43,1.43-.93,2.77-1.49,4.03-.57,1.26-1.1,2.31-1.59,3.14,.5,1.39,1.02,2.82,1.57,4.28,.55,1.46,1.04,2.95,1.49,4.46,.45,1.51,.81,3.05,1.1,4.61,.28,1.56,.41,3.14,.37,4.73,.7-.43,1.4-.94,2.12-1.52,.71-.58,1.39-1.22,2.02-1.92,.63-.7,1.21-1.44,1.74-2.22,.53-.78,.96-1.57,1.29-2.37,.33-.8,.8-1.26,1.39-1.39,.6-.13,1.16-.07,1.69,.2,.53,.27,.92,.69,1.17,1.27,.25,.58,.21,1.22-.12,1.92-1.29,3.09-3.07,5.65-5.33,7.69-2.26,2.04-4.81,3.46-7.67,4.26-1.26,.37-2.7,.56-4.31,.6-1.61,.03-3.25-.11-4.91-.42-1.66-.32-3.29-.82-4.88-1.52s-2.99-1.61-4.18-2.74c-.43,.4-.91,.83-1.42,1.29-.52,.47-1.05,.93-1.62,1.39-.57,.47-1.14,.91-1.72,1.34s-1.14,.81-1.67,1.15ZM21.87,25.89c-1.23,1.69-2.5,3.45-3.81,5.28-1.31,1.83-2.66,3.59-4.06,5.28,1.29,1.29,2.81,2.26,4.56,2.89,1.74,.63,3.63,.75,5.65,.35,.33-1.39,.43-2.82,.3-4.28-.13-1.46-.37-2.83-.7-4.11-.33-1.28-.69-2.4-1.07-3.36-.38-.96-.67-1.64-.87-2.04Zm2.34-20.47c-.7-.13-1.18,.12-1.44,.77-.27,.65-.39,1.44-.37,2.39,.02,.95,.12,1.92,.32,2.91s.4,1.76,.6,2.29c.33-.37,.64-.99,.92-1.87,.28-.88,.49-1.78,.62-2.71,.13-.93,.16-1.77,.07-2.51-.08-.75-.32-1.17-.72-1.27Z"/>
  <path class="cls-1" d="M53.44,14.79c1.53-.5,2.86-.6,4.01-.3,1.14,.3,2.1,.88,2.86,1.74,.76,.86,1.37,1.93,1.82,3.21,.45,1.28,.75,2.63,.92,4.06,.07,.67,.11,1.39,.12,2.19s0,1.59-.05,2.39c-.05,.8-.12,1.56-.2,2.29-.08,.73-.19,1.39-.32,1.99,.8-.03,1.51-.14,2.14-.32,.63-.18,1.21-.4,1.74-.65,.53-.25,1.04-.52,1.52-.82,.48-.3,.97-.58,1.47-.85,.63-.33,1.15-.37,1.57-.12,.42,.25,.7,.62,.85,1.12,.15,.5,.18,1.04,.1,1.62-.08,.58-.31,1.04-.67,1.37-1.59,1.46-3.34,2.51-5.23,3.16-1.89,.65-3.82,.97-5.78,.97-1.29,2.29-2.96,4.03-4.98,5.21-2.03,1.18-4.23,1.78-6.62,1.82-2.22,.03-4.1-.42-5.63-1.34-1.53-.93-2.74-2.14-3.64-3.64s-1.49-3.2-1.77-5.1-.28-3.84,0-5.78c.28-1.94,.85-3.84,1.69-5.68,.85-1.84,1.93-3.44,3.26-4.81,1.33-1.36,2.9-2.4,4.71-3.11,1.81-.71,3.84-.92,6.1-.62Zm-3.59,5.73c-1.06,.23-2.04,.82-2.94,1.77-.9,.95-1.66,2.08-2.29,3.39-.63,1.31-1.08,2.73-1.34,4.26-.27,1.53-.29,2.96-.07,4.31,.21,1.35,.72,2.52,1.52,3.51s1.94,1.64,3.44,1.94c.53,.1,1.13,.05,1.79-.15,.66-.2,1.31-.5,1.94-.9,.63-.4,1.2-.87,1.72-1.42,.51-.55,.9-1.1,1.17-1.67-.93-.56-1.72-1.25-2.37-2.04-.65-.8-1.2-1.68-1.67-2.64-.73-1.59-1.16-3.29-1.29-5.11-.13-1.81,0-3.56,.4-5.25Zm6.18,.25c-.93,.57-1.45,1.35-1.57,2.37-.12,1.01-.03,2.04,.27,3.09,.3,1.04,.71,1.98,1.25,2.81,.53,.83,.98,1.34,1.34,1.54,.2-.17,.36-.56,.47-1.17s.19-1.32,.22-2.12c.03-.8,.02-1.63-.05-2.49-.07-.86-.18-1.63-.35-2.29-.17-.66-.38-1.17-.65-1.52-.27-.35-.58-.42-.95-.22Z"/>
  <path class="cls-1" d="M83.67,2.09c1.79,.93,2.98,2.14,3.56,3.64s.71,3.15,.37,4.96c-.33,1.81-1.02,3.7-2.07,5.68-1.04,1.98-2.28,3.9-3.71,5.78-1.43,1.88-2.96,3.63-4.58,5.25s-3.19,2.99-4.68,4.08c0,.57,.02,1.27,.08,2.12,.05,.85,.19,1.67,.42,2.46,.23,.8,.58,1.49,1.05,2.07,.46,.58,1.11,.87,1.94,.87s1.63-.32,2.49-.97c.86-.65,1.68-1.41,2.47-2.29,.78-.88,1.48-1.77,2.09-2.66,.61-.9,1.05-1.59,1.32-2.09,.3-.53,.51-1.21,.65-2.04,.13-.83,.32-1.63,.57-2.39,.25-.76,.6-1.42,1.05-1.97,.45-.55,1.15-.82,2.12-.82,.6,0,1.15,.21,1.67,.62,.51,.42,.87,1,1.07,1.77,.53,.47,1.07,.71,1.62,.75,.55,.03,1.06-.03,1.54-.17,.48-.15,.89-.33,1.22-.55,.33-.21,.55-.34,.65-.37,.66-.27,1.3-.32,1.92-.17,.61,.15,1.1,.42,1.45,.82,.35,.4,.52,.89,.52,1.47s-.27,1.17-.8,1.77c-.63,.67-1.34,1.18-2.14,1.54-.8,.37-1.59,.61-2.39,.72-.8,.12-1.57,.12-2.32,0-.75-.12-1.37-.32-1.87-.62-.53,1.36-1.32,2.84-2.37,4.43-1.05,1.59-2.23,3.06-3.56,4.41-1.33,1.34-2.75,2.46-4.26,3.36s-2.98,1.34-4.41,1.34c-1.93,0-3.52-.4-4.78-1.2-1.26-.8-2.26-1.86-2.99-3.19-.73-1.33-1.25-2.84-1.54-4.53s-.45-3.42-.45-5.18c0-.8,.07-1.9,.2-3.31,.13-1.41,.35-3,.65-4.76,.3-1.76,.69-3.6,1.17-5.53,.48-1.92,1.05-3.79,1.72-5.58,.66-1.79,1.43-3.45,2.29-4.98,.86-1.53,1.85-2.76,2.96-3.71,1.11-.95,2.34-1.53,3.69-1.74,1.35-.21,2.81,.09,4.41,.92Zm-2.89,5.48c-.5-.23-.99-.12-1.47,.32-.48,.45-.96,1.11-1.42,1.99-.47,.88-.92,1.91-1.37,3.09-.45,1.18-.88,2.41-1.29,3.69-.42,1.28-.8,2.53-1.15,3.76-.35,1.23-.66,2.32-.92,3.29,.73-.63,1.49-1.44,2.27-2.44,.78-1,1.53-2.05,2.24-3.16,.71-1.11,1.37-2.25,1.97-3.41,.6-1.16,1.05-2.23,1.37-3.21,.31-.98,.47-1.82,.47-2.52s-.23-1.16-.7-1.39Z"/>
  <path class="cls-1" d="M95.98,44.42c-.33,.56-.81,.87-1.42,.92-.61,.05-1.21-.05-1.79-.3-.58-.25-1.07-.59-1.47-1.02s-.51-.85-.35-1.25c.23-.56,.53-1.29,.9-2.19,.37-.9,.81-2.2,1.34-3.91,.53-1.71,1.14-3.97,1.82-6.77,.68-2.81,1.45-6.38,2.32-10.73,.13-1.06,.51-1.83,1.12-2.29,.61-.46,1.29-.66,2.02-.6,.43,.03,.85,.14,1.25,.32,.4,.18,.74,.45,1.02,.8,.28,.35,.49,.76,.62,1.25,.13,.48,.13,1.02,0,1.62,.6,.7,1.19,1.29,1.77,1.77s1.2,.89,1.84,1.22c.65,.33,1.34,.62,2.09,.87,.75,.25,1.6,.51,2.56,.77,.66,.43,1.1,.86,1.29,1.29,.2,.43,.27,.89,.2,1.37-.07,.48-.22,1-.45,1.54-.23,.55-.45,1.14-.65,1.77-.1,.37-.22,.9-.35,1.59-.13,.7-.24,1.47-.32,2.32-.08,.85-.14,1.72-.17,2.61-.03,.9,0,1.72,.08,2.47,.08,.75,.24,1.38,.47,1.89,.23,.51,.56,.8,1,.87,1.39,.27,2.71-.56,3.93-2.49,1.23-1.92,2.41-5.08,3.54-9.46,.17-.8,.52-1.33,1.07-1.59,.55-.27,1.11-.35,1.69-.25s1.08,.35,1.49,.75,.56,.88,.42,1.44c-.2,1.23-.5,2.59-.9,4.08s-.92,2.98-1.57,4.46c-.65,1.48-1.42,2.87-2.32,4.18-.9,1.31-1.94,2.38-3.14,3.21-.9,.63-1.87,1.04-2.91,1.22-1.05,.18-2.07,.13-3.06-.15-1-.28-1.9-.78-2.71-1.49-.81-.71-1.4-1.64-1.77-2.76-.76-2.29-1.08-4.64-.95-7.05,.13-2.41,.5-4.81,1.1-7.2-.76-.33-1.61-.69-2.54-1.07-.93-.38-1.73-.82-2.39-1.32-1.16,3.65-2.08,6.56-2.74,8.72-.67,2.16-1.2,3.83-1.59,5.03s-.69,2.03-.87,2.49c-.18,.47-.36,.81-.52,1.05Z"/>
  <path class="cls-1" d="M137.01,20.96c-.07,1.66-.37,3.33-.9,5-.53,1.68-1.31,3.19-2.34,4.53-1.03,1.34-2.28,2.42-3.76,3.24-1.48,.81-3.16,1.15-5.06,1.02,.03,1.03,.15,2.03,.35,2.99,.2,.96,.52,1.79,.97,2.46,.45,.68,1.05,1.16,1.82,1.45,.76,.28,1.73,.24,2.89-.12,1.16-.33,2.27-.88,3.34-1.64,1.06-.76,2.02-1.64,2.86-2.64,.85-1,1.56-2.05,2.14-3.16s1-2.2,1.27-3.26c.13-.56,.45-.91,.95-1.05,.5-.13,1.02-.12,1.57,.05,.55,.17,1.01,.46,1.39,.87s.51,.89,.37,1.42c-.73,1.93-1.45,3.64-2.17,5.13s-1.5,2.81-2.37,3.96c-.86,1.15-1.83,2.12-2.91,2.91s-2.35,1.46-3.81,1.99c-1.96,.7-3.77,1-5.43,.92-1.66-.08-3.11-.52-4.33-1.32-1.23-.8-2.2-1.92-2.91-3.39-.71-1.46-1.12-3.24-1.22-5.33-.07-1-.09-2.2-.07-3.61,.02-1.41,.11-2.89,.27-4.43,.17-1.54,.43-3.11,.8-4.71,.37-1.59,.86-3.08,1.49-4.46,.63-1.38,1.42-2.59,2.37-3.63,.95-1.05,2.1-1.8,3.46-2.27,1.13-.4,2.24-.55,3.34-.45s2.07,.45,2.91,1.05c.85,.6,1.52,1.44,2.02,2.51,.5,1.08,.73,2.4,.7,3.96Zm-6.28-1.29c-.47-.3-.92-.32-1.37-.08-.45,.25-.87,.67-1.27,1.25s-.75,1.27-1.05,2.07-.55,1.62-.75,2.46c-.2,.85-.35,1.65-.45,2.42-.1,.76-.12,1.38-.05,1.84,1.53-.3,2.74-.93,3.64-1.89,.9-.96,1.52-1.99,1.87-3.09,.35-1.1,.46-2.12,.35-3.09-.12-.96-.42-1.59-.92-1.89Z"/>
  <path class="cls-1" d="M156.79,12.7c-.67-.2-1.13-.64-1.39-1.32-.27-.68-.33-1.35-.2-1.99,.13-.65,.46-1.17,1-1.57,.53-.4,1.25-.43,2.14-.1,1.49,.3,2.71,.32,3.66,.05,.95-.27,1.72-.72,2.32-1.37,.6-.65,1.07-1.4,1.42-2.27,.35-.86,.67-1.74,.97-2.64,.27-.73,.76-1.19,1.49-1.37,.73-.18,1.45-.16,2.17,.07,.71,.23,1.29,.64,1.74,1.22,.45,.58,.52,1.25,.22,2.02-.1,.3-.16,.61-.17,.92-.02,.32-.11,.69-.27,1.12,1.06-.86,2.37-1.67,3.93-2.42,1.56-.75,3.15-1.2,4.78-1.37,1.79-.17,3.25,.05,4.38,.65,1.13,.6,2,1.45,2.62,2.57,.61,1.11,1,2.44,1.17,3.98,.17,1.54,.18,3.19,.05,4.93-.13,1.74-.37,3.54-.72,5.4-.35,1.86-.74,3.66-1.17,5.4-.43,1.74-.86,3.37-1.29,4.88-.43,1.51-.8,2.81-1.1,3.91-.43,1.59-.71,2.94-.82,4.03-.12,1.1,.06,1.81,.52,2.14,.27,.2,.65,.18,1.15-.05,.5-.23,1.03-.61,1.59-1.12,.56-.51,1.15-1.13,1.74-1.84s1.15-1.47,1.67-2.27c.51-.8,.95-1.59,1.32-2.39,.37-.8,.61-1.53,.75-2.19,.3-.56,.71-.85,1.25-.87,.53-.02,1.02,.17,1.47,.55,.45,.38,.79,.91,1.02,1.59,.23,.68,.2,1.42-.1,2.22-.3,.86-.7,1.83-1.2,2.89-.5,1.06-1.09,2.11-1.77,3.14-.68,1.03-1.44,2-2.29,2.91-.85,.91-1.76,1.68-2.74,2.29-.98,.61-2.02,1.02-3.11,1.22s-2.22,.1-3.39-.3c-1.03-.33-1.87-.88-2.52-1.64-.65-.76-1.12-1.66-1.42-2.69-.3-1.03-.43-2.17-.4-3.44,.03-1.26,.2-2.57,.5-3.93,.3-1.29,.71-2.85,1.22-4.66s1.03-3.68,1.54-5.6c.51-1.92,.98-3.83,1.39-5.73,.41-1.89,.66-3.58,.75-5.06,.08-1.48-.06-2.67-.42-3.59-.37-.91-1.05-1.35-2.04-1.32-.8,.03-1.67,.26-2.62,.67-.95,.42-1.88,.95-2.81,1.62-.93,.67-1.79,1.39-2.57,2.19s-1.4,1.59-1.87,2.39c-.13,.93-.32,2.12-.55,3.59-.23,1.46-.5,3.06-.8,4.81-.3,1.74-.62,3.56-.97,5.45-.35,1.89-.7,3.76-1.04,5.6-.35,1.84-.7,3.58-1.05,5.21-.35,1.63-.67,3.04-.97,4.23-.23,.86-.72,1.39-1.47,1.59-.75,.2-1.5,.18-2.27-.05-.76-.23-1.4-.62-1.92-1.17-.52-.55-.67-1.12-.47-1.72v-.05c.3-1.06,.68-2.61,1.15-4.66,.46-2.04,.96-4.4,1.49-7.07,.53-2.67,1.05-5.55,1.57-8.64s.97-6.21,1.37-9.36c-.57,.37-1.25,.62-2.04,.75-.8,.13-1.59,.19-2.37,.17-.78-.02-1.48-.08-2.09-.2-.62-.12-.99-.24-1.12-.37Z"/>
  <path class="cls-1" d="M207.94,14.79c1.53-.5,2.86-.6,4.01-.3,1.14,.3,2.1,.88,2.86,1.74,.76,.86,1.37,1.93,1.82,3.21,.45,1.28,.75,2.63,.92,4.06,.07,.67,.11,1.39,.12,2.19s0,1.59-.05,2.39c-.05,.8-.12,1.56-.2,2.29-.08,.73-.19,1.39-.32,1.99,.8-.03,1.51-.14,2.14-.32,.63-.18,1.21-.4,1.74-.65,.53-.25,1.04-.52,1.52-.82,.48-.3,.97-.58,1.47-.85,.63-.33,1.15-.37,1.57-.12,.42,.25,.7,.62,.85,1.12,.15,.5,.18,1.04,.1,1.62-.08,.58-.31,1.04-.67,1.37-1.59,1.46-3.34,2.51-5.23,3.16-1.89,.65-3.82,.97-5.78,.97-1.29,2.29-2.96,4.03-4.98,5.21-2.03,1.18-4.23,1.78-6.62,1.82-2.22,.03-4.1-.42-5.63-1.34-1.53-.93-2.74-2.14-3.64-3.64s-1.49-3.2-1.77-5.1-.28-3.84,0-5.78c.28-1.94,.85-3.84,1.69-5.68,.85-1.84,1.93-3.44,3.26-4.81,1.33-1.36,2.9-2.4,4.71-3.11,1.81-.71,3.84-.92,6.1-.62Zm-3.59,5.73c-1.06,.23-2.04,.82-2.94,1.77-.9,.95-1.66,2.08-2.29,3.39-.63,1.31-1.08,2.73-1.34,4.26-.27,1.53-.29,2.96-.07,4.31,.21,1.35,.72,2.52,1.52,3.51s1.94,1.64,3.44,1.94c.53,.1,1.13,.05,1.79-.15,.66-.2,1.31-.5,1.94-.9,.63-.4,1.2-.87,1.72-1.42,.51-.55,.9-1.1,1.17-1.67-.93-.56-1.72-1.25-2.37-2.04-.65-.8-1.2-1.68-1.67-2.64-.73-1.59-1.16-3.29-1.29-5.11-.13-1.81,0-3.56,.4-5.25Zm6.18,.25c-.93,.57-1.45,1.35-1.57,2.37-.12,1.01-.03,2.04,.27,3.09,.3,1.04,.71,1.98,1.25,2.81,.53,.83,.98,1.34,1.34,1.54,.2-.17,.36-.56,.47-1.17s.19-1.32,.22-2.12c.03-.8,.02-1.63-.05-2.49-.07-.86-.18-1.63-.35-2.29-.17-.66-.38-1.17-.65-1.52-.27-.35-.58-.42-.95-.22Z"/>
  <path class="cls-1" d="M220.74,41.33c-.8,.5-1.54,.72-2.22,.67-.68-.05-1.23-.28-1.64-.7-.42-.41-.66-.99-.72-1.72-.07-.73,.13-1.51,.6-2.34,.86-1.39,1.83-2.97,2.91-4.73,1.08-1.76,2.17-3.59,3.29-5.48,1.11-1.89,2.22-3.79,3.34-5.68s2.15-3.65,3.11-5.28c.33-.6,.83-1.05,1.49-1.34,.66-.3,1.32-.42,1.97-.37,.65,.05,1.21,.29,1.69,.72,.48,.43,.72,1.08,.72,1.94,0,.53-.08,1.07-.25,1.62-.17,.55-.17,1.09,0,1.62,.4,1.33,.83,2.93,1.29,4.81,.46,1.88,.83,3.86,1.1,5.95,.1,.8,.17,1.66,.22,2.59,.05,.93,.07,1.86,.05,2.79-.02,.93-.08,1.83-.17,2.71-.1,.88-.23,1.65-.4,2.32,.86-.4,1.63-.9,2.29-1.49,.66-.6,1.29-1.34,1.89-2.24s1.19-1.97,1.77-3.21c.58-1.25,1.2-2.71,1.87-4.41,.33-.86,.8-1.37,1.42-1.52,.61-.15,1.21-.1,1.79,.15,.58,.25,1.06,.63,1.44,1.14,.38,.52,.51,1,.37,1.47-.3,1.03-.73,2.2-1.29,3.51-.57,1.31-1.28,2.63-2.14,3.96-.57,.86-1.17,1.71-1.82,2.54-.65,.83-1.34,1.59-2.09,2.29-.75,.7-1.55,1.31-2.42,1.84-.86,.53-1.76,.95-2.69,1.25-1.43,.56-2.88,.86-4.36,.9-1.48,.03-2.91-.15-4.31-.55-1.63-.47-3.11-1.2-4.46-2.22-1.34-1.01-2.45-2.3-3.31-3.86l-.35,.35Zm9.76-15.94c-.47,.76-.91,1.53-1.34,2.29-.43,.76-.86,1.53-1.29,2.29-.43,.8-.87,1.6-1.32,2.42-.45,.81-.96,1.67-1.52,2.56,.17,.4,.42,.93,.75,1.59,.33,.67,.76,1.33,1.29,1.99,.46,.6,.99,1.15,1.57,1.64,.58,.5,1.2,.83,1.87,1,.27-.4,.46-.9,.6-1.49,.13-.6,.22-1.27,.27-2.02,.05-.75,.06-1.54,.03-2.39-.03-.85-.08-1.7-.15-2.57-.1-1.43-.23-2.8-.4-4.11-.17-1.31-.28-2.38-.35-3.21Z"/>
  <path class="cls-1" d="M243.35,18.47c-.73-.1-1.26-.43-1.59-1-.33-.56-.48-1.17-.45-1.82,.03-.65,.22-1.26,.57-1.84,.35-.58,.84-.94,1.47-1.07,.76-.07,1.39-.07,1.89,0,.5,.07,1.13,.07,1.89,0l1.74-9.66c.17-.63,.56-1.11,1.2-1.44,.63-.33,1.29-.47,1.97-.42,.68,.05,1.27,.3,1.77,.75,.5,.45,.7,1.15,.6,2.12l-1.44,8.67h7.32c.63,.07,1.12,.35,1.47,.85,.35,.5,.54,1.06,.57,1.69,.03,.63-.1,1.25-.4,1.87s-.76,1.05-1.39,1.32h-8.37c-.07,.7-.22,1.69-.45,2.99-.23,1.29-.47,2.71-.7,4.23-.23,1.53-.42,3.08-.55,4.66-.13,1.58-.15,3.01-.05,4.31s.37,2.36,.8,3.19c.43,.83,1.11,1.26,2.04,1.29,.83,.03,1.73-.07,2.69-.32,.96-.25,1.88-.69,2.74-1.32,.86-.63,1.64-1.48,2.34-2.54,.7-1.06,1.2-2.42,1.49-4.08,.1-.83,.43-1.38,1-1.64,.56-.27,1.15-.33,1.77-.2,.61,.13,1.14,.42,1.59,.87s.6,.97,.47,1.57c-.43,1.96-1.05,3.74-1.87,5.35-.81,1.61-1.84,3-3.09,4.16-1.25,1.16-2.73,2.07-4.46,2.71-1.73,.65-3.72,.97-5.98,.97-1.69,0-3.06-.36-4.11-1.07-1.05-.71-1.84-1.7-2.39-2.96-.55-1.26-.9-2.74-1.05-4.43-.15-1.69-.17-3.51-.05-5.45,.12-1.94,.31-3.96,.6-6.05,.28-2.09,.59-4.17,.92-6.23-.4,.03-.82,.03-1.27,0-.45-.03-.87-.03-1.27,0Z"/>
  <path class="cls-1" d="M263.37,44.42c-.33,.56-.81,.87-1.42,.92-.61,.05-1.21-.05-1.79-.3-.58-.25-1.07-.59-1.47-1.02s-.51-.85-.35-1.25c.23-.56,.53-1.29,.9-2.19,.37-.9,.81-2.2,1.34-3.91,.53-1.71,1.14-3.97,1.82-6.77,.68-2.81,1.45-6.38,2.32-10.73,.13-1.06,.51-1.83,1.12-2.29,.61-.46,1.29-.66,2.02-.6,.43,.03,.85,.14,1.25,.32,.4,.18,.74,.45,1.02,.8,.28,.35,.49,.76,.62,1.25,.13,.48,.13,1.02,0,1.62,.6,.7,1.19,1.29,1.77,1.77s1.2,.89,1.84,1.22c.65,.33,1.34,.62,2.09,.87,.75,.25,1.6,.51,2.56,.77,.66,.43,1.1,.86,1.29,1.29,.2,.43,.27,.89,.2,1.37-.07,.48-.22,1-.45,1.54-.23,.55-.45,1.14-.65,1.77-.1,.37-.22,.9-.35,1.59-.13,.7-.24,1.47-.32,2.32-.08,.85-.14,1.72-.17,2.61-.03,.9,0,1.72,.08,2.47,.08,.75,.24,1.38,.47,1.89,.23,.51,.56,.8,1,.87,1.39,.27,2.71-.56,3.93-2.49,1.23-1.92,2.41-5.08,3.54-9.46,.17-.8,.52-1.33,1.07-1.59,.55-.27,1.11-.35,1.69-.25s1.08,.35,1.49,.75,.56,.88,.42,1.44c-.2,1.23-.5,2.59-.9,4.08s-.92,2.98-1.57,4.46c-.65,1.48-1.42,2.87-2.32,4.18-.9,1.31-1.94,2.38-3.14,3.21-.9,.63-1.87,1.04-2.91,1.22-1.05,.18-2.07,.13-3.06-.15-1-.28-1.9-.78-2.71-1.49-.81-.71-1.4-1.64-1.77-2.76-.76-2.29-1.08-4.64-.95-7.05,.13-2.41,.5-4.81,1.1-7.2-.76-.33-1.61-.69-2.54-1.07-.93-.38-1.73-.82-2.39-1.32-1.16,3.65-2.08,6.56-2.74,8.72-.67,2.16-1.2,3.83-1.59,5.03s-.69,2.03-.87,2.49c-.18,.47-.36,.81-.52,1.05Z"/>
  <path class="cls-1" d="M303.26,14.79c1.53-.5,2.86-.6,4.01-.3,1.14,.3,2.1,.88,2.86,1.74,.76,.86,1.37,1.93,1.82,3.21,.45,1.28,.75,2.63,.92,4.06,.07,.67,.11,1.39,.12,2.19s0,1.59-.05,2.39c-.05,.8-.12,1.56-.2,2.29-.08,.73-.19,1.39-.32,1.99,.8-.03,1.51-.14,2.14-.32,.63-.18,1.21-.4,1.74-.65,.53-.25,1.04-.52,1.52-.82,.48-.3,.97-.58,1.47-.85,.63-.33,1.15-.37,1.57-.12,.42,.25,.7,.62,.85,1.12,.15,.5,.18,1.04,.1,1.62-.08,.58-.31,1.04-.67,1.37-1.59,1.46-3.34,2.51-5.23,3.16-1.89,.65-3.82,.97-5.78,.97-1.29,2.29-2.96,4.03-4.98,5.21-2.03,1.18-4.23,1.78-6.62,1.82-2.22,.03-4.1-.42-5.63-1.34-1.53-.93-2.74-2.14-3.64-3.64s-1.49-3.2-1.77-5.1-.28-3.84,0-5.78c.28-1.94,.85-3.84,1.69-5.68,.85-1.84,1.93-3.44,3.26-4.81,1.33-1.36,2.9-2.4,4.71-3.11,1.81-.71,3.84-.92,6.1-.62Zm-3.59,5.73c-1.06,.23-2.04,.82-2.94,1.77-.9,.95-1.66,2.08-2.29,3.39-.63,1.31-1.08,2.73-1.34,4.26-.27,1.53-.29,2.96-.07,4.31,.21,1.35,.72,2.52,1.52,3.51s1.94,1.64,3.44,1.94c.53,.1,1.13,.05,1.79-.15,.66-.2,1.31-.5,1.94-.9,.63-.4,1.2-.87,1.72-1.42,.51-.55,.9-1.1,1.17-1.67-.93-.56-1.72-1.25-2.37-2.04-.65-.8-1.2-1.68-1.67-2.64-.73-1.59-1.16-3.29-1.29-5.11-.13-1.81,0-3.56,.4-5.25Zm6.18,.25c-.93,.57-1.45,1.35-1.57,2.37-.12,1.01-.03,2.04,.27,3.09,.3,1.04,.71,1.98,1.25,2.81,.53,.83,.98,1.34,1.34,1.54,.2-.17,.36-.56,.47-1.17s.19-1.32,.22-2.12c.03-.8,.02-1.63-.05-2.49-.07-.86-.18-1.63-.35-2.29-.17-.66-.38-1.17-.65-1.52-.27-.35-.58-.42-.95-.22Z"/>
  <path class="cls-1" d="M316.06,41.33c-.8,.5-1.54,.72-2.22,.67-.68-.05-1.23-.28-1.64-.7-.42-.41-.66-.99-.72-1.72-.07-.73,.13-1.51,.6-2.34,.86-1.39,1.83-2.97,2.91-4.73,1.08-1.76,2.17-3.59,3.29-5.48,1.11-1.89,2.22-3.79,3.34-5.68s2.15-3.65,3.11-5.28c.33-.6,.83-1.05,1.49-1.34,.66-.3,1.32-.42,1.97-.37,.65,.05,1.21,.29,1.69,.72,.48,.43,.72,1.08,.72,1.94,0,.53-.08,1.07-.25,1.62-.17,.55-.17,1.09,0,1.62,.4,1.33,.83,2.93,1.29,4.81,.46,1.88,.83,3.86,1.1,5.95,.1,.8,.17,1.66,.22,2.59,.05,.93,.07,1.86,.05,2.79-.02,.93-.08,1.83-.17,2.71-.1,.88-.23,1.65-.4,2.32,.86-.4,1.63-.9,2.29-1.49,.66-.6,1.29-1.34,1.89-2.24s1.19-1.97,1.77-3.21c.58-1.25,1.2-2.71,1.87-4.41,.33-.86,.8-1.37,1.42-1.52,.61-.15,1.21-.1,1.79,.15,.58,.25,1.06,.63,1.44,1.14,.38,.52,.51,1,.37,1.47-.3,1.03-.73,2.2-1.29,3.51-.57,1.31-1.28,2.63-2.14,3.96-.57,.86-1.17,1.71-1.82,2.54-.65,.83-1.34,1.59-2.09,2.29-.75,.7-1.55,1.31-2.42,1.84-.86,.53-1.76,.95-2.69,1.25-1.43,.56-2.88,.86-4.36,.9-1.48,.03-2.91-.15-4.31-.55-1.63-.47-3.11-1.2-4.46-2.22-1.34-1.01-2.45-2.3-3.31-3.86l-.35,.35Zm9.76-15.94c-.47,.76-.91,1.53-1.34,2.29-.43,.76-.86,1.53-1.29,2.29-.43,.8-.87,1.6-1.32,2.42-.45,.81-.96,1.67-1.52,2.56,.17,.4,.42,.93,.75,1.59,.33,.67,.76,1.33,1.29,1.99,.46,.6,.99,1.15,1.57,1.64,.58,.5,1.2,.83,1.87,1,.27-.4,.46-.9,.6-1.49,.13-.6,.22-1.27,.27-2.02,.05-.75,.06-1.54,.03-2.39-.03-.85-.08-1.7-.15-2.57-.1-1.43-.23-2.8-.4-4.11-.17-1.31-.28-2.38-.35-3.21Z"/>
</svg>