<?xml version="1.0" encoding="UTF-8"?>
<svg id="Capa_1" data-name="Capa 1" xmlns="http://www.w3.org/2000/svg" viewBox="0 0 115 115.03">
  <defs>
    <style>
      .cls-1 {
        fill: #fcc660;
      }
    </style>
  </defs>
  <path class="cls-1" d="M53.89,0c2.4,0,4.79,0,7.19,0,.29,.06,.57,.16,.86,.18,8.96,.67,17.34,3.24,24.98,7.94,14.85,9.14,23.99,22.29,27.19,39.48,.39,2.09,.59,4.21,.88,6.32v7.19c-.17,1.37-.31,2.74-.51,4.11-2.27,15.44-9.46,28.11-21.78,37.69-12.63,9.83-27.06,13.64-42.91,11.58-13.55-1.77-25.1-7.75-34.35-17.81C3.22,83.39-1.71,67.63,.52,49.74c1.43-11.48,6.16-21.59,13.85-30.24C23.3,9.44,34.41,3.18,47.69,.87,49.75,.51,51.82,.29,53.89,0Zm5.1,24.73c0,.6,0,1.08,0,1.56,0,14.22-.01,28.45-.02,42.67,0,.64-.01,1.27-.07,1.91-.46,4.99-4.55,8.78-9.51,8.86-4.94,.08-9.17-3.61-9.82-8.56-.64-4.85,2.62-9.55,7.55-10.55,1.63-.33,3.39-.05,5.11-.05v-10.93c-2.33,.14-4.59,.07-6.77,.45-11.37,2.02-18.83,13.07-16.38,24.11,2.55,11.43,14.01,18.47,25.26,15.5,9.32-2.46,15.45-10.36,15.45-19.99,0-7.37-.05-14.75-.07-22.12,0-.4,0-.79,0-1.41,5.07,3.66,10.46,5.62,16.53,5.58v-10.61c-4.54-.17-8.41-1.69-11.6-4.84-3.21-3.17-4.77-7.07-4.97-11.57h-10.67Z"/>
</svg>