<?xml version="1.0" encoding="utf-8"?>
<!-- Generator: Adobe Illustrator 26.5.0, SVG Export Plug-In . SVG Version: 6.00 Build 0)  -->
<svg version="1.1" id="Capa_1" xmlns="http://www.w3.org/2000/svg" xmlns:xlink="http://www.w3.org/1999/xlink" x="0px" y="0px"
	 viewBox="0 0 800 250" style="enable-background:new 0 0 800 250;" xml:space="preserve">
<style type="text/css">
	.st0{fill:#FFFFFF;}
</style>
<g>
	<path class="st0" d="M19.8,73.6c5.4,0,9.9-4.4,9.9-9.9c0-5.5-4.4-9.9-9.9-9.9c-5.4,0-9.8,4.4-9.8,9.9C10,69.2,14.4,73.6,19.8,73.6"
		/>
	<path class="st0" d="M780.2,151.1c5.4,0,9.8-4.4,9.8-9.9c0-5.5-4.4-9.9-9.8-9.9c-5.4,0-9.8,4.4-9.8,9.9
		C770.4,146.7,774.8,151.1,780.2,151.1"/>
	<path class="st0" d="M315.1,91.2L315.1,91.2c0-11.1-3.9-20.4-10.8-26.7l-0.5-0.4l-0.1-0.1h0c-6.5-5.6-15.4-8.6-25.9-8.7h-0.2h-0.3
		h-0.1c-0.3,0-0.5,0-0.7,0c-0.1,0-0.3,0-0.5,0l-0.2,0c-0.1,0-0.2,0-0.3,0h0h-0.1h-0.2c-10.5,0.1-19.3,3.1-25.8,8.7l-0.6,0.5
		c-6.9,6.3-10.7,15.5-10.8,26.5h0v0.1l0,56.8c0,0.8,0.3,1.5,0.9,2c0.6,0.5,1.4,0.9,2.2,0.9H251c0.8,0,1.6-0.3,2.2-0.9
		c0.6-0.5,0.9-1.3,0.9-2l0-54.8c0-8.1,2.1-13.8,5.8-17.5c3.6-3.7,9.1-5.7,16.6-5.9c7.5,0.1,12.9,2.2,16.5,5.9
		c3.7,3.7,5.8,9.4,5.8,17.5v54.8c0,0.8,0.3,1.5,0.9,2c0.6,0.5,1.4,0.9,2.2,0.9h10.1c0.7,0,1.6-0.3,2.1-0.9c0.6-0.5,0.9-1.3,0.9-2
		L315.1,91.2z"/>
	<path class="st0" d="M667.4,91.2L667.4,91.2c0-11.1-3.9-20.4-10.8-26.7l-0.5-0.4L656,64c-6.6-5.6-15.4-8.6-25.9-8.7h-0.2h-0.3h-0.1
		c-0.3,0-0.5,0-0.7,0c-0.1,0-0.3,0-0.5,0l-0.2,0c-0.1,0-0.2,0-0.3,0h0h-0.1h-0.2c-10.5,0.1-19.3,3.1-25.8,8.7h0l-0.6,0.5
		c-6.9,6.3-10.7,15.5-10.8,26.5v0.1l-0.1,56.8c0,0.8,0.3,1.5,0.9,2c0.6,0.5,1.4,0.9,2.2,0.9h10.1c0.8,0,1.6-0.3,2.2-0.9
		c0.6-0.5,0.9-1.3,0.9-2l0.1-54.8c0-8.1,2.1-13.8,5.8-17.5c3.5-3.7,9-5.7,16.6-5.9c7.5,0.1,13,2.2,16.5,5.9
		c3.7,3.7,5.7,9.4,5.8,17.5v54.8c0,0.8,0.3,1.5,0.9,2c0.6,0.5,1.4,0.9,2.2,0.9h10.1c0.8,0,1.6-0.3,2.1-0.9c0.6-0.5,0.9-1.3,0.9-2
		L667.4,91.2z"/>
	<path class="st0" d="M481.4,65c-0.1-0.1-0.1-0.1-0.2-0.2c-5.8-5.3-15-8.6-25.6-8.6h-0.6c-8.7,0-17.4,1.8-24.9,8.3v-5.7h0V30.2
		c0-0.7-0.3-1.5-0.9-2c-0.6-0.6-1.4-0.9-2.1-0.9h-10c-0.8,0-1.6,0.3-2.2,0.9c-0.6,0.5-0.9,1.3-0.9,2v28.6v60.8V148
		c0,0.8,0.3,1.5,0.9,2c0.6,0.5,1.4,0.8,2.2,0.8h10c0.8,0,1.6-0.3,2.1-0.8c0.6-0.5,0.9-1.3,0.9-2v-5.9c6.7,7.4,16.2,10,24.9,10h0.6
		c10.7,0,19.9-3.3,25.6-8.6c10.7-10.2,13.2-25.8,13.2-40.2C494.5,88.9,492,75.1,481.4,65 M478.4,103.3v0.2v0v0.2
		c0,9-1,17.9-4.4,24.2c-3.4,6.1-8.8,10.1-19.4,10.3c-0.1,0-0.2,0-0.4,0h-0.2c-10.6-0.1-16.1-4.2-19.5-10.3
		c-3.5-6.3-4.4-15.3-4.4-24.3V103c0-9,1-16.3,4.4-22.6c3.4-6.2,8.9-10.2,19.5-10.3h0.1h0.2h0.2c10.6,0.1,16.1,4.1,19.5,10.3
		c3.5,6.3,4.4,13.6,4.4,22.6V103.3z"/>
	<path class="st0" d="M226.6,87L226.6,87c0-9.7-3.2-17.9-9.9-23.4c-6.8-5.5-16.4-8.2-29-8.2h-0.4h-0.2c-13.1,0-23.6,2.8-31.5,11.2
		l0,0l-0.5,0.6c-0.6,0.7-1.2,1.3-1.8,2c0,0,0,0,0,0l-0.8,0.9c-0.5,0.6-0.8,1.3-0.6,2.2c0.1,0.8,0.5,1.5,1.1,2l0.4,0.4
		c0.2,0.2,0.4,0.4,0.6,0.6l1.8,1.5l4.7,4.1c0.6,0.5,1.4,0.8,2.2,0.8c0.8,0,1.5-0.4,2-1l3-3.6v0c1.9-2,3.8-3.5,6.2-4.5
		c3.3-1.5,7.6-2.1,13.7-2.2l0.1,0h0.2c8.8,0,14.2,1.8,17.3,4.5c3.1,2.7,4.7,6.7,4.7,13.1v0.3v5.9H184c-10.5,0.1-19.2,2.4-25.5,7.3
		c-6.3,4.8-9.8,12.2-9.8,20.9v0.3c0,7.2,2.7,14.3,7.7,19.2c6.6,6.5,15.5,8.9,28.8,8.9h0.1h6.7c12.2,0,21-3,26.7-9.1
		c5.6-6.1,7.9-14.9,7.9-25.9V87.1V87z M209.9,116.2c0,7.6-1.7,11.8-3.9,13.8c-5.4,5-12,5.7-20.2,5.7h-0.1h-0.2
		c-7.8,0-12.9-1.3-15.9-3.5c-2.8-2-4.2-4.8-4.3-9.8v-0.2c0-4.9,1.5-7.9,4.3-10.1c2.9-2.2,7.8-3.7,15.2-3.7h0.1h24.8V116.2z"/>
	<path class="st0" d="M579,87.1L579,87.1c0-9.7-3.2-17.9-9.9-23.4c-6.7-5.6-16.5-8.2-29-8.2h-0.4h-0.2c-13.1,0-23.5,2.8-31.5,11.2h0
		l-0.4,0.5c-0.6,0.7-1.2,1.3-1.8,2.1c0,0,0,0,0,0l-0.8,1c-0.5,0.6-0.8,1.3-0.6,2.1c0.1,0.8,0.5,1.5,1.1,2.1l0.5,0.4
		c0.2,0.2,0.4,0.4,0.6,0.6l1.8,1.4L513,81c0.6,0.5,1.4,0.8,2.1,0.8c0.8,0,1.5-0.4,2-1l3-3.6c1.9-2.1,3.8-3.5,6.2-4.5
		c3.3-1.5,7.6-2.2,13.7-2.2h0.1l0.2,0c8.8,0,14.1,1.8,17.3,4.5c3.1,2.7,4.7,6.7,4.7,13.1c0,0,0,0.2,0,0.3v5.9h-25.9
		c-10.5,0-19.2,2.4-25.5,7.3c-6.3,4.8-9.8,12.2-9.8,20.8v0.3c0,7.2,2.7,14.2,7.6,19.1c6.6,6.5,15.5,8.9,28.8,8.9h0.2h6.7
		c12.3,0,21-3,26.6-9.1c5.7-6.1,7.9-14.9,7.9-25.9V87.3V87.1z M517.8,122.6v-0.2c0.1-4.9,1.5-7.9,4.3-10.1c2.9-2.2,7.9-3.7,15.3-3.7
		h0.1h24.8v7.7c0,7.6-1.7,11.8-4,13.8c-5.4,4.9-12,5.7-20.2,5.7h-0.1H538c-7.9,0-12.9-1.3-15.9-3.5
		C519.3,130.4,517.9,127.5,517.8,122.6"/>
	<path class="st0" d="M70.8,55.7H53.8V38.4V30c0-1.5-1.3-2.7-2.9-2.7H40.5c-0.8,0-1.5,0.3-2.1,0.8c-0.6,0.5-0.9,1.2-0.9,1.9v15.4
		v81.1c0,6.6,1.9,12.5,6.1,17c4,4.4,10.4,7.1,17.9,7.1h0h5v-0.1h4.3c0.8,0,1.5-0.3,2-0.9c0.5-0.6,0.8-1.3,0.8-2.2v-10
		c0-0.8-0.3-1.6-0.8-2.1c-0.6-0.6-1.3-0.9-2-0.9h-7.9c-1.6-0.1-2.9-0.3-4-0.7c-0.8-0.3-1.2-0.5-1.6-0.8c-0.5-0.3-0.7-0.5-1.2-0.9
		c-1.5-1.6-2.4-4.2-2.4-7.9V71.9h17.1c0.8,0,1.5-0.3,2-0.9c0.5-0.6,0.8-1.4,0.8-2.2v-10c0-0.8-0.3-1.6-0.8-2.2
		C72.3,56,71.6,55.7,70.8,55.7"/>
	<path class="st0" d="M144.5,67.5l-1-1.1c0-0.1-0.1-0.2-0.2-0.4l-0.6-0.6h0l-0.8-0.8l-0.7-0.7l0,0c-5.8-6.1-13-8.7-20.8-8.7H120
		c-5.5,0-11.9,2.5-15.8,7.2l-2.7,3.2v-1.3v-5.7c0-0.8-0.3-1.5-0.9-2c-0.6-0.5-1.4-0.8-2.1-0.8h-10c-0.8,0-1.6,0.3-2.1,0.8
		c-0.6,0.5-0.9,1.3-0.9,2v5.7v83.6c0,0.8,0.3,1.5,0.9,2c0.6,0.6,1.4,0.8,2.1,0.8h1.7c0.1,0,0.1,0,0.2,0h6.3c0.1,0,0.1,0,0.2,0h1.6
		c0.8,0,1.6-0.3,2.1-0.8c0.6-0.5,0.9-1.3,0.9-2v-1.6l0,0v-53c0-0.1,0-0.2,0-0.2v-4.3c0.3-4.9,1.9-9.4,4.5-12.6
		c2.7-3.4,6.8-5.7,12.2-5.7c2.9,0,4.8,0.4,6.4,1c1.5,0.7,3.2,1.9,5.3,4.1l0.5,0.5l2.1,2.4c0.5,0.6,1.3,0.9,2.1,0.9
		c0.8,0,1.6-0.3,2.2-0.8l7.5-6.8c0.6-0.5,1-1.3,1-2.1C145.3,68.9,145,68.1,144.5,67.5"/>
	<path class="st0" d="M395.3,101.9C395.2,101.9,395.2,101.8,395.3,101.9l-0.1-0.1c-5.8-4.1-13.2-5.5-21.1-6.1l-14.8-1.3
		c-6.2-0.5-10-1.8-12.2-3.5c-1.9-1.5-3.1-3.8-3.1-7.3v-0.1v-0.2c0-4.2,1.7-7.3,4.6-9.4c3.1-2.3,8.1-3.7,15.1-3.7h0.1
		c9,0,16.4,2.1,22.6,6.1h0L390,79c0.6,0.4,1.4,0.6,2.1,0.4c0.7-0.2,1.4-0.6,1.9-1.3l5.6-8.1c0.4-0.6,0.6-1.4,0.5-2.2
		c-0.1-0.4-0.2-0.8-0.4-1.1c-0.2-0.4-0.5-0.7-0.9-1l-0.6-0.4c-8.9-6.3-21.2-9.9-34.6-9.9c-10.6,0-19.7,2.5-26.3,7.5
		c-6.6,4.8-10.4,12.1-10.4,20.5v0.1v0v0.3c0,7.3,2.7,13.8,8.1,18.2c5.5,4.5,13.2,6.9,23,7.7l15.3,1.2c5.6,0.5,9.1,1.8,11.1,3.5
		c1.8,1.5,2.9,3.8,2.9,7.5v0.2l0,0c0,4.7-1.9,7.9-5.4,10.1c-3.7,2.4-9.8,3.8-18.3,3.8h0h-0.1h-0.1c-11.2,0-19.1-2.6-25.3-7.7
		l-3.3-2.8c-0.6-0.5-1.4-0.7-2.1-0.6c-0.7,0.1-1.5,0.5-2,1.1l-6.4,7.7c-0.5,0.6-0.8,1.4-0.7,2.2c0,0.8,0.4,1.5,1,2l3,2.6v0
		c0.1,0,0.1,0.1,0.2,0.1l0.4,0.3l0.1-0.1c9.4,6.8,21.1,10.1,35.4,10.1h0.3c11.8,0,21.8-2.6,29.1-7.6c7.2-5,11.5-12.6,11.5-21.5v-0.4
		C404.4,112.6,401,105.9,395.3,101.9"/>
	<path class="st0" d="M761.8,146.8l-12.5-17.6l-25-36.5l19.4-20.6l11.3-11.9l0.7-0.8c1.3-1.3,0.7-2.7,0.1-3.2
		c-0.6-0.6-1.3-0.9-2.2-0.9h-12.9c-0.8,0-1.8,0.6-2.4,1.1l0,0l-43.5,46.4V64.1V29.9c0-0.8-0.3-1.5-0.9-2c-0.5-0.5-1.3-0.8-2.1-0.8
		h-10c-0.8,0-1.6,0.3-2.2,0.8c-0.6,0.5-0.9,1.3-0.9,2v34.3v83.8c0,0.8,0.3,1.5,0.9,2c0.6,0.5,1.3,0.8,2.2,0.8h10
		c0.8,0,1.6-0.3,2.1-0.8c0.6-0.5,0.9-1.3,0.9-2v-23.8l18.8-20.5l12.7,19h0l17.9,26.7c0.4,0.6,1.1,1.6,2.5,1.6h13
		c0.8,0,1.6-0.3,2.2-0.9C762.5,149.5,762.9,148.1,761.8,146.8"/>
	<g>
		<path class="st0" d="M327.6,191.9c1.6-4.8,5.6-7.4,10.9-7.4c4.2,0,7.4,1.8,9.4,4.7c0.2,0.3,0.2,0.5-0.2,0.8l-2.5,2.1
			c-0.3,0.2-0.6,0.2-0.8-0.1c-1.6-2-3.2-3-5.9-3c-3,0-5.2,1.4-6.1,4.3c-0.5,1.4-0.6,3.2-0.6,5.6c0,2.5,0.2,4.2,0.6,5.6
			c0.9,2.9,3.2,4.3,6.1,4.3c2.8,0,4.3-1,5.9-3c0.2-0.3,0.5-0.3,0.8-0.1l2.5,2.1c0.3,0.3,0.3,0.5,0.2,0.8c-2,2.9-5.2,4.7-9.4,4.7
			c-5.3,0-9.3-2.6-10.9-7.4c-0.5-1.7-0.9-3.9-0.9-7C326.7,195.8,327,193.6,327.6,191.9z"/>
		<path class="st0" d="M358.3,212.7c-0.3,0-0.6-0.2-0.6-0.6v-26.4c0-0.3,0.2-0.6,0.6-0.6h3.7c0.3,0,0.6,0.2,0.6,0.6v2.8h0.1
			c1.2-2.4,3.6-4,7.3-4c2.2,0,4.2,0.8,5.6,2.1c0.3,0.3,0.3,0.5,0.1,0.8l-2.1,2.8c-0.2,0.3-0.5,0.3-0.8,0.1c-1.3-0.8-2.6-1.3-4.2-1.3
			c-4.2,0-5.9,3.3-5.9,8v15c0,0.3-0.2,0.6-0.6,0.6H358.3z"/>
		<path class="st0" d="M381.8,205.8c-0.6-1.8-0.9-3.8-0.9-6.9c0-3.2,0.3-5.3,0.9-6.9c1.6-4.8,5.6-7.4,10.8-7.4
			c5.3,0,9.2,2.7,10.8,7.4c0.6,1.8,0.9,3.7,0.9,7.9c0,0.3-0.2,0.6-0.6,0.6h-17.4c-0.2,0-0.3,0.1-0.3,0.3c0,1.5,0.2,2.4,0.5,3.3
			c1.1,3.2,3.6,4.8,6.9,4.8c3.3,0,5.6-1.3,7.1-3c0.3-0.3,0.6-0.3,0.9-0.1l2.4,2.1c0.3,0.2,0.3,0.5,0.1,0.8
			c-2.2,2.8-5.9,4.7-10.7,4.7C387.3,213.3,383.3,210.6,381.8,205.8z M398.9,196.5c0.2,0,0.3-0.1,0.3-0.3c0-1.3-0.1-2.2-0.4-3.1
			c-0.9-2.8-3.2-4.3-6.3-4.3s-5.4,1.6-6.3,4.3c-0.3,0.9-0.4,1.8-0.4,3.1c0,0.2,0.1,0.3,0.3,0.3H398.9z"/>
		<path class="st0" d="M413.5,191.9c1.6-4.8,5.6-7.4,10.9-7.4c4.2,0,7.4,1.8,9.4,4.7c0.2,0.3,0.2,0.5-0.2,0.8L431,192
			c-0.3,0.2-0.6,0.2-0.8-0.1c-1.6-2-3.2-3-5.9-3c-3,0-5.2,1.4-6.1,4.3c-0.5,1.4-0.6,3.2-0.6,5.6c0,2.5,0.2,4.2,0.6,5.6
			c0.9,2.9,3.2,4.3,6.1,4.3c2.8,0,4.3-1,5.9-3c0.2-0.3,0.5-0.3,0.8-0.1l2.5,2.1c0.3,0.3,0.3,0.5,0.2,0.8c-2,2.9-5.2,4.7-9.4,4.7
			c-5.3,0-9.3-2.6-10.9-7.4c-0.5-1.7-0.9-3.9-0.9-7C412.6,195.8,412.9,193.6,413.5,191.9z"/>
		<path class="st0" d="M444.1,179c-0.3,0-0.6-0.2-0.6-0.6v-4.2c0-0.3,0.2-0.6,0.6-0.6h3.9c0.3,0,0.6,0.2,0.6,0.6v4.2
			c0,0.3-0.2,0.6-0.6,0.6H444.1z M444.2,212.7c-0.3,0-0.6-0.2-0.6-0.6v-26.4c0-0.3,0.2-0.6,0.6-0.6h3.7c0.3,0,0.6,0.2,0.6,0.6v26.4
			c0,0.3-0.2,0.6-0.6,0.6H444.2z"/>
		<path class="st0" d="M459.4,205.8c-0.6-1.8-0.9-3.8-0.9-6.9c0-3.2,0.3-5.3,0.9-6.9c1.6-4.8,5.6-7.4,10.8-7.4
			c5.3,0,9.2,2.7,10.8,7.4c0.6,1.8,0.9,3.7,0.9,7.9c0,0.3-0.2,0.6-0.6,0.6h-17.4c-0.2,0-0.3,0.1-0.3,0.3c0,1.5,0.2,2.4,0.5,3.3
			c1.1,3.2,3.6,4.8,6.9,4.8c3.3,0,5.6-1.3,7.1-3c0.3-0.3,0.6-0.3,0.9-0.1l2.4,2.1c0.3,0.2,0.3,0.5,0.1,0.8
			c-2.2,2.8-5.9,4.7-10.7,4.7C464.9,213.3,460.9,210.6,459.4,205.8z M476.5,196.5c0.2,0,0.3-0.1,0.3-0.3c0-1.3-0.1-2.2-0.4-3.1
			c-0.9-2.8-3.2-4.3-6.3-4.3s-5.4,1.6-6.3,4.3c-0.3,0.9-0.4,1.8-0.4,3.1c0,0.2,0.1,0.3,0.3,0.3H476.5z"/>
		<path class="st0" d="M509.7,212.7c-0.3,0-0.6-0.2-0.6-0.6V196c0-4.4-2-7-6.1-7c-3.7,0-6.3,2.6-6.3,6.7v16.4c0,0.3-0.2,0.6-0.6,0.6
			h-3.7c-0.3,0-0.6-0.2-0.6-0.6v-26.4c0-0.3,0.2-0.6,0.6-0.6h3.7c0.3,0,0.6,0.2,0.6,0.6v2.5h0.1c1.3-2.1,4-3.7,7.7-3.7
			c6,0,9.5,4.1,9.5,10.3v17.2c0,0.3-0.2,0.6-0.6,0.6H509.7z"/>
		<path class="st0" d="M542.6,212.7c-0.3,0-0.6-0.2-0.6-0.6v-2.6H542c-1.3,2.2-3.7,3.8-7.8,3.8c-4.8,0-8.1-2.2-9.5-6.6
			c-0.7-2.2-1-4.4-1-7.8c0-3.4,0.2-5.6,1-7.8c1.4-4.4,4.7-6.6,9.5-6.6c4.1,0,6.5,1.6,7.8,3.8h0.1v-14.1c0-0.3,0.2-0.6,0.6-0.6h3.7
			c0.3,0,0.6,0.2,0.6,0.6v37.9c0,0.3-0.2,0.6-0.6,0.6H542.6z M541.4,204.6c0.5-1.3,0.6-3,0.6-5.7c0-2.8-0.2-4.4-0.6-5.7
			c-0.9-2.8-3-4.1-6.1-4.1c-3,0-5.1,1.4-6,4.1c-0.5,1.5-0.6,3.3-0.6,5.7c0,2.5,0.2,4.3,0.6,5.7c0.9,2.7,3,4.2,6,4.2
			C538.4,208.8,540.5,207.4,541.4,204.6z"/>
		<path class="st0" d="M557.8,205.9c-0.6-1.9-0.9-3.8-0.9-7c0-3.2,0.3-5.1,0.9-6.9c1.5-4.7,5.5-7.4,10.9-7.4s9.4,2.7,10.9,7.4
			c0.6,1.9,0.9,3.8,0.9,6.9c0,3.2-0.3,5.1-0.9,7c-1.5,4.7-5.5,7.4-10.9,7.4S559.3,210.5,557.8,205.9z M574.9,204.5
			c0.5-1.5,0.6-3,0.6-5.6c0-2.6-0.2-4.1-0.6-5.6c-0.9-2.8-3.2-4.3-6.2-4.3c-3,0-5.3,1.6-6.2,4.3c-0.5,1.5-0.6,2.9-0.6,5.6
			c0,2.6,0.2,4.1,0.6,5.6c0.9,2.8,3.2,4.3,6.2,4.3C571.7,208.8,574,207.3,574.9,204.5z"/>
		<path class="st0" d="M602,223c-0.3,0-0.6-0.2-0.6-0.6v-3.3c0-0.3,0.2-0.6,0.6-0.6h0.9c2.7,0,3.6-0.7,3.6-3.7v-29.1
			c0-0.3,0.2-0.6,0.6-0.6h3.7c0.3,0,0.6,0.2,0.6,0.6v29c0,5.9-2.6,8.3-8.2,8.3H602z M607,179c-0.3,0-0.6-0.2-0.6-0.6v-4.2
			c0-0.3,0.2-0.6,0.6-0.6h3.9c0.3,0,0.6,0.2,0.6,0.6v4.2c0,0.3-0.2,0.6-0.6,0.6H607z"/>
		<path class="st0" d="M640.4,212.7c-0.3,0-0.6-0.2-0.6-0.6v-2.6h-0.1c-1.4,2.3-4,3.8-7.5,3.8c-6,0-9.5-4.1-9.5-10.4v-17.2
			c0-0.3,0.2-0.6,0.6-0.6h3.7c0.3,0,0.6,0.2,0.6,0.6v16c0,4.5,2,7.1,6.1,7.1c3.7,0,6.2-2.6,6.2-6.8v-16.3c0-0.3,0.2-0.6,0.6-0.6h3.7
			c0.3,0,0.6,0.2,0.6,0.6v26.4c0,0.3-0.2,0.6-0.6,0.6H640.4z"/>
		<path class="st0" d="M674.2,212.7c-0.3,0-0.6-0.2-0.6-0.6V196c0-4.4-2-7-6.1-7c-3.7,0-6.3,2.6-6.3,6.7v16.4c0,0.3-0.2,0.6-0.6,0.6
			h-3.7c-0.3,0-0.6-0.2-0.6-0.6v-26.4c0-0.3,0.2-0.6,0.6-0.6h3.7c0.3,0,0.6,0.2,0.6,0.6v2.5h0.1c1.3-2.1,4-3.7,7.7-3.7
			c6,0,9.5,4.1,9.5,10.3v17.2c0,0.3-0.2,0.6-0.6,0.6H674.2z"/>
		<path class="st0" d="M697.9,212.9c-5.3,0-7.4-2.4-7.4-7.8v-15.7c0-0.2-0.1-0.3-0.3-0.3h-2.3c-0.3,0-0.6-0.2-0.6-0.6v-2.8
			c0-0.3,0.2-0.6,0.6-0.6h2.3c0.2,0,0.3-0.1,0.3-0.3v-7.8c0-0.3,0.2-0.6,0.6-0.6h3.7c0.3,0,0.6,0.2,0.6,0.6v7.8
			c0,0.2,0.1,0.3,0.3,0.3h4.4c0.3,0,0.6,0.2,0.6,0.6v2.8c0,0.3-0.2,0.6-0.6,0.6h-4.4c-0.2,0-0.3,0.1-0.3,0.3V205
			c0,2.8,1,3.5,3.5,3.5h1.2c0.3,0,0.6,0.2,0.6,0.6v3.3c0,0.3-0.2,0.6-0.6,0.6H697.9z"/>
		<path class="st0" d="M709.6,205.9c-0.6-1.9-0.9-3.8-0.9-7c0-3.2,0.3-5.1,0.9-6.9c1.5-4.7,5.5-7.4,10.9-7.4c5.3,0,9.4,2.7,10.9,7.4
			c0.6,1.9,0.9,3.8,0.9,6.9c0,3.2-0.3,5.1-0.9,7c-1.5,4.7-5.5,7.4-10.9,7.4C715.1,213.3,711.1,210.5,709.6,205.9z M726.6,204.5
			c0.5-1.5,0.6-3,0.6-5.6c0-2.6-0.2-4.1-0.6-5.6c-0.9-2.8-3.2-4.3-6.2-4.3c-3,0-5.3,1.6-6.2,4.3c-0.5,1.5-0.6,2.9-0.6,5.6
			c0,2.6,0.2,4.1,0.6,5.6c0.9,2.8,3.2,4.3,6.2,4.3C723.5,208.8,725.7,207.3,726.6,204.5z"/>
		<path class="st0" d="M740.4,209.2c-0.2-0.2-0.2-0.6,0-0.8l2.4-2.5c0.2-0.2,0.6-0.2,0.8,0c2.1,1.8,5.2,3.2,8.5,3.2c4,0,6-1.7,6-4.2
			c0-2.2-1-3.4-5.3-3.8l-2.9-0.3c-5.4-0.6-8.2-3.3-8.2-7.8c0-5.2,3.7-8.4,10.2-8.4c4,0,7.5,1.3,9.8,3c0.3,0.2,0.3,0.5,0.1,0.8
			l-2,2.5c-0.2,0.3-0.5,0.3-0.8,0.1c-1.8-1.1-4.6-2.2-7.4-2.2c-3.4,0-5.2,1.6-5.2,3.8c0,2.2,1.3,3.3,5.4,3.7l2.9,0.3
			c5.6,0.5,8.3,3.3,8.3,7.8c0,5.4-3.9,9-11.1,9C746.4,213.3,742.6,211.1,740.4,209.2z"/>
	</g>
</g>
</svg>
