<?xml version="1.0" encoding="utf-8"?>
<!-- Generator: Adobe Illustrator 26.5.0, SVG Export Plug-In . SVG Version: 6.00 Build 0)  -->
<svg version="1.1" id="Capa_1" xmlns="http://www.w3.org/2000/svg" xmlns:xlink="http://www.w3.org/1999/xlink" x="0px" y="0px"
	 viewBox="0 0 800 800" style="enable-background:new 0 0 800 800;" xml:space="preserve">
<style type="text/css">
	.st0{fill:#FFFFFF;}
	.st1{fill:#F2AE14;}
</style>
<g>
	<path class="st0" d="M655.9,354.8c-2.8,7.5-7.6,19.7-7.3,19.2c0,0-17.3,44.6-21.8,56.1h45.4c-2.2-10.1-12.7-58-12.7-58L655.9,354.8
		z"/>
	<path class="st0" d="M759,143.6H41c-22.7,0-41,18.4-41,41v430.8c0,22.7,18.4,41,41,41H759c22.7,0,41-18.4,41-41V184.6
		C800,162,781.6,143.6,759,143.6z M168.2,500.9l-49-175.6c34.7,17.4,65.8,52.1,75.8,84.2l5.7,27.8l53.6-136.9v0h58l-86.2,200.4
		L168.2,500.9z M300.7,501.3l34.2-200.8h54.7l-34.2,200.8H300.7z M449.9,503.6c-24.5-0.3-48.2-5.1-61-10.7l7.7-44.9l7.1,3.2
		c18,7.5,29.6,10.5,51.5,10.5c15.7,0,32.6-6.1,32.7-19.6c0.1-8.8-7.1-15.1-28.4-24.9c-20.8-9.6-48.3-25.7-48-54.5
		c0.3-39,38.4-66.3,92.5-66.3c21.2,0,38.2,4.4,49,8.4l-7.4,43.5l-4.9-2.3c-10.1-4.1-23.1-8-41-7.7c-21.4,0-31.3,8.9-31.3,17.3
		c-0.1,9.4,11.6,15.6,30.7,24.9c31.6,14.3,46.2,31.7,45.9,54.6C544.8,476.7,507.4,503.6,449.9,503.6z M687.5,501.1
		c0,0-5-23.1-6.7-30.1c-8,0-63.8-0.1-70.1-0.1c-2.1,5.4-11.5,30.2-11.5,30.2h-57.5l81.3-184c5.8-13.1,15.6-16.7,28.7-16.7H694v0
		l44.3,200.7H687.5z"/>
</g>
<path class="st1" d="M150.7,300.5H62.4l-0.7,4.2c68.7,16.6,114.1,56.8,132.9,105l-19.2-92.3C172.2,304.7,162.6,300.9,150.7,300.5"/>
</svg>
