<?xml version="1.0" encoding="UTF-8"?>
<svg id="Capa_1" data-name="Capa 1" xmlns="http://www.w3.org/2000/svg" viewBox="0 0 115 115.07">
  <defs>
    <style>
      .cls-1 {
        fill: #fcc660;
      }
    </style>
  </defs>
  <path class="cls-1" d="M48.32,30.23c-14.03,6.51-19.89,23.18-12.93,37.14,.9,1.81,1.13,3.43,.65,5.34-.66,2.61-1.13,5.28-1.73,8.2,2.72-.64,5.2-1.1,7.6-1.84,2.19-.67,4.04-.4,6.13,.6,18.08,8.69,38.9-4.29,39.14-24.32,.24-20.12-20.6-33.6-38.86-25.13Zm29.64,36.61c-3.15,4.92-7.37,6.38-13.51,4.59-5.87-1.71-10.46-5.41-14.67-9.66-2.6-2.62-4.95-5.47-6.29-8.95-.73-1.9-1.11-3.93-1.65-5.91,.26-3.84,2.43-6.32,5.22-8.36,1.15-.84,2.72-.32,3.37,1.04,1.08,2.23,2.11,4.48,2.96,6.81,.25,.69-.09,1.68-.39,2.44-.26,.66-.87,1.17-1.3,1.76-.73,1-.78,2.05-.04,3.06,3,4.1,6.72,7.39,11.16,9.85,1.17,.65,2.36,.48,3.1-.56,1.83-2.58,4.08-2.69,6.75-1.57,1.18,.49,2.46,.72,3.69,1.1,2.25,.69,2.87,2.39,1.61,4.36Z"/>
  <path class="cls-1" d="M71.36,1.74C40.2-6.16,8.22,13.69,1.37,45.24c-.55,2.55-.78,5.17-1.17,7.76-.05,.33-.13,.65-.2,.98v7.19c.3,2.14,.48,4.31,.91,6.42,4.47,21.81,17.15,36.63,38.04,44.36,4.58,1.7,9.35,2.59,14.23,2.94,.25,.02,.49,.12,.74,.18h7.19c2.1-.29,4.22-.53,6.31-.88,23.27-3.96,41.98-22.25,46.49-45.43,5.89-30.28-12.62-59.44-42.55-67.02Zm-8.4,88.11c-6.13,.57-11.97-.48-17.6-2.93-.69-.3-1.61-.38-2.34-.21-5.28,1.18-10.54,2.45-15.82,3.69-1.86,.44-2.52-.18-2.15-2.06,1.1-5.49,2.25-10.96,3.34-16.46,.11-.57,.04-1.28-.2-1.81-9.9-21.55,2.98-45.85,26.37-49.66,1.76-.29,3.56-.33,5.34-.49,17.8,.1,32.76,13.55,34.7,31.29,2.12,19.48-12.11,36.85-31.64,38.65Z"/>
</svg>